<?xml version="1.0" standalone="no"?>
<!DOCTYPE svg PUBLIC "-//W3C//DTD SVG 1.1//EN" "http://www.w3.org/Graphics/SVG/1.1/DTD/svg11.dtd" >
<svg xmlns="http://www.w3.org/2000/svg" xmlns:xlink="http://www.w3.org/1999/xlink" version="1.1">
<metadata></metadata>
<defs>
<font id="nimbus_roman_no9_lbold_italic" horiz-adv-x="1024" >
<font-face units-per-em="2048" ascent="1417" descent="-631" />
<missing-glyph horiz-adv-x="512" />
<glyph unicode="&#xfb01;" horiz-adv-x="1138" d="M-295 -256q0 51 26 81t70 30q47 0 80 -27.5t33 -65.5q0 -30 -27 -69q-10 -13 -10 -21q0 -9 9.5 -14.5t21.5 -5.5q49 0 80.5 57.5t68.5 214.5l211 910h-149l22 86h146q30 111 60.5 178t72.5 119q154 182 430 182q132 0 206 -46.5t74 -129.5q0 -53 -33 -87t-85 -34 q-47 0 -79 28.5t-32 71.5q0 29 23 76q4 12 4 18q0 15 -23 25t-61 10q-128 0 -197 -100q-26 -40 -50 -104t-65 -207l592 24l-196 -715q-17 -61 -17 -71q0 -15 9 -24t24 -9q25 0 53 26.5t70 92.5l14 18l49 -33l-12 -20q-61 -112 -140.5 -173t-164.5 -61q-69 0 -111.5 37 t-42.5 97q0 63 29 165l154 560h-326l-84 -375q-108 -491 -221 -670q-126 -205 -324 -205q-82 0 -132 44t-50 116z" />
<glyph unicode="&#xfb02;" horiz-adv-x="1138" d="M-307 -256q0 48 30.5 79.5t77.5 31.5q43 0 72 -26.5t29 -66.5q0 -28 -27 -69q-10 -13 -10 -21t12 -14t27 -6q55 0 91 60t71 212l210 910h-151l25 86h143q51 195 131 294q153 185 391 185q44 0 168 -17q46 -4 64 -4q39 0 122 13l54 8l-324 -1170q-16 -57 -16 -71 t9.5 -23.5t22.5 -9.5q25 0 58 32t65 87l29 47l55 -31l-32 -51q-72 -120 -146 -177t-160 -57q-69 0 -111 37t-42 97q0 62 28 165l234 846q-41 28 -41 76q0 20 6.5 34.5t30.5 47.5q6 9 6 18q0 15 -19.5 25t-50.5 10q-110 0 -176 -100q-26 -39 -47 -99.5t-61 -211.5h192 l-24 -86h-187l-82 -375q-109 -490 -221 -670q-127 -205 -328 -205q-88 0 -143 44.5t-55 115.5z" />
<glyph unicode="&#xfb03;" horiz-adv-x="1773" d="M-268 -258q0 52 26.5 82.5t71.5 30.5q46 0 78.5 -27.5t32.5 -65.5q0 -27 -27 -69q-10 -13 -10 -21q0 -20 24 -20q42 0 70 45q20 26 33.5 68.5t40.5 158.5l211 910h-150l23 86h145q113 479 473 479q80 0 141.5 -23.5t90.5 -64.5q13 -18 16 -68q83 83 177.5 119.5 t225.5 36.5q129 0 201 -46.5t72 -129.5q0 -52 -32 -86.5t-79 -34.5q-46 0 -77 28.5t-31 71.5q0 33 20 76q4 12 4 18q0 15 -23 25t-61 10q-128 0 -194 -100q-28 -41 -50 -101.5t-65 -209.5l588 12l-193 -703q-18 -57 -18 -69q0 -15 10 -25t25 -10q25 0 50 24.5t73 94.5 l53 -31q-78 -128 -149 -183t-160 -55q-69 0 -111.5 37t-42.5 97q0 50 31 165l153 560h-327l-82 -375q-112 -498 -222 -670q-127 -205 -325 -205q-90 0 -145.5 44t-55.5 116q0 47 31 79t78 32q43 0 71.5 -26.5t28.5 -66.5q0 -32 -27 -69q-10 -13 -10 -21t12 -14t29 -6 q54 0 89.5 60.5t70.5 211.5l211 910h-316l-84 -375q-110 -495 -221 -672q-126 -203 -319 -203q-78 0 -126 43.5t-48 114.5zM547 920h315q41 141 78 213q-15 -3 -27 -3q-44 0 -75 27.5t-31 65.5q0 19 5 32.5t24 42.5q6 6 6 15q0 18 -43 18q-54 0 -91 -24t-65 -78 q-31 -61 -96 -309z" />
<glyph horiz-adv-x="0" />
<glyph horiz-adv-x="682" />
<glyph unicode=" "  horiz-adv-x="512" />
<glyph unicode="&#x09;" horiz-adv-x="512" />
<glyph unicode="&#xa0;" horiz-adv-x="512" />
<glyph unicode="!" horiz-adv-x="796" d="M205 117q0 63 43 106t106 43q59 0 104.5 -45.5t45.5 -105.5t-44 -101t-108 -41q-63 0 -105 41t-42 103zM406 430q93 498 102 717q3 64 7.5 91.5t16.5 53.5q45 94 140 94q64 0 102.5 -41t38.5 -110q0 -39 -11.5 -72.5t-49.5 -103.5q-164 -323 -287 -645z" />
<glyph unicode="&#x22;" horiz-adv-x="1136" d="M342 807l31 434q3 58 50.5 103t106.5 45q38 0 65.5 -30t27.5 -71q0 -27 -21 -76l-8 -18q-4 -8 -4 -10l-164 -377h-84zM868 807l31 434q5 59 52.5 103.5t105.5 44.5q39 0 66.5 -29.5t27.5 -71.5q0 -20 -4 -32.5t-19 -43.5q-12 -27 -12 -28l-164 -377h-84z" />
<glyph unicode="#" d="M2 426l39 147h215l109 273h-195l39 147h213l174 426h156l-170 -426h227l174 426h158l-172 -426h178l-41 -147h-197l-106 -273h176l-41 -147h-197l-170 -426h-157l170 426h-230l-170 -426h-157l170 426h-195zM416 573h227l109 273h-230z" />
<glyph unicode="$" d="M29 174l84 289l45 -12q3 -113 21 -179.5t57 -109t112 -76.5l146 528q-161 123 -215 198.5t-54 178.5q0 157 113.5 262t282.5 105q34 0 75 -4l37 131h101l-39 -146q108 -19 239 -98l37 -29l-84 -270l-43 10q2 20 2 58q0 106 -40 166.5t-132 91.5l-117 -437 q93 -79 134 -119.5t77 -88.5q76 -95 76 -217q0 -170 -140 -291.5t-327 -114.5l-47 2l-55 -205h-105l58 217q-95 23 -157.5 56.5t-141.5 103.5zM426 1098q0 -60 31 -106.5t110 -106.5l111 401q-12 4 -31 4q-101 0 -161 -52t-60 -140zM446 66h33q112 1 178 68.5t66 180.5 q0 74 -29.5 123.5t-113.5 116.5z" />
<glyph unicode="%" horiz-adv-x="1705" d="M240 907q0 186 114.5 323.5t270.5 137.5q114 0 177.5 -71t63.5 -197q0 -122 -54 -229t-145 -170.5t-194 -63.5q-109 0 -171 72t-62 198zM412 768q0 -37 18 -57.5t49 -20.5q57 0 94 72q26 50 74.5 239.5t48.5 237.5q0 34 -18.5 55t-50.5 21q-62 0 -103 -96 q-29 -77 -70.5 -243t-41.5 -208zM467 -16l793 1419h112l-790 -1419h-115zM1028 264q0 117 54 222.5t143 169t188 63.5q111 0 177.5 -72.5t66.5 -195.5q0 -118 -56.5 -225.5t-149.5 -172.5t-194 -65q-105 0 -167 74.5t-62 201.5zM1202 119q0 -34 17 -54t45 -20q30 0 53 18 t45 58q29 59 77 236.5t48 228.5q0 35 -20.5 58.5t-51.5 23.5q-24 0 -46 -15.5t-34 -40.5q-40 -84 -86.5 -255t-46.5 -238z" />
<glyph unicode="&#x26;" horiz-adv-x="1593" d="M82 301q0 145 115 266q54 55 123.5 95.5t244.5 115.5q-22 127 -22 191q0 184 103 298.5t269 114.5q123 0 202 -65t79 -166q0 -102 -89.5 -186.5t-277.5 -161.5q19 -115 66 -237.5t111 -223.5q88 111 118.5 164.5t30.5 95.5q0 34 -25 51.5t-90 26.5v51h430v-51 q-29 -6 -42.5 -8.5t-36.5 -13.5t-33.5 -18t-37.5 -33t-43 -46.5t-56 -71t-71 -93t-93 -126.5q60 -78 112.5 -112.5t110.5 -34.5q41 0 76 18.5t80 63.5l53 -43q-92 -112 -167 -155.5t-175 -43.5q-82 0 -148 29.5t-135 97.5q-102 -70 -192 -99.5t-201 -29.5 q-172 0 -280.5 94.5t-108.5 245.5zM350 387q0 -122 74 -202.5t186 -80.5q84 0 197 58q-87 134 -135.5 249t-89.5 283q-127 -63 -179.5 -132.5t-52.5 -174.5zM786 1077q0 -47 25 -198q120 69 171.5 138.5t51.5 160.5q0 65 -27.5 101t-78.5 36q-69 0 -105.5 -61t-36.5 -177z " />
<glyph unicode="'" horiz-adv-x="569" d="M324 807l30 434q3 58 51 103t107 45q38 0 65 -30t27 -71q0 -30 -20 -76l-9 -18q-4 -8 -4 -10l-163 -377h-84z" />
<glyph unicode="(" horiz-adv-x="681" d="M123 426q0 210 80 393q69 158 179 278.5t339 291.5l37 -41q-124 -113 -190.5 -200.5t-121.5 -209.5q-63 -145 -98 -330t-35 -377q0 -180 31 -297.5t117 -265.5l-45 -30q-157 211 -225 394t-68 394z" />
<glyph unicode=")" horiz-adv-x="681" d="M-18 -322q114 105 171.5 177.5t108.5 173.5q72 150 116 360t44 410q0 178 -32 299.5t-116 259.5l45 31q80 -106 120.5 -173t76.5 -153q98 -236 98 -463q0 -290 -155 -534q-76 -119 -169.5 -209.5t-273.5 -218.5z" />
<glyph unicode="*" d="M197 1112q0 44 30 77.5t70 33.5q35 0 64 -22.5t63 -76.5q35 -56 60.5 -82t70.5 -53l23 -12v24q-5 68 -13.5 98t-40.5 85q-35 58 -35 100q0 47 28 76t75 29q46 0 74 -29t28 -78q0 -40 -35 -98q-31 -56 -39.5 -86.5t-11.5 -96.5v-24l23 12q45 27 70.5 53t60.5 82 q32 54 61 76.5t66 22.5q38 0 69 -34t31 -77q0 -52 -53 -82q-22 -14 -42.5 -18t-64.5 -4q-68 -2 -99.5 -10t-82.5 -37l-22 -13l22 -12q52 -28 82.5 -36t99.5 -9q76 -3 109 -21q53 -29 53 -84q0 -44 -29.5 -76t-70.5 -32q-39 0 -67 21t-60 75q-32 56 -56.5 80t-76.5 53l-23 13 v-25q4 -65 13 -92.5t43 -87.5q34 -58 34 -103q0 -46 -28 -74t-74 -28t-74 29.5t-28 76.5q0 44 32 99q32 57 40.5 86t13.5 94v25l-23 -13q-51 -29 -75 -53.5t-56 -79.5q-32 -54 -59.5 -75t-65.5 -21q-41 0 -71.5 33t-30.5 77q0 24 14.5 46.5t38.5 35.5q33 18 106 21 q68 2 100 9.5t83 35.5l22 12l-22 13q-52 28 -85.5 37t-99.5 10q-43 0 -63.5 4.5t-42.5 17.5q-53 35 -53 82z" />
<glyph unicode="+" horiz-adv-x="1167" d="M115 532v179h422l-2 424h178l2 -424h422v-179h-422l4 -423h-180l-2 423h-422z" />
<glyph unicode="," horiz-adv-x="512" d="M-51 -319q237 124 237 235q0 23 -13 40t-48 40q-46 31 -64 59.5t-18 69.5q0 64 40.5 105.5t102.5 41.5q78 0 126 -55t48 -145q0 -123 -105 -244t-280 -197z" />
<glyph unicode="-" horiz-adv-x="681" d="M72 336l47 235h497l-47 -235h-497z" />
<glyph unicode="." horiz-adv-x="512" d="M49 123q0 64 43.5 106.5t106.5 42.5q62 0 105.5 -44t43.5 -107q0 -62 -43 -105t-106 -43t-106.5 43.5t-43.5 106.5z" />
<glyph unicode="/" horiz-adv-x="569" d="M-61 -37l639 1426h176l-639 -1426h-176z" />
<glyph unicode="0" d="M102 424q0 223 85 446.5t225 368.5q139 145 313 145q140 0 223.5 -134.5t83.5 -358.5q0 -156 -47 -321t-129.5 -301t-181.5 -210q-116 -88 -244 -88q-149 0 -238.5 123.5t-89.5 329.5zM313 166q0 -61 28.5 -98t74.5 -37q61 0 108 62.5t97 209.5q31 92 94 337t84 361 q22 110 22 177q0 69 -26.5 108t-73.5 39q-55 0 -102 -67t-103 -224q-69 -201 -136 -485.5t-67 -382.5z" />
<glyph unicode="1" d="M82 0v47q109 0 162 33.5t78 116.5l256 929q6 27 6 50q0 67 -95 67q-42 0 -127 -10l5 47q313 47 546 104l-305 -1134q-24 -84 -24 -109q0 -57 38 -75.5t158 -18.5l2 -47h-700z" />
<glyph unicode="2" d="M16 0v49q151 152 181 182q284 284 392.5 446t108.5 302q0 104 -50.5 163.5t-139.5 59.5q-78 0 -142.5 -41.5t-125.5 -132.5l-45 25q41 81 72.5 126t74.5 85q129 120 291 120q141 0 238.5 -99t97.5 -243q0 -230 -289 -479l-395 -338h303q85 2 131 15.5t78 45.5t71 101h50 l-158 -387h-744z" />
<glyph unicode="3" d="M39 137q0 51 33 82t88 31q40 0 69 -20t64 -72q47 -71 51 -74q25 -29 80 -29q92 0 156.5 95.5t64.5 230.5q0 210 -147 285q-37 19 -73.5 27t-98.5 9l8 46q195 41 288 116.5t93 192.5q0 85 -48 134.5t-130 49.5q-70 0 -120.5 -33t-113.5 -121l-43 27q94 142 191.5 206 t220.5 64q132 0 218.5 -79t86.5 -199q0 -181 -217 -289l-23 -12q88 -66 123 -133t35 -168q0 -145 -78 -267.5t-213 -193t-295 -70.5q-124 0 -197 44.5t-73 119.5z" />
<glyph unicode="4" d="M39 303l55 213l860 868h129l-237 -882h141l-55 -199h-137l-84 -303h-258l79 303h-493zM176 502h412l155 567z" />
<glyph unicode="5" d="M47 135q0 51 33 83t86 32q44 0 76 -23.5t69 -83.5q30 -52 53 -70t56 -18q107 0 188.5 98.5t81.5 227.5q0 98 -52 181t-146 132q-59 30 -119 43t-160 17l262 602h574l-72 -221h-514l-68 -154q140 -30 200 -49.5t112 -52.5q95 -63 145.5 -159t50.5 -214 q0 -148 -77.5 -270.5t-213 -192.5t-299.5 -70q-120 0 -193 44.5t-73 117.5z" />
<glyph unicode="6" d="M115 399q0 214 106.5 413.5t296.5 340.5q122 90 242 137.5t321 85.5l13 -49q-202 -76 -335 -194.5t-224 -303.5q80 27 124 27q142 0 224 -93.5t82 -256.5q0 -147 -66 -270.5t-180 -195t-250 -71.5q-166 0 -260 114.5t-94 315.5zM342 195q0 -160 113 -160q79 0 123 80 q49 95 92 261t43 261q0 70 -34 103.5t-106 33.5q-49 0 -71 -22.5t-53 -104.5q-49 -124 -78 -246t-29 -206z" />
<glyph unicode="7" d="M176 0l668 1126h-271q-112 -1 -170 -13.5t-95.5 -43.5t-74.5 -98h-53l174 385h772l-764 -1356h-186z" />
<glyph unicode="8" d="M76 311q0 129 87.5 221t274.5 156v10q-86 91 -118.5 159t-32.5 157q0 160 109 265t276 105q82 0 159 -29.5t130 -80.5q69 -72 69 -180q0 -107 -66 -180.5t-223 -141.5v-10q97 -103 138 -189t41 -184q0 -181 -127 -298.5t-322 -117.5q-175 0 -285 94t-110 244zM272 289 q0 -118 53.5 -186t147.5 -68q95 0 156 73.5t61 188.5q0 79 -33 138t-165 216q-120 -85 -170 -166.5t-50 -195.5zM512 1122q0 -75 39 -140t143 -165q88 93 118 150t30 133q0 98 -45.5 157.5t-120.5 59.5q-71 0 -117.5 -55t-46.5 -140z" />
<glyph unicode="9" d="M47 31q376 112 559 493q-62 -28 -123 -28q-139 0 -224 94t-85 248q0 230 143.5 388t352.5 158q152 0 239 -90q57 -57 88 -144t31 -187q0 -217 -108 -419.5t-297 -342.5q-120 -89 -239.5 -136t-324.5 -85zM426 713q0 -62 34.5 -95.5t98.5 -33.5q65 0 90 28.5t68 151.5 q84 248 84 414q0 141 -101 141q-97 0 -159 -127q-46 -91 -80.5 -235t-34.5 -244z" />
<glyph unicode=":" horiz-adv-x="681" d="M115 125q0 63 43 105t106 42q62 0 106 -44t44 -107q0 -62 -43.5 -105t-106.5 -43q-64 0 -106.5 43.5t-42.5 108.5zM299 782q0 63 43.5 105.5t106.5 42.5q62 0 105.5 -44.5t43.5 -107.5q0 -62 -43 -104.5t-106 -42.5q-65 0 -107.5 42.5t-42.5 108.5z" />
<glyph unicode=";" horiz-adv-x="681" d="M20 -322q238 127 238 236q0 23 -12.5 40t-46.5 40q-47 31 -65.5 59.5t-18.5 69.5q0 64 40.5 105.5t102.5 41.5q78 0 126 -55t48 -145q0 -123 -105 -244t-280 -197zM299 780q0 64 43.5 107t106.5 43q62 0 105.5 -44.5t43.5 -107.5q0 -62 -43 -104.5t-106 -42.5 q-65 0 -107.5 42.5t-42.5 106.5z" />
<glyph unicode="&#x3c;" horiz-adv-x="1167" d="M125 713l1038 456v-196l-784 -346l788 -346l2 -197l-1042 457z" />
<glyph unicode="=" horiz-adv-x="1167" d="M113 741v179h1022v-179h-1022zM115 504h1022v-178h-1020z" />
<glyph unicode="&#x3e;" horiz-adv-x="1167" d="M123 1169l1042 -456l2 -172l-1038 -457l-2 197l786 346l-788 346z" />
<glyph unicode="?" d="M229 125q0 63 43.5 105t106.5 42q62 0 105.5 -44t43.5 -107q0 -62 -43 -105t-106 -43q-64 0 -107 43.5t-43 108.5zM305 1126q0 114 99 187t253 73q161 0 260 -81t99 -213q0 -95 -59 -175.5t-193 -168.5l-135 -86q-56 -39 -89.5 -87.5t-74.5 -152.5l-59 14q6 83 39 158 t104 164l82 104q127 157 127 299q0 75 -38 118.5t-104 43.5q-48 0 -86 -23.5t-38 -54.5q0 -13 22 -45q39 -48 39 -92q0 -49 -36 -84t-87 -35q-54 0 -89.5 39t-35.5 98z" />
<glyph unicode="@" horiz-adv-x="1703" d="M184 461q0 187 64 355t173 288.5t260 191t320 70.5q153 0 289.5 -59.5t235 -160.5t156 -242.5t57.5 -299.5q0 -165 -56 -308.5t-150.5 -227.5t-203.5 -84q-79 0 -141 57.5t-64 132.5q-57 -87 -130 -137.5t-142 -50.5q-88 0 -147.5 85.5t-59.5 211.5q0 139 48 277.5 t132 240.5q109 131 258 131q59 0 90.5 -26t69.5 -105l23 96h155l-139 -653q-4 -32 -4 -51q0 -54 22 -84.5t60 -30.5q102 0 178 129q45 76 72.5 179.5t27.5 197.5q0 138 -51 264.5t-137 218.5t-204 146.5t-247 54.5q-126 0 -239 -51.5t-191 -145.5q-100 -119 -154.5 -282.5 t-54.5 -346.5q0 -286 144 -479q98 -132 235 -201t303 -69q110 0 206.5 27.5t224.5 95.5l28 -90q-160 -86 -262.5 -118t-220.5 -32q-173 0 -327.5 69t-265.5 186.5t-176 281.5t-65 348zM813 322q0 -98 35.5 -157t95.5 -59q47 0 94 45t84 125q34 76 59 187t25 180 q0 81 -22.5 121t-69.5 45q-41 3 -93.5 -32.5t-98.5 -96.5q-51 -68 -80 -162.5t-29 -195.5z" />
<glyph unicode="A" horiz-adv-x="1366" d="M-63 0v51q54 12 85.5 39t81.5 103l748 1191h49l203 -1159q8 -44 12.5 -66.5t14 -45t17.5 -30.5t28 -16.5t40 -10.5t58 -5v-51h-617v51q98 7 129 30.5t31 88.5q0 16 -31 252h-436l-119 -207q-30 -48 -30 -92q0 -38 31 -55t102 -17v-51h-397zM395 504h377l-78 491z" />
<glyph unicode="B" horiz-adv-x="1366" d="M25 0v51q72 9 105 38.5t56 107.5l242 909q23 87 23 117q0 17 -9.5 34t-23.5 25q-20 11 -42 15.5t-75 7.5v51h551q236 0 358.5 -75.5t122.5 -221.5q0 -63 -25 -119.5t-69 -93.5q-54 -45 -113.5 -70.5t-175.5 -54.5q156 -51 218.5 -119t62.5 -186q0 -194 -159 -305 t-437 -111h-610zM473 133q0 -35 28.5 -51t88.5 -16q135 0 213 81q54 54 86.5 140.5t32.5 175.5q0 111 -70 172q-33 25 -85.5 36.5t-152.5 14.5l-131 -496q-10 -37 -10 -57zM631 745q113 5 173.5 18t106.5 44q123 78 123 272q0 211 -176 211q-51 0 -72 -17t-34 -71z" />
<glyph unicode="C" horiz-adv-x="1366" d="M135 494q0 180 65.5 345.5t176 286t262.5 192t317 71.5q131 0 267 -43q53 -17 75 -17q24 0 40 12.5t38 47.5h62l-101 -476l-65 13q6 41 6 71q0 148 -71.5 234t-194.5 86q-126 0 -238 -92q-137 -116 -231 -347t-94 -452q0 -167 81 -261.5t226 -94.5q101 0 180 36 q64 26 115 69t127 134l61 -43q-45 -64 -78 -99t-80 -73q-172 -131 -391 -131q-250 0 -402.5 146.5t-152.5 384.5z" />
<glyph unicode="D" horiz-adv-x="1478" d="M-20 0v51q73 9 105 39t56 107l240 903q25 103 25 119q0 42 -23 55q-20 13 -127 31v51h588q287 0 449.5 -148.5t162.5 -410.5q0 -225 -116.5 -407.5t-321.5 -286t-459 -103.5h-579zM430 139q0 -37 26 -53t85 -16q145 0 252.5 56t189.5 173q81 115 127.5 282t46.5 341 q0 187 -83.5 278.5t-254.5 91.5q-48 0 -73 -18t-35 -60l-254 -958q-2 -4 -2 -8q-25 -73 -25 -109z" />
<glyph unicode="E" horiz-adv-x="1366" d="M16 0v51q78 12 107.5 39t54.5 107l244 911q20 75 20 121q0 36 -20 49q-26 15 -129 29v49h1093l-83 -385l-56 10q0 95 -13 142.5t-48 82.5q-86 86 -314 86q-61 0 -86.5 -18t-40.5 -72l-120 -452h39q46 0 78 2q46 2 88 11t67 22t51 39.5t45.5 58t44.5 82.5l58 -9l-148 -553 l-55 11q6 58 6 88q0 106 -59.5 143.5t-233.5 40.5l-110 -424q-10 -35 -15 -51q-16 -62 -16 -74q0 -38 29 -54.5t96 -16.5q260 0 424 116q59 40 98.5 86.5t93.5 134.5l51 -10l-118 -393h-1123z" />
<glyph unicode="F" horiz-adv-x="1366" d="M45 0v51q78 10 107.5 37t54.5 109l244 909q20 75 20 123q0 34 -20 47q-26 15 -129 29v51h1079l-84 -385l-55 10q0 85 -12 132t-42 81q-84 96 -309 96q-60 0 -86 -18t-39 -72l-121 -450q71 1 115 3.5t85 11.5t65 21.5t49 39t43 57.5t43 82l57 -9l-147 -553l-56 11 q6 56 6 88q0 103 -58 141t-220 41l-107 -408q-1 -2 -3.5 -12t-4.5 -16q-22 -70 -22 -107q0 -47 29.5 -65.5t115.5 -24.5v-51h-598z" />
<glyph unicode="G" horiz-adv-x="1478" d="M113 512q0 232 120 442t318 326q189 109 424 109q125 0 250 -43q53 -19 73 -19q31 0 50 14t34 48h64l-100 -449l-60 8q-5 104 -18 158.5t-47 105.5q-32 49 -90 76t-130 27q-140 0 -253 -98q-137 -116 -227.5 -339.5t-90.5 -447.5q0 -190 86 -289.5t250 -99.5 q59 0 112.5 17.5t75.5 43.5q10 12 54 166q39 137 50 186t11 91q0 30 -25 47q-17 10 -37 14t-87 10v54h581v-54q-82 -6 -107 -32t-53 -133l-96 -367l-55 -27q-89 -41 -222 -67.5t-253 -26.5q-267 0 -434.5 152.5t-167.5 396.5z" />
<glyph unicode="H" horiz-adv-x="1593" d="M25 0v51q74 9 105 37.5t56 108.5l242 909q23 91 23 117q0 40 -23 53q-22 14 -127 29v51h643v-51q-98 -3 -139 -32t-66 -114l-106 -403h483l94 350q21 86 21 123t-21 47q-21 15 -63 18l-66 11v51h605v-51q-78 -11 -108.5 -38t-55.5 -108l-215 -805q-48 -180 -50 -206v-13 q0 -44 32 -62.5t116 -21.5v-51h-643v51q101 4 142 34t63 112l127 469h-486l-98 -367q-33 -116 -33 -160q0 -51 25.5 -65.5t122.5 -22.5v-51h-600z" />
<glyph unicode="I" horiz-adv-x="796" d="M4 0v51q75 9 106 37.5t56 108.5l244 909q20 82 20 123q0 37 -20 47q-21 15 -64 18l-65 11v51h604v-51q-78 -9 -109.5 -36.5t-56.5 -109.5l-225 -852q-37 -140 -37 -174q0 -44 29.5 -61t117.5 -21v-51h-600z" />
<glyph unicode="J" d="M37 168q0 66 33.5 105.5t89.5 39.5q60 0 95.5 -34.5t35.5 -92.5q0 -41 -33 -67q-18 -13 -23.5 -22t-5.5 -23q0 -33 56 -33q39 0 63.5 27.5t49.5 98.5t67 230l184 709q23 84 23 121q0 36 -23 49q-17 11 -127 29v51h602v-51q-74 -9 -105 -37.5t-58 -108.5l-213 -803 q-52 -199 -154.5 -294t-263.5 -95q-130 0 -211.5 56t-81.5 145z" />
<glyph unicode="K" horiz-adv-x="1366" d="M31 0v51q74 7 106.5 36.5t55.5 109.5l241 909q23 88 23 117q0 40 -23 53q-22 14 -127 29v51h629v-51q-89 -6 -128.5 -36t-62.5 -110l-122 -461q138 116 204 175.5t193 179.5q85 79 120.5 123.5t35.5 72.5t-19.5 37.5t-95.5 18.5v51h428v-51q-64 -7 -94.5 -22.5 t-96.5 -74.5l-434 -401l322 -686q17 -36 44 -51t83 -19l2 -51h-570v51q47 4 56 6q41 3 59.5 14t18.5 33q0 30 -29 89l-232 489l-133 -504q-4 -20 -4 -33q0 -51 27 -70.5t108 -23.5v-51h-585z" />
<glyph unicode="L" horiz-adv-x="1251" d="M27 0v51q75 10 106.5 39t54.5 107l244 909q21 86 21 125q0 35 -21 45q-21 15 -63 18l-66 11v51h643v-51q-99 -4 -139.5 -33t-65.5 -113l-256 -969q-10 -38 -10 -66q0 -58 129 -58q254 0 420 116q60 43 100.5 89t92.5 132l49 -10l-119 -393h-1120z" />
<glyph unicode="M" horiz-adv-x="1820" d="M16 0v51q37 8 57 17t39 24.5t34.5 53t31 82t41.5 132.5l217 756q21 82 21 117q0 43 -25.5 55t-120.5 17v51h449l114 -973l623 973h430v-51q-77 -9 -109 -37.5t-55 -108.5l-243 -909l-2 -10q-3 -7 -5 -11q-14 -65 -14 -92q0 -47 29.5 -64.5t118.5 -21.5v-51h-633v51 q98 6 138 35t65 111l247 940l-753 -1162h-58l-141 1133l-201 -748q-39 -140 -39 -186q0 -62 33 -86.5t131 -36.5v-51h-420z" />
<glyph unicode="N" horiz-adv-x="1478" d="M18 0v51q37 8 57 17t39 24.5t34.5 53t31 82t41.5 132.5l240 834q-31 66 -59 85t-111 26v51h395l440 -942l160 581q35 122 35 191q0 58 -36.5 84.5t-125.5 34.5v51h422l2 -51q-33 -8 -50.5 -13.5t-37.5 -20.5t-30.5 -30.5t-26 -53.5t-28 -78t-34.5 -114l-282 -1026h-58 l-526 1112l-197 -721q-37 -130 -37 -188q0 -60 36.5 -86.5t127.5 -34.5v-51h-422z" />
<glyph unicode="O" horiz-adv-x="1478" d="M125 451q0 211 116 430.5t298 353.5q211 154 436 154q212 0 352.5 -134t140.5 -337q0 -223 -113 -443t-300 -358q-208 -154 -449 -154q-216 0 -348.5 134.5t-132.5 353.5zM418 281q0 -115 56 -181.5t153 -66.5q82 0 152 47t141 149q101 148 178.5 404t77.5 442 q0 109 -57.5 176.5t-149.5 67.5q-99 0 -181.5 -64.5t-158.5 -201.5q-83 -146 -147 -380t-64 -392z" />
<glyph unicode="P" horiz-adv-x="1251" d="M16 0v51q77 10 107 37.5t55 108.5l244 909q20 75 20 123q0 34 -20 47q-26 15 -129 29v51h581q212 0 323.5 -81.5t111.5 -236.5q0 -181 -149 -289t-400 -108q-76 0 -168 10l-107 -401q-20 -78 -20 -119q0 -43 30.5 -59t116.5 -21v-51h-596zM612 717q70 -4 84 -4 q109 0 171 37.5t100 128.5q45 110 45 225q0 89 -44 137.5t-126 48.5q-55 0 -80 -28q-9 -11 -23 -62z" />
<glyph unicode="Q" horiz-adv-x="1478" d="M125 434q0 179 72 354.5t189 307t273 212.5t316 81q215 0 354 -135.5t139 -342.5q0 -201 -94 -399.5t-260 -349.5q-119 -105 -226.5 -145t-303.5 -52q-40 -35 -74 -74l-14 -14l-4 -8q0 -9 75 -14q146 -12 224 -37l86 -27q97 -31 167 -31q92 0 159 33.5t155 124.5l43 -37 q-123 -168 -240 -235.5t-284 -67.5q-113 0 -275 53q-136 43 -211 43q-50 0 -97.5 -11.5t-133.5 -45.5l-29 49l315 262q33 30 33 31l4 8q-6 11 -26 19q-82 30 -116 48t-73 54q-143 137 -143 346zM418 281q0 -114 56 -180t151 -66q83 0 154.5 47.5t140.5 148.5 q101 147 178.5 402t77.5 438q0 114 -56.5 181t-150.5 67q-99 0 -181.5 -64.5t-158.5 -201.5q-83 -146 -147 -380t-64 -392z" />
<glyph unicode="R" horiz-adv-x="1366" d="M14 0v51q75 9 106 37.5t56 108.5l244 909q20 78 20 123q0 34 -20 47q-20 12 -64 18l-65 11v51h559q481 0 481 -293q0 -83 -42 -157t-120 -126q-46 -32 -94 -50.5t-133 -35.5l172 -497q34 -90 64 -114.5t116 -31.5v-51h-409l-221 670h-60l-108 -391q-29 -101 -29 -142 q0 -46 29 -63t118 -23v-51h-600zM623 735q185 3 256 49q66 43 105.5 127.5t39.5 184.5q0 93 -48 143.5t-136 50.5q-46 0 -66 -17.5t-33 -72.5z" />
<glyph unicode="S" horiz-adv-x="1138" d="M76 -37l69 455l60 -4q8 -94 21 -146.5t42 -99.5q40 -64 105 -99.5t145 -35.5q148 0 215 117q39 67 39 137q0 71 -55 146t-174 165q-175 131 -244 264q-27 59 -27 135q0 167 116.5 279.5t289.5 112.5q86 0 199 -39q73 -23 104 -23q62 0 88 53h61l-79 -407l-56 8 q-20 178 -83 257t-185 79q-97 0 -154 -57t-57 -154q0 -69 31.5 -115.5t126.5 -118.5q187 -139 265.5 -253t78.5 -248q0 -187 -125 -297.5t-336 -110.5q-120 0 -250 49q-68 23 -92 23q-30 0 -44.5 -13.5t-33.5 -58.5h-61z" />
<glyph unicode="T" horiz-adv-x="1251" d="M174 0v51h29q76 0 119 34.5t65 111.5l293 1087q-156 -2 -259 -69.5t-179 -219.5l-52 15l76 346h1116l-69 -389l-56 4q-9 169 -73.5 241t-208.5 72l-277 -1024q-22 -76 -22 -125t30.5 -64t139.5 -20v-51h-672z" />
<glyph unicode="U" horiz-adv-x="1478" d="M209 299v10v7q0 84 65 339l111 418q29 114 29 152q0 18 -2.5 27.5t-8.5 18t-25.5 14t-42.5 9.5t-69 11v51h631v-51q-95 -4 -129.5 -31t-60.5 -115l-162 -608q-36 -134 -46 -181t-10 -87q0 -97 66 -152t182 -55q166 0 269 121q46 58 82 142.5t75 231.5l117 424 q37 142 37 195q0 54 -38 81t-126 34v51h422v-51q-31 -6 -49 -11.5t-37 -21t-29 -31t-26 -54t-28.5 -78t-35.5 -114.5l-131 -463q-48 -168 -87 -258t-91 -149q-138 -162 -397 -162q-201 0 -328 94t-127 242z" />
<glyph unicode="V" horiz-adv-x="1366" d="M197 1305v51h604v-51q-103 -9 -128.5 -23.5t-25.5 -64.5q0 -23 2 -35l109 -813l381 612q118 187 118 258q0 32 -22 45q-15 9 -30 12t-81 9v51h389v-51q-77 -24 -118 -80l-789 -1262h-65l-160 1032q-9 60 -15.5 96.5t-14.5 73.5t-14 55.5t-17 37t-20.5 26t-26.5 13.5 t-33.5 7t-42.5 1z" />
<glyph unicode="W" horiz-adv-x="1820" d="M199 1307v49h561v-51q-72 -7 -97.5 -30t-25.5 -77l2 -33l84 -708l301 630q-2 91 -13.5 132.5t-40 60.5t-91.5 27v49h544v-51q-80 -8 -103.5 -29.5t-23.5 -87.5q0 -18 13 -131l71 -600l312 663q30 63 30 92q0 56 -21.5 71.5t-107.5 21.5v51h379v-49q-64 -9 -96.5 -37 t-73.5 -111l-571 -1196h-60l-127 991l-464 -991h-60l-164 1174q-7 43 -10.5 61.5t-12 41t-15.5 29.5t-25.5 16.5t-37.5 12.5t-56 9z" />
<glyph unicode="X" horiz-adv-x="1366" d="M25 0v51q64 12 141.5 83.5t322.5 340.5q36 40 73.5 81t64.5 71l-172 551q-25 70 -60 94t-127 33v51h619v-51q-14 -1 -35.5 -4t-26.5 -3q-50 -6 -69 -21t-19 -50q0 -42 72 -262q2 -4 5.5 -16.5t6.5 -20.5q2 -9 23 -74l188 201q80 85 111 127.5t31 68.5q0 10 -5.5 21 t-11.5 14q-17 10 -96 19v51h412v-51q-54 -7 -93.5 -31.5t-107.5 -91.5l-400 -416l152 -479q24 -77 41.5 -117t45.5 -67.5t60 -36.5t91 -15v-51h-625v51q83 7 110 22.5t27 53.5q0 60 -78 287q-38 108 -41 121l-268 -299q-61 -66 -61 -103t32 -56.5t101 -25.5v-51h-434z" />
<glyph unicode="Y" horiz-adv-x="1251" d="M213 1305v51h573v-51q-83 -1 -112 -16.5t-29 -55.5q0 -52 68 -244q71 -216 92 -276l258 377q32 45 42.5 69t10.5 51q0 54 -28 74t-109 21v51h422v-51q-58 -12 -95.5 -40.5t-88.5 -99.5l-381 -540l-105 -387q-14 -55 -14 -91q0 -57 28 -74t127 -22v-51h-651v51 q104 7 140.5 33.5t62.5 112.5l119 438l-181 543q-13 37 -21 54.5t-17.5 32.5t-25.5 21t-32.5 10t-52.5 9z" />
<glyph unicode="Z" horiz-adv-x="1251" d="M49 0v59l873 1225h-158q-170 -3 -283.5 -69.5t-226.5 -227.5l-55 8l112 361h949v-60l-873 -1224h143h17q205 0 335 70q134 73 257 261l53 -10l-117 -393h-1026z" />
<glyph unicode="[" horiz-adv-x="681" d="M-4 -322l393 1688h406l-15 -72h-139q-55 -1 -68 -17t-36 -110l-314 -1368v-4q-1 -7 5.5 -19t15.5 -18q13 -8 51 -8h158l-13 -72h-444z" />
<glyph unicode="\" horiz-adv-x="569" d="M59 1389h172l404 -1426h-170z" />
<glyph unicode="]" horiz-adv-x="681" d="M-43 -317l14 71h138q23 1 32 1t21.5 5.5t16 10t11 22t11 33t12.5 51.5l313 1370v4q0 43 -71 43h-158l14 72h445l-396 -1683h-403z" />
<glyph unicode="^" horiz-adv-x="1167" d="M199 623l360 747h164l369 -747h-183l-268 557l-260 -557h-182z" />
<glyph unicode="_" d="M10 -137h1004v-137h-1004v137z" />
<glyph unicode="`" horiz-adv-x="681" d="M264 1323q0 36 27 63t63 27q64 0 115 -67l225 -299h-90l-270 180q-70 48 -70 96z" />
<glyph unicode="a" d="M27 231q0 116 51 243.5t129.5 228.5t178 167t189.5 66q66 0 102.5 -34.5t49.5 -110.5l35 118l225 15l-141 -478q-66 -232 -66 -301q0 -30 25 -30q23 0 52 29t91 114l43 -31q-87 -132 -160 -194t-145 -62q-57 0 -96 39t-39 96q0 28 27 136q-86 -147 -161.5 -208 t-170.5 -61q-98 0 -158.5 71t-60.5 187zM276 227q0 -47 26.5 -78.5t64.5 -31.5q88 0 170 151q58 103 100.5 248.5t42.5 237.5q0 41 -21 67t-55 29h-5q-39 0 -83 -42q-48 -44 -92 -124q-63 -112 -105.5 -244.5t-42.5 -212.5z" />
<glyph unicode="b" d="M41 96q0 10 39 162l186 666q78 275 78 317q0 62 -92 62q-17 0 -35 -3v56q242 27 420 61l-178 -665q78 103 139.5 143.5t140.5 40.5q100 0 164 -71t64 -181q0 -134 -55 -264.5t-143.5 -228t-207 -158t-239.5 -60.5q-100 0 -190.5 39.5t-90.5 83.5zM291 96q0 -25 17.5 -40 t45.5 -15q134 0 236 184q54 93 89.5 217t35.5 215q0 142 -90 142q-104 0 -185 -176q-52 -116 -96 -279q-16 -61 -34.5 -146.5t-18.5 -101.5z" />
<glyph unicode="c" horiz-adv-x="909" d="M59 283q0 158 83.5 310.5t217.5 247.5t273 95q103 0 166 -50.5t63 -133.5q0 -62 -35 -101t-90 -39q-52 0 -85.5 30.5t-33.5 76.5q0 33 27 76q17 28 17 39q0 15 -13.5 24.5t-32.5 9.5q-90 0 -174 -143q-54 -99 -88.5 -221.5t-34.5 -218.5q0 -82 41.5 -132.5t108.5 -50.5 q65 0 119.5 41t126.5 144l55 -37q-53 -77 -85 -115t-71 -72q-104 -90 -243 -90q-138 0 -225 86.5t-87 223.5z" />
<glyph unicode="d" d="M27 227q0 117 51 246t128.5 230t177 167t189.5 66q44 0 77 -14.5t71 -51.5l35 138q57 211 57 237q0 58 -84 58h-41l-2 55q265 21 424 59l-219 -821q-113 -413 -113 -453q0 -9 7 -16.5t16 -7.5q22 0 58 39.5t75 107.5l45 -33q-84 -134 -155 -195t-146 -61q-57 0 -89 33.5 t-32 93.5q0 36 21 136q-87 -146 -162.5 -206.5t-171.5 -60.5q-94 0 -155.5 72t-61.5 182zM279 248v-12q0 -46 21 -80q24 -38 62 -37q89 0 173 149q53 97 104 256t51 226q0 43 -21 71t-55 29h-5q-43 0 -92 -44q-52 -46 -99 -132q-54 -99 -94.5 -221t-44.5 -205z" />
<glyph unicode="e" horiz-adv-x="909" d="M78 274q0 163 83.5 317.5t219 249.5t278.5 95q93 0 153 -50t60 -128q0 -109 -108 -211q-73 -69 -162.5 -107.5t-249.5 -70.5q-10 -49 -10 -97q0 -170 131 -170q64 0 115.5 40.5t122.5 146.5l59 -35q-90 -152 -178.5 -216.5t-204.5 -64.5q-134 0 -221.5 85.5t-87.5 215.5z M367 434q86 27 132.5 53t88.5 70q98 103 98 242q0 69 -57 69q-73 0 -140.5 -111.5t-121.5 -322.5z" />
<glyph unicode="f" horiz-adv-x="681" d="M-272 -254q0 43 31.5 76t72.5 33q38 0 69 -31t31 -68q0 -32 -24 -67q-8 -11 -8 -19q0 -9 11 -15.5t26 -6.5q60 0 98 80.5t82 302.5q1 5 174 792h-148l19 86h147q41 152 78.5 232t101.5 151q111 123 277 123q92 0 146.5 -44t54.5 -118q0 -47 -29.5 -77.5t-73.5 -30.5 q-43 0 -71.5 28.5t-28.5 71.5q0 28 22 62q11 17 11 22q0 12 -10 19.5t-25 7.5q-108 0 -184 -303l-35 -144h186l-18 -86h-183q-78 -381 -108.5 -511.5t-67.5 -250.5q-50 -158 -95 -247t-105 -144q-92 -86 -224 -86q-91 0 -145.5 44t-54.5 118z" />
<glyph unicode="g" d="M-33 -197q0 37 15 71t41 54q35 29 76.5 46t136.5 40q-68 23 -97.5 55t-29.5 81q0 55 34.5 90t159.5 106q-164 66 -164 223q0 154 130.5 260.5t316.5 106.5q70 0 121 -15t104 -51h225v-112h-135q12 -50 12 -88q0 -151 -126.5 -255t-309.5 -104q-30 0 -63 8q-24 9 -41 9 q-19 0 -37.5 -24t-18.5 -50q0 -49 105 -78l106 -31q165 -46 234 -104t69 -150q0 -134 -134.5 -218.5t-346.5 -84.5q-177 0 -280 58t-103 157zM143 -182q0 -71 63.5 -115.5t164.5 -44.5q114 0 176.5 36.5t62.5 102.5q0 75 -84 115q-31 15 -118 45t-105 31q-10 1 -45 -19.5 t-55 -38.5q-60 -60 -60 -112zM375 496q0 -58 22.5 -89.5t63.5 -31.5q90 0 157 137q58 130 58 244q0 52 -26 85t-66 33q-78 0 -133 -98q-32 -57 -54 -137t-22 -143z" />
<glyph unicode="h" horiz-adv-x="1138" d="M45 0l305 1149q17 64 17 84q0 70 -84 70q-21 0 -45 -3v56q221 21 421 61l-213 -844q85 123 132 180.5t94 96.5q54 46 101 66t101 20q72 0 114 -41t42 -111q0 -58 -61 -247l-115 -361q-4 -12 -4 -24q0 -11 11.5 -22t23.5 -11q19 0 52.5 38.5t96.5 131.5l45 -31 q-100 -158 -172 -217t-166 -59q-59 0 -96 33t-37 85q0 63 23 151t98 316q9 23 23 68q19 60 22 67q8 32 8 46q0 17 -13 30t-32 13q-76 0 -202 -181q-76 -111 -122 -226t-122 -384h-246z" />
<glyph unicode="i" horiz-adv-x="569" d="M72 109q0 43 24 141l115 434q16 59 16 82q0 59 -94 59h-27v56q249 19 410 55l-182 -678q-17 -82 -17 -104q0 -12 9.5 -21.5t21.5 -9.5q48 0 129 123l27 41l45 -29q-104 -161 -174.5 -218.5t-161.5 -57.5q-63 0 -102 35t-39 92zM322 1253q0 54 39.5 93.5t93.5 39.5 q58 0 99.5 -41t41.5 -98q0 -56 -40.5 -94.5t-98.5 -38.5q-57 0 -96 40t-39 99z" />
<glyph unicode="j" horiz-adv-x="569" d="M-313 -262q0 43 29 74.5t69 31.5q41 0 70.5 -29.5t29.5 -70.5q0 -24 -20 -55q-10 -15 -10 -21q0 -8 16 -16t31 -8q44 0 75.5 57t69.5 207l182 721q23 94 23 133q0 34 -20 48.5t-64 14.5h-41v56q167 13 248 24t172 31l-225 -887q-120 -469 -422 -469q-95 0 -154 43.5 t-59 114.5zM352 1253q0 54 39.5 93.5t93.5 39.5q58 0 100 -41t42 -98q0 -56 -41 -94.5t-99 -38.5q-57 0 -96 40t-39 99z" />
<glyph unicode="k" d="M25 0l309 1149q16 57 16 84q0 70 -84 70q-21 0 -45 -3v56q224 23 422 59l-244 -930q190 150 260 219t70 107q0 25 -22 35.5t-80 11.5l-2 51h419v-51q-69 -7 -118 -35t-154 -118l-127 -111q32 -155 51.5 -240t38 -139.5t34.5 -71t38 -16.5q29 0 56.5 28.5t68.5 102.5 l43 -22q-73 -138 -135 -195t-138 -57q-95 0 -148 96.5t-103 355.5l-80 -55l-99 -381h-247z" />
<glyph unicode="l" horiz-adv-x="569" d="M72 102q0 79 67 322l148 534q67 238 67 287q0 58 -86 58q-8 0 -43 -3v56q223 21 424 61l-289 -1061q-43 -159 -43 -202q0 -12 9.5 -21.5t21.5 -9.5q26 0 61 36.5t95 127.5l45 -29q-104 -161 -175 -218.5t-165 -57.5q-62 0 -99.5 33t-37.5 87z" />
<glyph unicode="m" horiz-adv-x="1593" d="M45 0l133 481q70 261 70 291q0 53 -85 53h-9h-17v56q171 14 239.5 22.5t166.5 30.5l-127 -402q99 152 154 223t110 113q86 68 174 68q64 0 100.5 -37t36.5 -102q0 -76 -51 -209q124 199 210 273.5t189 74.5q66 0 111 -41t45 -104q0 -88 -43 -216l-90 -268 q-43 -125 -43 -160q0 -11 10 -19.5t23 -8.5q29 0 82 67q6 13 57 88l45 -26q-88 -149 -159 -207.5t-165 -58.5q-66 0 -101.5 33t-35.5 94q0 95 72 311l90 264q12 38 12 61q0 17 -14 30t-33 13q-45 0 -104 -61t-121 -174q-53 -93 -82.5 -175.5t-118.5 -377.5h-241 q84 280 129 420q88 284 88 323q0 18 -11.5 31.5t-25.5 13.5q-22 0 -59.5 -27t-71.5 -67q-85 -100 -149 -252.5t-144 -441.5h-246z" />
<glyph unicode="n" horiz-adv-x="1138" d="M59 0q68 256 113 414q90 326 90 360q0 29 -22.5 39t-87.5 12v56q196 7 405 53l-127 -402q102 152 146.5 210t99.5 112q88 82 203 82q72 0 110.5 -39.5t38.5 -112.5q0 -82 -51 -233l-72 -219q-49 -146 -49 -178q0 -15 8.5 -25t20.5 -10q25 0 51.5 29.5t87.5 125.5l45 -26 q-88 -149 -158 -207.5t-161 -58.5q-66 0 -103 32t-37 90q0 88 56 265l108 336q10 33 10 43q0 17 -15.5 30t-35.5 13q-27 0 -67 -29t-72 -70q-94 -129 -157 -280t-132 -412h-246z" />
<glyph unicode="o" d="M63 276q0 166 82 319.5t216.5 247t279.5 93.5q139 0 229.5 -86.5t90.5 -220.5q0 -126 -48 -247t-126 -210.5t-184 -144t-216 -54.5q-140 0 -232 86.5t-92 216.5zM305 160q0 -59 27.5 -93t73.5 -34q54 0 99.5 44.5t88.5 139.5q49 107 87 271.5t38 269.5q0 55 -26 87 t-70 32q-98 0 -174 -140q-54 -93 -99 -274.5t-45 -302.5z" />
<glyph unicode="p" d="M-170 -360h10q65 0 88 24q26 25 52 125l200 786q43 169 43 199q0 29 -20.5 38.5t-89.5 12.5v56q116 11 391 55l-76 -234q88 126 162 180t160 54q101 0 161 -67t60 -181q0 -172 -81.5 -339t-211.5 -271.5t-264 -104.5q-32 0 -57.5 8.5t-80.5 36.5l-8 -26q0 -16 -14 -58 q-51 -199 -51 -229q0 -37 28.5 -51t102.5 -14l2 -56h-506v56zM299 117q0 -30 23.5 -51t56.5 -21q103 0 194 166q54 99 96 233.5t48 231.5v12q0 42 -19 70q-21 32 -61 35h-6q-36 0 -79 -31q-47 -34 -85 -94q-23 -36 -42.5 -90.5t-57.5 -182.5q-68 -237 -68 -278z" />
<glyph unicode="q" d="M72 240q0 154 85 318t215 271t253 107q68 0 100 -32.5t45 -115.5l29 121h221q-93 -358 -168 -614q-64 -212 -112 -391.5t-48 -208.5t24.5 -42t80.5 -13h28v-56h-540v56q66 3 96.5 13t48.5 34t35 80l125 432q-76 -124 -145 -175t-160 -51q-100 0 -156.5 71t-56.5 196z M326 236q0 -117 80 -117q91 0 176 149q52 93 97.5 246.5t45.5 235.5q0 43 -19.5 70t-52.5 28h-5q-41 0 -88 -42q-50 -45 -97 -130q-61 -108 -99 -230.5t-38 -209.5z" />
<glyph unicode="r" horiz-adv-x="796" d="M27 0q202 697 202 774q0 29 -20.5 38.5t-89.5 12.5v56q190 15 253 23.5t152 31.5l-131 -422q118 239 192.5 330.5t151.5 91.5q53 0 85 -37t32 -98q0 -62 -34 -104t-83 -42q-47 0 -90 52q-21 24 -35 24q-26 0 -72 -62t-91 -155q-40 -84 -84 -219q-4 -16 -14 -44t-13 -40 q-9 -29 -66 -211h-245z" />
<glyph unicode="s" horiz-adv-x="796" d="M31 -27l43 336l55 -6q12 -81 27 -123.5t45 -81.5q51 -63 123 -63q47 0 80.5 32t33.5 76q0 79 -114 211q-100 119 -132 183t-32 147q0 114 73.5 183t196.5 69q50 0 119 -27q45 -18 74 -18q22 0 31 7t26 36h59l-45 -309l-55 4q-23 124 -67 181.5t-113 57.5 q-50 0 -78.5 -28.5t-28.5 -77.5q0 -70 115 -199q166 -189 166 -323q0 -114 -85 -190.5t-212 -76.5q-52 0 -129 25q-43 16 -64 16q-44 0 -57 -41h-55z" />
<glyph unicode="t" horiz-adv-x="569" d="M45 115q0 62 47 227l135 481h-102l-2 72q121 46 205 116t166 193h69l-76 -295h146v-86h-168q-28 -103 -46.5 -169.5t-19.5 -69.5q-106 -372 -106 -430q0 -12 10 -21.5t23 -9.5q47 0 151 162l45 -29q-100 -156 -171.5 -215t-162.5 -59q-65 0 -104 36.5t-39 96.5z" />
<glyph unicode="u" horiz-adv-x="1138" d="M100 133q0 72 43 217l78 268q29 95 29 150q0 31 -21 40.5t-94 14.5v56q162 9 367 49q41 8 57 8l-188 -625q-29 -100 -29 -133q0 -51 43 -51q59 0 147 113q88 110 144.5 244.5t138.5 424.5h240l-156 -542q-47 -163 -47 -213q0 -15 8.5 -25t20.5 -10q26 0 58 33.5t85 115.5 l43 -24q-78 -136 -156.5 -199t-169.5 -63q-131 0 -131 122q0 81 47 222q-82 -115 -131.5 -177.5t-96.5 -102.5t-84.5 -52t-90.5 -12q-154 0 -154 151z" />
<glyph unicode="v" horiz-adv-x="909" d="M98 825v56q200 27 314 55q34 -122 47 -250.5t20 -425.5q149 172 200.5 249t51.5 130q0 32 -39 76q-49 54 -49 104q0 46 34 81.5t77 35.5q49 0 87 -41.5t38 -95.5q0 -132 -121 -310q-82 -122 -175 -226t-286 -290h-53l6 277v42q0 327 -45 470q-13 41 -32 52t-75 11z" />
<glyph unicode="w" horiz-adv-x="1366" d="M100 825v56q182 29 314 55q35 -130 50 -248.5t21 -308.5q101 186 312 557h55l70 -672q131 154 184 236.5t53 130.5q0 32 -41 84q-43 60 -43 100q0 49 33.5 85t79.5 36q51 0 88 -38t37 -89q0 -251 -547 -836h-55l-49 580l-37 -72q-171 -306 -191 -334l-115 -174h-53v90 l2 70v12l-4 158q-13 447 -78 506q-21 16 -86 16z" />
<glyph unicode="x" d="M-23 94q0 47 32 80t79 33q32 0 82 -27q27 -16 43 -16q27 0 46.5 17t49.5 67l88 141l-63 311q-13 76 -39 107t-74 31q-32 0 -71 -4v53l337 49q31 -44 48 -96t45 -183q122 169 184.5 224t134.5 55q47 0 83 -37.5t36 -87.5q0 -43 -33.5 -74.5t-79.5 -31.5q-30 0 -65 22 q-34 18 -52 18q-68 0 -167 -165q-12 -16 -17 -27l66 -315q12 -60 29 -84.5t46 -24.5q28 0 52.5 22t83.5 99l43 -29q-92 -135 -162 -191.5t-144 -56.5q-65 0 -106 54q-32 41 -50.5 93.5t-41.5 168.5l-47 -80q-87 -146 -138 -191t-126 -45q-59 0 -95.5 33.5t-36.5 87.5z" />
<glyph unicode="y" horiz-adv-x="909" d="M-119 -293q0 43 30.5 77t70.5 34q25 0 60.5 -12t55.5 -27q17 -13 39.5 -23t34.5 -10q57 0 121.5 85t64.5 159q0 103 -104 585q-46 217 -100 248q-17 11 -60 11v53q174 16 301 49q27 -70 65.5 -227t71.5 -334l27 -152q103 204 137.5 286.5t34.5 127.5q0 22 -10 37t-39 35 q-37 28 -50.5 51t-13.5 61q0 44 34.5 79.5t78.5 35.5q53 0 91 -38.5t38 -92.5q0 -154 -151.5 -459.5t-348.5 -548.5q-82 -100 -175.5 -156.5t-178.5 -56.5q-53 0 -89 35.5t-36 87.5z" />
<glyph unicode="z" horiz-adv-x="796" d="M-18 -2l587 717h-295q-45 -1 -73 -29t-51 -94l-58 6l84 311h633v-20l-565 -678q78 -34 122.5 -78.5t94.5 -136.5q26 -53 47.5 -73.5t50.5 -20.5q18 0 30.5 9t12.5 21t-16 31q-25 35 -25 64q0 43 30 73.5t71 30.5q43 0 75.5 -31.5t32.5 -74.5q0 -77 -63 -130t-156 -53 q-62 0 -123.5 24t-140.5 79q-96 65 -152 65q-19 0 -49 -18q-11 -7 -31 -23q-2 -1 -22 -16z" />
<glyph unicode="{" horiz-adv-x="712" d="M76 504q135 31 191 78.5t85 156.5l90 363q47 166 153.5 227.5t348.5 61.5l-6 -25q-123 -23 -185.5 -79.5t-93.5 -172.5l-88 -346q-35 -129 -95.5 -181t-209.5 -81q113 -31 150 -62t37 -94q0 -68 -56 -262q-59 -206 -59 -283q0 -71 37.5 -107.5t126.5 -51.5l-6 -25 q-139 3 -209.5 17.5t-108.5 46.5q-51 42 -51 125q0 41 21 138t47 179q51 151 51 233q0 54 -38.5 86.5t-131.5 57.5z" />
<glyph unicode="|" horiz-adv-x="450" d="M199 -317v1703h176v-1703h-176z" />
<glyph unicode="}" horiz-adv-x="712" d="M-190 -379l6 25q125 23 187 79t91 173l88 346q35 129 95.5 181t209.5 81q-114 31 -150 61.5t-36 96.5q0 65 55 260q62 213 62 284q0 68 -39.5 105.5t-126.5 52.5l6 25q140 -3 211 -17.5t109 -46.5q51 -45 51 -117q0 -45 -21 -142.5t-49 -182.5q-51 -155 -51 -236 q0 -54 38 -85.5t132 -57.5q-135 -29 -190.5 -76.5t-86.5 -157.5l-90 -364q-47 -165 -153.5 -226t-347.5 -61z" />
<glyph unicode="~" horiz-adv-x="1167" d="M174 506q51 90 110.5 131t137.5 41q55 0 106 -15.5t172 -68.5q77 -34 109 -44.5t59 -10.5q37 0 68.5 21t69.5 71l114 -99q-70 -98 -124.5 -136t-125.5 -38q-52 0 -98 14.5t-119 53.5q-130 72 -229 72q-44 0 -74 -18.5t-67 -67.5z" />
<glyph unicode="&#xa1;" horiz-adv-x="796" d="M111 -266q0 42 11.5 76t49.5 104q155 300 287 643l59 -16q-92 -475 -102 -717q-5 -97 -27 -146q-42 -94 -137 -94q-64 0 -102.5 41t-38.5 109zM418 856q0 60 44 100.5t107 40.5t105.5 -41t42.5 -102q0 -63 -43 -106t-105 -43q-60 0 -105.5 45.5t-45.5 105.5z" />
<glyph unicode="&#xa2;" d="M154 283q0 119 49.5 239t129 210.5t184.5 147t210 56.5q17 0 57 -6l82 237h72l-90 -258q108 -57 108 -159q0 -59 -37 -98.5t-94 -39.5q-42 0 -71 23l-185 -531q63 3 120.5 46.5t119.5 134.5l53 -37q-94 -137 -164.5 -193t-171.5 -75l-94 -271h-67l90 264 q-145 9 -223 89.5t-78 220.5zM412 301q0 -63 22 -115q10 -25 24.5 -39.5t45.5 -31.5l248 723l2 2q1 12 -12 20t-33 8q-93 0 -174 -147q-54 -96 -88.5 -214.5t-34.5 -205.5z" />
<glyph unicode="&#xa3;" d="M4 152q0 78 54 127t141 49q51 0 123 -27q26 240 36 328h-221l21 121h211q38 189 80.5 292.5t115.5 188.5q132 153 309 153q97 0 160.5 -52.5t63.5 -131.5q0 -58 -35 -97.5t-88 -39.5q-46 0 -77.5 29.5t-31.5 72.5q0 37 8 70q7 25 7 37q0 19 -14 31t-36 12 q-44 0 -75 -40.5t-45 -115.5l-78 -409h231l-20 -121h-232q-46 -205 -129 -342l-22 -35q166 -66 254 -66q74 0 111 26.5t71 102.5h51q-32 -152 -88 -229q-38 -53 -95.5 -82t-121.5 -29t-121 27.5t-137 95.5q-41 -66 -87 -93.5t-112 -27.5q-80 0 -131 49.5t-51 125.5zM66 141 q0 -44 31.5 -73t80.5 -29q46 0 75 34.5t44 108.5q-68 60 -129 60q-46 0 -74 -27.5t-28 -73.5z" />
<glyph unicode="&#xa4;" d="M-8 1075l117 113l196 -195q113 72 248 72q130 0 246 -72l194 195l117 -113l-197 -198q41 -68 58.5 -124.5t17.5 -125.5q0 -135 -74 -242l201 -199l-117 -116l-196 198q-119 -75 -248 -75q-130 0 -246 75l-194 -198l-119 116l199 199q-41 60 -58.5 117t-17.5 129 q0 134 74 246zM297 631q0 -114 75.5 -193.5t182.5 -79.5q104 0 180 79t76 186q0 115 -75.5 195.5t-182.5 80.5t-181.5 -78t-74.5 -190z" />
<glyph unicode="&#xa5;" d="M135 332l29 100h285l45 160h-289l26 100h254l-161 486q-31 77 -57.5 97.5t-110.5 29.5v51h567v-51q-86 -1 -119 -16t-33 -50q0 -22 13 -63l166 -480l270 394q31 45 42 69t11 49q0 56 -28.5 76t-114.5 21v51h405v-51q-60 -12 -98.5 -41t-87.5 -99l-334 -473h272l-24 -100 h-305l-41 -160h307l-27 -100h-309l-6 -23q-31 -119 -31 -172q0 -49 31 -65t133 -21v-51h-651v51q117 7 155 32.5t64 113.5l39 135h-287z" />
<glyph unicode="&#xa6;" horiz-adv-x="450" d="M137 -307v762h176v-762h-176zM137 643v680h176v-680h-176z" />
<glyph unicode="&#xa7;" d="M143 -78q0 54 33 88.5t84 34.5t83 -29t32 -73q0 -30 -10 -50.5t-35 -42.5q-27 -19 -27 -36q0 -22 42.5 -40t94.5 -18q76 0 125 43t49 111q0 49 -30.5 100t-139.5 183l-135 161q-104 124 -104 254q0 106 60.5 180t148.5 74q48 0 98 -12l4 6q-113 122 -113 262 q0 120 87 195.5t225 75.5q121 0 199.5 -56.5t78.5 -142.5q0 -54 -32.5 -88.5t-83.5 -34.5q-46 0 -79.5 32.5t-33.5 76.5q0 41 45 75q29 20 29 37q0 22 -36.5 38.5t-82.5 16.5q-76 0 -125 -41t-49 -106q0 -47 30.5 -102.5t108.5 -147.5l141 -164q123 -141 123 -290 q0 -101 -69 -173.5t-166 -72.5q-29 0 -62 8l-4 -8q67 -82 95 -141.5t28 -122.5q0 -115 -96 -194t-236 -79q-124 0 -209.5 62t-85.5 151zM348 694q0 -69 60 -153q84 -112 151 -176q37 -35 65 -49.5t62 -14.5q47 0 83 35t36 82q0 65 -61 159.5t-144 164t-139 69.5 q-47 0 -80 -34t-33 -83z" />
<glyph unicode="&#xa8;" horiz-adv-x="681" d="M176 1196q0 56 37.5 94.5t91.5 38.5q55 0 95 -39.5t40 -95.5q0 -53 -40 -91t-95 -38q-51 0 -90 39.5t-39 91.5zM606 1196q0 56 37.5 94.5t91.5 38.5q55 0 95 -39.5t40 -95.5q0 -53 -40 -91t-95 -38q-51 0 -90 39.5t-39 91.5z" />
<glyph unicode="&#xa9;" horiz-adv-x="1529" d="M131 678q0 196 91.5 359t251.5 257.5t351 94.5q143 0 273 -56.5t224 -152t149 -228t55 -278.5q0 -200 -91.5 -363t-252.5 -255.5t-359 -92.5q-140 0 -268.5 56.5t-221 152.5t-147.5 228.5t-55 277.5zM254 678q0 -124 46 -238.5t123 -198.5t182.5 -134t219.5 -50 q158 0 291 82t210 223.5t77 309.5q0 125 -46.5 240t-124 198.5t-184.5 133.5t-223 50q-155 0 -286.5 -82.5t-208 -224.5t-76.5 -309zM397 655q0 180 119.5 299t302.5 119q91 0 205 -41q22 -10 39 -10q37 0 43 49h39v-252h-37q-22 97 -85.5 152t-154.5 55 q-121 0 -186.5 -90.5t-65.5 -257.5q0 -175 64.5 -268t187.5 -93q72 0 131 31.5t121 102.5v-68q-66 -65 -139 -94t-172 -29q-185 0 -298.5 109t-113.5 286z" />
<glyph unicode="&#xaa;" horiz-adv-x="544" d="M96 967q0 71 33.5 148t85.5 136.5t117.5 98.5t126.5 39q40 0 62.5 -22t33.5 -69l20 72l156 8l-92 -284q-45 -137 -45 -181q0 -16 10 -16q22 0 88 78l6 6l27 -18q-59 -82 -105.5 -118t-93.5 -36q-35 0 -61.5 23.5t-26.5 54.5q0 18 23 102q-56 -99 -105 -138.5t-116 -39.5 q-64 0 -104 43.5t-40 112.5zM254 958q0 -23 14.5 -40t34.5 -17q61 0 123 117q31 57 54.5 134.5t23.5 123.5q0 24 -11 40t-30 17q-34 4 -84 -61.5t-87.5 -157t-37.5 -156.5z" />
<glyph unicode="&#xab;" d="M92 440v19l342 250q67 50 94 77q59 56 84 56q11 0 19 -7.5t8 -17.5q0 -60 -203 -272q-55 -58 -90 -99l82 -167q68 -145 68 -183q0 -13 -8.5 -21.5t-20.5 -8.5q-16 0 -31 20q-111 119 -344 354zM467 440v19l342 250q59 42 94 77q59 56 84 56q10 0 18.5 -8t8.5 -17 q0 -32 -47.5 -95.5t-155.5 -176.5q-6 -6 -90 -99l82 -167q67 -137 67 -183q0 -13 -8 -21.5t-20 -8.5q-16 0 -31 20q-78 88 -344 354z" />
<glyph unicode="&#xac;" horiz-adv-x="1241" d="M63 653v131h1033v-553h-135v422h-898z" />
<glyph unicode="&#xad;" horiz-adv-x="681" d="M72 336l47 235h497l-47 -235h-497z" />
<glyph unicode="&#xae;" horiz-adv-x="1529" d="M131 678q0 196 91.5 359t251.5 257.5t351 94.5q143 0 273 -56.5t224 -152t149 -228t55 -278.5q0 -200 -91.5 -363t-252.5 -255.5t-359 -92.5q-140 0 -268.5 56.5t-221 152.5t-147.5 228.5t-55 277.5zM254 678q0 -124 46 -238.5t123 -198.5t182.5 -134t219.5 -50 q158 0 291 82t210 223.5t77 309.5q0 125 -46.5 240t-124 198.5t-184.5 133.5t-223 50q-155 0 -286.5 -82.5t-208 -224.5t-76.5 -309zM494 1036v33h370q109 0 173.5 -52t64.5 -140q0 -150 -162 -211l121 -168q88 -121 149 -170l2 -23h-143q-27 0 -55 33t-84 131 q-52 90 -105 174h-90l2 -207q0 -47 3 -61.5t14 -20.5q16 -9 80 -16v-33h-336v33q63 6 80 16q9 4 11.5 19t2.5 63l-2 504q-1 45 -4.5 60t-12.5 20q-11 6 -20.5 8t-58.5 8zM733 1026l2 -342h82q66 0 101.5 47t35.5 135q0 160 -139 160h-82z" />
<glyph unicode="&#xaf;" horiz-adv-x="681" d="M211 1217h614l2 -179h-614z" />
<glyph unicode="&#xb0;" horiz-adv-x="819" d="M231 1096q0 121 83.5 204.5t205.5 83.5t206.5 -84.5t84.5 -205.5q0 -123 -83.5 -206t-207.5 -83q-120 0 -204.5 85t-84.5 206zM315 1096q0 -88 61 -152.5t144 -64.5q86 0 146.5 63t60.5 152q0 88 -61 152.5t-146 64.5t-145 -63t-60 -152z" />
<glyph unicode="&#xb1;" horiz-adv-x="1167" d="M133 659v179h422l-2 422h178l2 -422h422v-179h-422l2 -290h-178l-2 290h-422zM135 287h1022l2 -178h-1022z" />
<glyph unicode="&#xb2;" horiz-adv-x="614" d="M70 555v33q142 134 197 188t100 105q77 87 109 142.5t32 102.5q0 63 -32 99.5t-87 36.5q-46 0 -83.5 -22t-82.5 -77l-37 23q55 101 126 149.5t163 48.5q94 0 157.5 -58t63.5 -144q0 -72 -42 -136.5t-142 -146.5l-254 -205h182q78 2 112 18.5t71 73.5h30l-100 -231h-483z " />
<glyph unicode="&#xb3;" horiz-adv-x="614" d="M100 639q0 35 21 58.5t53 23.5q47 0 90 -55q31 -43 44 -52.5t42 -9.5q60 0 101 53t41 131q0 178 -205 187l4 29q244 46 244 172q0 49 -30 77.5t-81 28.5q-44 0 -76.5 -18.5t-75.5 -67.5l-28 27q60 85 123 123t143 38q88 0 145.5 -47t57.5 -118q0 -56 -28.5 -90 t-117.5 -85l-12 -8q59 -42 83 -81.5t24 -98.5q0 -132 -114 -225.5t-274 -93.5q-84 0 -129 26.5t-45 75.5z" />
<glyph unicode="&#xb4;" horiz-adv-x="681" d="M379 1047l246 266q52 56 83 78t58 22q40 0 69 -28t29 -66q0 -29 -16.5 -49t-61.5 -47l-309 -176h-98z" />
<glyph unicode="&#xb5;" horiz-adv-x="1179" d="M-49 -297q0 45 12.5 90.5t48.5 132.5q44 103 86 224l221 759h273l-184 -633q-15 -54 -15 -83q0 -52 39 -52q64 0 159 136t146 301l101 331h274l-207 -680q-10 -33 -10 -55q0 -12 7.5 -20.5t17.5 -8.5q46 0 127 125l43 -30q-114 -158 -183 -212.5t-155 -54.5 q-56 0 -91.5 36t-35.5 93q0 44 20 136q-80 -136 -136 -187t-126 -51q-37 0 -62 10t-63 39q-45 -137 -45 -268q-2 -69 -14 -100q-20 -46 -59.5 -73.5t-86.5 -27.5q-49 0 -75.5 32t-26.5 91z" />
<glyph unicode="&#xb6;" d="M72 969q0 201 105 294t331 93h602v-49q-46 -4 -49 -4q-44 -5 -63 -9t-32 -18.5t-15 -32.5t-3 -61v-29v-47l8 -1479h-188l-10 1680h-101l11 -1680h-189l-6 905q-77 3 -123 14.5t-92 39.5q-186 109 -186 383zM252 973q0 -160 53.5 -255t167.5 -136l-4 725 q-70 -19 -106 -41.5t-64 -65.5q-47 -77 -47 -227z" />
<glyph unicode="&#xb7;" horiz-adv-x="512" d="M168 672q0 63 43 105t106 42q62 0 106 -44t44 -107q0 -62 -43.5 -105t-106.5 -43q-65 0 -107 43t-42 109z" />
<glyph unicode="&#xb8;" horiz-adv-x="681" d="M-76 -391l45 67q72 -34 135 -34q52 0 82.5 22.5t30.5 59.5q0 35 -24.5 54t-69.5 19q-31 0 -62 -8l-26 25l133 196h88l-90 -135q30 6 53 6q80 0 131 -41.5t51 -105.5q0 -75 -71 -125.5t-178 -50.5t-228 51z" />
<glyph unicode="&#xb9;" horiz-adv-x="614" d="M127 555v39q86 0 118.5 30.5t57.5 131.5q15 45 29 84q35 108 77.5 251t41.5 152q-12 41 -54 41h-10q-10 -1 -31.5 -2t-46.5 -2l4 41q250 40 359 63l-199 -669q-12 -37 -12 -70q0 -32 22 -41.5t99 -9.5v-39h-455z" />
<glyph unicode="&#xba;" horiz-adv-x="614" d="M176 991q0 100 53 192.5t141 149t183 56.5q97 0 156.5 -56.5t54.5 -144.5q-5 -98 -58.5 -185t-138.5 -139.5t-176 -52.5q-94 0 -154.5 51t-60.5 129zM340 924q0 -34 15.5 -53t41.5 -19q70 0 129 127q30 64 50.5 145t23.5 146q3 75 -51 78q-65 3 -121 -97 q-35 -61 -61.5 -159.5t-26.5 -167.5z" />
<glyph unicode="&#xbb;" d="M94 90q0 61 203 270q35 38 90 101l-82 168q-67 139 -67 182q0 12 8 21.5t20 9.5q15 0 31 -21q119 -126 344 -354v-18l-342 -252q-74 -56 -94 -76q-58 -55 -84 -55q-11 0 -19 7t-8 17zM469 90q0 31 47.5 94t155.5 176q14 15 27 29t31.5 35t33.5 37l-82 168 q-70 137 -70 182q0 12 8.5 21.5t20.5 9.5q15 0 31 -21q85 -92 344 -354v-18l-342 -252q-55 -40 -94 -76q-58 -55 -84 -55q-11 0 -19 7t-8 17z" />
<glyph unicode="&#xbc;" horiz-adv-x="1536" d="M51 555v39q86 0 119.5 30.5t58.5 129.5q1 5 5 17.5t10.5 33t11.5 35.5q43 130 81 258t38 143q0 17 -15.5 30t-37.5 13q-32 -2 -89 -4l5 41q246 40 358 63l-199 -669q-12 -37 -12 -70q0 -32 22 -41.5t99 -9.5v-39h-455zM317 -29l875 1413h117l-873 -1413h-119zM844 178 l33 135l559 518h94l-156 -530h92l-34 -123h-89l-57 -178h-174l53 178h-321zM932 301h268l105 346z" />
<glyph unicode="&#xbd;" horiz-adv-x="1536" d="M51 555v39q86 0 119.5 30.5t58.5 129.5q1 5 5 17.5t10.5 33t11.5 35.5q43 130 81 258t38 143q0 17 -15.5 30t-37.5 13q-32 -2 -89 -4l5 41q246 40 358 63l-199 -669q-12 -37 -12 -70q0 -32 22 -41.5t99 -9.5v-39h-455zM317 -29l875 1413h117l-873 -1413h-119zM907 0v33 q227 216 266 258q14 16 31 35q78 89 110 144t32 101q0 63 -32 99.5t-87 36.5q-45 0 -80.5 -21.5t-85.5 -77.5l-37 23q55 101 126 149.5t163 48.5q94 0 157.5 -58t63.5 -144q0 -72 -42 -136.5t-142 -146.5l-254 -205h182q79 2 113 19t69 73h33l-102 -231h-484z" />
<glyph unicode="&#xbe;" horiz-adv-x="1536" d="M84 647q0 35 21 58.5t53 23.5q45 0 88 -55q31 -43 43.5 -52.5t40.5 -9.5q60 0 100.5 53t40.5 130q0 89 -50 134t-153 50l4 29q124 23 183 64.5t59 105.5q0 47 -30 75.5t-81 28.5q-43 0 -75.5 -18.5t-73.5 -65.5l-29 27q60 84 122 121.5t142 37.5q86 0 143.5 -46.5 t57.5 -116.5q0 -56 -28.5 -90.5t-114.5 -81.5l-15 -9q60 -40 83.5 -80t23.5 -100q0 -129 -112.5 -221t-270.5 -92q-82 0 -127 26.5t-45 73.5zM319 -29l873 1413h119l-875 -1413h-117zM831 178l33 135l559 518h95l-156 -530h92l-35 -123h-90l-55 -178h-174l53 178h-322z M920 301h268l104 346z" />
<glyph unicode="&#xbf;" d="M133 -121q0 95 59 174.5t195 169.5l133 86q57 38 90 86t74 154l59 -14q-6 -83 -39 -157.5t-102 -164.5l-84 -104q-127 -160 -127 -299q0 -75 37.5 -118.5t103.5 -43.5q49 0 87 23.5t38 54.5q0 13 -22 45q-37 48 -37 90q0 51 35 86t86 35q54 0 89.5 -39.5t35.5 -98.5 q0 -114 -99 -187t-253 -73q-162 0 -260.5 81t-98.5 214zM621 848q0 63 43 105t108 42q62 0 106 -44t44 -107t-43.5 -105.5t-108.5 -42.5t-107 43t-42 109z" />
<glyph unicode="&#xc0;" horiz-adv-x="1366" d="M-63 0v51q54 12 85.5 39t81.5 103l748 1191h49l203 -1159q8 -44 12.5 -66.5t14 -45t17.5 -30.5t28 -16.5t40 -10.5t58 -5v-51h-617v51q98 7 129 30.5t31 88.5q0 16 -31 252h-436l-119 -207q-30 -48 -30 -92q0 -38 31 -55t102 -17v-51h-397zM395 504h377l-78 491z M584 1743q0 35 27.5 62.5t62.5 27.5q62 0 114 -68l228 -299h-92l-271 181q-69 48 -69 96z" />
<glyph unicode="&#xc1;" horiz-adv-x="1366" d="M-63 0v51q54 12 85.5 39t81.5 103l748 1191h49l203 -1159q8 -44 12.5 -66.5t14 -45t17.5 -30.5t28 -16.5t40 -10.5t58 -5v-51h-617v51q98 7 129 30.5t31 88.5q0 16 -31 252h-436l-119 -207q-30 -48 -30 -92q0 -38 31 -55t102 -17v-51h-397zM395 504h377l-78 491z M723 1466l246 267q55 58 84.5 79t56.5 21q40 0 69 -28t29 -66q0 -30 -16.5 -50.5t-63.5 -46.5l-305 -176h-100z" />
<glyph unicode="&#xc2;" horiz-adv-x="1366" d="M-63 0v51q54 12 85.5 39t81.5 103l748 1191h49l203 -1159q8 -44 12.5 -66.5t14 -45t17.5 -30.5t28 -16.5t40 -10.5t58 -5v-51h-617v51q98 7 129 30.5t31 88.5q0 16 -31 252h-436l-119 -207q-30 -48 -30 -92q0 -38 31 -55t102 -17v-51h-397zM395 504h377l-78 491z M528 1466l322 353h164l176 -353h-103l-180 193l-264 -193h-115z" />
<glyph unicode="&#xc3;" horiz-adv-x="1366" d="M-63 0v51q54 12 85.5 39t81.5 103l748 1191h49l203 -1159q8 -44 12.5 -66.5t14 -45t17.5 -30.5t28 -16.5t40 -10.5t58 -5v-51h-617v51q98 7 129 30.5t31 88.5q0 16 -31 252h-436l-119 -207q-30 -48 -30 -92q0 -38 31 -55t102 -17v-51h-397zM395 504h377l-78 491z M514 1507q22 111 84.5 175.5t149.5 64.5q79 0 196 -53q79 -33 111 -33q35 0 57.5 19t44.5 67h84q-34 -128 -89.5 -185t-147.5 -57q-50 0 -115 27l-119 47q-46 16 -78 16q-34 0 -55 -19.5t-41 -68.5h-82z" />
<glyph unicode="&#xc4;" horiz-adv-x="1366" d="M-63 0v51q54 12 85.5 39t81.5 103l748 1191h49l203 -1159q8 -44 12.5 -66.5t14 -45t17.5 -30.5t28 -16.5t40 -10.5t58 -5v-51h-617v51q98 7 129 30.5t31 88.5q0 16 -31 252h-436l-119 -207q-30 -48 -30 -92q0 -38 31 -55t102 -17v-51h-397zM395 504h377l-78 491z M539 1614q0 56 37.5 94.5t91.5 38.5q56 0 95.5 -39.5t39.5 -95.5q0 -53 -40 -91t-95 -38q-51 0 -90 39.5t-39 91.5zM969 1614q0 56 37.5 94.5t91.5 38.5q56 0 95.5 -39.5t39.5 -95.5q0 -53 -40 -91t-95 -38q-51 0 -90 39.5t-39 91.5z" />
<glyph unicode="&#xc5;" horiz-adv-x="1366" d="M-63 0v51q54 12 85.5 39t81.5 103l748 1191h49l203 -1159q8 -44 12.5 -66.5t14 -45t17.5 -30.5t28 -16.5t40 -10.5t58 -5v-51h-617v51q98 7 129 30.5t31 88.5q0 16 -31 252h-436l-119 -207q-30 -48 -30 -92q0 -38 31 -55t102 -17v-51h-397zM395 504h377l-78 491z M674 1712q0 86 63.5 148.5t151.5 62.5q89 0 153 -64t64 -153t-63 -152t-152 -63q-91 0 -154 64.5t-63 156.5zM772 1708q0 -49 34.5 -84t82.5 -35q49 0 85 34.5t36 80.5q0 51 -36 87t-87 36q-46 0 -80.5 -36t-34.5 -83z" />
<glyph unicode="&#xc6;" horiz-adv-x="1933" d="M-55 0v49q43 8 59 19q10 4 31 29t88 110l735 956q41 50 41 88q0 29 -33 40.5t-133 17.5v47h1194l-88 -385l-49 10l-4 80q-12 229 -330 229q-64 0 -86.5 -12t-32.5 -53l-129 -475h19h20q151 -1 224.5 44t127.5 171l54 -9l-146 -553l-51 9l4 43q2 20 2 47q0 55 -9.5 85.5 t-41 52t-81 30t-138.5 14.5l-125 -487q-10 -36 -10 -58q0 -40 27 -58t90 -18q222 0 358 93q57 40 102 92.5t109 154.5l53 -6l-119 -397h-1067v49q78 12 105.5 38t50.5 108l92 321h-389l-229 -317q-31 -45 -31 -78q0 -35 28 -50.5t103 -21.5v-49h-395zM528 596h351l182 674 h-25z" />
<glyph unicode="&#xc7;" horiz-adv-x="1366" d="M135 494q0 180 65.5 345.5t176 286t262.5 192t317 71.5q131 0 267 -43q53 -17 75 -17q24 0 40 12.5t38 47.5h62l-101 -476l-65 13q6 41 6 71q0 148 -71.5 234t-194.5 86q-126 0 -238 -92q-137 -116 -231 -347t-94 -452q0 -167 81 -261.5t226 -94.5q101 0 180 36 q64 26 115 69t127 134l61 -43q-45 -64 -78 -99t-80 -73q-175 -131 -393 -131q-60 0 -127 12l-67 -100q30 6 53 6q80 0 131 -41.5t51 -105.5q0 -76 -71 -126t-179 -50t-227 51l43 67q74 -34 137 -34q52 0 82.5 22.5t30.5 59.5q0 35 -25 54t-71 19q-29 0 -60 -8l-27 25 l123 182q-167 56 -258.5 185.5t-91.5 312.5z" />
<glyph unicode="&#xc8;" horiz-adv-x="1366" d="M16 0v51q78 12 107.5 39t54.5 107l244 911q20 75 20 121q0 36 -20 49q-26 15 -129 29v49h1093l-83 -385l-56 10q0 95 -13 142.5t-48 82.5q-86 86 -314 86q-61 0 -86.5 -18t-40.5 -72l-120 -452q71 -1 117 1.5t88 11.5t67 22t51 39.5t45.5 58t44.5 82.5l58 -9l-148 -553 l-55 11q6 58 6 88q0 106 -59.5 143.5t-233.5 40.5l-110 -424q-10 -35 -15 -51q-16 -62 -16 -74q0 -38 29 -54.5t96 -16.5q260 0 424 116q59 40 98.5 86.5t93.5 134.5l51 -10l-118 -393h-1123zM639 1743q0 35 27.5 62.5t62.5 27.5q63 0 115 -68l227 -299h-92l-270 181 q-70 48 -70 96z" />
<glyph unicode="&#xc9;" horiz-adv-x="1366" d="M16 0v51q78 12 107.5 39t54.5 107l244 911q20 75 20 121q0 36 -20 49q-26 15 -129 29v49h1093l-83 -385l-56 10q0 95 -13 142.5t-48 82.5q-86 86 -314 86q-61 0 -86.5 -18t-40.5 -72l-120 -452q71 -1 117 1.5t88 11.5t67 22t51 39.5t45.5 58t44.5 82.5l58 -9l-148 -553 l-55 11q6 58 6 88q0 106 -59.5 143.5t-233.5 40.5l-110 -424q-10 -35 -15 -51q-16 -62 -16 -74q0 -38 29 -54.5t96 -16.5q260 0 424 116q59 40 98.5 86.5t93.5 134.5l51 -10l-118 -393h-1123zM764 1466l246 267q55 58 84.5 79t56.5 21q40 0 69 -28t29 -66q0 -29 -17 -50 t-61 -47l-307 -176h-100z" />
<glyph unicode="&#xca;" horiz-adv-x="1366" d="M16 0v51q78 12 107.5 39t54.5 107l244 911q20 75 20 121q0 36 -20 49q-26 15 -129 29v49h1093l-83 -385l-56 10q0 95 -13 142.5t-48 82.5q-86 86 -314 86q-61 0 -86.5 -18t-40.5 -72l-120 -452q71 -1 117 1.5t88 11.5t67 22t51 39.5t45.5 58t44.5 82.5l58 -9l-148 -553 l-55 11q6 58 6 88q0 106 -59.5 143.5t-233.5 40.5l-110 -424q-10 -35 -15 -51q-16 -62 -16 -74q0 -38 29 -54.5t96 -16.5q260 0 424 116q59 40 98.5 86.5t93.5 134.5l51 -10l-118 -393h-1123zM547 1466l323 353h164l176 -353h-104l-178 193l-264 -193h-117z" />
<glyph unicode="&#xcb;" horiz-adv-x="1366" d="M16 0v51q78 12 107.5 39t54.5 107l244 911q20 75 20 121q0 36 -20 49q-26 15 -129 29v49h1093l-83 -385l-56 10q0 95 -13 142.5t-48 82.5q-86 86 -314 86q-61 0 -86.5 -18t-40.5 -72l-120 -452q71 -1 117 1.5t88 11.5t67 22t51 39.5t45.5 58t44.5 82.5l58 -9l-148 -553 l-55 11q6 58 6 88q0 106 -59.5 143.5t-233.5 40.5l-110 -424q-10 -35 -15 -51q-16 -62 -16 -74q0 -38 29 -54.5t96 -16.5q260 0 424 116q59 40 98.5 86.5t93.5 134.5l51 -10l-118 -393h-1123zM541 1614q0 56 37.5 94.5t91.5 38.5q56 0 95.5 -39.5t39.5 -95.5q0 -53 -40 -91 t-95 -38q-51 0 -90 39.5t-39 91.5zM971 1614q0 56 37.5 94.5t91.5 38.5q56 0 95.5 -39.5t39.5 -95.5q0 -53 -40 -91t-95 -38q-51 0 -90 39.5t-39 91.5z" />
<glyph unicode="&#xcc;" horiz-adv-x="796" d="M4 0v51q75 9 106 37.5t56 108.5l244 909q20 82 20 123q0 37 -20 47q-21 15 -64 18l-65 11v51h604v-51q-78 -9 -109.5 -36.5t-56.5 -109.5l-225 -852q-37 -140 -37 -174q0 -44 29.5 -61t117.5 -21v-51h-600zM354 1743q0 35 27.5 62.5t64.5 27.5q61 0 113 -68l227 -299h-90 l-272 181q-70 48 -70 96z" />
<glyph unicode="&#xcd;" horiz-adv-x="796" d="M4 0v51q75 9 106 37.5t56 108.5l244 909q20 82 20 123q0 37 -20 47q-21 15 -64 18l-65 11v51h604v-51q-78 -9 -109.5 -36.5t-56.5 -109.5l-225 -852q-37 -140 -37 -174q0 -44 29.5 -61t117.5 -21v-51h-600zM465 1473l246 266q54 57 84.5 78.5t58.5 21.5q40 0 68 -28 t28 -68q0 -29 -16.5 -48t-61.5 -46l-307 -176h-100z" />
<glyph unicode="&#xce;" horiz-adv-x="796" d="M4 0v51q75 9 106 37.5t56 108.5l244 909q20 82 20 123q0 37 -20 47q-21 15 -64 18l-65 11v51h604v-51q-78 -9 -109.5 -36.5t-56.5 -109.5l-225 -852q-37 -140 -37 -174q0 -44 29.5 -61t117.5 -21v-51h-600zM262 1466l322 353h164l176 -353h-103l-180 193l-264 -193h-115z " />
<glyph unicode="&#xcf;" horiz-adv-x="796" d="M4 0v51q75 9 106 37.5t56 108.5l244 909q20 82 20 123q0 37 -20 47q-21 15 -64 18l-65 11v51h604v-51q-78 -9 -109.5 -36.5t-56.5 -109.5l-225 -852q-37 -140 -37 -174q0 -44 29.5 -61t117.5 -21v-51h-600zM293 1614q0 56 37.5 94.5t91.5 38.5q56 0 95.5 -39.5 t39.5 -95.5q0 -53 -40 -91t-95 -38q-51 0 -90 39.5t-39 91.5zM723 1614q0 56 37.5 94.5t91.5 38.5q56 0 95.5 -39.5t39.5 -95.5q0 -53 -40 -91t-95 -38q-51 0 -90 39.5t-39 91.5z" />
<glyph unicode="&#xd0;" horiz-adv-x="1478" d="M10 0v51q73 9 106 39t56 107l125 469h-207l25 90h204l93 344q24 99 24 119q0 42 -22 55q-20 13 -127 31v51h587q287 0 450 -148.5t163 -410.5q0 -226 -116 -408t-321.5 -285.5t-459.5 -103.5h-580zM461 139q0 -37 25.5 -53t84.5 -16q287 0 443 227q82 118 128 284t46 341 q0 187 -83.5 278.5t-254.5 91.5q-48 0 -73.5 -18t-35.5 -60l-120 -458h247l-24 -90h-248l-109 -410l-2 -8q-24 -67 -24 -109z" />
<glyph unicode="&#xd1;" horiz-adv-x="1478" d="M18 0v51q37 8 57 17t39 24.5t34.5 53t31 82t41.5 132.5l240 834q-31 66 -59 85t-111 26v51h395l440 -942l160 581q35 122 35 191q0 58 -36.5 84.5t-125.5 34.5v51h422l2 -51q-33 -8 -50.5 -13.5t-37.5 -20.5t-30.5 -30.5t-26 -53.5t-28 -78t-34.5 -114l-282 -1026h-58 l-526 1112l-197 -721q-37 -130 -37 -188q0 -60 36.5 -86.5t127.5 -34.5v-51h-422zM635 1507q22 111 84 175.5t149 64.5q80 0 197 -53q76 -33 111 -33t57.5 19t44.5 67h84q-34 -127 -90.5 -184.5t-147.5 -57.5q-49 0 -114 27l-121 47q-43 16 -76 16q-34 0 -56 -19.5 t-42 -68.5h-80z" />
<glyph unicode="&#xd2;" horiz-adv-x="1478" d="M125 451q0 211 116 430.5t298 353.5q211 154 436 154q212 0 352.5 -134t140.5 -337q0 -223 -113 -443t-300 -358q-208 -154 -449 -154q-216 0 -348.5 134.5t-132.5 353.5zM418 281q0 -115 56 -181.5t153 -66.5q82 0 152 47t141 149q101 148 178.5 404t77.5 442 q0 109 -57.5 176.5t-149.5 67.5q-99 0 -181.5 -64.5t-158.5 -201.5q-83 -146 -147 -380t-64 -392zM731 1743q0 35 27.5 62.5t64.5 27.5q61 0 113 -68l227 -299h-92l-270 181q-70 48 -70 96z" />
<glyph unicode="&#xd3;" horiz-adv-x="1478" d="M125 451q0 211 116 430.5t298 353.5q211 154 436 154q212 0 352.5 -134t140.5 -337q0 -223 -113 -443t-300 -358q-208 -154 -449 -154q-216 0 -348.5 134.5t-132.5 353.5zM418 281q0 -115 56 -181.5t153 -66.5q82 0 152 47t141 149q101 148 178.5 404t77.5 442 q0 109 -57.5 176.5t-149.5 67.5q-99 0 -181.5 -64.5t-158.5 -201.5q-83 -146 -147 -380t-64 -392zM844 1466l246 267q52 57 82.5 78.5t56.5 21.5q40 0 69 -28t29 -66q0 -29 -17 -50t-61 -47l-307 -176h-98z" />
<glyph unicode="&#xd4;" horiz-adv-x="1478" d="M125 451q0 211 116 430.5t298 353.5q211 154 436 154q212 0 352.5 -134t140.5 -337q0 -223 -113 -443t-300 -358q-208 -154 -449 -154q-216 0 -348.5 134.5t-132.5 353.5zM418 281q0 -115 56 -181.5t153 -66.5q82 0 152 47t141 149q101 148 178.5 404t77.5 442 q0 109 -57.5 176.5t-149.5 67.5q-99 0 -181.5 -64.5t-158.5 -201.5q-83 -146 -147 -380t-64 -392zM641 1466l322 353h163l177 -353h-103l-180 193l-264 -193h-115z" />
<glyph unicode="&#xd5;" horiz-adv-x="1478" d="M125 451q0 211 116 430.5t298 353.5q211 154 436 154q212 0 352.5 -134t140.5 -337q0 -223 -113 -443t-300 -358q-208 -154 -449 -154q-216 0 -348.5 134.5t-132.5 353.5zM418 281q0 -115 56 -181.5t153 -66.5q82 0 152 47t141 149q101 148 178.5 404t77.5 442 q0 109 -57.5 176.5t-149.5 67.5q-99 0 -181.5 -64.5t-158.5 -201.5q-83 -146 -147 -380t-64 -392zM637 1507q22 111 84 175.5t149 64.5q72 0 199 -53q76 -33 109 -33q35 0 57.5 19t44.5 67h84q-34 -128 -90 -185t-148 -57q-49 0 -114 27l-119 47q-46 16 -78 16 q-34 0 -55 -19.5t-41 -68.5h-82z" />
<glyph unicode="&#xd6;" horiz-adv-x="1478" d="M125 451q0 211 116 430.5t298 353.5q211 154 436 154q212 0 352.5 -134t140.5 -337q0 -223 -113 -443t-300 -358q-208 -154 -449 -154q-216 0 -348.5 134.5t-132.5 353.5zM418 281q0 -115 56 -181.5t153 -66.5q82 0 152 47t141 149q101 148 178.5 404t77.5 442 q0 109 -57.5 176.5t-149.5 67.5q-99 0 -181.5 -64.5t-158.5 -201.5q-83 -146 -147 -380t-64 -392zM643 1614q0 56 37.5 94.5t91.5 38.5q56 0 95.5 -39.5t39.5 -95.5q0 -53 -40 -91t-95 -38q-51 0 -90 39.5t-39 91.5zM1073 1614q0 56 37.5 94.5t91.5 38.5q56 0 95.5 -39.5 t39.5 -95.5q0 -53 -40 -91t-95 -38q-51 0 -90 39.5t-39 91.5z" />
<glyph unicode="&#xd7;" horiz-adv-x="1167" d="M143 977l125 125l357 -357l352 357l127 -125l-354 -354l358 -355l-125 -127l-356 357l-353 -357l-127 127l353 355z" />
<glyph unicode="&#xd8;" horiz-adv-x="1478" d="M125 436q0 178 72.5 353.5t189 306.5t272.5 212t314 81q83 0 168 -27l106 186h101l-127 -219q58 -32 89 -58t62 -65q45 -59 70.5 -136.5t25.5 -154.5q0 -223 -113 -441.5t-300 -356.5q-211 -154 -443 -154q-86 0 -168 27l-141 -244h-96l158 277q-48 28 -73.5 47.5 t-49.5 48.5q-117 129 -117 317zM418 289q0 -69 22 -133l652 1122q-55 41 -129 41q-187 0 -332 -262q-87 -156 -150 -383.5t-63 -384.5zM494 78q56 -45 133 -45q82 0 153 47.5t140 148.5q98 145 177 402t79 434q0 61 -29 137z" />
<glyph unicode="&#xd9;" horiz-adv-x="1478" d="M209 299v10q-3 80 65 346l111 418q29 114 29 152q0 18 -2.5 27.5t-8.5 18t-25.5 14t-42.5 9.5t-69 11v51h631v-51q-95 -4 -129.5 -31t-60.5 -115l-162 -608q-36 -134 -46 -181t-10 -87q0 -97 66 -152t182 -55q166 0 269 121q46 58 82 142.5t75 231.5l117 424 q37 142 37 195q0 54 -38 81t-126 34v51h422v-51q-31 -6 -49 -11.5t-37 -21t-29 -31t-26 -54t-28.5 -78t-35.5 -114.5l-131 -463q-48 -168 -87 -258t-91 -149q-138 -162 -397 -162q-201 0 -328 94t-127 242zM715 1743q0 36 27 63t63 27q63 0 115 -68l227 -299h-92l-271 181 q-69 48 -69 96z" />
<glyph unicode="&#xda;" horiz-adv-x="1478" d="M209 299v10q-3 80 65 346l111 418q29 114 29 152q0 18 -2.5 27.5t-8.5 18t-25.5 14t-42.5 9.5t-69 11v51h631v-51q-95 -4 -129.5 -31t-60.5 -115l-162 -608q-36 -134 -46 -181t-10 -87q0 -97 66 -152t182 -55q166 0 269 121q46 58 82 142.5t75 231.5l117 424 q37 142 37 195q0 54 -38 81t-126 34v51h422v-51q-31 -6 -49 -11.5t-37 -21t-29 -31t-26 -54t-28.5 -78t-35.5 -114.5l-131 -463q-48 -168 -87 -258t-91 -149q-138 -162 -397 -162q-201 0 -328 94t-127 242zM958 1466l246 267q52 57 83 78.5t59 21.5q40 0 69 -28t29 -66 q0 -30 -16.5 -50.5t-63.5 -46.5l-307 -176h-99z" />
<glyph unicode="&#xdb;" horiz-adv-x="1478" d="M209 299v10q-3 80 65 346l111 418q29 114 29 152q0 18 -2.5 27.5t-8.5 18t-25.5 14t-42.5 9.5t-69 11v51h631v-51q-95 -4 -129.5 -31t-60.5 -115l-162 -608q-36 -134 -46 -181t-10 -87q0 -97 66 -152t182 -55q166 0 269 121q46 58 82 142.5t75 231.5l117 424 q37 142 37 195q0 54 -38 81t-126 34v51h422v-51q-31 -6 -49 -11.5t-37 -21t-29 -31t-26 -54t-28.5 -78t-35.5 -114.5l-131 -463q-48 -168 -87 -258t-91 -149q-138 -162 -397 -162q-201 0 -328 94t-127 242zM707 1466l321 353h164l178 -353h-104l-181 193l-264 -193h-114z " />
<glyph unicode="&#xdc;" horiz-adv-x="1478" d="M209 299v10q-3 80 65 346l111 418q29 114 29 152q0 18 -2.5 27.5t-8.5 18t-25.5 14t-42.5 9.5t-69 11v51h631v-51q-95 -4 -129.5 -31t-60.5 -115l-162 -608q-36 -134 -46 -181t-10 -87q0 -97 66 -152t182 -55q166 0 269 121q46 58 82 142.5t75 231.5l117 424 q37 142 37 195q0 54 -38 81t-126 34v51h422v-51q-31 -6 -49 -11.5t-37 -21t-29 -31t-26 -54t-28.5 -78t-35.5 -114.5l-131 -463q-48 -168 -87 -258t-91 -149q-138 -162 -397 -162q-201 0 -328 94t-127 242zM702 1614q0 56 37.5 94.5t91.5 38.5q56 0 96 -40t40 -95 q0 -53 -40.5 -91t-95.5 -38q-51 0 -90 39.5t-39 91.5zM1130 1614q0 55 38 94t92 39q56 0 95.5 -39.5t39.5 -95.5q0 -53 -40 -91t-95 -38q-51 0 -90.5 39.5t-39.5 91.5z" />
<glyph unicode="&#xdd;" horiz-adv-x="1251" d="M213 1305v51h573v-51q-83 -1 -112 -16.5t-29 -55.5q0 -52 68 -244q71 -216 92 -276l258 377q32 45 42.5 69t10.5 51q0 54 -28 74t-109 21v51h422v-51q-58 -12 -95.5 -40.5t-88.5 -99.5l-381 -540l-105 -387q-14 -55 -14 -91q0 -57 28 -74t127 -22v-51h-651v51 q104 7 140.5 33.5t62.5 112.5l119 438l-181 543q-13 37 -21 54.5t-17.5 32.5t-25.5 21t-32.5 10t-52.5 9zM801 1466l246 267q52 57 82.5 78.5t58.5 21.5q40 0 69 -28t29 -66q0 -29 -16.5 -49t-63.5 -48l-307 -176h-98z" />
<glyph unicode="&#xde;" horiz-adv-x="1251" d="M16 0v51q78 10 107.5 37t54.5 109l244 909q20 75 20 123q0 36 -20 49q-31 13 -129 27v51h596l-2 -51q-79 -10 -107 -35t-57 -111l-25 -78h97q212 0 323 -80.5t111 -234.5q0 -183 -149.5 -290t-403.5 -107q-75 0 -162 10l-29 -129q-20 -93 -20 -119q0 -43 30.5 -59 t116.5 -21v-51h-596zM532 442q39 -2 86 -2q106 0 168.5 38.5t100.5 127.5q45 105 45 225q0 88 -44.5 136.5t-125.5 48.5q-54 0 -80 -29q-10 -12 -23 -59z" />
<glyph unicode="&#xdf;" d="M-334 -250q0 49 29 79t76 30q45 0 70.5 -25.5t25.5 -69.5q0 -33 -23 -59q-12 -12 -12 -24q0 -23 33 -23q55 0 78 35q49 60 96 266l180 858q65 301 192.5 457t311.5 156q130 0 214.5 -76t84.5 -193t-82 -196q-51 -49 -109.5 -81t-175.5 -75q83 -18 126 -35.5t79 -50.5 q88 -76 88 -207q0 -138 -61.5 -260.5t-164 -196t-218.5 -73.5q-82 0 -146 45l39 69l9 -8q12 -15 37.5 -26t48.5 -11q69 0 124 119q36 77 62.5 208.5t26.5 231.5q0 97 -50 134q-24 19 -100 30l12 76l33 -2q8 -2 32.5 4t31.5 12q55 29 94 139t39 236q0 125 -95 125 q-69 0 -116.5 -78.5t-87.5 -257.5l-181 -825q-132 -613 -452 -613q-89 0 -144 43.5t-55 112.5z" />
<glyph unicode="&#xe0;" d="M27 231q0 116 51 243.5t129.5 228.5t178 167t189.5 66q66 0 102.5 -34.5t49.5 -110.5l35 118l225 15l-141 -478q-66 -232 -66 -301q0 -30 25 -30q23 0 52 29t91 114l43 -31q-87 -132 -160 -194t-145 -62q-57 0 -96 39t-39 96q0 28 27 136q-86 -147 -161.5 -208 t-170.5 -61q-98 0 -158.5 71t-60.5 187zM276 227q0 -47 26.5 -78.5t64.5 -31.5q88 0 170 151q58 103 100.5 248.5t42.5 237.5q0 41 -21 67t-55 29q-40 3 -87.5 -41.5t-92.5 -124.5q-63 -112 -105.5 -244.5t-42.5 -212.5zM406 1323q0 35 27.5 62.5t62.5 27.5q61 0 112 -67 l228 -299h-91l-270 180q-69 48 -69 96z" />
<glyph unicode="&#xe1;" d="M27 231q0 116 51 243.5t129.5 228.5t178 167t189.5 66q66 0 102.5 -34.5t49.5 -110.5l35 118l225 15l-141 -478q-66 -232 -66 -301q0 -30 25 -30q23 0 52 29t91 114l43 -31q-87 -132 -160 -194t-145 -62q-57 0 -96 39t-39 96q0 28 27 136q-86 -147 -161.5 -208 t-170.5 -61q-98 0 -158.5 71t-60.5 187zM276 227q0 -47 26.5 -78.5t64.5 -31.5q88 0 170 151q58 103 100.5 248.5t42.5 237.5q0 41 -21 67t-55 29q-40 3 -87.5 -41.5t-92.5 -124.5q-63 -112 -105.5 -244.5t-42.5 -212.5zM541 1047l245 266q51 56 83 78t59 22q40 0 69 -28 t29 -68q0 -28 -16.5 -48t-61.5 -46l-307 -176h-100z" />
<glyph unicode="&#xe2;" d="M27 231q0 116 51 243.5t129.5 228.5t178 167t189.5 66q66 0 102.5 -34.5t49.5 -110.5l35 118l225 15l-141 -478q-66 -232 -66 -301q0 -30 25 -30q23 0 52 29t91 114l43 -31q-87 -132 -160 -194t-145 -62q-57 0 -96 39t-39 96q0 28 27 136q-86 -147 -161.5 -208 t-170.5 -61q-98 0 -158.5 71t-60.5 187zM276 227q0 -47 26.5 -78.5t64.5 -31.5q88 0 170 151q58 103 100.5 248.5t42.5 237.5q0 41 -21 67t-55 29q-40 3 -87.5 -41.5t-92.5 -124.5q-63 -112 -105.5 -244.5t-42.5 -212.5zM315 1047l322 352h164l176 -352h-103l-180 192 l-264 -192h-115z" />
<glyph unicode="&#xe3;" d="M27 231q0 116 51 243.5t129.5 228.5t178 167t189.5 66q66 0 102.5 -34.5t49.5 -110.5l35 118l225 15l-141 -478q-66 -232 -66 -301q0 -30 25 -30q23 0 52 29t91 114l43 -31q-87 -132 -160 -194t-145 -62q-57 0 -96 39t-39 96q0 28 27 136q-86 -147 -161.5 -208 t-170.5 -61q-98 0 -158.5 71t-60.5 187zM276 227q0 -47 26.5 -78.5t64.5 -31.5q88 0 170 151q58 103 100.5 248.5t42.5 237.5q0 41 -21 67t-55 29q-40 3 -87.5 -41.5t-92.5 -124.5q-63 -112 -105.5 -244.5t-42.5 -212.5zM332 1087q20 109 83 174.5t150 65.5q80 0 197 -53 q76 -33 110 -33q35 0 57.5 18.5t45.5 67.5h84q-34 -128 -90 -185t-148 -57q-40 0 -114 27l-119 47q-49 17 -78 17q-34 0 -55 -19.5t-41 -69.5h-82z" />
<glyph unicode="&#xe4;" d="M27 231q0 116 51 243.5t129.5 228.5t178 167t189.5 66q66 0 102.5 -34.5t49.5 -110.5l35 118l225 15l-141 -478q-66 -232 -66 -301q0 -30 25 -30q23 0 52 29t91 114l43 -31q-87 -132 -160 -194t-145 -62q-57 0 -96 39t-39 96q0 28 27 136q-86 -147 -161.5 -208 t-170.5 -61q-98 0 -158.5 71t-60.5 187zM276 227q0 -47 26.5 -78.5t64.5 -31.5q88 0 170 151q58 103 100.5 248.5t42.5 237.5q0 41 -21 67t-55 29q-40 3 -87.5 -41.5t-92.5 -124.5q-63 -112 -105.5 -244.5t-42.5 -212.5zM326 1196q0 56 37.5 94.5t91.5 38.5q55 0 95 -39.5 t40 -95.5q0 -53 -40 -91t-95 -38q-51 0 -90 39.5t-39 91.5zM756 1196q0 56 37.5 94.5t91.5 38.5q55 0 95 -39.5t40 -95.5q0 -53 -40 -91t-95 -38q-51 0 -90 39.5t-39 91.5z" />
<glyph unicode="&#xe5;" d="M27 231q0 116 51 243.5t129.5 228.5t178 167t189.5 66q66 0 102.5 -34.5t49.5 -110.5l35 118l225 15l-141 -478q-66 -232 -66 -301q0 -30 25 -30q23 0 52 29t91 114l43 -31q-87 -132 -160 -194t-145 -62q-57 0 -96 39t-39 96q0 28 27 136q-86 -147 -161.5 -208 t-170.5 -61q-98 0 -158.5 71t-60.5 187zM276 227q0 -47 26.5 -78.5t64.5 -31.5q88 0 170 151q58 103 100.5 248.5t42.5 237.5q0 41 -21 67t-55 29q-40 3 -87.5 -41.5t-92.5 -124.5q-63 -112 -105.5 -244.5t-42.5 -212.5zM489 1317q0 86 64 148.5t152 62.5q89 0 153 -64 t64 -153t-63 -152t-152 -63q-91 0 -154.5 64.5t-63.5 156.5zM588 1313q0 -49 34.5 -84t82.5 -35q49 0 84.5 34t35.5 81q0 50 -36 85.5t-87 35.5q-46 0 -80 -35t-34 -82z" />
<glyph unicode="&#xe6;" horiz-adv-x="1478" d="M61 215q0 121 51 252t129.5 233.5t179 169t193.5 66.5q67 0 103.5 -29t62.5 -104l37 117l209 10l-39 -131q64 75 116 103t126 28q97 0 151 -46.5t54 -131.5q0 -124 -120.5 -220t-340.5 -147l-80 -18q-8 -55 -8 -95q0 -78 37 -125t98 -47q144 0 250 183l57 -35 q-66 -135 -165.5 -205t-225.5 -70q-73 0 -132 23.5t-93 66.5q-26 32 -40 69t-28 108q-85 -141 -166.5 -203t-183.5 -62q-100 0 -166 68.5t-66 171.5zM317 252q-3 -60 25 -97.5t74 -37.5q99 0 188 159q57 102 98 237.5t41 219.5q0 49 -27.5 82t-68.5 33q-98 0 -196 -176 q-55 -100 -92 -216t-42 -204zM907 434q82 11 164 64q180 112 180 286q0 44 -16 64t-51 20q-76 0 -141 -97.5t-125 -301.5z" />
<glyph unicode="&#xe7;" horiz-adv-x="909" d="M25 -391l45 67q72 -34 135 -34q52 0 82 22.5t30 59.5q0 35 -25 54t-71 19q-28 0 -59 -8l-27 25l121 178q-91 31 -144 109t-53 182q0 158 83.5 310.5t218 247.5t274.5 95q102 0 164.5 -50.5t62.5 -133.5q0 -62 -35 -101t-90 -39q-52 0 -85.5 30.5t-33.5 76.5q0 33 27 76 q17 28 17 39q0 15 -13.5 24.5t-32.5 9.5q-91 0 -174 -145q-54 -97 -88.5 -219.5t-34.5 -218.5q0 -82 41.5 -132.5t108.5 -50.5q65 0 119.5 41t126.5 144l55 -37q-84 -123 -154 -187q-107 -90 -245 -90q-23 0 -37 2l-68 -100q30 6 53 6q80 0 131.5 -41.5t51.5 -105.5 q0 -75 -71.5 -125.5t-178.5 -50.5q-106 0 -227 51z" />
<glyph unicode="&#xe8;" horiz-adv-x="909" d="M78 274q0 163 83.5 317.5t219 249.5t278.5 95q93 0 153 -50t60 -128q0 -109 -108 -211q-73 -69 -162.5 -107.5t-249.5 -70.5q-10 -49 -10 -97q0 -170 131 -170q64 0 115.5 40.5t122.5 146.5l59 -35q-90 -152 -178.5 -216.5t-204.5 -64.5q-134 0 -221.5 85.5t-87.5 215.5z M367 434q86 27 132.5 53t88.5 70q98 103 98 242q0 69 -57 69q-73 0 -140.5 -111.5t-121.5 -322.5zM375 1323q0 35 27.5 62.5t62.5 27.5q64 0 115 -67l227 -299h-92l-271 180q-69 48 -69 96z" />
<glyph unicode="&#xe9;" horiz-adv-x="909" d="M78 274q0 163 83.5 317.5t219 249.5t278.5 95q93 0 153 -50t60 -128q0 -109 -108 -211q-73 -69 -162.5 -107.5t-249.5 -70.5q-10 -49 -10 -97q0 -170 131 -170q64 0 115.5 40.5t122.5 146.5l59 -35q-90 -152 -178.5 -216.5t-204.5 -64.5q-134 0 -221.5 85.5t-87.5 215.5z M367 434q86 27 132.5 53t88.5 70q98 103 98 242q0 69 -57 69q-73 0 -140.5 -111.5t-121.5 -322.5zM496 1047l245 266q53 58 83.5 79t58.5 21q38 0 67 -28t29 -66q0 -29 -16.5 -49t-61.5 -47l-307 -176h-98z" />
<glyph unicode="&#xea;" horiz-adv-x="909" d="M78 274q0 163 83.5 317.5t219 249.5t278.5 95q93 0 153 -50t60 -128q0 -109 -108 -211q-73 -69 -162.5 -107.5t-249.5 -70.5q-10 -49 -10 -97q0 -170 131 -170q64 0 115.5 40.5t122.5 146.5l59 -35q-90 -152 -178.5 -216.5t-204.5 -64.5q-134 0 -221.5 85.5t-87.5 215.5z M276 1047l322 352h164l176 -352h-102l-181 192l-264 -192h-115zM367 434q86 27 132.5 53t88.5 70q98 103 98 242q0 69 -57 69q-73 0 -140.5 -111.5t-121.5 -322.5z" />
<glyph unicode="&#xeb;" horiz-adv-x="909" d="M78 274q0 163 83.5 317.5t219 249.5t278.5 95q93 0 153 -50t60 -128q0 -109 -108 -211q-73 -69 -162.5 -107.5t-249.5 -70.5q-10 -49 -10 -97q0 -170 131 -170q64 0 115.5 40.5t122.5 146.5l59 -35q-90 -152 -178.5 -216.5t-204.5 -64.5q-134 0 -221.5 85.5t-87.5 215.5z M266 1196q0 56 37.5 94.5t91.5 38.5q55 0 95 -39.5t40 -95.5q0 -53 -40 -91t-95 -38q-51 0 -90 39.5t-39 91.5zM367 434q86 27 132.5 53t88.5 70q98 103 98 242q0 69 -57 69q-73 0 -140.5 -111.5t-121.5 -322.5zM696 1196q0 56 37.5 94.5t91.5 38.5q56 0 96 -40t40 -95 q0 -53 -40.5 -91t-95.5 -38q-51 0 -90 39.5t-39 91.5z" />
<glyph unicode="&#xec;" horiz-adv-x="569" d="M72 109q0 43 24 141l115 434q16 59 16 82q0 59 -94 59h-27v56q249 19 410 55l-182 -678q-17 -82 -17 -104q0 -12 9.5 -21.5t21.5 -9.5q48 0 129 123l27 41l45 -29q-104 -161 -174.5 -218.5t-161.5 -57.5q-63 0 -102 35t-39 92zM158 1323q0 36 27 63t63 27q63 0 114 -67 l228 -299h-92l-271 180q-69 48 -69 96z" />
<glyph unicode="&#xed;" horiz-adv-x="569" d="M72 109q0 43 24 141l115 434q16 59 16 82q0 59 -94 59h-27v56q249 19 410 55l-182 -678q-17 -82 -17 -104q0 -12 9.5 -21.5t21.5 -9.5q46 0 129 123l27 41l45 -29q-104 -161 -174.5 -218.5t-161.5 -57.5q-63 0 -102 35t-39 92zM289 1047l246 266q54 57 84.5 78.5 t56.5 21.5q40 0 69 -28t29 -66q0 -29 -16.5 -49t-61.5 -47l-307 -176h-100z" />
<glyph unicode="&#xee;" horiz-adv-x="569" d="M35 1047l321 352h166l176 -352h-104l-178 192l-266 -192h-115zM72 111q0 34 24 139l117 434q14 65 14 82q0 59 -94 59h-27v56q253 19 410 55l-180 -678q-19 -63 -19 -104q0 -12 9.5 -21.5t21.5 -9.5q48 0 129 123l29 41l45 -29q-106 -162 -176 -219t-162 -57 q-63 0 -102 35.5t-39 93.5z" />
<glyph unicode="&#xef;" horiz-adv-x="569" d="M61 1196q0 56 37.5 94.5t91.5 38.5q56 0 96 -40t40 -95q0 -53 -40.5 -91t-95.5 -38q-51 0 -90 39.5t-39 91.5zM72 109q0 50 24 141l115 434q14 61 14 82q0 59 -94 59h-25l-2 56q251 19 410 55l-180 -678q-19 -74 -19 -104q0 -12 9.5 -21.5t21.5 -9.5q46 0 131 123l27 41 l45 -29q-104 -161 -174.5 -218.5t-161.5 -57.5q-63 0 -102 35t-39 92zM492 1196q0 56 37.5 94.5t91.5 38.5q55 0 95 -39.5t40 -95.5q0 -53 -40 -91t-95 -38q-51 0 -90 39.5t-39 91.5z" />
<glyph unicode="&#xf0;" d="M63 274q0 163 79.5 317.5t208.5 249.5t265 95q90 0 146 -84l4 8q-14 156 -127 303l-242 -125l-67 62l248 131q-120 111 -236 131l88 55q143 -20 268 -123l215 117l70 -65l-215 -113q104 -122 148.5 -233t44.5 -250q0 -156 -46.5 -300t-124 -248t-184 -166.5t-221.5 -62.5 q-138 0 -230 86t-92 215zM305 176q0 -143 101 -143q54 0 99.5 44.5t88.5 139.5q49 108 87 272t38 269q0 55 -26 87t-70 32q-95 0 -172 -138q-55 -98 -100.5 -273.5t-45.5 -289.5z" />
<glyph unicode="&#xf1;" horiz-adv-x="1138" d="M59 0q68 256 113 414q90 326 90 360q0 29 -22.5 39t-87.5 12v56q196 7 405 53l-127 -402q102 152 146.5 210t99.5 112q88 82 203 82q72 0 110.5 -39.5t38.5 -112.5q0 -82 -51 -233l-72 -219q-49 -146 -49 -178q0 -15 8.5 -25t20.5 -10q25 0 51.5 29.5t87.5 125.5l45 -26 q-88 -149 -158 -207.5t-161 -58.5q-66 0 -103 32t-37 90q0 88 56 265l108 336q10 33 10 43q0 17 -15.5 30t-35.5 13q-27 0 -67 -29t-72 -70q-94 -129 -157 -280t-132 -412h-246zM336 1087q19 109 82 174.5t149 65.5q79 0 199 -53q76 -33 108 -33q37 0 59.5 18.5t45.5 67.5 h82q-32 -127 -88.5 -184.5t-147.5 -57.5q-42 0 -114 27l-121 47q-46 17 -76 17q-35 0 -55.5 -19t-42.5 -70h-80z" />
<glyph unicode="&#xf2;" d="M63 276q0 166 82 319.5t216.5 247t279.5 93.5q139 0 229.5 -86.5t90.5 -220.5q0 -126 -48 -247t-126 -210.5t-184 -144t-216 -54.5q-140 0 -232 86.5t-92 216.5zM305 160q0 -59 27.5 -93t73.5 -34q54 0 99.5 44.5t88.5 139.5q49 107 87 271.5t38 269.5q0 55 -26 87 t-70 32q-98 0 -174 -140q-54 -93 -99 -274.5t-45 -302.5zM418 1323q0 35 27.5 62.5t62.5 27.5q60 0 115 -67l225 -299h-90l-271 180q-69 48 -69 96z" />
<glyph unicode="&#xf3;" d="M63 276q0 166 82 319.5t216.5 247t279.5 93.5q139 0 229.5 -86.5t90.5 -220.5q0 -126 -48 -247t-126 -210.5t-184 -144t-216 -54.5q-140 0 -232 86.5t-92 216.5zM305 160q0 -59 27.5 -93t73.5 -34q54 0 99.5 44.5t88.5 139.5q49 107 87 271.5t38 269.5q0 55 -26 87 t-70 32q-98 0 -174 -140q-54 -93 -99 -274.5t-45 -302.5zM518 1047l246 266q52 57 82.5 78.5t56.5 21.5q40 0 69 -28t29 -66q0 -29 -16.5 -49.5t-60.5 -46.5l-308 -176h-98z" />
<glyph unicode="&#xf4;" d="M63 276q0 166 82 319.5t216.5 247t279.5 93.5q139 0 229.5 -86.5t90.5 -220.5q0 -126 -48 -247t-126 -210.5t-184 -144t-216 -54.5q-140 0 -232 86.5t-92 216.5zM305 160q0 -59 27.5 -93t73.5 -34q54 0 99.5 44.5t88.5 139.5q49 107 87 271.5t38 269.5q0 55 -26 87 t-70 32q-98 0 -174 -140q-54 -93 -99 -274.5t-45 -302.5zM305 1047l322 352h164l176 -352h-103l-180 192l-264 -192h-115z" />
<glyph unicode="&#xf5;" d="M63 276q0 166 82 319.5t216.5 247t279.5 93.5q139 0 229.5 -86.5t90.5 -220.5q0 -126 -48 -247t-126 -210.5t-184 -144t-216 -54.5q-140 0 -232 86.5t-92 216.5zM305 160q0 -59 27.5 -93t73.5 -34q54 0 99.5 44.5t88.5 139.5q49 107 87 271.5t38 269.5q0 55 -26 87 t-70 32q-98 0 -174 -140q-54 -93 -99 -274.5t-45 -302.5zM309 1087q20 110 83 175t149 65q78 0 198 -53q76 -33 109 -33q36 0 58.5 18.5t45.5 67.5h82q-32 -127 -88 -184.5t-147 -57.5q-53 0 -115 27l-121 47q-46 17 -76 17q-35 0 -56.5 -19.5t-41.5 -69.5h-80z" />
<glyph unicode="&#xf6;" d="M63 276q0 166 82 319.5t216.5 247t279.5 93.5q139 0 229.5 -86.5t90.5 -220.5q0 -126 -48 -247t-126 -210.5t-184 -144t-216 -54.5q-140 0 -232 86.5t-92 216.5zM305 160q0 -59 27.5 -93t73.5 -34q54 0 99.5 44.5t88.5 139.5q49 107 87 271.5t38 269.5q0 55 -26 87 t-70 32q-98 0 -174 -140q-54 -93 -99 -274.5t-45 -302.5zM315 1196q0 56 37.5 94.5t91.5 38.5q56 0 96 -40t40 -95q0 -53 -40.5 -91t-95.5 -38q-51 0 -90 39.5t-39 91.5zM745 1196q0 56 37.5 94.5t91.5 38.5q56 0 96 -40t40 -95q0 -53 -40.5 -91t-95.5 -38q-51 0 -90 39.5 t-39 91.5z" />
<glyph unicode="&#xf7;" horiz-adv-x="1167" d="M115 532v179h1022v-179h-1022zM473 1044q0 63 43.5 105.5t108.5 42.5q62 0 105.5 -44.5t43.5 -107.5q0 -62 -43.5 -104.5t-107.5 -42.5t-107 43t-43 108zM477 203q0 63 44 106t108 43q61 0 105 -44.5t44 -106.5q0 -63 -43.5 -106.5t-107.5 -43.5q-63 0 -106.5 44 t-43.5 108z" />
<glyph unicode="&#xf8;" d="M63 274q0 126 48.5 248t128 212.5t187 146t218.5 55.5q42 0 86 -12l119 211h74l-129 -236q86 -43 126 -108t40 -162q0 -168 -80 -320t-213.5 -244t-280.5 -92q-42 0 -100 17l-129 -232h-82l145 256q-158 88 -158 260zM305 160l383 690q-30 27 -65 27q-96 0 -174 -140 q-54 -97 -99 -273t-45 -290v-14zM330 70q27 -37 76 -37q54 0 99.5 44.5t88.5 139.5q49 106 87 270t38 265q0 8 -2 12z" />
<glyph unicode="&#xf9;" horiz-adv-x="1138" d="M100 133q0 72 43 217l78 268q29 95 29 150q0 31 -21 40.5t-94 14.5v56q162 9 367 49q41 8 57 8l-188 -625q-29 -100 -29 -133q0 -51 43 -51q59 0 147 113q88 110 144.5 244.5t138.5 424.5h240l-156 -542q-47 -163 -47 -213q0 -15 8.5 -25t20.5 -10q26 0 58 33.5t85 115.5 l43 -24q-78 -136 -156.5 -199t-169.5 -63q-131 0 -131 122q0 81 47 222q-82 -115 -131.5 -177.5t-96.5 -102.5t-84.5 -52t-90.5 -12q-154 0 -154 151zM461 1323q0 36 27 63t63 27q64 0 115 -67l227 -299h-92l-271 180q-69 48 -69 96z" />
<glyph unicode="&#xfa;" horiz-adv-x="1138" d="M100 133q0 72 43 217l78 268q29 95 29 150q0 31 -21 40.5t-94 14.5v56q162 9 367 49q41 8 57 8l-188 -625q-29 -100 -29 -133q0 -51 43 -51q59 0 147 113q88 110 144.5 244.5t138.5 424.5h240l-156 -542q-47 -163 -47 -213q0 -15 8.5 -25t20.5 -10q26 0 58 33.5t85 115.5 l43 -24q-78 -136 -156.5 -199t-169.5 -63q-131 0 -131 122q0 81 47 222q-82 -115 -131.5 -177.5t-96.5 -102.5t-84.5 -52t-90.5 -12q-154 0 -154 151zM633 1047l246 266q55 58 84.5 79t58.5 21q38 0 67 -28t29 -66q0 -29 -16.5 -49t-61.5 -47l-307 -176h-100z" />
<glyph unicode="&#xfb;" horiz-adv-x="1138" d="M100 133q0 72 43 217l78 268q29 95 29 150q0 31 -21 40.5t-94 14.5v56q162 9 367 49q41 8 57 8l-188 -625q-29 -100 -29 -133q0 -51 43 -51q59 0 147 113q88 110 144.5 244.5t138.5 424.5h240l-156 -542q-47 -163 -47 -213q0 -15 8.5 -25t20.5 -10q26 0 58 33.5t85 115.5 l43 -24q-78 -136 -156.5 -199t-169.5 -63q-131 0 -131 122q0 81 47 222q-82 -115 -131.5 -177.5t-96.5 -102.5t-84.5 -52t-90.5 -12q-154 0 -154 151zM352 1047l324 352h164l176 -352h-105l-178 192l-264 -192h-117z" />
<glyph unicode="&#xfc;" horiz-adv-x="1138" d="M100 133q0 72 43 217l78 268q29 95 29 150q0 31 -21 40.5t-94 14.5v56q162 9 367 49q41 8 57 8l-188 -625q-29 -100 -29 -133q0 -51 43 -51q59 0 147 113q88 110 144.5 244.5t138.5 424.5h240l-156 -542q-47 -163 -47 -213q0 -15 8.5 -25t20.5 -10q26 0 58 33.5t85 115.5 l43 -24q-78 -136 -156.5 -199t-169.5 -63q-131 0 -131 122q0 81 47 222q-82 -115 -131.5 -177.5t-96.5 -102.5t-84.5 -52t-90.5 -12q-154 0 -154 151zM373 1196q0 56 37.5 94.5t91.5 38.5q56 0 95.5 -39.5t39.5 -95.5q0 -53 -40 -91t-95 -38q-51 0 -90 39.5t-39 91.5z M801 1196q0 56 37.5 94.5t91.5 38.5q56 0 95.5 -39.5t39.5 -95.5q0 -53 -40 -91t-95 -38q-51 0 -90 39.5t-39 91.5z" />
<glyph unicode="&#xfd;" horiz-adv-x="909" d="M-119 -293q0 43 30.5 77t70.5 34q25 0 60.5 -12t55.5 -27q17 -13 39.5 -23t34.5 -10q57 0 121.5 85t64.5 159q0 103 -104 585q-46 217 -100 248q-17 11 -60 11v53q174 16 301 49q27 -70 65.5 -227t71.5 -334l27 -152q103 204 137.5 286.5t34.5 127.5q0 22 -10 37t-39 35 q-37 28 -50.5 51t-13.5 61q0 44 34.5 79.5t78.5 35.5q53 0 91 -38.5t38 -92.5q0 -154 -151.5 -459.5t-348.5 -548.5q-82 -100 -175.5 -156.5t-178.5 -56.5q-53 0 -89 35.5t-36 87.5zM459 1047l246 266q52 57 82.5 78.5t58.5 21.5q40 0 69 -28t29 -68q0 -29 -16 -47.5 t-64 -46.5l-307 -176h-98z" />
<glyph unicode="&#xfe;" d="M-170 -360q73 -3 101.5 28t56.5 142l321 1277q33 132 33 154q0 62 -92 62q-16 0 -37 -3v56q245 27 418 61l-189 -690l7 -6q76 115 146.5 165t156.5 50q100 0 159.5 -67.5t59.5 -180.5q0 -172 -81.5 -339t-211.5 -271.5t-264 -104.5q-32 0 -57.5 8.5t-80.5 36.5l-8 -26 q0 -16 -14 -58q-51 -199 -51 -229q0 -37 28.5 -51t102.5 -14l2 -56h-506v56zM299 117q0 -30 23.5 -51t56.5 -21q103 0 194 166q54 99 96 233.5t48 231.5q3 50 -18.5 82t-61.5 35q-38 3 -85 -31t-85 -94q-23 -36 -42.5 -90.5t-57.5 -182.5q-68 -237 -68 -278z" />
<glyph unicode="&#xff;" horiz-adv-x="909" d="M-119 -293q0 43 30.5 77t70.5 34q25 0 60.5 -12t55.5 -27q17 -13 39.5 -23t34.5 -10q57 0 121.5 85t64.5 159q0 103 -104 585q-46 217 -100 248q-17 11 -60 11v53q174 16 301 49q27 -70 65.5 -227t71.5 -334l27 -152q103 204 137.5 286.5t34.5 127.5q0 22 -10 37t-39 35 q-37 28 -50.5 51t-13.5 61q0 44 34.5 79.5t78.5 35.5q53 0 91 -38.5t38 -92.5q0 -154 -151.5 -459.5t-348.5 -548.5q-82 -100 -175.5 -156.5t-178.5 -56.5q-53 0 -89 35.5t-36 87.5zM197 1196q0 56 37.5 94.5t91.5 38.5q56 0 95.5 -39.5t39.5 -95.5q0 -53 -40 -91t-95 -38 q-51 0 -90 39.5t-39 91.5zM627 1196q0 56 37.5 94.5t91.5 38.5q56 0 95.5 -39.5t39.5 -95.5q0 -53 -40 -91t-95 -38q-51 0 -90 39.5t-39 91.5z" />
<glyph unicode="&#x152;" horiz-adv-x="1933" d="M119 455q0 216 105.5 423.5t283.5 340.5q112 84 224 118.5t274 34.5q53 0 114 -6q153 -10 185 -10h680l-91 -387l-51 12q2 27 2 72q0 237 -336 237q-52 0 -69.5 -16t-36.5 -80l-121 -444h43h8q137 -2 210 44t122 164l53 -6l-141 -551l-55 11q1 6 1.5 14.5t1 14t1.5 8.5 q4 66 4 81q0 61 -41 99q-24 20 -67 30.5t-156 20.5l-127 -496q-9 -27 -9 -51q0 -37 35 -53.5t113 -16.5q179 0 297.5 77t222.5 263l53 -10l-118 -393h-600h-56q-23 -2 -49 -2h-45l-311 -14h-39q-239 0 -367 108q-71 62 -109 155.5t-38 207.5zM406 322q0 -125 66.5 -199 t180.5 -74q87 0 135.5 45t79.5 154l213 792q25 86 25 138q0 63 -38 96t-110 33q-92 0 -169 -49.5t-150 -153.5q-95 -138 -164 -370t-69 -412z" />
<glyph unicode="&#x153;" horiz-adv-x="1478" d="M84 295q0 154 90 313q88 154 221 241t281 87q82 0 135 -28t100 -97q90 71 154 98t143 27q105 0 166.5 -49t61.5 -135q0 -142 -174 -256q-68 -43 -132 -65.5t-219 -57.5q-16 -65 -16 -111q0 -162 137 -162q70 0 120 38.5t118 144.5l57 -31q-40 -75 -69 -116t-66 -73 q-107 -90 -246 -90q-69 0 -123 26.5t-114 90.5q-126 -117 -299 -117q-145 0 -235.5 89t-90.5 233zM324 199q0 -80 28 -123t80 -43q56 0 102.5 45t92.5 143q44 95 85.5 259.5t41.5 244.5q0 152 -113 152q-72 0 -130 -79t-118 -261q-69 -204 -69 -338zM924 442 q114 32 176.5 73.5t107.5 113.5q49 77 49 164q0 38 -20 59.5t-55 21.5q-43 0 -72 -32q-48 -55 -79.5 -122t-106.5 -278z" />
<glyph unicode="&#x178;" horiz-adv-x="1251" d="M213 1305v51h573v-51q-83 -1 -112 -16.5t-29 -55.5q0 -52 68 -244q71 -216 92 -276l258 377q32 45 42.5 69t10.5 51q0 54 -28 74t-109 21v51h422v-51q-58 -12 -95.5 -40.5t-88.5 -99.5l-381 -540l-105 -387q-14 -55 -14 -91q0 -57 28 -74t127 -22v-51h-651v51 q104 7 140.5 33.5t62.5 112.5l119 438l-181 543q-13 37 -21 54.5t-17.5 32.5t-25.5 21t-32.5 10t-52.5 9zM547 1614q0 56 37.5 94.5t91.5 38.5q56 0 95.5 -39.5t39.5 -95.5q0 -53 -40 -91t-95 -38q-51 0 -90 39.5t-39 91.5zM977 1614q0 56 37.5 94.5t91.5 38.5 q56 0 95.5 -39.5t39.5 -95.5q0 -53 -40 -91t-95 -38q-51 0 -90 39.5t-39 91.5z" />
<glyph unicode="&#x2c6;" horiz-adv-x="681" d="M154 1047l321 352h166l176 -352h-104l-178 192l-267 -192h-114z" />
<glyph unicode="&#x2dc;" horiz-adv-x="681" d="M176 1087q20 110 83 175t151 65q79 0 196 -53q76 -33 111 -33t57 18.5t45 67.5h84q-34 -128 -89.5 -185t-147.5 -57q-43 0 -115 27l-119 47q-49 17 -78 17q-34 0 -55 -19.5t-41 -69.5h-82z" />
<glyph unicode="&#x2000;" horiz-adv-x="961" />
<glyph unicode="&#x2001;" horiz-adv-x="1923" />
<glyph unicode="&#x2002;" horiz-adv-x="961" />
<glyph unicode="&#x2003;" horiz-adv-x="1923" />
<glyph unicode="&#x2004;" horiz-adv-x="641" />
<glyph unicode="&#x2005;" horiz-adv-x="480" />
<glyph unicode="&#x2006;" horiz-adv-x="320" />
<glyph unicode="&#x2007;" horiz-adv-x="320" />
<glyph unicode="&#x2008;" horiz-adv-x="240" />
<glyph unicode="&#x2009;" horiz-adv-x="384" />
<glyph unicode="&#x200a;" horiz-adv-x="106" />
<glyph unicode="&#x2010;" horiz-adv-x="681" d="M72 336l47 235h497l-47 -235h-497z" />
<glyph unicode="&#x2011;" horiz-adv-x="681" d="M72 336l47 235h497l-47 -235h-497z" />
<glyph unicode="&#x2012;" horiz-adv-x="681" d="M72 336l47 235h497l-47 -235h-497z" />
<glyph unicode="&#x2013;" d="M-12 360l32 185h1014l-33 -185h-1013z" />
<glyph unicode="&#x2014;" horiz-adv-x="2048" d="M-8 360l33 185h2027l-33 -185h-2027z" />
<glyph unicode="&#x2018;" horiz-adv-x="681" d="M324 948q0 123 105.5 243.5t279.5 197.5l26 -50q-237 -127 -237 -235q0 -23 12.5 -40t46.5 -40q47 -31 65.5 -59.5t18.5 -69.5q0 -64 -40.5 -105.5t-102.5 -41.5q-78 0 -126 55t-48 145z" />
<glyph unicode="&#x2019;" horiz-adv-x="681" d="M264 797q238 127 238 235q0 23 -13 39.5t-49 40.5q-46 31 -64 59.5t-18 69.5q0 64 41 106t103 42q78 0 126 -55t48 -146q0 -123 -105 -243.5t-280 -196.5z" />
<glyph unicode="&#x201a;" horiz-adv-x="681" d="M61 -319q238 128 238 235q0 23 -13 40t-48 40q-46 31 -64 59t-18 70q0 64 40.5 105.5t102.5 41.5q78 0 126 -55t48 -145q0 -123 -105 -244t-280 -197z" />
<glyph unicode="&#x201c;" d="M172 948q0 123 105.5 243.5t279.5 197.5l27 -50q-238 -128 -238 -235q0 -23 13 -39.5t47 -40.5q47 -30 65 -58.5t18 -70.5q0 -64 -40.5 -105.5t-102.5 -41.5q-78 0 -126 55t-48 145zM690 948q0 123 105.5 243.5t279.5 197.5l27 -50q-238 -128 -238 -235q0 -23 13 -39.5 t47 -40.5q47 -31 65.5 -59.5t18.5 -69.5q0 -64 -41 -105.5t-103 -41.5q-78 0 -126 55t-48 145z" />
<glyph unicode="&#x201d;" d="M174 797q238 127 238 235q0 23 -13 39.5t-49 40.5q-46 31 -64 59.5t-18 69.5q0 64 41 106t103 42q78 0 126 -55t48 -146q0 -123 -105 -243.5t-280 -196.5zM692 797q240 129 240 235q0 23 -13 39.5t-49 40.5q-46 31 -64 59.5t-18 69.5q0 64 40 106t102 42q78 0 126 -55 t48 -144q0 -124 -105 -244.5t-280 -197.5z" />
<glyph unicode="&#x201e;" d="M-43 -319q238 125 238 235q0 23 -13 39.5t-49 40.5q-46 31 -64 59.5t-18 69.5q0 64 41 105.5t103 41.5q78 0 126 -55t48 -145q0 -123 -105 -244t-280 -197zM475 -319q238 128 238 235q0 23 -13 39.5t-47 40.5q-46 31 -64 59.5t-18 69.5q0 64 40 105.5t102 41.5 q78 0 126 -55t48 -145q0 -123 -105 -244t-280 -197z" />
<glyph unicode="&#x2022;" horiz-adv-x="716" d="M82 680q0 116 79 195t195 79q119 0 199 -80t80 -200q0 -111 -81.5 -192t-195.5 -81q-116 0 -196 81t-80 198z" />
<glyph unicode="&#x2026;" horiz-adv-x="2048" d="M156 125q0 63 43 105t106 42q62 0 106 -44t44 -107q0 -62 -43.5 -105t-106.5 -43q-64 0 -106.5 43.5t-42.5 108.5zM829 125q0 63 43.5 105t106.5 42q62 0 105.5 -44t43.5 -107q0 -62 -43 -105t-106 -43q-64 0 -107 43.5t-43 108.5zM1501 125q0 63 43.5 105t108.5 42 q62 0 105.5 -44t43.5 -107q0 -62 -43.5 -105t-107.5 -43t-107 43.5t-43 108.5z" />
<glyph unicode="&#x202f;" horiz-adv-x="384" />
<glyph unicode="&#x2039;" horiz-adv-x="681" d="M131 440v19l342 250q67 50 94 77q59 56 84 56q11 0 19 -7.5t8 -17.5q0 -60 -203 -272q-55 -58 -90 -99l82 -167q68 -145 68 -183q0 -13 -8.5 -21.5t-20.5 -8.5q-16 0 -31 20q-111 119 -344 354z" />
<glyph unicode="&#x203a;" horiz-adv-x="681" d="M88 90q0 61 203 270q35 38 90 101l-82 168q-68 142 -68 182q0 12 8.5 21.5t20.5 9.5q15 0 31 -21q119 -126 344 -354v-18l-342 -252q-73 -56 -94 -76q-58 -55 -84 -55q-11 0 -19 7t-8 17z" />
<glyph unicode="&#x205f;" horiz-adv-x="480" />
<glyph unicode="&#x20ac;" d="M63 510l68 84h98q8 62 27 127h-133l67 84h93q54 158 164 292.5t248 213t270 78.5q45 0 77 -6.5t109 -32.5q37 -13 57 -13q43 0 68 49h39l-101 -413h-36q0 113 -27 186q-26 71 -72 109.5t-104 38.5q-164 0 -322 -273q-68 -117 -108 -229h381l-68 -84h-340 q-19 -54 -33 -127h279l-68 -84h-223q-10 -51 -10 -123q0 -156 60.5 -241t172.5 -85q198 0 342 197l-24 -86q-132 -195 -393 -195q-217 0 -320 175q-80 143 -80 333q0 15 2 25h-160z" />
<glyph unicode="&#x2122;" horiz-adv-x="2048" d="M504 1190v160h479v-160h-25q-4 61 -40 96t-93 33h-16v-391q-1 -52 10 -66.5t53 -17.5v-23h-258v23q42 3 53.5 18.5t10.5 65.5v391h-14q-59 2 -95.5 -33t-40.5 -96h-24zM1024 821v23q43 3 54 18t9 66v315q1 52 -9.5 66.5t-53.5 17.5v23h195l151 -351l162 351h201v-23 q-43 -3 -54 -17.5t-10 -66.5v-315q-2 -51 9.5 -66t54.5 -18v-23h-260v23q41 3 52.5 18t10.5 66v334l-199 -441h-22l-191 441v-334q-1 -50 10.5 -65.5t53.5 -18.5v-23h-164z" />
<glyph unicode="&#x25fc;" horiz-adv-x="931" d="M0 0v932h932v-932h-932z" />
<glyph unicode="&#xfb04;" horiz-adv-x="1769" d="M-281 -256q0 47 31 79t78 32q43 0 71.5 -26.5t28.5 -66.5q0 -30 -26 -69q-11 -15 -11 -21q0 -8 12 -14t27 -6q55 0 91 60t71 212l211 910h-151l24 86h143q56 234 174.5 356.5t290.5 122.5q73 0 133 -24t89 -64q12 -17 18 -64q78 79 164.5 115.5t197.5 36.5q45 0 166 -17 q46 -4 66 -4q38 0 121 13l53 8l-322 -1170q-18 -57 -18 -71t10 -23.5t23 -9.5q25 0 58 31.5t67 87.5l28 47l54 -31l-31 -51q-74 -122 -147.5 -178t-159.5 -56q-69 0 -111.5 37t-42.5 97q0 52 29 165l233 846q-41 27 -41 74q0 21 6.5 36t30.5 48q6 9 6 18q0 15 -19.5 25 t-49.5 10q-136 0 -199 -145q-25 -58 -40 -104t-46 -162h195l-23 -86h-188l-84 -375q-109 -489 -222 -670q-127 -205 -325 -205q-89 0 -145 44.5t-56 115.5q0 47 31 79t78 32q43 0 71.5 -26.5t28.5 -66.5q0 -28 -27 -69q-10 -10 -10 -21q0 -8 12 -14t29 -6q54 0 89.5 60 t70.5 212l211 910h-297l-82 -375q-109 -490 -221 -670q-127 -205 -328 -205q-88 0 -143.5 44.5t-55.5 115.5zM567 920h297q37 138 76 213q-18 -3 -27 -3q-44 0 -75 27.5t-31 67.5q0 19 5 31t24 42q6 9 6 15q0 18 -39 18q-88 0 -139 -102q-37 -71 -97 -309z" />
</font>
</defs>
</svg>
