<?xml version="1.0" standalone="no"?>
<!DOCTYPE svg PUBLIC "-//W3C//DTD SVG 1.1//EN" "http://www.w3.org/Graphics/SVG/1.1/DTD/svg11.dtd" >
<svg xmlns="http://www.w3.org/2000/svg" xmlns:xlink="http://www.w3.org/1999/xlink" version="1.1">
<metadata></metadata>
<defs>
<font id="nimbus_roman_no9_lbold" horiz-adv-x="1024" >
<font-face units-per-em="2048" ascent="1356" descent="-692" />
<missing-glyph horiz-adv-x="512" />
<glyph unicode="&#xfb01;" horiz-adv-x="1138" d="M53 823v92h111v84q0 106 20.5 166.5t71.5 104.5q115 100 332 100q185 0 288 -53t103 -148q0 -54 -35.5 -87t-93.5 -33q-54 0 -88.5 30.5t-34.5 79.5q0 30 16 66q11 27 11 30q0 22 -47 40t-105 18q-86 0 -121 -40t-35 -140v-218h588v-690q-3 -112 12.5 -143t77.5 -37v-45 h-460v45q42 4 60 18t24 49t4 113v418q3 114 -11.5 144t-76.5 36h-218v-598q-3 -112 12 -143t74 -37v-45h-454v45q59 6 74 37t12 143v598h-111z" />
<glyph unicode="&#xfb02;" horiz-adv-x="1138" d="M53 823v92h111v84q0 104 17.5 164.5t60.5 106.5q50 52 118.5 76t171.5 24q109 0 183 -14h299v-1131q-2 -80 5 -114t28.5 -48t74.5 -18v-45h-501v45q53 4 75 18.5t29.5 48.5t5.5 113v830q-27 -6 -47 -6q-44 0 -76.5 29.5t-32.5 70.5q0 21 4.5 34.5t22.5 49.5q10 20 10 33 q0 20 -17.5 33.5t-45.5 13.5q-57 0 -80 -40t-23 -140v-218h172v-92h-172v-598q-3 -113 11.5 -143.5t74.5 -36.5v-45h-454v45q59 6 74 37t12 143v598h-111z" />
<glyph unicode="&#xfb03;" horiz-adv-x="1753" d="M72 823v92h123v84q0 106 17.5 165.5t61.5 105.5q97 100 299 100q208 0 283 -94q69 52 142.5 73t187.5 21q186 0 287.5 -53t101.5 -150q0 -54 -34 -86t-91 -32t-95 30t-38 74q0 17 12 78q4 20 4 24q0 26 -31.5 42t-82.5 16q-92 0 -127 -38.5t-35 -141.5v-218h577v-690 q-1 -53 1 -79.5t6 -48.5t17.5 -30.5t29.5 -13.5t49 -8v-45h-475v45q63 6 77.5 35.5t12.5 144.5v418q2 79 -3.5 113t-23.5 48.5t-61 18.5h-207v-598q-2 -78 4 -113t24 -49t60 -18v-45h-457v45q59 6 74 37t12 143v598h-297v-598q-1 -80 5 -114t23.5 -48t59.5 -18v-45h-469v45 q68 6 85 37t14 143v598h-123zM477 915h297v84v50q-123 6 -123 100q0 20 5 34t24 50q10 20 10 33q0 20 -23.5 33.5t-58.5 13.5q-75 0 -103 -38t-28 -142v-218z" />
<glyph horiz-adv-x="0" />
<glyph horiz-adv-x="682" />
<glyph unicode=" "  horiz-adv-x="512" />
<glyph unicode="&#x09;" horiz-adv-x="512" />
<glyph unicode="&#xa0;" horiz-adv-x="512" />
<glyph unicode="!" horiz-adv-x="681" d="M170 1186q0 95 45 147.5t125 52.5q82 0 126 -53t44 -151q0 -61 -37 -176q-43 -140 -63 -244t-41 -293h-58q-20 184 -40.5 290t-63.5 247q-37 110 -37 180zM172 143q0 69 50.5 119.5t119.5 50.5t119.5 -51t50.5 -121t-50 -119t-122 -49t-120 49t-48 121z" />
<glyph unicode="&#x22;" horiz-adv-x="1136" d="M178 1245q0 64 35 102.5t92 38.5t94 -38t37 -97t-88 -440h-82q-4 17 -9 39.5t-8 36.5t-5 20q-66 274 -66 338zM700 1245q0 63 35 102t92 39t94 -38t37 -97q0 -61 -88 -440h-82q-21 92 -22 96q-66 274 -66 338z" />
<glyph unicode="#" d="M18 422v147h215l35 269h-192v145h213l59 422h156l-58 -422h228l59 422h156l-60 -422h177v-145h-197l-35 -269h174v-147h-196l-60 -422h-155l57 422h-227l-58 -422h-157l59 422h-193zM389 569h227l37 269h-227z" />
<glyph unicode="$" d="M70 995q0 96 45 173t129 124q81 46 196 58v155h111v-151q120 -20 184.5 -41.5t134.5 -63.5v-284h-43q-42 150 -105.5 223t-170.5 98v-430q144 -74 208.5 -118t117.5 -103q81 -87 81 -242q0 -168 -100 -268q-47 -46 -115.5 -74t-191.5 -51v-199h-111v199 q-93 5 -154.5 20.5t-181.5 65.5v313l41 -4q50 -163 115.5 -238.5t177.5 -97.5v504q-201 101 -284.5 199.5t-83.5 232.5zM260 1112q0 -138 178 -201v381q-95 -23 -136.5 -65.5t-41.5 -114.5zM551 59q95 19 140.5 70.5t45.5 140.5q0 82 -33 123.5t-153 108.5v-443z" />
<glyph unicode="%" horiz-adv-x="2048" d="M244 1028q0 157 94.5 257.5t243.5 100.5q146 0 241 -99t95 -251q0 -154 -96 -253t-247 -99q-147 0 -239 95.5t-92 248.5zM494 1047q0 -173 19.5 -243.5t66.5 -70.5q46 0 66 68t20 227q0 164 -20 235.5t-64 71.5q-49 0 -68.5 -64t-19.5 -224zM580 -16l792 1405h109 l-791 -1405h-110zM1135 303q0 157 93.5 256.5t241.5 99.5q149 0 244.5 -99.5t95.5 -254.5q0 -156 -96.5 -258t-243.5 -102q-145 0 -240 101.5t-95 256.5zM1386 326q0 -181 19.5 -253.5t67.5 -72.5q44 0 65 72.5t21 230.5q0 164 -20 234.5t-66 70.5q-47 0 -67 -63.5 t-20 -218.5z" />
<glyph unicode="&#x26;" horiz-adv-x="1705" d="M141 322q0 142 90 246t304 210q-61 103 -83 163t-22 126q0 148 105 233.5t286 85.5q153 0 244.5 -66.5t91.5 -176.5q0 -97 -72.5 -166.5t-232.5 -128.5l303 -428q88 107 120 168t32 121q0 44 -22 58t-111 26v47h413v-47q-64 -7 -90.5 -22.5t-54.5 -59.5l-56 -88 q-81 -126 -186 -271q85 -107 134 -144.5t106 -37.5q36 0 62.5 18t53.5 58l39 -23l-32 -53q-39 -64 -61 -92t-48 -47q-35 -29 -86.5 -46.5t-99.5 -17.5q-78 0 -143 38.5t-154 137.5q-125 -92 -230 -133t-217 -41q-169 0 -276 99t-107 254zM420 528q0 -78 39.5 -167 t105.5 -156q36 -39 84 -61.5t94 -22.5q72 0 181 80q-75 101 -258 372l-97 144q-84 -49 -116.5 -90.5t-32.5 -98.5zM666 1208q0 -62 34 -132t113 -171q76 26 108.5 64t32.5 100q0 101 -55 176.5t-129 75.5q-49 0 -76.5 -30t-27.5 -83z" />
<glyph unicode="'" horiz-adv-x="569" d="M156 1245q0 64 35 102.5t92 38.5t94 -38t37 -97q0 -58 -88 -440h-82q-19 83 -23 96q-65 270 -65 338z" />
<glyph unicode="(" horiz-adv-x="681" d="M100 520q0 194 68 369t197 311q58 63 111 102.5t147 90.5v-56q-91 -60 -135.5 -107t-75.5 -114q-84 -182 -84 -600q0 -398 88 -584q32 -66 76.5 -112t130.5 -101v-57q-148 90 -228 163t-147 181q-148 237 -148 514z" />
<glyph unicode=")" horiz-adv-x="681" d="M61 -283q90 59 135 107t76 115q84 182 84 598q0 399 -88 585q-33 67 -77.5 113.5t-129.5 99.5v58q148 -90 228 -163t147 -181q148 -237 148 -514q0 -193 -68 -367.5t-197 -312.5q-57 -62 -110.5 -101.5t-147.5 -91.5v55z" />
<glyph unicode="*" d="M123 1116q0 46 26.5 73.5t69.5 27.5q40 0 67 -20t58 -71q36 -59 58.5 -80.5t80.5 -54.5l15 6q-2 62 -10 93.5t-39 89.5q-22 39 -29.5 59.5t-7.5 46.5q0 43 29 71.5t73 28.5t71 -30t27 -80q0 -40 -32 -96q-45 -73 -45 -146q0 -23 2 -37l16 -6q54 43 77 68.5t64 85.5 q31 46 53 62t56 16q40 0 72 -31.5t32 -69.5q0 -28 -21 -57t-50 -41q-29 -14 -93 -14q-63 -3 -94.5 -13t-81.5 -43v-16q56 -25 91.5 -34t103.5 -15q80 -6 112.5 -29t32.5 -74q0 -43 -27.5 -71.5t-70.5 -28.5q-41 0 -70.5 24.5t-81.5 98.5q-29 42 -49 60.5t-63 41.5l-15 -10 q6 -64 17 -101t43 -100q26 -53 26 -84q0 -44 -29 -74t-73 -30q-43 0 -69.5 31.5t-26.5 83.5q0 24 6 41.5t25 50.5q29 52 36 82t9 100l-15 10q-57 -42 -81.5 -66.5t-63.5 -84.5q-32 -46 -55 -63t-54 -17q-43 0 -71.5 28.5t-28.5 71.5q0 113 170 113q62 1 92 10.5t76 42.5 l2 15q-61 27 -99 37t-106 16q-78 5 -107.5 26.5t-29.5 75.5z" />
<glyph unicode="+" horiz-adv-x="1167" d="M78 528v177h418v419h176v-419h418v-177h-418v-419h-176v419h-418z" />
<glyph unicode="," horiz-adv-x="512" d="M84 145q0 75 45.5 120.5t120.5 45.5q91 0 147 -64.5t56 -168.5q0 -129 -79.5 -233.5t-252.5 -204.5l-23 43q113 80 165 144t52 122q0 19 -11 31t-28 12q-8 0 -14 -2q-10 -2 -33 -2q-65 0 -105 43.5t-40 113.5z" />
<glyph unicode="-" horiz-adv-x="681" d="M96 342v233h488v-233h-488z" />
<glyph unicode="." horiz-adv-x="512" d="M88 143q0 69 50 119.5t118 50.5q70 0 121 -50.5t51 -121.5q0 -70 -50 -119t-122 -49t-120 49t-48 121z" />
<glyph unicode="/" horiz-adv-x="569" d="M-43 -39l473 1423h180l-473 -1423h-180z" />
<glyph unicode="0" d="M59 682q0 126 30 255t79 210q63 109 155.5 171t190.5 62q126 0 230 -91.5t163.5 -253.5t59.5 -359q0 -200 -58.5 -361t-162.5 -251.5t-232 -90.5q-131 0 -235 90t-162 252t-58 367zM377 444q0 -223 31.5 -319t105.5 -96q70 0 100 88q14 40 24.5 139t10.5 188v461 q0 221 -32.5 320.5t-104.5 99.5q-74 0 -104.5 -95.5t-30.5 -324.5v-461z" />
<glyph unicode="1" d="M141 1110v51l506 219h35v-1142q0 -117 40 -152.5t175 -36.5v-49h-752v49q147 0 193.5 38.5t46.5 160.5v774q0 137 -72 137q-50 0 -131 -35q-5 -2 -41 -14z" />
<glyph unicode="2" d="M45 0v45q222 239 306 338.5t159 216.5q102 151 102 297q0 78 -41 143q-65 111 -198 111q-80 0 -138.5 -43t-105.5 -137h-55q41 112 78 175t96 122q109 112 266 112q163 0 267 -102.5t104 -263.5q0 -115 -55 -220.5t-173 -218.5l-325 -309h303q110 1 157 11.5t73.5 40 t56.5 104.5h49l-92 -422h-834z" />
<glyph unicode="3" d="M43 152q0 52 36 84t93 32q90 0 201 -108q49 -49 82.5 -68.5t68.5 -19.5q91 0 144 64t53 171q0 74 -25.5 139t-72.5 107q-55 52 -117 84.5t-189 77.5v33q143 46 202 105.5t59 158.5q0 95 -55 151t-150 56q-77 0 -132.5 -38t-113.5 -132l-41 24q162 307 459 307 q154 0 239.5 -72.5t85.5 -203.5q0 -87 -34.5 -140.5t-130.5 -113.5q59 -25 91 -48t66 -61q88 -108 88 -247q0 -144 -79.5 -264.5t-217.5 -189.5t-303 -69q-139 0 -223 49.5t-84 131.5z" />
<glyph unicode="4" d="M49 289v227q92 147 203 301t307 408l119 155h160v-868h127v-223h-127v-289h-291v289h-498zM131 512h420v596z" />
<glyph unicode="5" d="M55 160q0 53 34.5 87t88.5 34q77 0 201 -91q114 -84 180 -84q85 0 143 58t58 143q0 100 -76 181t-209 122q-69 22 -144 33.5t-218 20.5l194 692h647l-86 -254h-559l-43 -162q206 -12 303 -41q164 -47 255 -160.5t91 -271.5q0 -212 -158.5 -347.5t-406.5 -135.5 q-133 0 -214 48t-81 128z" />
<glyph unicode="6" d="M68 547q0 201 87.5 365.5t256.5 281.5q112 78 227 117.5t315 68.5v-53q-220 -44 -349 -169.5t-185 -346.5q81 33 170 33q171 0 273 -108.5t102 -291.5q0 -204 -122.5 -337.5t-310.5 -133.5q-211 0 -337.5 157t-126.5 417zM381 485q0 -293 53 -399q33 -59 105 -59 q49 0 74 25.5t35.5 88t10.5 185.5q0 239 -39.5 333.5t-140.5 94.5q-46 0 -71 -21q-11 -8 -19 -81.5t-8 -166.5z" />
<glyph unicode="7" d="M45 911l88 445h836l-473 -1356h-191l402 1081h-416q-78 2 -124.5 -38t-72.5 -132h-49z" />
<glyph unicode="8" d="M68 315q0 135 88 220q38 38 83 62t130 52q-149 89 -214 177t-65 202q0 160 123 256t326 96q180 0 285.5 -78t105.5 -212q0 -97 -64 -162.5t-209 -116.5q161 -103 231 -204t70 -232q0 -181 -127.5 -291.5t-336.5 -110.5q-192 0 -309 94t-117 248zM311 322 q0 -134 51.5 -209.5t143.5 -75.5q82 0 128 58t46 159q0 112 -51 181t-217 179q-60 -91 -80.5 -149.5t-20.5 -142.5zM348 1155q0 -83 68 -164t192 -145q50 68 66 114t16 119q0 115 -46 179.5t-128 64.5q-72 0 -120 -48t-48 -120z" />
<glyph unicode="9" d="M63 907q0 206 122 339.5t311 133.5q211 0 338 -156.5t127 -416.5q0 -192 -80 -350.5t-234 -274.5q-119 -89 -240.5 -133.5t-332.5 -75.5v54q216 43 343.5 167t192.5 353q-73 -37 -182 -37q-163 0 -264 109.5t-101 287.5zM369 1034q0 -237 39 -335.5t133 -98.5q52 0 80 16 q9 6 12 43q0 4 0.5 10.5t1.5 19t2 22.5q10 153 10 211q0 105 -13.5 200.5t-35.5 137.5q-33 67 -106 67q-50 0 -76 -25.5t-36.5 -86.5t-10.5 -181z" />
<glyph unicode=":" horiz-adv-x="681" d="M172 143q0 69 50 119.5t118 50.5q70 0 121 -50.5t51 -121.5q0 -70 -50 -119t-122 -49t-120 49t-48 121zM172 780q0 69 49.5 118.5t118.5 49.5q72 0 122 -49.5t50 -120.5q0 -70 -50 -120t-120 -50q-72 0 -121 49.5t-49 122.5z" />
<glyph unicode=";" horiz-adv-x="681" d="M172 145q0 75 45.5 120.5t120.5 45.5q91 0 147 -64.5t56 -168.5q0 -129 -79.5 -233.5t-252.5 -204.5l-23 43q113 80 165 144t52 122q0 18 -10 30.5t-24 12.5h-15l-22 -2q-8 -2 -17 -2q-61 0 -102 44.5t-41 112.5zM172 780q0 69 49.5 118.5t118.5 49.5q72 0 122 -49.5 t50 -120.5q0 -70 -50 -120t-120 -50q-72 0 -121 49.5t-49 122.5z" />
<glyph unicode="&#x3c;" horiz-adv-x="1167" d="M74 532v168l1020 449v-193l-772 -340l772 -337v-193z" />
<glyph unicode="=" horiz-adv-x="1167" d="M78 324v176h1012v-176h-1012zM78 733v176h1012v-176h-1012z" />
<glyph unicode="&#x3e;" horiz-adv-x="1167" d="M88 96v193l772 338l-772 340v192l1020 -446v-170z" />
<glyph unicode="?" d="M125 1092q0 127 106 208.5t271 81.5q182 0 291.5 -91t109.5 -242q0 -103 -53 -175t-191 -157q-94 -60 -117.5 -102t-23.5 -152h-59q-4 61 -4 92q0 43 13.5 85t49.5 112q50 94 68 156.5t18 140.5q0 125 -44 193.5t-126 68.5q-54 0 -87.5 -22.5t-33.5 -57.5q0 -27 31 -60 q25 -30 34 -51t9 -51q0 -59 -34 -94t-91 -35q-60 0 -98.5 43t-38.5 109zM319 143q0 69 50.5 119.5t119.5 50.5t118.5 -50.5t49.5 -121.5t-48.5 -119.5t-119.5 -48.5q-72 0 -121 49t-49 121z" />
<glyph unicode="@" horiz-adv-x="1904" d="M164 440q0 251 109.5 461.5t299 332.5t416.5 122q154 0 291.5 -59.5t235.5 -161t155.5 -243t57.5 -300.5q0 -167 -56.5 -312t-152.5 -230t-207 -85q-82 0 -138.5 52.5t-66.5 138.5q-60 -88 -132 -137.5t-142 -49.5q-88 0 -147.5 84.5t-59.5 208.5q0 141 49 280.5 t135 243.5q53 63 121.5 98.5t140.5 35.5q58 0 89.5 -27t68.5 -107l24 101h156l-145 -660q-4 -24 -4 -45q0 -123 81 -123q102 0 181 129q45 76 73.5 185t28.5 207q0 137 -51.5 262t-137.5 216t-204.5 145t-247.5 54q-189 0 -340 -106.5t-236 -296.5t-85 -426 q0 -218 88.5 -390.5t248 -269t361.5 -96.5q113 0 207.5 27.5t226.5 97.5l29 -90q-158 -87 -262.5 -119t-225.5 -32q-173 0 -327.5 68.5t-265.5 186t-175.5 281.5t-64.5 348zM797 303q0 -98 35.5 -156.5t95.5 -58.5q47 0 94 45t84 127q34 76 60 190t26 185q0 158 -90 164 q-41 3 -94.5 -32t-100.5 -97q-52 -70 -81 -167.5t-29 -199.5z" />
<glyph unicode="A" horiz-adv-x="1478" d="M33 0v49q72 13 105.5 54t90.5 182l445 1099h57l447 -1054q44 -102 68 -151.5t49.5 -82.5t46 -40t55.5 -7v-49h-649v49q44 6 63 6q52 4 74 19.5t22 46.5q0 63 -92 274h-450l-31 -80q-58 -141 -58 -182q0 -40 37.5 -59t126.5 -25v-49h-407zM393 473h391l-202 488z" />
<glyph unicode="B" horiz-adv-x="1366" d="M47 0v49q106 10 139.5 38t36.5 106v970q-3 80 -39 110t-137 34v49h621q252 0 386 -82.5t134 -237.5q0 -115 -72 -183.5t-246 -121.5q104 -22 164.5 -47.5t114.5 -71.5q108 -94 108 -235q0 -170 -154.5 -273.5t-410.5 -103.5h-645zM545 186q0 -68 27.5 -95.5t95.5 -27.5 q243 0 243 297q0 328 -307 328h-59v-502zM545 748q184 4 247.5 59.5t63.5 212.5q0 142 -49.5 209t-155.5 67q-58 0 -82 -22t-24 -76v-450z" />
<glyph unicode="C" horiz-adv-x="1478" d="M113 666q0 153 53.5 287t145.5 229t222 149.5t277 54.5q142 0 309 -71q68 -27 92 -27q31 0 49.5 19t41.5 73h53v-469h-49q-52 113 -95.5 175.5t-109.5 121.5q-128 113 -266 113q-182 0 -275.5 -162t-93.5 -475q0 -298 86 -453q44 -78 131 -126t186 -48q91 0 181 35 q76 31 134.5 75.5t145.5 137.5l62 -51q-153 -166 -276 -229.5t-294 -63.5q-206 0 -368 89.5t-252 250t-90 365.5z" />
<glyph unicode="D" horiz-adv-x="1478" d="M43 0v49q85 2 125.5 34t40.5 99v989q-2 71 -37 100t-129 36v49h612q349 0 546.5 -177t197.5 -489q0 -310 -198.5 -500t-522.5 -190h-635zM535 186q0 -68 24.5 -92t91.5 -24q194 0 295 139q49 67 77 188.5t28 264.5q0 260 -82 421q-103 205 -316 205q-118 0 -118 -69 v-1033z" />
<glyph unicode="E" horiz-adv-x="1366" d="M47 0v49q107 9 140 36.5t36 107.5v970q-3 80 -39 110t-137 34v49h1157v-404h-49q-20 103 -49.5 165.5t-85.5 102t-135 54t-205 14.5q-78 0 -104.5 -18.5t-26.5 -75.5v-467h5q156 0 226 64q70 65 94 237h52v-680h-52q-19 175 -90 243t-235 68v-485q0 -66 34.5 -89.5 t131.5 -23.5q221 0 354 107q54 43 91.5 96t84.5 154h55l-79 -418h-1174z" />
<glyph unicode="F" horiz-adv-x="1251" d="M45 0v49q107 10 140 37t36 107v970q-2 80 -38.5 110t-137.5 34v49h1137v-404h-47q-21 95 -41.5 144t-53.5 88q-91 104 -364 104q-77 0 -103 -18.5t-26 -75.5v-465q150 0 214.5 63.5t92.5 235.5h49v-680h-49q-22 174 -88 242t-219 69v-466q3 -85 44.5 -112.5t176.5 -31.5 v-49h-723z" />
<glyph unicode="G" horiz-adv-x="1593" d="M90 664q0 205 91 370.5t250.5 258.5t356.5 93q143 0 310 -71q68 -27 92 -27q30 0 48 18.5t42 73.5h53v-469h-49q-52 113 -95.5 175.5t-109.5 121.5q-128 113 -266 113q-182 0 -275.5 -163.5t-93.5 -479.5q0 -356 129 -526q51 -66 117 -95.5t162 -29.5q101 0 146.5 35 t45.5 112v211q-3 84 -39 109.5t-163 29.5v51h688v-51q-109 -9 -139 -41.5t-33 -142.5v-254q-98 -57 -248 -91t-305 -34q-156 0 -289.5 52t-227 144t-146 223t-52.5 284z" />
<glyph unicode="H" horiz-adv-x="1593" d="M59 0v49q102 12 135 40.5t35 103.5v970q-3 77 -38 107t-132 37v49h676v-49q-101 -6 -139 -36.5t-41 -107.5v-415h483v415q-3 78 -41 108t-139 36v49h682v-49q-99 -6 -137 -37t-39 -107v-970q2 -75 36.5 -103.5t139.5 -40.5v-49h-682v49q107 10 142 38.5t38 105.5v460 h-483v-460q1 -76 37 -104.5t143 -39.5v-49h-676z" />
<glyph unicode="I" horiz-adv-x="796" d="M49 0v49q109 9 147.5 38.5t39.5 105.5v970q-3 78 -42 108t-145 36v49h703v-49q-109 -3 -149 -33.5t-42 -110.5v-970q2 -79 40.5 -108.5t150.5 -35.5v-49h-703z" />
<glyph unicode="J" d="M16 233q0 57 42.5 100.5t97.5 43.5q60 0 103.5 -45t43.5 -107q0 -40 -31 -78q-22 -28 -22 -51q0 -29 24.5 -46t65.5 -17q67 0 97 41t30 133v956q-3 84 -43 112.5t-160 31.5v49h707v-49q-109 -6 -142 -40.5t-36 -146.5v-714q0 -215 -110 -327t-321 -112q-131 0 -210 47 q-60 34 -98 95t-38 124z" />
<glyph unicode="K" horiz-adv-x="1593" d="M76 0v49q105 11 139 38.5t35 105.5v970q-1 79 -37.5 109t-136.5 35v49h678v-49q-107 -6 -141.5 -42t-37.5 -145v-428l437 436q46 46 58.5 66t12.5 45q0 16 -3 24.5t-10 16t-28.5 12t-48.5 7.5t-80 8v49h580v-49q-78 -6 -128.5 -21.5t-125.5 -68t-157 -131.5t-234 -236 l612 -758q19 -23 40.5 -32t58.5 -11v-49h-674v49q58 4 63 4q94 3 94 39q0 17 -9.5 34.5t-37.5 53.5l-366 455l-54 -49v-393q2 -75 36.5 -103.5t140.5 -40.5v-49h-676z" />
<glyph unicode="L" horiz-adv-x="1366" d="M51 0v49q106 12 138.5 39t33.5 105v970q-1 78 -37.5 108t-134.5 36v49h701v-49q-68 -2 -103.5 -9t-59.5 -28.5t-31 -54.5t-9 -95v-946q0 -65 33.5 -89t124.5 -24q232 0 352 111q52 47 88 105.5t88 177.5h57l-82 -455h-1159z" />
<glyph unicode="M" horiz-adv-x="1933" d="M47 0v49q61 6 94 14.5t53.5 27.5t27 45.5t7.5 74.5v952q-2 78 -36.5 106.5t-141.5 37.5v49h508l399 -946l402 946h506v-49q-107 -6 -140 -41t-36 -146v-884q2 -77 14.5 -110.5t46.5 -50t115 -26.5v-49h-666v49q110 9 142.5 37t35.5 115v1020l-506 -1221h-53l-506 1190 v-942q2 -111 42 -150.5t161 -48.5v-49h-469z" />
<glyph unicode="N" horiz-adv-x="1478" d="M47 0v49q108 12 141.5 42.5t34.5 119.5v950q-70 86 -105.5 116t-64.5 30v49h422l703 -862v614q0 106 -39 147t-148 52v49h430v-49q-97 -15 -126 -45.5t-29 -116.5v-1182h-56l-899 1094v-809q1 -107 39 -146t152 -53v-49h-455z" />
<glyph unicode="O" horiz-adv-x="1593" d="M86 672q0 206 91 369t255 254t371 91q150 0 280.5 -54t223 -148t145.5 -226t53 -284q0 -155 -52.5 -287.5t-145.5 -226t-225 -146.5t-285 -53q-205 0 -367.5 90.5t-253 253t-90.5 367.5zM440 653q0 -305 91.5 -465.5t263.5 -160.5q175 0 265.5 161t90.5 471 q0 314 -92 488t-258 174q-177 0 -269 -171t-92 -497z" />
<glyph unicode="P" horiz-adv-x="1251" d="M45 0v49q40 8 47 8q67 7 93 46t28 133v886q-3 108 -34.5 143t-133.5 42v49h645q253 0 390 -94.5t137 -268.5q0 -119 -64.5 -207t-185.5 -135q-65 -26 -143.5 -33.5t-284.5 -9.5v-372q1 -41 3 -65t10 -46t18 -32.5t31.5 -20t46.5 -14t67 -9.5v-49h-670zM539 678 q107 0 164 12t92 43q41 33 59 92.5t18 157.5q0 161 -54.5 232t-178.5 71q-100 0 -100 -69v-539z" />
<glyph unicode="Q" horiz-adv-x="1593" d="M86 664q0 155 53.5 289t147 229t226 149.5t284.5 54.5t284 -53.5t225 -147.5t146 -227t53 -288q0 -298 -188 -498q-64 -68 -129.5 -106t-188.5 -78q26 -55 46 -84.5t49 -57.5q104 -104 252 -104q54 0 135 22l12 -47q-116 -40 -192 -54.5t-168 -14.5q-134 0 -253.5 46 t-203.5 130q-34 34 -57 69t-56 103q-114 41 -175.5 80t-123.5 108q-178 196 -178 480zM440 666q0 -313 90.5 -475t264.5 -162q175 0 265.5 161.5t90.5 473.5q0 313 -92.5 485t-259.5 172q-172 0 -265.5 -170t-93.5 -485z" />
<glyph unicode="R" horiz-adv-x="1478" d="M68 0v49q50 5 78 11.5t49 17.5t30 33t13.5 49t5.5 76v886q-3 110 -36 144.5t-140 40.5v49h647q276 0 420.5 -91.5t144.5 -265.5q0 -141 -90 -225q-41 -38 -88 -61.5t-137 -53.5l403 -571q26 -39 82 -39v-49h-412l-415 629h-54v-393q2 -77 14.5 -110.5t46.5 -50t115 -26.5 v-49h-677zM569 692q116 2 175.5 12.5t99.5 36.5q94 61 94 250q0 158 -61 227.5t-199 69.5q-75 0 -94 -31q-15 -30 -15 -53v-512z" />
<glyph unicode="S" horiz-adv-x="1138" d="M82 -39v496h57q27 -106 52 -166.5t67 -114.5q113 -149 291 -149q115 0 183.5 62t68.5 165q0 80 -46.5 131.5t-176.5 112.5l-136 63q-178 86 -260 185.5t-82 230.5q0 190 117.5 299.5t321.5 109.5q110 0 235 -45q61 -20 84 -20q27 0 40.5 14t25.5 54h59v-437h-55 q-33 99 -62.5 153.5t-79.5 106.5q-110 113 -247 113q-102 0 -161 -54t-59 -147q0 -73 42.5 -120t164.5 -107l295 -147q96 -47 157.5 -149.5t61.5 -215.5q0 -190 -137 -307t-360 -117q-126 0 -260 49q-64 21 -82 21q-25 0 -38 -15t-24 -55h-57z" />
<glyph unicode="T" horiz-adv-x="1366" d="M76 952l4 404h1206l2 -404h-57q-25 180 -112.5 257t-272.5 83v-1056q1 -42 4 -67.5t11.5 -47.5t20 -33.5t35 -20t51.5 -12t74 -6.5v-49h-716v49q45 3 72.5 7t51 13t35 20t20 33t11.5 47.5t4 66.5v1056q-186 -6 -274 -83t-113 -257h-57z" />
<glyph unicode="U" horiz-adv-x="1478" d="M47 1307v49h678v-49q-85 -3 -123.5 -18t-54 -52t-17.5 -117v-669q0 -205 70 -298.5t225 -93.5q180 0 266.5 107t86.5 330v612q0 109 -41 150.5t-156 48.5v49h440v-49q-93 -13 -123 -47t-32 -125v-639q0 -141 -37.5 -250t-106.5 -166q-64 -57 -162.5 -88t-211.5 -31 q-227 0 -371 107q-92 66 -129 150.5t-37 232.5v669q-3 111 -32.5 144.5t-131.5 42.5z" />
<glyph unicode="V" horiz-adv-x="1478" d="M47 1307v49h674v-49q-15 -2 -38 -4t-28 -3q-57 -3 -81.5 -19.5t-24.5 -51.5t45 -144l278 -669l254 659q29 76 35 97t6 45q0 48 -33 65.5t-141 24.5v49h428v-49q-78 -12 -110.5 -42t-69.5 -124l-459 -1178h-53l-514 1202q-37 83 -65 106.5t-103 35.5z" />
<glyph unicode="W" horiz-adv-x="2048" d="M59 1307v49h590v-49q-78 -7 -103.5 -24.5t-25.5 -61.5q0 -20 15 -66l241 -729l236 616l-70 193q-18 36 -50.5 52.5t-94.5 19.5v49h626v-49q-5 -1 -11 -1.5t-9.5 -1t-5.5 -1.5q-64 -3 -90.5 -19t-26.5 -51q0 -23 27 -115l217 -674l225 689q14 51 14 84q0 47 -28 65.5 t-111 24.5v49h365v-49q-98 -12 -138 -129l-401 -1209h-55l-342 959l-373 -959h-57l-424 1209q-28 73 -52.5 95.5t-87.5 33.5z" />
<glyph unicode="X" horiz-adv-x="1478" d="M47 0v49q75 11 119.5 34.5t89.5 78.5l350 444l-397 584q-46 67 -76 89t-84 28v49h694v-49q-47 -7 -61 -7q-54 -1 -75 -15t-21 -46q0 -19 5 -32t23 -42l195 -301q64 89 113 156q71 97 93.5 138t22.5 73q0 41 -24.5 54t-120.5 22v49h502v-49q-79 -7 -128.5 -31t-103 -80.5 t-145.5 -181.5l-160 -223l365 -568q72 -109 106.5 -140t87.5 -34v-49h-682v49q50 4 58 4q102 6 102 58q0 38 -41 108l-203 324l-76 -103q-112 -148 -150 -210.5t-38 -96.5q0 -38 35 -56.5t127 -27.5v-49h-502z" />
<glyph unicode="Y" horiz-adv-x="1478" d="M45 1307v49h672v-49q-23 -2 -51 -2q-60 0 -85.5 -14t-25.5 -48q0 -30 35 -94l12 -25l242 -465l223 371q78 134 78 191q0 44 -33.5 61.5t-134.5 24.5v49h440v-49q-53 -9 -83 -27t-52 -53l-383 -623v-368q1 -61 6 -92t26.5 -52.5t54 -29t97.5 -13.5v-49h-696v49 q64 6 96.5 13.5t54.5 29t27.5 52.5t7.5 92v294l-368 666q-59 102 -160 111z" />
<glyph unicode="Z" horiz-adv-x="1366" d="M70 0v33l766 1253q-111 -6 -166 -6h-30q-95 0 -158 -11q-72 -13 -128 -52.5t-92.5 -102.5t-73.5 -172h-57l43 414h1051v-33l-760 -1253h149q109 2 185 9.5t140.5 26.5t107 47t78.5 76t60.5 107.5t47.5 146.5h53l-53 -483h-1163z" />
<glyph unicode="[" horiz-adv-x="681" d="M141 -299v1659h469v-66h-125q-47 -1 -71 -5.5t-39.5 -21t-19.5 -41.5t-5 -73v-1280q-2 -63 18 -84t83 -22h159v-66h-469z" />
<glyph unicode="\" horiz-adv-x="569" d="M-45 1384h186l471 -1423h-184z" />
<glyph unicode="]" horiz-adv-x="681" d="M72 -233h159q64 1 83.5 21t17.5 85v1280q-1 48 -5 73t-19.5 41.5t-39.5 21t-71 5.5h-125v66h469v-1659h-469v66z" />
<glyph unicode="^" horiz-adv-x="1189" d="M160 625l356 731h162l356 -731h-178l-258 544l-260 -544h-178z" />
<glyph unicode="_" d="M10 -137h1004v-137h-1004v137z" />
<glyph unicode="`" horiz-adv-x="681" d="M23 1339q0 37 27.5 64t66.5 27q58 0 108 -56l275 -315h-113l-285 176q-44 27 -61.5 50.5t-17.5 53.5z" />
<glyph unicode="a" d="M61 184q0 126 129 215q56 38 144.5 73t267.5 89v148q0 92 -40 134t-128 42q-54 0 -90.5 -21.5t-36.5 -52.5q0 -16 23 -45q37 -45 37 -86q0 -52 -38 -84.5t-100 -32.5q-61 0 -95 35t-34 98q0 113 104.5 182.5t274.5 69.5q185 0 291.5 -73.5t106.5 -200.5v-524 q0 -50 43 -50q11 0 20 9l21 20l30 -43q-57 -63 -108 -89t-117 -26q-73 0 -111 32.5t-53 109.5q-84 -75 -157.5 -108.5t-159.5 -33.5q-98 0 -161 60t-63 153zM354 250q0 -60 28.5 -97.5t74.5 -37.5q37 0 69.5 19.5t73.5 66.5v291q-121 -32 -183.5 -93.5t-62.5 -148.5z" />
<glyph unicode="b" horiz-adv-x="1138" d="M45 1309v47h389v-520q57 60 114.5 86t129.5 26q168 0 273.5 -131t105.5 -338q0 -225 -127 -366.5t-328 -141.5q-75 0 -135 26t-129 89l-158 -113h-24v1219q-2 60 -23 82.5t-88 34.5zM434 195q0 -72 37 -116t100 -44q97 0 144 99.5t47 307.5q0 398 -189 398q-49 0 -81 -27 t-58 -90v-528z" />
<glyph unicode="c" horiz-adv-x="909" d="M59 446q0 218 135 360t341 142q130 0 219.5 -63.5t89.5 -155.5q0 -60 -36 -93.5t-99 -33.5q-58 0 -85.5 34.5t-27.5 108.5q0 60 -2 74t-10 29q-19 39 -74 39q-78 0 -123 -89t-45 -243q0 -206 77.5 -327.5t207.5 -121.5q61 0 107 25t102 88l36 -37q-88 -112 -177.5 -161.5 t-205.5 -49.5q-189 0 -309.5 133t-120.5 342z" />
<glyph unicode="d" horiz-adv-x="1138" d="M61 442q0 218 109.5 362t275.5 144q69 0 122.5 -27t117.5 -96v367q-3 71 -28.5 91t-122.5 26v47h430v-1153q0 -63 24.5 -88t93.5 -29v-45l-125 -16q-145 -17 -266 -52v131q-70 -75 -128 -104t-138 -29q-160 0 -262.5 132.5t-102.5 338.5zM358 459q0 -192 38 -283.5 t118 -91.5q67 0 129 68q43 50 43 73v488q-20 55 -63.5 89t-94.5 34q-88 0 -129 -91.5t-41 -285.5z" />
<glyph unicode="e" horiz-adv-x="909" d="M59 457q0 219 116 355t302 136q169 0 271 -117q48 -59 72.5 -137t33.5 -202h-506q6 -104 19.5 -163t42.5 -106q60 -106 178 -106q64 0 115.5 30.5t111.5 102.5l49 -27q-98 -141 -184 -196.5t-207 -55.5q-187 0 -300.5 133t-113.5 353zM338 565h268v31q-3 131 -16 197 q-24 94 -111 94q-75 0 -105.5 -70t-35.5 -252z" />
<glyph unicode="f" horiz-adv-x="681" d="M35 0v49q68 6 91 29.5t24 89.5v670h-115v88h115q0 131 12.5 202t44.5 123q41 65 117 100t176 35q128 0 207 -55.5t79 -144.5q0 -56 -33.5 -90.5t-90.5 -34.5q-51 0 -85 31.5t-34 78.5q0 29 26 74q17 28 17 43q0 17 -16 27t-42 10q-54 0 -77 -36t-23 -120v-243h174v-88 h-174v-631q1 -70 13.5 -101t45.5 -43.5t105 -13.5v-49h-557z" />
<glyph unicode="g" d="M68 -229q0 62 48.5 100.5t143.5 48.5q-96 35 -130 69.5t-34 96.5q0 154 240 236q-72 30 -108 53t-68 61q-74 83 -74 191q0 142 114 231.5t294 89.5q110 0 225 -43h260v-106h-162q80 -83 80 -197q0 -135 -94 -214t-254 -79q-98 0 -117.5 -1.5t-38.5 -8.5q-71 -35 -71 -94 q0 -29 15.5 -42t56 -19t128.5 -7l129 -2q161 -3 245.5 -66t84.5 -180q0 -149 -129 -226t-381 -77q-191 0 -297 48.5t-106 136.5zM244 -215q0 -135 270 -135q149 0 229 37.5t80 107.5q0 101 -161 101h-347q-42 -33 -56.5 -56.5t-14.5 -54.5zM360 625q0 -141 31 -200.5 t103 -59.5t102.5 59t30.5 199q0 141 -31 202.5t-102 61.5q-72 0 -103 -60.5t-31 -201.5z" />
<glyph unicode="h" horiz-adv-x="1138" d="M43 0v49q66 10 85.5 32t21.5 87v1024q-1 64 -19.5 83.5t-87.5 33.5v47h385v-563q77 87 140.5 121t144.5 34q123 0 196.5 -76.5t73.5 -205.5v-498q0 -62 23 -90t75 -29v-49h-471v49q50 5 72 30.5t23 82.5v485q0 166 -105 166q-69 0 -137 -68q-35 -35 -35 -47v-536 q0 -56 22 -81.5t76 -31.5v-49h-483z" />
<glyph unicode="i" horiz-adv-x="569" d="M39 0v49q67 13 85.5 34.5t20.5 84.5v592q-2 62 -21.5 84.5t-84.5 34.5v47h385v-764q0 -57 21 -83t73 -30v-49h-479zM127 1231q0 64 45.5 109.5t110.5 45.5t110 -45.5t45 -111.5t-45 -110t-112 -44q-66 0 -110 45t-44 111z" />
<glyph unicode="j" horiz-adv-x="681" d="M-104 -207q0 56 33.5 89.5t88.5 33.5q49 0 84 -32t35 -77q0 -31 -26 -73q-19 -36 -19 -45q0 -15 18 -25t46 -10q51 0 73.5 36.5t22.5 116.5v953q-1 66 -26.5 89.5t-100.5 29.5v47h405v-922q0 -165 -53 -260q-41 -73 -120 -112.5t-183 -39.5q-123 0 -200.5 56t-77.5 145z M225 1231q0 65 45 110t109 45q66 0 112 -45.5t46 -111.5q0 -64 -46 -109t-112 -45q-67 0 -110.5 44t-43.5 112z" />
<glyph unicode="k" horiz-adv-x="1138" d="M55 0v49q94 3 97 119v1024q-2 59 -25 86.5t-72 30.5v47h375v-864l256 258q17 17 30 39.5t13 35.5q0 21 -14 31q-19 11 -105 23v47h430v-47q-95 -12 -160.5 -58t-217.5 -205l389 -538q23 -32 49 -29v-49h-469v49q84 0 84 37q0 24 -47 90l-191 270l-47 -49v-229 q0 -71 17.5 -90.5t87.5 -28.5v-49h-480z" />
<glyph unicode="l" horiz-adv-x="569" d="M39 0v49q47 0 74 31t28 88v1024q-2 57 -26.5 85.5t-75.5 31.5v47h381v-1188q0 -60 26 -90q24 -29 66 -29h6v-49h-479z" />
<glyph unicode="m" horiz-adv-x="1705" d="M49 0v49q64 9 86.5 33t24.5 86v592q-2 63 -24.5 87.5t-86.5 31.5v47h383v-152q58 92 128 133t167 41q95 0 153.5 -39.5t102.5 -134.5q78 97 143.5 135.5t153.5 38.5q124 0 197 -75.5t73 -204.5v-506v-5q0 -57 22 -81q22 -25 79 -27v-49h-477v49q56 3 78 28q21 24 20 80v5 v487q0 89 -25 127.5t-82 38.5q-51 0 -112 -47q-20 -15 -40 -38.5t-20 -31.5v-536q0 -57 21.5 -83.5t72.5 -29.5v-49h-469v49q54 3 76 29t21 84v487q0 89 -25 127.5t-84 38.5q-48 0 -108 -45q-22 -18 -41 -40.5t-19 -31.5v-536q0 -57 20.5 -83t71.5 -30v-49h-481z" />
<glyph unicode="n" horiz-adv-x="1138" d="M53 0v49q66 10 85.5 32t21.5 87v592q-2 65 -21.5 87t-85.5 32v47h383v-152q57 91 126 132.5t161 41.5q124 0 197 -75.5t73 -204.5v-506v-5q0 -56 21 -80q22 -25 78 -28v-49h-471v49q49 3 70.5 29.5t23.5 83.5v487q0 166 -105 166q-70 0 -137 -70q-35 -31 -35 -47v-536 q0 -56 22.5 -81.5t76.5 -31.5v-49h-484z" />
<glyph unicode="o" d="M61 463q0 206 130.5 345.5t322.5 139.5q195 0 324 -138.5t129 -350.5q0 -211 -128 -349.5t-323 -138.5q-198 0 -326.5 138.5t-128.5 353.5zM356 430q0 -221 35.5 -309t124.5 -88q88 0 122 90.5t34 322.5q0 248 -34 344.5t-122 96.5q-63 0 -97 -42t-48.5 -139t-14.5 -276z " />
<glyph unicode="p" horiz-adv-x="1138" d="M49 -362q70 10 90.5 31t22.5 83v1008q-2 63 -22.5 86t-86.5 33v47h383v-140q47 88 105 125t149 37q167 0 270 -129t103 -340q0 -223 -108.5 -364.5t-278.5 -141.5q-66 0 -115 25t-121 96v-282q1 -104 33.5 -141t122.5 -40v-43h-547v50zM440 207q23 -57 64 -90t90 -33 q88 0 130 90.5t42 278.5q0 197 -37.5 290t-116.5 93q-67 0 -129 -68q-18 -20 -30.5 -41.5t-12.5 -32.5v-487z" />
<glyph unicode="q" horiz-adv-x="1138" d="M80 438q0 224 125 367t321 143q74 0 131.5 -24.5t133.5 -89.5l155 112h31v-1194q1 -61 21.5 -82t88.5 -32v-50h-534v50q96 17 120 44.5t25 122.5v279q-61 -61 -118 -87t-129 -26q-163 0 -267 131t-104 336zM373 473q0 -393 186 -393q108 0 139 117v528q0 72 -37 116 t-98 44q-190 0 -190 -412z" />
<glyph unicode="r" horiz-adv-x="909" d="M68 0v49q64 9 85 33t23 86v592q-2 62 -24.5 87t-83.5 32v47h378v-164q72 102 133.5 144t139.5 42q71 0 116.5 -44t45.5 -111q0 -59 -35 -96.5t-92 -37.5q-38 0 -65 16t-56 56q-33 45 -58 45q-49 0 -84.5 -56t-35.5 -134v-379q0 -95 27 -124t118 -34v-49h-532z" />
<glyph unicode="s" horiz-adv-x="796" d="M57 -27v332h56q65 -266 276 -266q68 0 110 35.5t42 95.5q0 48 -46 89t-149 85q-151 64 -218 137.5t-67 173.5q0 127 89.5 210t224.5 83q69 0 157 -28q50 -15 64 -15q20 0 30.5 8.5t18.5 30.5h45v-291h-51q-21 65 -41 100t-53 66q-67 64 -150 64q-58 0 -95.5 -33 t-37.5 -84t45.5 -92t149.5 -84q149 -63 212.5 -135t63.5 -179q0 -135 -86 -220t-223 -85q-42 0 -107.5 14t-111.5 33q-29 13 -45 13q-14 0 -25 -12.5t-26 -45.5h-52z" />
<glyph unicode="t" horiz-adv-x="681" d="M47 838v53q99 85 170 165.5t162 209.5h51v-340h188v-88h-188v-605q0 -60 18.5 -87t59.5 -27q33 0 59 23t56 81l49 -22q-60 -123 -128 -174.5t-169 -51.5q-103 0 -163 57t-60 154v652h-105z" />
<glyph unicode="u" horiz-adv-x="1138" d="M43 879v47h377v-680q0 -78 25 -111t85 -33q44 0 80 19t86 69v570q-1 66 -26 89.5t-99 29.5v47h404v-723q0 -64 23.5 -89t88.5 -28v-45l-124 -14q-99 -11 -150.5 -21t-114.5 -33v131q-89 -77 -150.5 -105t-139.5 -28q-125 0 -196 75t-71 208v506q-2 63 -19.5 85t-78.5 34z " />
<glyph unicode="v" d="M53 879v47h502v-47q-6 -1 -14.5 -2t-14 -2t-8.5 -1q-38 -5 -53.5 -15.5t-15.5 -33.5q0 -17 18 -61l158 -408l145 365q21 61 21 90q0 37 -22.5 51t-86.5 17v47h301v-47q-46 -6 -66.5 -26t-48.5 -85l-321 -797h-53l-240 594q-16 41 -46.5 108.5t-56 120.5t-28.5 52 q-9 15 -22 21t-48 12z" />
<glyph unicode="w" horiz-adv-x="1478" d="M61 879v47h445v-47q-41 -6 -58.5 -19.5t-17.5 -38.5q0 -30 47 -153l74 -185l49 -129l135 342q-2 7 -4.5 16t-4 14.5t-1.5 8.5q-11 39 -16.5 56.5t-14.5 37t-13.5 25t-18.5 12.5t-24 8.5t-34 4.5v47h471v-47q-57 -6 -76.5 -16.5t-19.5 -33.5q0 -30 53 -213 q61 -224 68 -256q69 184 71 189q89 228 89 260q0 34 -20 48t-77 22v47h271v-47q-40 -8 -59 -27t-42 -76l-311 -805h-45l-207 623l-250 -623h-47l-297 752q-42 101 -59 124t-56 32z" />
<glyph unicode="x" d="M35 879v47h502v-47q-52 -3 -73.5 -12t-21.5 -29q0 -28 66 -125q3 -5 13 -18.5t28 -38.5t35 -48q40 56 73 94q76 84 76 127q0 28 -15 35.5t-87 14.5v47h336v-47q-85 -14 -140 -80l-202 -252l297 -459q20 -29 59 -39v-49h-483v49q90 3 90 39q0 27 -37 84q-10 19 -29 45 q-17 28 -84 127q-8 -11 -18.5 -25t-11.5 -16q-58 -70 -93.5 -126.5t-35.5 -78.5q0 -25 22 -36.5t76 -12.5v-49h-338v49q52 3 76 21q56 36 151 166q8 12 26.5 36t50 63.5t52.5 67.5l-256 396q-31 46 -48.5 59t-55.5 21z" />
<glyph unicode="y" d="M43 -252q0 56 35.5 91.5t91.5 35.5q52 0 84.5 -27.5t32.5 -70.5q0 -19 -2 -29q-2 -6 -2 -12q0 -12 10.5 -22.5t23.5 -10.5q35 0 70.5 44t61.5 120l34 106l-239 594q-28 68 -77.5 173.5t-53.5 105.5q-9 15 -22 21t-48 12v47h502v-47l-31 -5q-76 -6 -76 -49q0 -12 5 -26.5 t36 -91.5l144 -371l137 385q20 56 20 90q0 37 -22 51t-86 17v47h301v-47q-46 -6 -68 -27t-47 -84l-299 -799q-54 -143 -87.5 -211t-65.5 -102q-62 -68 -168 -68q-86 0 -140.5 44.5t-54.5 115.5z" />
<glyph unicode="z" horiz-adv-x="909" d="M51 0v49l469 813q-89 0 -144 -5t-97.5 -17.5t-67.5 -39.5t-41.5 -63t-32.5 -96h-51l14 285h744v-52l-463 -811h57q129 3 184 24.5t107 90.5q44 60 66 144h57l-33 -322h-768z" />
<glyph unicode="{" horiz-adv-x="806" d="M53 524q126 29 170 76t45 156v360q3 161 94.5 223t329.5 62v-25q-117 -23 -165 -79t-48 -171v-342q-2 -126 -50.5 -180t-186.5 -80q139 -28 187 -81.5t50 -180.5v-342q2 -116 49 -171t164 -77v-22q-237 -2 -330 59.5t-94 222.5v359q-1 108 -45 155t-170 78z" />
<glyph unicode="|" horiz-adv-x="450" d="M199 -317v1703h176v-1703h-176z" />
<glyph unicode="}" horiz-adv-x="806" d="M117 -328q117 23 164 78.5t49 171.5v342q0 126 49.5 180t187.5 82q-140 28 -188.5 81t-48.5 179v342q-1 115 -49 170.5t-164 77.5v25q236 0 328.5 -61.5t95.5 -221.5v-360q1 -109 45 -156t170 -76q-126 -31 -170 -78t-45 -155v-359q-3 -162 -95 -224t-329 -60v22z" />
<glyph unicode="~" horiz-adv-x="1064" d="M70 496q49 88 108 128t139 40q49 0 107.5 -18t163.5 -66q119 -54 162 -54q69 0 135 92l112 -98q-71 -96 -124.5 -133t-122.5 -37q-50 0 -96 15t-115 53q-127 69 -224 69q-44 0 -74 -18.5t-65 -67.5z" />
<glyph unicode="&#xa1;" horiz-adv-x="681" d="M172 838q0 70 50 119t122 49t120 -49t48 -121q0 -69 -50.5 -119.5t-119.5 -50.5q-70 0 -120 50.5t-50 121.5zM174 -205q0 61 37 178q42 141 62 244t42 293h58q20 -189 40 -292.5t64 -244.5q37 -117 37 -180q0 -95 -45 -148t-125 -53q-82 0 -126 53t-44 150z" />
<glyph unicode="&#xa2;" d="M117 446q0 215 133 358.5t334 143.5q53 0 118 -16l89 248h79l-96 -273q67 -37 97 -79t30 -99t-36 -92t-95 -35q-54 0 -90 39l-164 -461q41 -41 78 -57.5t88 -16.5q64 0 112 25.5t99 87.5l37 -37q-92 -115 -179 -163t-204 -48q-45 0 -101 15l-94 -267h-82l103 291 q-82 41 -129 88q-127 133 -127 348zM399 551q0 -162 62 -295l194 541v6q0 37 -25 60.5t-63 23.5q-77 0 -122.5 -91t-45.5 -245z" />
<glyph unicode="&#xa3;" d="M53 143q0 89 54 137t157 48q44 0 105 -15q-1 52 -14.5 102t-59.5 179l-8 22h-197v132h160q-27 163 -27 233q0 95 41.5 180.5t112.5 138.5q97 72 252 72q140 0 221.5 -61t81.5 -166q0 -66 -37 -105t-100 -39q-55 0 -90.5 35t-32.5 88v6l4 89q1 44 -22 69t-66 25 q-51 0 -82 -35t-31 -92q0 -32 24.5 -169t53.5 -269h229v-132h-219q4 -35 4 -108q0 -74 -8 -121.5t-31 -118.5q120 -45 191 -45q95 0 138.5 30.5t66.5 113.5h45q-11 -121 -27.5 -187.5t-48.5 -111.5q-63 -97 -186 -97q-64 0 -116 26.5t-136 100.5q-50 -65 -103.5 -95 t-120.5 -30q-85 0 -131.5 44t-46.5 126zM117 131q0 -44 30.5 -71t81.5 -27q57 0 90.5 32.5t55.5 106.5q-72 64 -146 64q-52 0 -82 -28.5t-30 -76.5z" />
<glyph unicode="&#xa4;" d="M-41 240l197 196q-74 106 -74 240q0 130 74 246l-197 196l117 111l192 -193q113 72 246 72q128 0 244 -72l192 193l117 -111l-197 -196q40 -67 57 -122.5t17 -123.5q0 -136 -74 -240l197 -196l-117 -117l-192 196q-119 -75 -246 -75q-125 0 -244 75l-192 -196zM258 676 q0 -112 74 -190t180 -78q104 0 180 78.5t76 185.5q0 115 -74 193.5t-180 78.5q-108 0 -182 -77t-74 -191z" />
<glyph unicode="&#xa5;" d="M-119 1305v51h602v-51q-89 -3 -120 -15.5t-31 -44.5q0 -36 92 -219l143 -283l29 -57l238 461q18 35 18 70q0 49 -30 65.5t-128 22.5v51h412v-51q-51 -6 -80 -23t-49 -53l-289 -543h223v-100h-262l-8 -23v-133h270v-100h-270v-99q3 -106 39.5 -139.5t157.5 -40.5v-51h-662 v51q124 7 163 41.5t42 138.5v99h-270v100h270v115l-23 41h-247v100h198l-262 512q-29 54 -66.5 78t-99.5 29z" />
<glyph unicode="&#xa6;" horiz-adv-x="450" d="M137 -307v762h176v-762h-176zM137 643v680h176v-680h-176z" />
<glyph unicode="&#xa7;" d="M125 588q0 120 63 183t183 63q15 0 39 -3q-124 109 -162.5 165t-38.5 128q0 116 83.5 189t215.5 73q117 0 204 -59.5t87 -140.5q0 -50 -39 -88.5t-90 -38.5q-44 0 -82.5 37t-38.5 78q0 45 55 88q29 23 29 36q0 17 -33 30t-76 13q-75 0 -121.5 -38t-46.5 -99 q0 -104 211 -239q202 -133 291 -289q41 -65 41 -162q0 -114 -76 -174q-32 -26 -79 -38t-128 -13q111 -78 158 -146t47 -149q0 -113 -92.5 -185.5t-236.5 -72.5q-125 0 -213.5 59t-88.5 142q0 54 36.5 91.5t90.5 37.5t93 -33t39 -78q0 -26 -14 -45t-48 -39q-31 -19 -31 -29 q0 -25 41 -42t97 -17q157 0 157 141q0 46 -16 75t-60 64l-112 93q-111 90 -173.5 146t-101.5 106t-51 89t-12 91zM274 676q0 -57 24.5 -93t115.5 -116q95 -80 138.5 -105.5t88.5 -25.5q46 0 76.5 33t30.5 82q0 43 -18 75.5t-68 79.5q-192 180 -279 180q-47 0 -78 -31.5 t-31 -78.5z" />
<glyph unicode="&#xa8;" horiz-adv-x="681" d="M2 1208q0 51 38 90t87 39q54 0 91.5 -38.5t37.5 -94.5q0 -54 -37 -90.5t-92 -36.5q-51 0 -88 38.5t-37 92.5zM424 1210q0 51 37.5 89t85.5 38q54 0 92.5 -39t38.5 -94q0 -53 -37.5 -90t-91.5 -37q-53 0 -89 38t-36 95z" />
<glyph unicode="&#xa9;" horiz-adv-x="1529" d="M68 672q0 198 92 362t252 258t354 94q193 0 353 -93.5t251.5 -256.5t91.5 -360q0 -152 -53.5 -285t-147 -227.5t-224 -148.5t-279.5 -54q-190 0 -348.5 94.5t-250 258t-91.5 358.5zM211 672q0 -163 74 -303t200 -221.5t273 -81.5q155 0 284 80t203 220t74 308 q0 165 -74 305t-201.5 221.5t-277.5 81.5q-152 0 -279.5 -81t-201.5 -221.5t-74 -307.5zM336 643q0 177 126 294.5t318 117.5q92 0 209 -37q37 -12 47 -12q41 0 47 47h39v-248h-39q-23 97 -88.5 151t-160.5 54q-118 0 -191 -82q-76 -88 -76 -264q0 -169 67.5 -259t194.5 -90 q75 0 138 31t127 100v-65q-69 -63 -146.5 -92t-181.5 -29q-192 0 -311 106.5t-119 276.5z" />
<glyph unicode="&#xaa;" horiz-adv-x="614" d="M4 930q0 75 72.5 120.5t275.5 98.5v80q0 57 -22.5 81.5t-75.5 24.5q-36 0 -60 -12t-24 -31q0 -12 16 -28q23 -26 23 -45q0 -31 -26.5 -50.5t-69.5 -19.5q-39 0 -61.5 21.5t-22.5 58.5q0 69 69.5 110t186.5 41q120 0 189 -43.5t69 -119.5v-314q0 -31 22 -31q8 0 13 5 l12 12l18 -25q-35 -37 -68 -52t-77 -15q-48 0 -72.5 18.5t-34.5 63.5q-54 -44 -100.5 -63t-103.5 -19q-66 0 -107 36.5t-41 96.5zM201 961q0 -35 17.5 -57.5t45.5 -22.5q44 0 86 51v176q-149 -46 -149 -147z" />
<glyph unicode="&#xab;" d="M57 451v8l408 329l12 11q40 32 62 32q24 0 24 -22q0 -46 -106 -191l-99 -126l-28 -37q55 -76 82 -107q155 -188 155 -246q0 -30 -22 -30q-13 0 -43 18q-11 11 -23 21l-8 8zM451 451v8l407 329q36 28 48.5 35.5t25.5 7.5q24 0 24 -22q0 -50 -106 -191q-4 -6 -16.5 -21.5 t-35.5 -44.5t-46 -60l-29 -37q55 -76 82 -107q156 -189 156 -246q0 -30 -23 -30q-17 0 -43 18l-23 21l-8 8z" />
<glyph unicode="&#xac;" horiz-adv-x="1167" d="M63 653v131h1033v-553h-135v422h-898z" />
<glyph unicode="&#xad;" horiz-adv-x="681" d="M96 342v233h488v-233h-488z" />
<glyph unicode="&#xae;" horiz-adv-x="1529" d="M68 672q0 198 92 362t252 258t354 94q193 0 353 -93.5t251.5 -256.5t91.5 -360q0 -152 -53.5 -285t-147 -227.5t-224 -148.5t-279.5 -54q-190 0 -348.5 94.5t-250 258t-91.5 358.5zM211 672q0 -163 74 -303t200 -221.5t273 -81.5q155 0 284 80t203 220t74 308 q0 165 -74 305t-201.5 221.5t-277.5 81.5q-152 0 -279.5 -81t-201.5 -221.5t-74 -307.5zM430 307v37q28 2 39 2.5t24.5 5t16.5 8t7.5 15t4.5 22.5v35v510v35t-4.5 22.5t-7.5 15t-16.5 8t-24.5 5t-39 2.5v37h387q104 0 167 -52.5t63 -140.5q0 -144 -160 -210l117 -164 q73 -104 139 -170v-23h-162q-25 0 -51 33.5t-76 128.5q-41 81 -98 172h-74v-209v-35t4.5 -22.5t7.5 -15t16.5 -8t24.5 -5t39 -2.5v-37h-344zM682 686h70q60 0 92.5 46t32.5 132q0 158 -123 158h-72v-336z" />
<glyph unicode="&#xaf;" horiz-adv-x="681" d="M76 1114v150h532v-150h-532z" />
<glyph unicode="&#xb0;" horiz-adv-x="819" d="M123 1094q0 120 83.5 203t203.5 83t203 -83t83 -203q0 -122 -83 -204.5t-207 -82.5q-117 0 -200 84t-83 203zM205 1094q0 -88 60 -151.5t143 -63.5q86 0 146 63t60 152q0 88 -60.5 151.5t-143.5 63.5q-85 0 -145 -63.5t-60 -151.5z" />
<glyph unicode="&#xb1;" horiz-adv-x="1167" d="M78 109v176h1012v-176h-1012zM78 653v176h418v420h176v-420h418v-176h-418v-286h-176v286h-418z" />
<glyph unicode="&#xb2;" horiz-adv-x="614" d="M6 553v29q223 220 296 320.5t73 187.5q0 65 -44 109t-108 44q-51 0 -84.5 -24.5t-66.5 -83.5h-47q51 127 120 186t166 59q106 0 173 -62t67 -159q0 -67 -34 -127.5t-114 -134.5l-198 -184h184q73 1 102.5 7t46.5 23.5t37 63.5h33l-61 -254h-541z" />
<glyph unicode="&#xb3;" horiz-adv-x="614" d="M12 647q0 56 80 82q44 -5 67.5 -16t67.5 -51q33 -30 54 -41t45 -11q58 0 92.5 35.5t34.5 95.5q0 86 -59 140.5t-204 101.5v21q94 26 132 61.5t38 95.5q0 57 -35.5 90t-95.5 33q-46 0 -79.5 -22t-71.5 -78l-39 14q104 182 299 182q101 0 157 -42.5t56 -120.5 q0 -52 -23.5 -85t-85.5 -67q160 -63 160 -213q0 -132 -113 -222.5t-276 -90.5q-93 0 -147 28.5t-54 79.5z" />
<glyph unicode="&#xb4;" horiz-adv-x="681" d="M180 1059l275 315q50 56 106 56q43 0 69.5 -24.5t26.5 -64.5q0 -34 -15 -55t-64 -51l-285 -176h-113z" />
<glyph unicode="&#xb5;" horiz-adv-x="1138" d="M78 -260q0 33 20 117q45 173 45 319v750h279v-627q0 -66 32 -107.5t83 -41.5q67 0 149 55v721h279v-723q0 -40 22.5 -67t56.5 -27q21 0 43 12v-49q-66 -60 -108 -79.5t-105 -19.5q-73 0 -121.5 25.5t-80.5 79.5q-47 -58 -91.5 -81.5t-107.5 -23.5q-111 0 -205 70 q8 -67 37 -162q29 -99 29 -141q0 -74 -32.5 -114t-92.5 -40q-63 0 -97 40t-34 114z" />
<glyph unicode="&#xb6;" horiz-adv-x="1105" d="M12 965q0 203 106 297t335 94h600v-49q-46 -4 -52 -4q-74 -9 -92 -25.5t-18 -75.5l-2 -20v-76v-1479h-189v1680h-100v-1680h-188v905q-77 3 -123 14.5t-92 39.5q-185 107 -185 379zM193 969q0 -158 53 -252t166 -135v725q-71 -19 -107.5 -42t-62.5 -65q-49 -76 -49 -231z " />
<glyph unicode="&#xb7;" horiz-adv-x="512" d="M88 668q0 69 50 119.5t118 50.5q70 0 121 -51t51 -121t-50 -119t-122 -49t-120 49t-48 121z" />
<glyph unicode="&#xb8;" horiz-adv-x="681" d="M143 -401l33 73q69 -28 117 -28q117 0 117 82q0 35 -24.5 54t-68.5 19q-28 0 -55 -8l-22 16l86 193h84l-56 -129q31 10 66 10q83 0 129.5 -37.5t46.5 -103.5q0 -82 -70 -130t-190 -48q-92 0 -193 37z" />
<glyph unicode="&#xb9;" horiz-adv-x="614" d="M63 1208v41l328 131h23v-675q0 -71 26 -92t115 -21v-41h-487v41q95 0 124 22.5t29 96.5v444q0 82 -47 82q-19 0 -111 -29z" />
<glyph unicode="&#xba;" horiz-adv-x="675" d="M43 1087q0 126 84 209.5t211 83.5q128 0 211.5 -82t83.5 -208q0 -129 -83.5 -211t-215.5 -82q-125 0 -208 83t-83 207zM238 1079q0 -133 22 -187t76 -54q57 0 78.5 51.5t21.5 185.5q0 151 -20.5 206.5t-77.5 55.5t-78.5 -56t-21.5 -202z" />
<glyph unicode="&#xbb;" d="M66 803q0 28 22 28q14 0 23.5 -6t50.5 -39l413 -333v-9l-407 -327l-6 -6q-32 -26 -43.5 -32.5t-26.5 -6.5q-22 0 -22 22q0 49 106 193q4 6 16 21.5t35.5 45.5t46.5 60q3 4 9 11.5t11 13.5t9 10q-34 49 -82 108q-155 184 -155 246zM459 803q0 28 22 28q14 0 23.5 -6 t50.5 -39l414 -333v-9l-408 -327l-6 -6q-32 -26 -43.5 -32.5t-26.5 -6.5q-22 0 -22 22q0 49 106 193q3 5 15 20t36 45.5t48 61.5q5 7 28 35q-59 82 -82 108q-155 181 -155 246z" />
<glyph unicode="&#xbc;" horiz-adv-x="1536" d="M72 1208v41l327 131h23v-675q0 -71 26 -92t115 -21v-41h-487v41q95 0 124 22.5t29 96.5v444q0 82 -47 82q-18 0 -110 -29zM365 -25l884 1405h113l-881 -1405h-116zM911 174v135q60 89 122 169.5t208 258.5l78 92h104v-522h82v-133h-82v-174h-188v174h-324zM963 307h274 v350z" />
<glyph unicode="&#xbd;" horiz-adv-x="1536" d="M2 1208v41l328 131h22v-675q0 -71 26.5 -92t115.5 -21v-41h-488v41q95 0 124.5 22.5t29.5 96.5v444q0 82 -47 82q-19 0 -111 -29zM281 -25l884 1405h113l-881 -1405h-116zM969 0v29q223 218 296.5 319.5t73.5 188.5q0 64 -44 108.5t-107 44.5q-51 0 -86.5 -24.5 t-67.5 -81.5h-47q51 126 121 184.5t168 58.5q106 0 173 -62t67 -159q0 -68 -33.5 -127t-116.5 -135l-186 -174v-10h172q73 1 102.5 7t46.5 23.5t37 63.5h33l-60 -254h-542z" />
<glyph unicode="&#xbe;" horiz-adv-x="1536" d="M61 647q0 56 80 82q44 -5 67.5 -16t67.5 -51q33 -30 54 -41t45 -11q58 0 92.5 35.5t34.5 95.5q0 86 -58.5 140.5t-203.5 101.5v21q94 26 132 61.5t38 95.5q0 57 -35.5 90t-95.5 33q-46 0 -80 -22t-72 -78l-39 14q104 182 299 182q101 0 157 -42.5t56 -120.5 q0 -52 -22 -84.5t-78 -63.5v-8q151 -62 151 -211q0 -130 -113 -220.5t-276 -90.5q-93 0 -147 28.5t-54 79.5zM360 -25l885 1405h113l-881 -1405h-117zM893 174v135q105 158 328 428l77 92h105v-522h82v-133h-82v-174h-189v174h-321zM944 307h273v350z" />
<glyph unicode="&#xbf;" d="M121 -70q0 104 52.5 175.5t191.5 156.5q94 60 117.5 102t23.5 152h59l2 -29q2 -27 2 -65q0 -72 -63 -195q-50 -92 -68 -155t-18 -142q0 -126 44 -194t126 -68q54 0 87.5 22.5t33.5 57.5q0 26 -31 59q-25 29 -34 50.5t-9 52.5q0 59 34 94t91 35q60 0 98.5 -43t38.5 -109 q0 -127 -106 -208.5t-271 -81.5q-182 0 -291.5 90.5t-109.5 242.5zM367 838q0 70 50 119t122 49q70 0 119 -49.5t49 -120.5q0 -69 -50.5 -119.5t-119.5 -50.5q-70 0 -120 50.5t-50 121.5z" />
<glyph unicode="&#xc0;" horiz-adv-x="1478" d="M33 0v49q72 13 105.5 54t90.5 182l445 1099h57l447 -1054q44 -102 68 -151.5t49.5 -82.5t46 -40t55.5 -7v-49h-649v49q44 6 63 6q52 4 74 19.5t22 46.5q0 63 -92 274h-450l-31 -80q-58 -141 -58 -182q0 -40 37.5 -59t126.5 -25v-49h-407zM393 473h391l-202 488zM408 1761 q0 37 28 63.5t66 26.5q59 0 108 -55l275 -315h-113l-285 176q-43 28 -61 51.5t-18 52.5z" />
<glyph unicode="&#xc1;" horiz-adv-x="1478" d="M33 0v49q72 13 105.5 54t90.5 182l445 1099h57l447 -1054q44 -102 68 -151.5t49.5 -82.5t46 -40t55.5 -7v-49h-649v49q44 6 63 6q52 4 74 19.5t22 46.5q0 63 -92 274h-450l-31 -80q-58 -141 -58 -182q0 -40 37.5 -59t126.5 -25v-49h-407zM393 473h391l-202 488zM541 1481 l274 315q49 55 107 55q43 0 69.5 -24t26.5 -64q0 -35 -15.5 -55t-66.5 -51l-285 -176h-110z" />
<glyph unicode="&#xc2;" horiz-adv-x="1478" d="M33 0v49q72 13 105.5 54t90.5 182l445 1099h57l447 -1054q44 -102 68 -151.5t49.5 -82.5t46 -40t55.5 -7v-49h-649v49q44 6 63 6q52 4 74 19.5t22 46.5q0 63 -92 274h-450l-31 -80q-58 -141 -58 -182q0 -40 37.5 -59t126.5 -25v-49h-407zM367 1481l245 352h185l245 -352 h-114l-223 196l-226 -196h-112zM393 473h391l-202 488z" />
<glyph unicode="&#xc3;" horiz-adv-x="1478" d="M33 0v49q72 13 105.5 54t90.5 182l445 1099h57l447 -1054q44 -102 68 -151.5t49.5 -82.5t46 -40t55.5 -7v-49h-649v49q44 6 63 6q52 4 74 19.5t22 46.5q0 63 -92 274h-450l-31 -80q-58 -141 -58 -182q0 -40 37.5 -59t126.5 -25v-49h-407zM352 1522q28 129 85 190.5 t149 61.5q63 0 145 -39l82 -35q35 -17 47 -21t31 -4q39 0 63.5 22.5t44.5 76.5h86q-35 -132 -92 -194t-143 -62q-61 0 -129 28l-57 27q-68 29 -88 36t-41 7q-38 0 -65.5 -25.5t-33.5 -68.5h-84zM393 473h391l-202 488z" />
<glyph unicode="&#xc4;" horiz-adv-x="1478" d="M33 0v49q72 13 105.5 54t90.5 182l445 1099h57l447 -1054q44 -102 68 -151.5t49.5 -82.5t46 -40t55.5 -7v-49h-649v49q44 6 63 6q52 4 74 19.5t22 46.5q0 63 -92 274h-450l-31 -80q-58 -141 -58 -182q0 -40 37.5 -59t126.5 -25v-49h-407zM362 1632q0 50 38 88.5t87 38.5 q54 0 91.5 -38.5t37.5 -94.5q0 -53 -36.5 -90t-90.5 -37q-53 0 -90 39t-37 94zM393 473h391l-202 488zM784 1630q0 52 36.5 90.5t86.5 38.5q54 0 92.5 -39t38.5 -94q0 -53 -37.5 -90t-91.5 -37q-53 0 -89 38t-36 93z" />
<glyph unicode="&#xc5;" horiz-adv-x="1478" d="M33 0v49q72 13 105.5 54t90.5 182l445 1099h57l447 -1054q44 -102 68 -151.5t49.5 -82.5t46 -40t55.5 -7v-49h-649v49q44 6 63 6q52 4 74 19.5t22 46.5q0 63 -92 274h-450q-59 -150 -74 -194.5t-15 -67.5q0 -40 37.5 -59t126.5 -25v-49h-407zM393 473h391l-202 488z M485 1692q0 85 64 148t151 63q88 0 150.5 -63.5t62.5 -151.5q0 -89 -63 -151t-152 -62t-151 63t-62 154zM582 1688q0 -47 34 -82t80 -35q50 0 85.5 34t35.5 81q0 49 -35.5 84.5t-83.5 35.5q-47 0 -81.5 -35.5t-34.5 -82.5z" />
<glyph unicode="&#xc6;" horiz-adv-x="2048" d="M29 0v49q32 6 49 13t42.5 36.5t51 72t78.5 136.5l426 780q11 19 14 27q58 96 58 123q0 37 -38 53.5t-139 22.5v43h1272v-404h-49q-20 96 -38.5 143.5t-49.5 86.5q-85 104 -360 104q-82 0 -110 -12t-28 -49v-496q65 6 100.5 10.5t70.5 18.5t51.5 30t34.5 52t28.5 76 t26.5 112h45v-680h-45q-15 98 -32.5 154t-54 93t-87.5 50.5t-138 18.5v-488q0 -64 30.5 -86t121.5 -22q252 0 369 120q52 55 96.5 123.5t56.5 112.5h45l-82 -424h-1134v49q109 6 142 40.5t34 148.5v370h-381l-201 -377q-31 -61 -31 -92q0 -41 27.5 -59t106.5 -27l34 -4v-49 h-413zM549 688h338v582h-15z" />
<glyph unicode="&#xc7;" horiz-adv-x="1478" d="M113 668q0 152 53.5 285.5t145.5 228.5t222 149.5t277 54.5q142 0 309 -71q68 -27 92 -27q31 0 49.5 19t41.5 73h53v-469h-49q-52 113 -95.5 175.5t-109.5 121.5q-128 113 -266 113q-182 0 -275.5 -162t-93.5 -475q0 -298 86 -453q44 -78 131 -126t186 -48q91 0 181 35 q76 31 134.5 75.5t145.5 137.5l62 -51q-115 -123 -201 -184q-162 -109 -338 -109q-21 0 -37 2l-39 -78q38 9 66 9q83 0 129.5 -32.5t46.5 -90.5q0 -71 -70 -112.5t-190 -41.5q-93 0 -193 33l33 63l10 -4q69 -20 109 -20q115 0 115 69q0 31 -24 47.5t-67 16.5q-23 0 -57 -6 l-22 14l71 137h-6q-275 29 -445.5 223t-170.5 478z" />
<glyph unicode="&#xc8;" horiz-adv-x="1366" d="M47 0v49q107 9 140 36.5t36 107.5v970q-3 80 -39 110t-137 34v49h1157v-404h-49q-20 103 -49.5 165.5t-85.5 102t-135 54t-205 14.5q-78 0 -104.5 -18.5t-26.5 -75.5v-467q161 -1 231.5 64t93.5 237h52v-680h-52q-19 175 -90 243t-235 68v-485q0 -66 34.5 -89.5 t131.5 -23.5q221 0 354 107q54 43 91.5 96t84.5 154h55l-79 -418h-1174zM387 1761q0 38 27 64t67 26q60 0 109 -55l274 -315h-112l-285 176q-44 28 -62 51.5t-18 52.5z" />
<glyph unicode="&#xc9;" horiz-adv-x="1366" d="M47 0v49q107 9 140 36.5t36 107.5v970q-3 80 -39 110t-137 34v49h1157v-404h-49q-20 103 -49.5 165.5t-85.5 102t-135 54t-205 14.5q-78 0 -104.5 -18.5t-26.5 -75.5v-467q161 -1 231.5 64t93.5 237h52v-680h-52q-19 175 -90 243t-235 68v-485q0 -66 34.5 -89.5 t131.5 -23.5q221 0 354 107q54 43 91.5 96t84.5 154h55l-79 -418h-1174zM487 1481l275 315q49 55 106 55q43 0 70 -24t27 -64q0 -35 -15 -55t-65 -51l-285 -176h-113z" />
<glyph unicode="&#xca;" horiz-adv-x="1366" d="M47 0v49q107 9 140 36.5t36 107.5v970q-3 80 -39 110t-137 34v49h1157v-404h-49q-20 103 -49.5 165.5t-85.5 102t-135 54t-205 14.5q-78 0 -104.5 -18.5t-26.5 -75.5v-467q161 -1 231.5 64t93.5 237h52v-680h-52q-19 175 -90 243t-235 68v-485q0 -66 34.5 -89.5 t131.5 -23.5q221 0 354 107q54 43 91.5 96t84.5 154h55l-79 -418h-1174zM334 1481l244 352h184l248 -352h-115l-225 196l-226 -196h-110z" />
<glyph unicode="&#xcb;" horiz-adv-x="1366" d="M47 0v49q107 9 140 36.5t36 107.5v970q-3 80 -39 110t-137 34v49h1157v-404h-49q-20 103 -49.5 165.5t-85.5 102t-135 54t-205 14.5q-78 0 -104.5 -18.5t-26.5 -75.5v-467q161 -1 231.5 64t93.5 237h52v-680h-52q-19 175 -90 243t-235 68v-485q0 -66 34.5 -89.5 t131.5 -23.5q221 0 354 107q54 43 91.5 96t84.5 154h55l-79 -418h-1174zM334 1632q0 50 38 88.5t87 38.5q54 0 91.5 -38.5t37.5 -94.5q0 -53 -36.5 -90t-90.5 -37q-53 0 -90 39t-37 94zM754 1630q0 52 36.5 90.5t86.5 38.5q54 0 92.5 -39t38.5 -94q0 -53 -37.5 -90 t-91.5 -37q-53 0 -89 38t-36 93z" />
<glyph unicode="&#xcc;" horiz-adv-x="796" d="M49 0v49q109 9 147.5 38.5t39.5 105.5v970q-3 78 -42 108t-145 36v49h703v-49q-109 -3 -149 -33.5t-42 -110.5v-970q2 -79 40.5 -108.5t150.5 -35.5v-49h-703zM98 1761q0 38 27.5 64t67.5 26q59 0 108 -55l274 -315h-112l-285 176q-44 28 -62 51.5t-18 52.5z" />
<glyph unicode="&#xcd;" horiz-adv-x="796" d="M49 0v49q109 9 147.5 38.5t39.5 105.5v970q-3 78 -42 108t-145 36v49h703v-49q-109 -3 -149 -33.5t-42 -110.5v-970q2 -79 40.5 -108.5t150.5 -35.5v-49h-703zM238 1481l274 315q49 55 106 55q43 0 70 -24t27 -64q0 -34 -15.5 -55t-64.5 -51l-285 -176h-112z" />
<glyph unicode="&#xce;" horiz-adv-x="796" d="M49 0v49q109 9 147.5 38.5t39.5 105.5v970q-3 78 -42 108t-145 36v49h703v-49q-109 -3 -149 -33.5t-42 -110.5v-970q2 -79 40.5 -108.5t150.5 -35.5v-49h-703zM61 1481l246 352h185l245 -352h-112l-226 196l-225 -196h-113z" />
<glyph unicode="&#xcf;" horiz-adv-x="796" d="M49 0v49q109 9 147.5 38.5t39.5 105.5v970q-3 78 -42 108t-145 36v49h703v-49q-109 -3 -149 -33.5t-42 -110.5v-970q2 -79 40.5 -108.5t150.5 -35.5v-49h-703zM61 1632q0 50 38 88.5t87 38.5q54 0 91.5 -38.5t37.5 -94.5q0 -53 -36.5 -90t-90.5 -37q-53 0 -90 39t-37 94z M483 1630q0 52 36.5 90.5t86.5 38.5q54 0 92.5 -39t38.5 -94q0 -53 -37.5 -90t-91.5 -37q-53 0 -89 38t-36 93z" />
<glyph unicode="&#xd0;" horiz-adv-x="1478" d="M27 653v95h182v423q-2 71 -37 100t-129 36v49h610q350 0 548 -177t198 -489q0 -311 -199 -500.5t-524 -189.5h-633v49q85 1 124.5 33t41.5 100v471h-182zM535 186q0 -68 24.5 -92t91.5 -24q194 0 295 139q48 67 76.5 189.5t28.5 263.5q0 298 -104.5 462t-293.5 164 q-84 0 -108 -35q-10 -13 -10 -59v-446h227v-95h-227v-467z" />
<glyph unicode="&#xd1;" horiz-adv-x="1478" d="M47 0v49q108 12 141.5 42.5t34.5 119.5v950q-70 86 -105.5 116t-64.5 30v49h422l703 -862v614q0 106 -39 147t-148 52v49h430v-49q-97 -15 -126 -45.5t-29 -116.5v-1182h-56l-899 1094v-809q1 -107 39 -146t152 -53v-49h-455zM385 1522q26 129 82.5 190.5t148.5 61.5 q66 0 148 -39l80 -35q51 -25 78 -25q41 0 65 22.5t43 76.5h86q-35 -132 -91.5 -194t-141.5 -62q-64 0 -129 28l-60 27q-64 28 -85.5 35.5t-41.5 7.5q-40 0 -67 -25.5t-31 -68.5h-84z" />
<glyph unicode="&#xd2;" horiz-adv-x="1593" d="M86 672q0 206 91 369t255 254t371 91q150 0 280.5 -54t223 -148t145.5 -226t53 -284q0 -155 -52.5 -287.5t-145.5 -226t-225 -146.5t-285 -53q-205 0 -367.5 90.5t-253 253t-90.5 367.5zM440 653q0 -305 91.5 -465.5t263.5 -160.5q175 0 265.5 161t90.5 471 q0 314 -92 488t-258 174q-177 0 -269 -171t-92 -497zM489 1761q0 38 27.5 64t67.5 26q56 0 108 -55l275 -315h-113l-285 176q-43 28 -61.5 51.5t-18.5 52.5z" />
<glyph unicode="&#xd3;" horiz-adv-x="1593" d="M86 672q0 206 91 369t255 254t371 91q150 0 280.5 -54t223 -148t145.5 -226t53 -284q0 -155 -52.5 -287.5t-145.5 -226t-225 -146.5t-285 -53q-205 0 -367.5 90.5t-253 253t-90.5 367.5zM440 653q0 -305 91.5 -465.5t263.5 -160.5q175 0 265.5 161t90.5 471 q0 314 -92 488t-258 174q-177 0 -269 -171t-92 -497zM623 1481l274 315q49 55 107 55q43 0 69.5 -24t26.5 -64q0 -35 -15.5 -55t-66.5 -51l-285 -176h-110z" />
<glyph unicode="&#xd4;" horiz-adv-x="1593" d="M86 672q0 206 91 369t255 254t371 91q150 0 280.5 -54t223 -148t145.5 -226t53 -284q0 -155 -52.5 -287.5t-145.5 -226t-225 -146.5t-285 -53q-205 0 -367.5 90.5t-253 253t-90.5 367.5zM440 653q0 -305 91.5 -465.5t263.5 -160.5q175 0 265.5 161t90.5 471 q0 314 -92 488t-258 174q-177 0 -269 -171t-92 -497zM457 1481l245 352h185l246 -352h-115l-223 196l-226 -196h-112z" />
<glyph unicode="&#xd5;" horiz-adv-x="1593" d="M86 672q0 206 91 369t255 254t371 91q150 0 280.5 -54t223 -148t145.5 -226t53 -284q0 -155 -52.5 -287.5t-145.5 -226t-225 -146.5t-285 -53q-205 0 -367.5 90.5t-253 253t-90.5 367.5zM440 653q0 -305 91.5 -465.5t263.5 -160.5q175 0 265.5 161t90.5 471 q0 314 -92 488t-258 174q-177 0 -269 -171t-92 -497zM440 1522q28 129 85 190.5t149 61.5q65 0 147 -39l80 -35q51 -25 78 -25q41 0 65 22.5t43 76.5h87q-35 -132 -92.5 -194t-143.5 -62q-69 0 -127 28l-59 27q-61 28 -84 35.5t-43 7.5q-40 0 -67.5 -25.5t-31.5 -68.5h-86z " />
<glyph unicode="&#xd6;" horiz-adv-x="1593" d="M86 672q0 206 91 369t255 254t371 91q150 0 280.5 -54t223 -148t145.5 -226t53 -284q0 -155 -52.5 -287.5t-145.5 -226t-225 -146.5t-285 -53q-205 0 -367.5 90.5t-253 253t-90.5 367.5zM440 653q0 -305 91.5 -465.5t263.5 -160.5q175 0 265.5 161t90.5 471 q0 314 -92 488t-258 174q-177 0 -269 -171t-92 -497zM479 1632q0 50 38 88.5t87 38.5q54 0 91.5 -38.5t37.5 -94.5q0 -53 -36.5 -90t-90.5 -37t-90.5 38.5t-36.5 94.5zM866 1632q0 51 37 89t86 38q54 0 92.5 -39t38.5 -94q0 -53 -37.5 -90t-91.5 -37q-53 0 -89 38t-36 95z " />
<glyph unicode="&#xd7;" horiz-adv-x="1167" d="M109 266l350 350l-350 353l124 123l351 -353l352 353l123 -123l-352 -353l352 -350l-123 -125l-352 353l-351 -353z" />
<glyph unicode="&#xd8;" horiz-adv-x="1593" d="M86 672q0 205 91 368.5t254 254.5t368 91q103 0 186 -21.5t178 -72.5l127 187h101l-158 -232q73 -61 109.5 -101.5t68.5 -96.5q94 -171 94 -375q0 -154 -53 -286.5t-146 -225.5t-225 -146t-286 -53q-108 0 -193 22t-180 74l-143 -206h-101l172 251q-89 76 -133.5 136 t-79.5 151q-51 128 -51 281zM440 657q0 -113 9.5 -188.5t35.5 -165.5l574 838q-54 97 -114 138.5t-148 41.5q-172 0 -264.5 -172.5t-92.5 -491.5zM524 209q51 -97 114.5 -138.5t158.5 -41.5q173 0 263.5 162t90.5 475q0 121 -11 205t-40 180z" />
<glyph unicode="&#xd9;" horiz-adv-x="1478" d="M47 1307v49h678v-49q-85 -3 -123.5 -18t-54 -52t-17.5 -117v-669q0 -205 70 -298.5t225 -93.5q180 0 266.5 107t86.5 330v612q0 109 -41 150.5t-156 48.5v49h440v-49q-93 -13 -123 -47t-32 -125v-639q0 -141 -37.5 -250t-106.5 -166q-64 -57 -162.5 -88t-211.5 -31 q-227 0 -371 107q-92 66 -129 150.5t-37 232.5v669q-3 111 -32.5 144.5t-131.5 42.5zM457 1761q0 38 27 64t67 26q59 0 108 -55l275 -315h-113l-284 176q-44 28 -62 51.5t-18 52.5z" />
<glyph unicode="&#xda;" horiz-adv-x="1478" d="M47 1307v49h678v-49q-85 -3 -123.5 -18t-54 -52t-17.5 -117v-669q0 -205 70 -298.5t225 -93.5q180 0 266.5 107t86.5 330v612q0 109 -41 150.5t-156 48.5v49h440v-49q-93 -13 -123 -47t-32 -125v-639q0 -141 -37.5 -250t-106.5 -166q-64 -57 -162.5 -88t-211.5 -31 q-227 0 -371 107q-92 66 -129 150.5t-37 232.5v669q-3 111 -32.5 144.5t-131.5 42.5zM690 1481l275 315q49 55 106 55q43 0 69.5 -24t26.5 -64q0 -34 -15.5 -55t-64.5 -51l-286 -176h-111z" />
<glyph unicode="&#xdb;" horiz-adv-x="1478" d="M47 1307v49h678v-49q-85 -3 -123.5 -18t-54 -52t-17.5 -117v-669q0 -205 70 -298.5t225 -93.5q180 0 266.5 107t86.5 330v612q0 109 -41 150.5t-156 48.5v49h440v-49q-93 -13 -123 -47t-32 -125v-639q0 -141 -37.5 -250t-106.5 -166q-64 -57 -162.5 -88t-211.5 -31 q-227 0 -371 107q-92 66 -129 150.5t-37 232.5v669q-3 111 -32.5 144.5t-131.5 42.5zM496 1481l243 352h185l247 -352h-114l-226 196l-225 -196h-110z" />
<glyph unicode="&#xdc;" horiz-adv-x="1478" d="M47 1307v49h678v-49q-85 -3 -123.5 -18t-54 -52t-17.5 -117v-669q0 -205 70 -298.5t225 -93.5q180 0 266.5 107t86.5 330v612q0 109 -41 150.5t-156 48.5v49h440v-49q-93 -13 -123 -47t-32 -125v-639q0 -141 -37.5 -250t-106.5 -166q-64 -57 -162.5 -88t-211.5 -31 q-227 0 -371 107q-92 66 -129 150.5t-37 232.5v669q-3 111 -32.5 144.5t-131.5 42.5zM498 1632q0 50 38 88.5t87 38.5q54 0 91.5 -38.5t37.5 -94.5q0 -53 -36.5 -90t-90.5 -37t-90.5 38.5t-36.5 94.5zM920 1630q0 52 36 90.5t86 38.5q54 0 93 -39t39 -94q0 -53 -38 -90 t-92 -37q-53 0 -88.5 38t-35.5 93z" />
<glyph unicode="&#xdd;" horiz-adv-x="1478" d="M45 1307v49h672v-49q-23 -2 -51 -2q-60 0 -85.5 -14t-25.5 -48q0 -30 35 -94l12 -25l242 -465l223 371q78 134 78 191q0 44 -33.5 61.5t-134.5 24.5v49h440v-49q-53 -9 -83 -27t-52 -53l-383 -623v-368q1 -61 6 -92t26.5 -52.5t54 -29t97.5 -13.5v-49h-696v49 q64 6 96.5 13.5t54.5 29t27.5 52.5t7.5 92v294l-368 666q-59 102 -160 111zM719 1481l276 315q49 55 107 55q43 0 69.5 -24t26.5 -64q0 -35 -15.5 -55t-66.5 -51l-285 -176h-112z" />
<glyph unicode="&#xde;" horiz-adv-x="1251" d="M45 0v49q40 8 47 8q67 7 93 46t28 133v886q-3 108 -34.5 143t-133.5 42v49h670v-49q-63 -8 -94 -16t-51 -30.5t-24.5 -51.5t-6.5 -89v-24h133q270 0 407.5 -92.5t137.5 -274.5q0 -196 -179 -303q-81 -49 -169 -62.5t-330 -15.5v-112q1 -41 3 -65t10 -46t18 -32.5 t31.5 -20t46.5 -14t67 -9.5v-49h-670zM539 418q106 0 163.5 12t92.5 43q41 33 59 92.5t18 157.5q0 161 -54.5 232t-178.5 71q-100 0 -100 -70v-538z" />
<glyph unicode="&#xdf;" horiz-adv-x="1138" d="M49 0v49q64 9 82.5 31.5t20.5 93.5v844q0 161 116 264.5t299 103.5q171 0 284.5 -88t113.5 -221q0 -129 -117 -213q-40 -26 -82 -42.5t-115 -33.5q122 -35 184.5 -65t112.5 -76q101 -96 101 -258q0 -172 -110.5 -293t-268.5 -121q-49 0 -129 31l26 68l23 -13 q23 -16 43 -16q71 0 97 73.5t26 272.5q0 254 -78 320q-21 19 -48 26.5t-79 10.5v69q58 1 87 21.5t40.5 71t11.5 153.5q0 143 -33 205.5t-108 62.5q-58 0 -88.5 -40t-30.5 -115v-1176h-381z" />
<glyph unicode="&#xe0;" d="M61 184q0 126 129 215q56 38 144.5 73t267.5 89v148q0 92 -40 134t-128 42q-54 0 -90.5 -21.5t-36.5 -52.5q0 -16 23 -45q37 -45 37 -86q0 -52 -38 -84.5t-100 -32.5q-61 0 -95 35t-34 98q0 113 104.5 182.5t274.5 69.5q185 0 291.5 -73.5t106.5 -200.5v-524 q0 -50 43 -50q11 0 20 9l21 20l30 -43q-57 -63 -108 -89t-117 -26q-73 0 -111 32.5t-53 109.5q-84 -75 -157.5 -108.5t-159.5 -33.5q-98 0 -161 60t-63 153zM219 1339q0 37 27.5 64t66.5 27q56 0 109 -56l274 -315h-112l-285 176q-44 28 -62 51.5t-18 52.5zM354 250 q0 -60 28.5 -97.5t74.5 -37.5q37 0 69.5 19.5t73.5 66.5v291q-121 -32 -183.5 -93.5t-62.5 -148.5z" />
<glyph unicode="&#xe1;" d="M61 184q0 126 129 215q56 38 144.5 73t267.5 89v148q0 92 -40 134t-128 42q-54 0 -90.5 -21.5t-36.5 -52.5q0 -16 23 -45q37 -45 37 -86q0 -52 -38 -84.5t-100 -32.5q-61 0 -95 35t-34 98q0 113 104.5 182.5t274.5 69.5q185 0 291.5 -73.5t106.5 -200.5v-524 q0 -50 43 -50q11 0 20 9l21 20l30 -43q-57 -63 -108 -89t-117 -26q-73 0 -111 32.5t-53 109.5q-84 -75 -157.5 -108.5t-159.5 -33.5q-98 0 -161 60t-63 153zM319 1059l275 315q50 56 106 56q43 0 70 -24.5t27 -64.5q0 -33 -16 -54t-64 -52l-285 -176h-113zM354 250 q0 -60 28.5 -97.5t74.5 -37.5q37 0 69.5 19.5t73.5 66.5v291q-121 -32 -183.5 -93.5t-62.5 -148.5z" />
<glyph unicode="&#xe2;" d="M61 184q0 126 129 215q56 38 144.5 73t267.5 89v148q0 92 -40 134t-128 42q-54 0 -90.5 -21.5t-36.5 -52.5q0 -16 23 -45q37 -45 37 -86q0 -52 -38 -84.5t-100 -32.5q-61 0 -95 35t-34 98q0 113 104.5 182.5t274.5 69.5q185 0 291.5 -73.5t106.5 -200.5v-524 q0 -50 43 -50q11 0 20 9l21 20l30 -43q-57 -63 -108 -89t-117 -26q-73 0 -111 32.5t-53 109.5q-84 -75 -157.5 -108.5t-159.5 -33.5q-98 0 -161 60t-63 153zM174 1059l246 354h184l246 -354h-113l-225 196l-225 -196h-113zM354 250q0 -60 28.5 -97.5t74.5 -37.5 q37 0 69.5 19.5t73.5 66.5v291q-121 -32 -183.5 -93.5t-62.5 -148.5z" />
<glyph unicode="&#xe3;" d="M61 184q0 126 129 215q56 38 144.5 73t267.5 89v148q0 92 -40 134t-128 42q-54 0 -90.5 -21.5t-36.5 -52.5q0 -16 23 -45q37 -45 37 -86q0 -52 -38 -84.5t-100 -32.5q-61 0 -95 35t-34 98q0 113 104.5 182.5t274.5 69.5q185 0 291.5 -73.5t106.5 -200.5v-524 q0 -50 43 -50q11 0 20 9l21 20l30 -43q-57 -63 -108 -89t-117 -26q-73 0 -111 32.5t-53 109.5q-84 -75 -157.5 -108.5t-159.5 -33.5q-98 0 -161 60t-63 153zM147 1102q26 129 82.5 189.5t149.5 60.5q65 0 147 -39l80 -35q37 -18 48.5 -21.5t29.5 -3.5q42 0 66 22t43 77h86 q-35 -131 -92 -192.5t-144 -61.5q-62 0 -127 28l-59 25q-67 30 -87 37.5t-40 7.5q-39 0 -67 -26t-32 -68h-84zM354 250q0 -60 28.5 -97.5t74.5 -37.5q37 0 69.5 19.5t73.5 66.5v291q-121 -32 -183.5 -93.5t-62.5 -148.5z" />
<glyph unicode="&#xe4;" d="M61 184q0 126 129 215q56 38 144.5 73t267.5 89v148q0 92 -40 134t-128 42q-54 0 -90.5 -21.5t-36.5 -52.5q0 -16 23 -45q37 -45 37 -86q0 -52 -38 -84.5t-100 -32.5q-61 0 -95 35t-34 98q0 113 104.5 182.5t274.5 69.5q185 0 291.5 -73.5t106.5 -200.5v-524 q0 -50 43 -50q11 0 20 9l21 20l30 -43q-57 -63 -108 -89t-117 -26q-73 0 -111 32.5t-53 109.5q-84 -75 -157.5 -108.5t-159.5 -33.5q-98 0 -161 60t-63 153zM164 1208q0 51 38 90t87 39q54 0 91.5 -38.5t37.5 -94.5q0 -54 -37 -90.5t-92 -36.5q-51 0 -88 38.5t-37 92.5z M354 250q0 -60 28.5 -97.5t74.5 -37.5q37 0 69.5 19.5t73.5 66.5v291q-121 -32 -183.5 -93.5t-62.5 -148.5zM586 1208q0 51 37 90t86 39q54 0 92.5 -39t38.5 -94q0 -53 -37.5 -90t-91.5 -37q-53 0 -89 38t-36 93z" />
<glyph unicode="&#xe5;" d="M61 184q0 126 129 215q56 38 144.5 73t267.5 89v148q0 92 -40 134t-128 42q-54 0 -90.5 -21.5t-36.5 -52.5q0 -16 23 -45q37 -45 37 -86q0 -52 -38 -84.5t-100 -32.5q-61 0 -95 35t-34 98q0 113 104.5 182.5t274.5 69.5q185 0 291.5 -73.5t106.5 -200.5v-524 q0 -50 43 -50q11 0 20 9l21 20l30 -43q-57 -63 -108 -89t-117 -26q-73 0 -111 32.5t-53 109.5q-84 -75 -157.5 -108.5t-159.5 -33.5q-98 0 -161 60t-63 153zM279 1294q0 85 63.5 148t149.5 63q88 0 150.5 -63t62.5 -152t-62.5 -151t-153.5 -62q-88 0 -149 63t-61 154z M354 250q0 -60 28.5 -97.5t74.5 -37.5q37 0 69.5 19.5t73.5 66.5v291q-121 -32 -183.5 -93.5t-62.5 -148.5zM375 1290q0 -47 33.5 -81.5t80.5 -34.5q49 0 84 33.5t35 80.5q0 50 -35 85.5t-84 35.5q-46 0 -80 -36t-34 -83z" />
<glyph unicode="&#xe6;" horiz-adv-x="1478" d="M82 186q0 129 113 211q52 34 139 68.5t276 95.5v162q0 86 -36 124t-119 38q-58 0 -94.5 -19.5t-36.5 -50.5q0 -21 22 -45q21 -22 28 -39.5t7 -46.5q0 -56 -33 -85.5t-94 -29.5t-99 35t-38 92q0 109 104 180.5t262 71.5q98 0 163 -23.5t120 -78.5q57 55 116.5 78.5 t139.5 23.5q110 0 198 -52t132 -144q26 -52 35.5 -106t9.5 -148h-510v-47q0 -172 54.5 -250t174.5 -78q75 0 133 31t115 102l43 -29q-89 -136 -183 -190.5t-237 -54.5q-106 0 -171.5 37t-123.5 131l-12 -11q-168 -168 -361 -168q-116 0 -176.5 55t-60.5 160zM371 242 q0 -144 114 -144q35 0 61.5 13.5t63.5 50.5v336q-133 -47 -186 -104t-53 -152zM887 571h266v66q0 141 -27.5 196.5t-97.5 55.5q-78 0 -108.5 -69.5t-32.5 -248.5z" />
<glyph unicode="&#xe7;" horiz-adv-x="909" d="M59 446q0 218 135 360t341 142q130 0 219.5 -63.5t89.5 -155.5q0 -60 -36 -93.5t-99 -33.5q-58 0 -85.5 34.5t-27.5 108.5q0 60 -2 74t-10 29q-19 39 -74 39q-78 0 -123 -89t-45 -243q0 -206 77.5 -327.5t207.5 -121.5q61 0 107 25t102 88l36 -37q-71 -96 -149 -145 t-182 -62l-45 -104q31 10 65 10q83 0 129.5 -37.5t46.5 -103.5q0 -82 -70 -130t-190 -48q-91 0 -192 37l30 73l13 -4q73 -24 106 -24q117 0 117 82q0 35 -24 54t-68 19q-29 0 -56 -8l-22 16l74 166q-180 19 -288 147t-108 326z" />
<glyph unicode="&#xe8;" horiz-adv-x="909" d="M59 457q0 219 116 355t302 136q169 0 271 -117q48 -59 72.5 -137t33.5 -202h-506q6 -104 19.5 -163t42.5 -106q60 -106 178 -106q64 0 115.5 30.5t111.5 102.5l49 -27q-98 -141 -184 -196.5t-207 -55.5q-187 0 -300.5 133t-113.5 353zM176 1339q0 37 27.5 64t66.5 27 q59 0 109 -56l274 -315h-112l-285 176q-43 28 -61.5 51.5t-18.5 52.5zM338 565h268v31q-3 131 -16 197q-24 94 -111 94q-75 0 -105.5 -70t-35.5 -252z" />
<glyph unicode="&#xe9;" horiz-adv-x="909" d="M59 457q0 219 116 355t302 136q169 0 271 -117q48 -59 72.5 -137t33.5 -202h-506q6 -104 19.5 -163t42.5 -106q60 -106 178 -106q64 0 115.5 30.5t111.5 102.5l49 -27q-98 -141 -184 -196.5t-207 -55.5q-187 0 -300.5 133t-113.5 353zM328 1059l276 315q50 56 105 56 q43 0 69.5 -24.5t26.5 -64.5q0 -34 -16.5 -55.5t-63.5 -50.5l-285 -176h-112zM338 565h268v31q-3 131 -16 197q-24 94 -111 94q-75 0 -105.5 -70t-35.5 -252z" />
<glyph unicode="&#xea;" horiz-adv-x="909" d="M59 457q0 219 116 355t302 136q169 0 271 -117q48 -59 72.5 -137t33.5 -202h-506q6 -104 19.5 -163t42.5 -106q60 -106 178 -106q64 0 115.5 30.5t111.5 102.5l49 -27q-98 -141 -184 -196.5t-207 -55.5q-187 0 -300.5 133t-113.5 353zM145 1059l244 354h184l248 -354 h-114l-226 196l-223 -196h-113zM338 565h268v31q-3 131 -16 197q-24 94 -111 94q-75 0 -105.5 -70t-35.5 -252z" />
<glyph unicode="&#xeb;" horiz-adv-x="909" d="M59 457q0 219 116 355t302 136q169 0 271 -117q48 -59 72.5 -137t33.5 -202h-506q6 -104 19.5 -163t42.5 -106q60 -106 178 -106q64 0 115.5 30.5t111.5 102.5l49 -27q-98 -141 -184 -196.5t-207 -55.5q-187 0 -300.5 133t-113.5 353zM143 1208q0 51 38 90t87 39 q54 0 91.5 -38.5t37.5 -94.5q0 -54 -37 -90.5t-92 -36.5q-51 0 -88 38.5t-37 92.5zM338 565h268v31q-3 131 -16 197q-24 94 -111 94q-75 0 -105.5 -70t-35.5 -252zM563 1210q0 51 37.5 89t85.5 38q54 0 92.5 -39t38.5 -94q0 -53 -37.5 -90t-91.5 -37q-53 0 -89 38t-36 95z " />
<glyph unicode="&#xec;" horiz-adv-x="569" d="M-47 1339q0 37 27.5 64t66.5 27q59 0 109 -56l274 -315h-113l-284 176q-44 28 -62 51.5t-18 52.5zM37 0v49q67 13 85.5 34.5t20.5 84.5v592q-2 62 -21.5 84.5t-84.5 34.5v47h385v-764q0 -57 21 -83t73 -30v-49h-479z" />
<glyph unicode="&#xed;" horiz-adv-x="569" d="M39 0v49q67 13 85.5 34.5t20.5 84.5v592q-2 62 -21.5 84.5t-84.5 34.5v47h385v-764q0 -57 21 -83t73 -30v-49h-479zM111 1059l274 315q53 56 107 56q43 0 69.5 -24.5t26.5 -64.5q0 -34 -16.5 -55.5t-63.5 -50.5l-285 -176h-112z" />
<glyph unicode="&#xee;" horiz-adv-x="569" d="M-78 1059l244 354h186l246 -354h-115l-223 196l-225 -196h-113zM39 0v49q67 13 85.5 34.5t20.5 84.5v592q-2 62 -21.5 84.5t-84.5 34.5v47h385v-764q0 -57 21 -83t73 -30v-49h-479z" />
<glyph unicode="&#xef;" horiz-adv-x="569" d="M-66 1208q0 51 38 90t87 39q54 0 91.5 -38.5t37.5 -94.5q0 -54 -37 -90.5t-92 -36.5q-51 0 -88 38.5t-37 92.5zM39 0v49q67 13 85.5 34.5t20.5 84.5v592q-2 62 -21.5 84.5t-84.5 34.5v47h385v-764q0 -57 21 -83t73 -30v-49h-479zM356 1210q0 51 37.5 89t85.5 38 q54 0 92.5 -39t38.5 -94q0 -53 -37.5 -90t-91.5 -37q-53 0 -89 38t-36 95z" />
<glyph unicode="&#xf0;" d="M61 459q0 209 129.5 349t321.5 140q63 0 102.5 -18t79.5 -64l4 6q-60 168 -174 279l-219 -113l-96 64l233 119q-124 88 -266 114l92 51q178 -17 322 -92l180 92l98 -61l-184 -94q92 -76 138 -136t81 -151q64 -152 64 -356q0 -292 -118.5 -454.5t-332.5 -162.5 q-196 0 -325.5 138.5t-129.5 349.5zM356 444q0 -145 10 -223t35 -121q37 -67 115 -67q61 0 94 40.5t47.5 132.5t14.5 259q0 234 -35 328t-121 94q-91 0 -125.5 -95.5t-34.5 -347.5z" />
<glyph unicode="&#xf1;" horiz-adv-x="1138" d="M53 0v49q66 10 85.5 32t21.5 87v592q-2 65 -21.5 87t-85.5 32v47h383v-152q57 91 126 132.5t161 41.5q124 0 197 -75.5t73 -204.5v-506q-1 -60 21 -85t78 -28v-49h-471v49q49 3 70.5 29.5t23.5 83.5v487q0 166 -105 166q-70 0 -137 -70q-35 -31 -35 -47v-536 q0 -56 22.5 -81.5t76.5 -31.5v-49h-484zM203 1102q26 129 82.5 189.5t148.5 60.5q66 0 148 -39l80 -35q39 -18 49.5 -21.5t27.5 -3.5q42 0 66 22t43 77h86q-34 -130 -91 -192t-143 -62q-64 0 -129 28l-57 25q-64 30 -86 37.5t-43 7.5q-38 0 -65 -25.5t-33 -68.5h-84z" />
<glyph unicode="&#xf2;" d="M61 463q0 206 130.5 345.5t322.5 139.5q195 0 324 -138.5t129 -350.5q0 -211 -128 -349.5t-323 -138.5q-198 0 -326.5 138.5t-128.5 353.5zM225 1339q0 37 27.5 64t66.5 27q56 0 109 -56l274 -315h-112l-285 176q-43 28 -61.5 51.5t-18.5 52.5zM356 430q0 -221 35.5 -309 t124.5 -88q88 0 122 90.5t34 322.5q0 248 -34 344.5t-122 96.5q-63 0 -97 -42t-48.5 -139t-14.5 -276z" />
<glyph unicode="&#xf3;" d="M61 463q0 206 130.5 345.5t322.5 139.5q195 0 324 -138.5t129 -350.5q0 -211 -128 -349.5t-323 -138.5q-198 0 -326.5 138.5t-128.5 353.5zM352 1059l275 315q50 56 106 56q43 0 69.5 -24.5t26.5 -64.5q0 -35 -15 -55t-64 -51l-287 -176h-111zM356 430q0 -221 35.5 -309 t124.5 -88q88 0 122 90.5t34 322.5q0 248 -34 344.5t-122 96.5q-63 0 -97 -42t-48.5 -139t-14.5 -276z" />
<glyph unicode="&#xf4;" d="M61 463q0 206 130.5 345.5t322.5 139.5q195 0 324 -138.5t129 -350.5q0 -211 -128 -349.5t-323 -138.5q-198 0 -326.5 138.5t-128.5 353.5zM174 1059l246 354h184l246 -354h-113l-225 196l-225 -196h-113zM356 430q0 -221 35.5 -309t124.5 -88q88 0 122 90.5t34 322.5 q0 248 -34 344.5t-122 96.5q-63 0 -97 -42t-48.5 -139t-14.5 -276z" />
<glyph unicode="&#xf5;" d="M61 463q0 206 130.5 345.5t322.5 139.5q195 0 324 -138.5t129 -350.5q0 -211 -128 -349.5t-323 -138.5q-198 0 -326.5 138.5t-128.5 353.5zM147 1102q26 129 82.5 189.5t149.5 60.5q65 0 147 -39l80 -35q37 -18 48.5 -21.5t29.5 -3.5q42 0 66 22t43 77h86 q-35 -131 -92 -192.5t-144 -61.5q-62 0 -127 28l-59 25q-67 30 -87 37.5t-40 7.5q-39 0 -67 -26t-32 -68h-84zM356 430q0 -221 35.5 -309t124.5 -88q88 0 122 90.5t34 322.5q0 248 -34 344.5t-122 96.5q-63 0 -97 -42t-48.5 -139t-14.5 -276z" />
<glyph unicode="&#xf6;" d="M61 463q0 206 130.5 345.5t322.5 139.5q195 0 324 -138.5t129 -350.5q0 -211 -128 -349.5t-323 -138.5q-198 0 -326.5 138.5t-128.5 353.5zM174 1208q0 51 38 90t87 39q53 0 91 -39t38 -94q0 -54 -37 -90.5t-92 -36.5q-51 0 -88 38.5t-37 92.5zM356 430q0 -221 35.5 -309 t124.5 -88q88 0 122 90.5t34 322.5q0 248 -34 344.5t-122 96.5q-63 0 -97 -42t-48.5 -139t-14.5 -276zM596 1210q0 49 38 88t85 39q54 0 92.5 -39t38.5 -94q0 -53 -37.5 -90t-91.5 -37q-53 0 -89 38t-36 95z" />
<glyph unicode="&#xf7;" horiz-adv-x="1167" d="M78 528v177h1012v-177h-1012zM430 203q0 62 45.5 106.5t108.5 44.5q62 0 107.5 -45t45.5 -106q0 -60 -46.5 -108t-106.5 -48q-63 0 -108.5 46.5t-45.5 109.5zM430 1032q0 62 46 108t108 46q61 0 107 -46t46 -108q0 -60 -46.5 -106.5t-106.5 -46.5q-63 0 -108.5 45 t-45.5 108z" />
<glyph unicode="&#xf8;" d="M61 459q0 210 130 349.5t325 139.5q109 0 207 -49l121 203h92l-145 -248q92 -83 134 -177t42 -218q0 -210 -128.5 -349t-322.5 -139q-109 0 -215 56l-127 -211h-94l151 256q-90 85 -130 176t-40 211zM356 420q0 -94 2 -139l287 485q-20 66 -49 93.5t-80 27.5 q-64 0 -97.5 -42.5t-48 -141t-14.5 -283.5zM379 160q20 -69 51.5 -98t85.5 -29q86 0 121 90t35 317q0 23 -4 211z" />
<glyph unicode="&#xf9;" horiz-adv-x="1138" d="M43 879v47h377v-680q0 -78 25 -111t85 -33q44 0 80 19t86 69v570q-1 66 -26 89.5t-99 29.5v47h404v-723q0 -64 23.5 -89t88.5 -28v-45l-124 -14q-99 -11 -150.5 -21t-114.5 -33v131q-89 -77 -150.5 -105t-139.5 -28q-125 0 -196 75t-71 208v506q-2 63 -19.5 85t-78.5 34z M250 1339q0 38 27 64.5t67 26.5q59 0 109 -56l276 -315h-113l-284 176q-45 28 -63.5 51t-18.5 53z" />
<glyph unicode="&#xfa;" horiz-adv-x="1138" d="M43 879v47h377v-680q0 -78 25 -111t85 -33q44 0 80 19t86 69v570q-1 66 -26 89.5t-99 29.5v47h404v-723q0 -64 23.5 -89t88.5 -28v-45l-124 -14q-99 -11 -150.5 -21t-114.5 -33v131q-89 -77 -150.5 -105t-139.5 -28q-125 0 -196 75t-71 208v506q-2 63 -19.5 85t-78.5 34z M383 1059l274 315q50 56 107 56q43 0 69.5 -24.5t26.5 -64.5q0 -34 -15.5 -55t-64.5 -51l-284 -176h-113z" />
<glyph unicode="&#xfb;" horiz-adv-x="1138" d="M43 879v47h377v-680q0 -78 25 -111t85 -33q44 0 80 19t86 69v570q-1 66 -26 89.5t-99 29.5v47h404v-723q0 -64 23.5 -89t88.5 -28v-45l-124 -14q-99 -11 -150.5 -21t-114.5 -33v131q-89 -77 -150.5 -105t-139.5 -28q-125 0 -196 75t-71 208v506q-2 63 -19.5 85t-78.5 34z M205 1059l246 354h184l246 -354h-113l-225 196l-226 -196h-112z" />
<glyph unicode="&#xfc;" horiz-adv-x="1138" d="M43 879v47h377v-680q0 -78 25 -111t85 -33q44 0 80 19t86 69v570q-1 66 -26 89.5t-99 29.5v47h404v-723q0 -64 23.5 -89t88.5 -28v-45l-124 -14q-99 -11 -150.5 -21t-114.5 -33v131q-89 -77 -150.5 -105t-139.5 -28q-125 0 -196 75t-71 208v506q-2 63 -19.5 85t-78.5 34z M203 1208q0 51 38 90t87 39q54 0 91.5 -38.5t37.5 -94.5q0 -54 -37 -90.5t-92 -36.5q-51 0 -88 38.5t-37 92.5zM625 1210q0 49 38 88t85 39q54 0 92.5 -39t38.5 -94q0 -53 -37.5 -90t-91.5 -37q-53 0 -89 38t-36 95z" />
<glyph unicode="&#xfd;" d="M43 -252q0 56 35.5 91.5t91.5 35.5q52 0 84.5 -27.5t32.5 -70.5q0 -19 -2 -29q-2 -6 -2 -12q0 -12 10.5 -22.5t23.5 -10.5q35 0 70.5 44t61.5 120l34 106l-239 594q-28 68 -77.5 173.5t-53.5 105.5q-9 15 -22 21t-48 12v47h502v-47l-31 -5q-76 -6 -76 -49q0 -12 5 -26.5 t36 -91.5l144 -371l137 385q20 56 20 90q0 37 -22 51t-86 17v47h301v-47q-46 -6 -68 -27t-47 -84l-299 -799q-54 -143 -87.5 -211t-65.5 -102q-62 -68 -168 -68q-86 0 -140.5 44.5t-54.5 115.5zM449 1059l274 315q50 56 106 56q43 0 70 -24.5t27 -64.5q0 -34 -16 -55 t-66 -51l-285 -176h-110z" />
<glyph unicode="&#xfe;" horiz-adv-x="1138" d="M49 -362q70 10 90.5 31t22.5 83v1440q-1 61 -22 83t-89 34v47h389v-572q43 88 101 126t149 38q166 0 269.5 -129.5t103.5 -339.5q0 -223 -108.5 -364.5t-278.5 -141.5q-66 0 -115 25t-121 96v-282q1 -104 33.5 -141t122.5 -40v-43h-547v50zM440 207q55 -123 158 -123 q168 0 168 369q0 196 -38 288.5t-116 92.5q-70 0 -129 -68q-43 -46 -43 -72v-487z" />
<glyph unicode="&#xff;" d="M43 -252q0 56 35.5 91.5t91.5 35.5q52 0 84.5 -27.5t32.5 -70.5q0 -19 -2 -29q-2 -6 -2 -12q0 -12 10.5 -22.5t23.5 -10.5q35 0 70.5 44t61.5 120l34 106l-239 594q-28 68 -77.5 173.5t-53.5 105.5q-9 15 -22 21t-48 12v47h502v-47l-31 -5q-76 -6 -76 -49q0 -12 5 -26.5 t36 -91.5l144 -371l137 385q20 56 20 90q0 37 -22 51t-86 17v47h301v-47q-46 -6 -68 -27t-47 -84l-299 -799q-54 -143 -87.5 -211t-65.5 -102q-62 -68 -168 -68q-86 0 -140.5 44.5t-54.5 115.5zM207 1208q0 51 38 90t87 39q54 0 91.5 -38.5t37.5 -94.5q0 -54 -37 -90.5 t-92 -36.5q-51 0 -88 38.5t-37 92.5zM627 1210q0 51 37.5 89t85.5 38q54 0 92.5 -39t38.5 -94q0 -53 -37.5 -90t-91.5 -37q-53 0 -89 38t-36 95z" />
<glyph unicode="&#x152;" horiz-adv-x="2048" d="M66 670q0 313 190 507.5t496 194.5q43 0 188 -8l39 -2l96 -6h4h2h826v-404h-52q-22 121 -52 179t-91 98q-91 57 -321 57q-64 0 -87.5 -11t-23.5 -42v-500q57 2 93 6t68 17.5t50.5 31.5t36.5 53.5t29.5 78t25.5 110.5h45v-678h-45q-23 180 -84 243.5t-219 72.5v-502 q0 -58 28.5 -77t116.5 -19q211 0 330 96q53 42 90.5 96t89.5 160h54l-84 -422h-863q-145 0 -213 -6q-58 -4 -88 -4q-278 0 -444 137q-110 91 -170.5 232.5t-60.5 310.5zM408 643q0 -137 22 -263.5t57 -189.5q40 -72 104.5 -104.5t164.5 -32.5q66 0 106 14t66 48 q24 30 32.5 94t8.5 215v586q0 108 -7.5 157t-29.5 80q-41 62 -154 62q-370 0 -370 -666z" />
<glyph unicode="&#x153;" horiz-adv-x="1478" d="M59 459q0 214 127.5 351.5t325.5 137.5q82 0 140 -22.5t112 -75.5q72 57 126.5 77.5t131.5 20.5q110 0 192.5 -46t128.5 -134q29 -54 42.5 -113t19.5 -163h-500v-35v-6q0 -169 56.5 -251.5t171.5 -82.5q70 0 119 27.5t118 105.5l41 -31q-98 -140 -184.5 -194t-212.5 -54 q-78 0 -132.5 22.5t-99.5 74.5q-60 -51 -124.5 -74t-151.5 -23q-198 0 -322.5 135.5t-124.5 352.5zM350 494q0 -261 33 -362t119 -101q68 0 99.5 64.5t31.5 203.5v324q0 146 -32 207t-107 61q-57 0 -87.5 -36.5t-43.5 -120.5t-13 -240zM905 565h254q-1 20 -1.5 46.5t-1 41.5 t-1.5 23q-3 114 -31 163.5t-88 49.5q-131 0 -131 -215v-109z" />
<glyph unicode="&#x178;" horiz-adv-x="1478" d="M45 1307v49h672v-49q-23 -2 -51 -2q-60 0 -85.5 -14t-25.5 -48q0 -30 35 -94l12 -25l242 -465l223 371q78 134 78 191q0 44 -33.5 61.5t-134.5 24.5v49h440v-49q-53 -9 -83 -27t-52 -53l-383 -623v-368q1 -61 6 -92t26.5 -52.5t54 -29t97.5 -13.5v-49h-696v49 q64 6 96.5 13.5t54.5 29t27.5 52.5t7.5 92v294l-368 666q-59 102 -160 111zM496 1630q0 51 38 90t87 39q53 0 91 -39t38 -94q0 -53 -37.5 -90t-91.5 -37q-52 0 -88.5 38.5t-36.5 92.5zM915 1632q0 50 37 88.5t86 38.5q54 0 92.5 -39t38.5 -94q0 -52 -38.5 -89.5t-92.5 -37.5 q-53 0 -88 38t-35 95z" />
<glyph unicode="&#x2c6;" horiz-adv-x="681" d="M2 1059l244 354h186l246 -354h-115l-223 196l-225 -196h-113z" />
<glyph unicode="&#x2dc;" horiz-adv-x="681" d="M-25 1102q28 129 84 189.5t148 60.5q65 0 147 -39l80 -35q39 -18 50 -21.5t30 -3.5q40 0 64 22t43 77h88q-35 -131 -92.5 -192.5t-143.5 -61.5q-64 0 -129 28l-57 25q-69 31 -89 38t-40 7q-38 0 -65.5 -25.5t-33.5 -68.5h-84z" />
<glyph unicode="&#x2000;" horiz-adv-x="951" />
<glyph unicode="&#x2001;" horiz-adv-x="1903" />
<glyph unicode="&#x2002;" horiz-adv-x="951" />
<glyph unicode="&#x2003;" horiz-adv-x="1903" />
<glyph unicode="&#x2004;" horiz-adv-x="634" />
<glyph unicode="&#x2005;" horiz-adv-x="475" />
<glyph unicode="&#x2006;" horiz-adv-x="317" />
<glyph unicode="&#x2007;" horiz-adv-x="317" />
<glyph unicode="&#x2008;" horiz-adv-x="237" />
<glyph unicode="&#x2009;" horiz-adv-x="380" />
<glyph unicode="&#x200a;" horiz-adv-x="105" />
<glyph unicode="&#x2010;" horiz-adv-x="681" d="M96 342v233h488v-233h-488z" />
<glyph unicode="&#x2011;" horiz-adv-x="681" d="M96 342v233h488v-233h-488z" />
<glyph unicode="&#x2012;" horiz-adv-x="681" d="M96 342v233h488v-233h-488z" />
<glyph unicode="&#x2013;" d="M10 362v181h1004v-181h-1004z" />
<glyph unicode="&#x2014;" horiz-adv-x="2048" d="M20 362v181h2008v-181h-2008z" />
<glyph unicode="&#x2018;" horiz-adv-x="681" d="M147 946q0 131 78.5 235t255.5 205l21 -45q-217 -151 -217 -264q0 -19 11 -31t28 -12h14q12 2 33 2q65 0 105 -43t40 -112q0 -75 -45.5 -120.5t-120.5 -45.5q-91 0 -147 64t-56 167z" />
<glyph unicode="&#x2019;" horiz-adv-x="681" d="M166 1223q0 74 45.5 118.5t120.5 44.5q91 0 147 -64.5t56 -168.5q0 -129 -79.5 -233.5t-252.5 -204.5l-23 43q217 150 217 266q0 19 -11 31t-28 12q-8 0 -14 -2q-10 -2 -31 -2q-67 0 -107 44t-40 116z" />
<glyph unicode="&#x201a;" horiz-adv-x="681" d="M166 145q0 75 45.5 120.5t120.5 45.5q91 0 147 -64.5t56 -168.5q0 -129 -79.5 -233.5t-252.5 -204.5l-23 43q113 80 165 144t52 122q0 19 -11 31t-28 12q-8 0 -14 -2q-10 -2 -33 -2q-65 0 -105 43.5t-40 113.5z" />
<glyph unicode="&#x201c;" d="M74 946q0 131 78.5 235t255.5 205l20 -45q-217 -151 -217 -264q0 -19 11 -31t28 -12h14q12 2 33 2q65 0 105 -43t40 -112q0 -75 -45.5 -120.5t-120.5 -45.5q-91 0 -146.5 64t-55.5 167zM614 946q0 131 78.5 235t255.5 205l23 -45q-219 -149 -219 -264q0 -19 11 -31 t28 -12h14q12 2 33 2q66 0 106.5 -43t40.5 -112q0 -75 -46 -120.5t-122 -45.5q-91 0 -147 64t-56 167z" />
<glyph unicode="&#x201d;" d="M39 1223q0 74 45.5 118.5t120.5 44.5q91 0 147 -64.5t56 -168.5q0 -129 -79.5 -233.5t-252.5 -204.5l-23 43q217 150 217 266q0 19 -11 31t-28 12q-8 0 -14 -2q-10 -2 -31 -2q-67 0 -107 44t-40 116zM580 1223q0 74 46 118.5t122 44.5q91 0 146.5 -64.5t55.5 -168.5 q0 -129 -79.5 -233.5t-254.5 -204.5l-22 43q219 152 219 266q0 19 -11 31t-28 12q-8 0 -14 -2q-12 -2 -33 -2q-66 0 -106.5 44t-40.5 116z" />
<glyph unicode="&#x201e;" d="M39 145q0 75 45.5 120.5t120.5 45.5q91 0 147 -64.5t56 -168.5q0 -129 -79.5 -233.5t-252.5 -204.5l-23 43q113 80 165 144t52 122q0 19 -11 31t-28 12q-8 0 -14 -2q-10 -2 -33 -2q-65 0 -105 43.5t-40 113.5zM580 145q0 75 46 120.5t122 45.5q91 0 146.5 -64.5 t55.5 -168.5q0 -129 -79.5 -233.5t-254.5 -204.5l-22 43q219 150 219 266q0 19 -11 31t-28 12q-8 0 -14 -2q-12 -2 -33 -2q-66 0 -106.5 43.5t-40.5 113.5z" />
<glyph unicode="&#x2022;" horiz-adv-x="716" d="M82 680q0 116 79 195t195 79q119 0 199 -80t80 -200q0 -111 -81.5 -192t-195.5 -81q-116 0 -196 81t-80 198z" />
<glyph unicode="&#x2026;" horiz-adv-x="2048" d="M186 143q0 69 50 119.5t118 50.5q70 0 121 -50.5t51 -121.5q0 -70 -50 -119t-122 -49t-120 49t-48 121zM854 143q0 69 50.5 119.5t119.5 50.5t119.5 -51t50.5 -121t-50 -119t-122 -49t-120 49t-48 121zM1522 143q0 69 50 119.5t118 50.5q72 0 122 -50.5t50 -121.5 q0 -70 -50 -119t-122 -49t-120 49t-48 121z" />
<glyph unicode="&#x202f;" horiz-adv-x="380" />
<glyph unicode="&#x2039;" horiz-adv-x="681" d="M109 451v8l407 329l12 11q40 32 62 32q24 0 24 -22q0 -50 -106 -191q-10 -14 -98 -126l-29 -37q55 -76 82 -107q155 -184 155 -246q0 -30 -22 -30q-13 0 -43 18l-23 21l-8 8z" />
<glyph unicode="&#x203a;" horiz-adv-x="681" d="M63 803q0 12 6.5 20t16.5 8q14 0 23.5 -6t50.5 -39l413 -333v-9l-407 -327l-6 -6q-32 -26 -43.5 -32.5t-26.5 -6.5q-22 0 -22 22q0 49 106 193q4 6 16 21.5t35.5 45.5t46.5 60q3 4 9 11.5t11 13.5t9 10q-34 49 -82 108q-156 185 -156 246z" />
<glyph unicode="&#x205f;" horiz-adv-x="475" />
<glyph unicode="&#x20ac;" d="M-61 510l57 84h78v63v64h-135l57 84h86q25 144 76 250q73 155 193.5 242t260.5 87q60 0 102 -13.5t124 -59.5q23 -13 47 -13q54 0 67 97h39v-459h-39q-20 158 -75 242q-43 67 -104 105t-126 38q-117 0 -181.5 -125.5t-86.5 -390.5h395l-59 -84h-338v-39v-88h254l-60 -84 h-188q19 -225 88.5 -347t181.5 -122q92 0 181.5 61.5t142.5 159.5v-104q-154 -176 -377 -176q-211 0 -342 134.5t-174 393.5h-145z" />
<glyph unicode="&#x2122;" horiz-adv-x="2048" d="M393 1186v157h479v-157h-24q-4 61 -39 95t-92 32h-17v-385q-2 -50 9.5 -64.5t54.5 -17.5v-23h-260v23q41 3 52 17t11 65v385h-14q-59 2 -95 -32t-40 -95h-25zM913 823v23q43 3 54 17t10 65v311q1 49 -10.5 64t-53.5 18v22h197l152 -346l161 346h199v-22q-41 -3 -52 -17 t-11 -65v-311q0 -51 11 -65t52 -17v-23h-258v23q42 3 53 17.5t10 64.5v327l-200 -432h-23l-190 432v-327q0 -51 11 -65t52 -17v-23h-164z" />
<glyph unicode="&#x25fc;" horiz-adv-x="921" d="M0 0v922h922v-922h-922z" />
<glyph unicode="&#xfb04;" horiz-adv-x="1753" d="M78 823v92h123v84q0 105 18 165t62 106q93 100 282 100q205 0 275 -106q106 106 286 106q153 0 207 -14h283v-1131q-2 -62 0 -92.5t14 -51t30.5 -26.5t57.5 -10v-45h-475v45q43 4 61.5 18t24.5 48.5t4 113.5v826q-10 -2 -26 -2q-46 0 -78.5 29.5t-32.5 70.5q0 20 4 33 t23 51q10 20 10 35q0 19 -21 32t-49 13q-63 0 -87.5 -40t-24.5 -140v-218h174v-92h-174v-598l-2 -69q0 -60 19 -84t69 -27v-45h-455v45q59 6 74 37t12 143v598h-283v-598q-1 -114 13 -144t73 -36v-45h-467v45q68 6 85 37t14 143v598h-123zM483 915h283v84q0 32 2 52 q-12 -2 -33 -2q-44 0 -76 29.5t-32 70.5q0 20 4.5 33.5t23.5 50.5q11 22 11 35q0 19 -21.5 32t-50.5 13q-31 0 -55.5 -14t-36.5 -37q-19 -42 -19 -129v-218z" />
</font>
</defs>
</svg>
