<?xml version="1.0" encoding="utf-8"?>
<!-- Generator: Adobe Illustrator 21.0.2, SVG Export Plug-In . SVG Version: 6.00 Build 0)  -->
<svg version="1.1" id="Calque_1" xmlns="http://www.w3.org/2000/svg" xmlns:xlink="http://www.w3.org/1999/xlink" x="0px" y="0px"
	 viewBox="0 0 610 850" style="enable-background:new 0 0 610 850;" xml:space="preserve">
<style type="text/css">
	.st0{fill:#FFFFFF;}
</style>
<g>
	<path class="st0" d="M305,745c-61.3,0-118.9-33.3-162.2-93.7C99.4,590.9,75.5,510.5,75.5,425s23.9-165.9,67.3-226.3
		c43.3-60.4,101-93.7,162.2-93.7s118.9,33.3,162.2,93.7c43.4,60.4,67.3,140.8,67.3,226.3s-23.9,165.9-67.3,226.3
		C423.9,711.7,366.3,745,305,745z"/>
	<path d="M305,105.5c30.9,0,60.8,8.4,89,25c27.3,16.1,51.8,39.1,72.8,68.4c21.1,29.3,37.6,63.5,49.1,101.6c12,39.4,18,81.3,18,124.5
		s-6.1,85-18,124.5c-11.6,38.1-28.1,72.2-49.1,101.6c-21,29.3-45.5,52.3-72.8,68.4c-28.2,16.6-58.1,25-89,25s-60.8-8.4-89-25
		c-27.3-16.1-51.8-39.1-72.8-68.4c-21.1-29.3-37.6-63.5-49.1-101.6C82.1,510,76,468.2,76,425s6.1-85,18-124.5
		c11.6-38.1,28.1-72.2,49.1-101.6c21-29.3,45.5-52.3,72.8-68.4C244.2,113.9,274.1,105.5,305,105.5 M305,104.5
		C178,104.5,75,248,75,425s103,320.5,230,320.5S535,602,535,425S432,104.5,305,104.5L305,104.5z"/>
</g>
</svg>
