<?xml version="1.0" standalone="no"?>
<!DOCTYPE svg PUBLIC "-//W3C//DTD SVG 1.1//EN" "http://www.w3.org/Graphics/SVG/1.1/DTD/svg11.dtd" >
<svg xmlns="http://www.w3.org/2000/svg" xmlns:xlink="http://www.w3.org/1999/xlink" version="1.1">
<metadata></metadata>
<defs>
<font id="nimbus_roman_no9_lregular" horiz-adv-x="1024" >
<font-face units-per-em="2048" ascent="1399" descent="-649" />
<missing-glyph horiz-adv-x="512" />
<glyph unicode="&#xfb01;" horiz-adv-x="1138" d="M61 0v31h9q75 5 103.5 40.5t27.5 123.5v653h-140v70h140v14q0 204 121 331.5t315 127.5q123 0 197.5 -41t74.5 -107q0 -37 -22 -60.5t-56 -23.5q-29 0 -49.5 16t-58.5 70q-33 49 -64 67.5t-77 18.5q-97 0 -150 -69.5t-53 -198.5v-145h235q180 2 330 24v-747 q-1 -88 27.5 -123.5t103.5 -40.5h8v-31h-456v31h8q75 5 103.5 40.5t27.5 123.5v483q0 103 -21.5 135.5t-89.5 34.5h-276v-653q-1 -88 27.5 -123.5t103.5 -40.5h8v-31h-457z" />
<glyph unicode="&#xfb02;" horiz-adv-x="1138" d="M57 0v31h6q75 4 104.5 41t27.5 123v653h-138v70h138v26q0 174 81 299q52 76 117.5 112t155.5 36q130 0 217 -66l168 68v-1198q-2 -87 27 -123.5t104 -40.5h8v-31h-455v31h7q75 5 103.5 40.5t27.5 123.5v653h-383v-653q-1 -88 27.5 -123.5t103.5 -40.5h6v-31h-453z M373 918h383v280q-17 -14 -47 -14q-33 0 -55.5 19t-53.5 73q-34 55 -94 55q-72 0 -102.5 -68t-30.5 -225v-120z" />
<glyph unicode="&#xfb03;" horiz-adv-x="1728" d="M82 0v31h51q74 5 99 38.5t24 125.5v653h-174v70h174q1 131 5.5 170.5t23.5 93.5q35 103 112.5 158t186.5 55q80 0 129 -35.5t49 -93.5q0 -34 -22 -57t-54 -23q-42 0 -63 35q-6 8 -31 67q-20 51 -70 51q-25 0 -46.5 -20t-29.5 -49q-14 -61 -14 -352h371q3 133 20 197.5 t66 125.5q123 154 356 154q123 0 198 -43t75 -113q0 -36 -25 -60t-63 -24q-63 0 -103 76q-23 46 -30 56.5t-21 21.5q-30 24 -84 24q-78 0 -134.5 -52t-68.5 -136q-10 -68 -10 -227h215q180 2 330 24v-747q0 -93 25 -126.5t98 -37.5h12v-31h-449v31h17q72 4 96.5 38t24.5 126 v653h-369v-653q0 -92 24.5 -126t96.5 -38h49v-31h-483v31h14q73 4 98 37.5t25 126.5v653h-371v-653q0 -93 25 -126.5t98 -37.5h47v-31h-520z" />
<glyph horiz-adv-x="0" />
<glyph horiz-adv-x="682" />
<glyph unicode=" "  horiz-adv-x="512" />
<glyph unicode="&#x09;" horiz-adv-x="512" />
<glyph unicode="&#xa0;" horiz-adv-x="512" />
<glyph unicode="!" horiz-adv-x="681" d="M227 86q0 46 31.5 78.5t77.5 32.5t79.5 -32.5t33.5 -78.5t-32 -75t-83 -29q-46 0 -76.5 30t-30.5 74zM227 1227q0 73 29 115t80 42q53 0 80.5 -42t27.5 -121q0 -26 -4 -76l-92 -785h-26l-19 222q-5 84 -35 282q-41 253 -41 363z" />
<glyph unicode="&#x22;" horiz-adv-x="835" d="M158 1300q0 35 25.5 59.5t62.5 24.5q35 0 60.5 -23.5t25.5 -57.5q0 -97 -51 -338q-4 -19 -15 -82h-43q-65 350 -65 417zM504 1300q0 35 25.5 59.5t62.5 24.5q35 0 60.5 -23.5t25.5 -57.5q0 -97 -51 -338q-4 -19 -15 -82h-43q-65 350 -65 417z" />
<glyph unicode="#" d="M10 442v113h238l43 274h-225v113h241l64 414h118l-63 -414h272l62 414h119l-62 -414h199v-113h-215l-41 -274h205v-113h-224l-63 -442h-119l64 442h-275l-67 -442h-119l67 442h-219zM367 555h274l41 274h-272z" />
<glyph unicode="$" d="M90 104v267h31q37 -161 121 -237t229 -77v578q-109 62 -157.5 94.5t-92.5 75.5q-61 57 -88 114.5t-27 129.5q0 66 29 125t82 100q51 40 104 57.5t150 28.5v129h70v-129q126 -15 200.5 -40t128.5 -69v-227h-30q-26 131 -98 198.5t-201 82.5v-504q182 -103 247.5 -153.5 t106.5 -115.5t41 -184q0 -149 -107 -239q-56 -45 -115.5 -67.5t-172.5 -41.5v-178h-70v178q-130 5 -210 26.5t-171 77.5zM258 1094q0 -72 41 -123t170 -137v471q-211 -43 -211 -211zM541 57q120 23 176.5 82t56.5 160q0 95 -45 153.5t-188 147.5v-543z" />
<glyph unicode="%" horiz-adv-x="1705" d="M90 1014q0 160 83 264t212 104q124 0 202.5 -105t78.5 -271q0 -158 -80 -257.5t-207 -99.5q-126 0 -207.5 103.5t-81.5 261.5zM250 1026q0 -328 125 -328q64 0 98.5 81t34.5 231q0 152 -33.5 234.5t-93.5 82.5q-131 0 -131 -301zM412 -27l802 1411h89l-793 -1411h-98z M1036 313q0 158 82 262.5t205 104.5q124 0 206.5 -105.5t82.5 -263.5q0 -160 -79.5 -260t-205.5 -100q-125 0 -208 103.5t-83 258.5zM1196 317q0 -311 127 -311q62 0 96.5 80.5t34.5 222.5q0 154 -33 236t-96 82t-96 -79t-33 -231z" />
<glyph unicode="&#x26;" horiz-adv-x="1593" d="M86 285q0 257 322 442l77 45q-42 116 -56.5 177.5t-14.5 119.5q0 132 91.5 223.5t223.5 91.5q122 0 199.5 -69t77.5 -178q0 -110 -71.5 -189t-246.5 -162q69 -135 127 -226t143 -195q100 133 143.5 219t43.5 153q0 46 -27.5 65.5t-103.5 26.5v43h442v-43 q-77 -9 -116.5 -33.5t-75.5 -86.5l-54 -95q-78 -138 -204 -307q144 -188 315 -188q55 0 94.5 23t89.5 85l31 -22q-46 -109 -128.5 -170.5t-180.5 -61.5q-89 0 -170 43.5t-178 143.5q-116 -101 -217.5 -144t-225.5 -43q-164 0 -257 83t-93 229zM274 369q0 -120 78 -204.5 t187 -84.5q65 0 130 30t158 103q-87 106 -152.5 209.5t-158.5 279.5q-134 -86 -188 -160.5t-54 -172.5zM575 1151q0 -69 18 -136t64 -163q240 126 240 293q0 75 -46.5 124.5t-117.5 49.5t-114.5 -46.5t-43.5 -121.5z" />
<glyph unicode="'" horiz-adv-x="368" d="M98 1300q0 35 25.5 59.5t62.5 24.5q35 0 60.5 -23.5t25.5 -57.5q0 -97 -51 -338q-2 -8 -4 -20t-5 -30.5t-5 -31.5h-43q-66 355 -66 417z" />
<glyph unicode="(" horiz-adv-x="681" d="M98 516q0 357 217 623q57 70 115.5 119.5t173.5 125.5l19 -32q-111 -90 -168 -157.5t-99 -162.5q-82 -189 -82 -510q0 -296 72 -497q41 -114 97.5 -186t179.5 -169l-25 -32q-81 51 -131.5 93.5t-112.5 114.5q-135 157 -195.5 315t-60.5 355z" />
<glyph unicode=")" horiz-adv-x="681" d="M59 -330q113 91 170 159t97 163q82 183 82 508q0 296 -72 497q-43 116 -98.5 187t-178.5 168l25 32q81 -51 131.5 -93.5t112.5 -114.5q135 -157 195.5 -315t60.5 -355q0 -357 -217 -623q-57 -70 -115.5 -119.5t-173.5 -125.5z" />
<glyph unicode="*" d="M141 788q0 40 29 61.5t98 33.5q70 13 109 28.5t102 53.5l-22 14q-56 39 -176 61q-75 13 -107.5 36t-32.5 61q0 32 19.5 52.5t50.5 20.5q25 0 46 -14t52 -51q49 -55 87.5 -86.5t97.5 -63.5v27q0 74 -31 186q-21 75 -21 105q0 31 20.5 51t51.5 20t52.5 -21t21.5 -52 l-56 -267v-53l15 8q73 42 147 131q72 84 115 84q34 0 54 -22t20 -57q0 -40 -22.5 -58.5t-82.5 -27.5q-66 -11 -110 -27t-119 -59l16 -11q82 -51 199 -69q68 -11 94.5 -30.5t26.5 -59.5q0 -34 -20 -55t-52 -21q-52 0 -123 88q-75 96 -143 123l-15 6v-14q0 -121 41 -230 q17 -49 17 -65q0 -32 -24 -57t-56 -25q-29 0 -50.5 22t-21.5 51q0 33 23 97q37 98 37 172q0 2 -0.5 6.5t-1.5 13t-2 15.5l-2 14q-73 -48 -105 -74q-35 -35 -86 -92q-26 -29 -43.5 -39t-42.5 -10q-35 0 -54.5 18.5t-19.5 50.5z" />
<glyph unicode="+" horiz-adv-x="1155" d="M76 573v109h448v451h109v-451h448v-109h-448v-450h-109v450h-448z" />
<glyph unicode="," horiz-adv-x="512" d="M115 92q0 52 33.5 84.5t87.5 32.5q69 0 116 -52.5t47 -129.5q0 -92 -63 -178.5t-166 -137.5l-18 39q167 114 167 217q0 12 -8 20.5t-20 8.5q-5 0 -15 -4q-24 -4 -40 -4q-57 0 -89 27.5t-32 76.5z" />
<glyph unicode="-" horiz-adv-x="681" d="M80 397v129h504v-129h-504z" />
<glyph unicode="." horiz-adv-x="512" d="M143 88q0 49 33.5 83t79.5 34t80.5 -35t34.5 -82q0 -46 -35 -78.5t-82 -32.5q-44 0 -77.5 33.5t-33.5 77.5z" />
<glyph unicode="/" horiz-adv-x="569" d="M8 -29l469 1413h92l-467 -1413h-94z" />
<glyph unicode="0" d="M49 688q0 180 54 342t143 248q109 106 274 106q201 0 328 -197t127 -511q0 -186 -54 -349.5t-143 -248.5q-110 -107 -266 -107q-181 0 -299 140q-72 86 -118 247.5t-46 329.5zM246 670q0 -645 266 -645t266 647q0 321 -67.5 490t-196.5 169q-132 0 -200 -167t-68 -494z " />
<glyph unicode="1" d="M227 1169v29l369 186l16 -4v-1228q2 -74 39.5 -97.5t155.5 -23.5v-31h-565v31q117 1 154 31.5t40 127.5v928q0 50 -14.5 73t-46.5 23t-148 -45z" />
<glyph unicode="2" d="M61 0v25l365 387q129 136 197.5 273t68.5 259q0 129 -79.5 209t-209.5 80q-107 0 -171 -57.5t-126 -208.5l-43 10q26 108 54 167.5t78 112.5q118 127 294 127q160 0 269.5 -104t109.5 -256q0 -122 -63 -244t-199 -264l-344 -360h490q72 2 104.5 24t89.5 111l27 -10 l-113 -281h-799z" />
<glyph unicode="3" d="M88 88q0 32 21.5 52t56.5 20q48 0 129 -51q57 -37 94 -50.5t80 -13.5q114 0 190 87t76 218q0 106 -55 187t-152 116q-60 23 -215 23l-2 26q104 37 158 66.5t100 75.5q82 85 82 198q0 98 -62 159t-163 61q-97 0 -169.5 -52t-133.5 -166l-31 9q32 92 60.5 141t74.5 90 q112 100 267 100q143 0 231 -77t88 -203q0 -83 -43 -147t-147 -136q67 -30 102.5 -52.5t67.5 -55.5q90 -99 90 -264q0 -211 -148 -340q-74 -63 -186.5 -100.5t-229.5 -37.5q-107 0 -169 31.5t-62 85.5z" />
<glyph unicode="4" d="M25 342v131l643 911h90v-911h209v-131h-209v-342h-158v342h-575zM106 473h492v703z" />
<glyph unicode="5" d="M66 98q0 76 86 76q65 0 157 -68q45 -34 74.5 -46.5t60.5 -12.5q121 0 203 101t82 249q0 154 -82.5 251.5t-259.5 154.5q-131 41 -231 41q-25 0 -25 16q0 6 2 10l223 486h428q33 0 52 11t43 42l18 -14l-78 -183q-4 -12 -12.5 -15t-34.5 -3h-401l-86 -174 q181 -32 280.5 -72t167.5 -108q75 -77 107 -155.5t32 -188.5q0 -230 -135 -365q-160 -160 -422 -160q-116 0 -182.5 34t-66.5 93z" />
<glyph unicode="6" d="M70 571q0 205 88 376t254 290q113 79 220 114t281 50l5 -33q-241 -40 -403.5 -196t-203.5 -388q97 59 145 76t115 17q180 0 283.5 -115t103.5 -313q0 -212 -119.5 -345t-310.5 -133q-194 0 -315 140q-66 76 -104.5 201t-38.5 259zM260 539q0 -237 78 -373.5t213 -136.5 q107 0 165 90.5t58 259.5q0 192 -72.5 297.5t-205.5 105.5q-113 0 -179 -51q-57 -43 -57 -192z" />
<glyph unicode="7" d="M53 1055l121 301h758v-33l-434 -1339h-133l405 1220h-444q-86 -2 -130.5 -32.5t-107.5 -133.5z" />
<glyph unicode="8" d="M115 309q0 106 49.5 175t216.5 196q-161 141 -207.5 211t-46.5 170q0 139 111 231t278 92q155 0 253.5 -81t98.5 -209q0 -104 -61 -178t-213 -156q186 -139 251.5 -231t65.5 -212q0 -158 -109.5 -252t-293.5 -94q-175 0 -284 93.5t-109 244.5zM270 324 q0 -132 71.5 -213.5t188.5 -81.5q100 0 163 62.5t63 162.5q0 87 -43.5 151.5t-155.5 143.5l-123 90q-91 -73 -127.5 -144t-36.5 -171zM279 1124q0 -86 59.5 -161.5t196.5 -165.5q104 67 148 136t44 163q0 106 -61.5 168.5t-165.5 62.5q-97 0 -159 -57t-62 -146z" />
<glyph unicode="9" d="M61 901q0 207 121.5 345t304.5 138q199 0 326 -161.5t127 -415.5q0 -207 -89 -388t-249 -298q-104 -75 -206.5 -110.5t-274.5 -55.5l-6 41q234 40 396.5 198t225.5 408q-82 -63 -152.5 -90t-154.5 -27q-166 0 -267.5 114.5t-101.5 301.5zM250 971q0 -183 68.5 -290.5 t185.5 -107.5q115 0 207 76q30 23 30 78v80q0 258 -68 389t-202 131q-91 0 -145 -63q-33 -40 -54.5 -123t-21.5 -170z" />
<glyph unicode=":" horiz-adv-x="569" d="M166 88q0 49 33.5 83t79.5 34t80 -35t34 -82q0 -46 -35 -78.5t-82 -32.5q-44 0 -77 33.5t-33 77.5zM166 823q0 49 33.5 83t79.5 34t80 -35t34 -82q0 -45 -34.5 -77.5t-82.5 -32.5q-44 0 -77 33t-33 77z" />
<glyph unicode=";" horiz-adv-x="569" d="M164 94q0 53 33 84t88 31q69 0 116.5 -52t47.5 -130q0 -92 -62 -178t-168 -138l-18 39q168 115 168 217q0 12 -8.5 20.5t-20.5 8.5q-4 0 -14 -4q-24 -4 -41 -4q-57 0 -89 27.5t-32 78.5zM166 823q0 49 33.5 83t79.5 34t80 -35t34 -82q0 -44 -35 -77t-82 -33q-44 0 -77 33 t-33 77z" />
<glyph unicode="&#x3c;" horiz-adv-x="1155" d="M72 567v119l1013 459v-119l-880 -399l880 -400v-116z" />
<glyph unicode="=" horiz-adv-x="1155" d="M76 369v108h1005v-108h-1005zM76 778v109h1005v-109h-1005z" />
<glyph unicode="&#x3e;" horiz-adv-x="1155" d="M72 111v116l880 400l-880 399v119l1013 -459v-119z" />
<glyph unicode="?" horiz-adv-x="909" d="M100 1087q0 127 95.5 212t236.5 85q85 0 168 -32t135 -86q74 -74 74 -199q0 -119 -92 -258q-29 -43 -123 -158q-57 -70 -86.5 -140t-46.5 -175h-35q3 143 61 291l58 131q76 175 76 319q0 103 -65 174.5t-159 71.5q-74 0 -133 -39t-59 -88q0 -25 35 -63q43 -49 43 -89 q0 -38 -23 -60.5t-61 -22.5q-99 0 -99 126zM338 86q0 47 31 80t77 33t79.5 -32.5t33.5 -78.5t-31.5 -75t-81.5 -29q-47 0 -77.5 29t-30.5 73z" />
<glyph unicode="@" horiz-adv-x="1886" d="M162 475q0 187 65.5 355t177 289.5t266.5 193t326 71.5q209 0 381.5 -100t271.5 -274t99 -385q0 -165 -58 -309t-156 -229t-210 -85q-82 0 -139.5 52.5t-67.5 138.5q-57 -88 -133 -138.5t-151 -50.5q-86 0 -144.5 83.5t-58.5 205.5q0 143 50.5 283t139.5 241 q59 68 121.5 99.5t138.5 31.5q60 0 93 -26.5t71 -106.5l23 98h157l-149 -659q-4 -28 -4 -47q0 -119 88 -119q49 0 91 27t85 86q57 78 89 184.5t32 214.5q0 191 -89.5 353.5t-242.5 257t-334 94.5q-147 0 -277 -64.5t-222 -176t-145.5 -267.5t-53.5 -334q0 -223 92.5 -398 t259 -272.5t377.5 -97.5q116 0 216 28.5t232 98.5l29 -78q-168 -88 -271 -119t-222 -31q-176 0 -332.5 68t-268.5 185t-177.5 280.5t-65.5 347.5zM795 336q0 -101 37 -160t100 -59q46 0 93 40.5t79 108.5q44 93 73 208.5t29 195.5q0 81 -22.5 121t-69.5 45 q-43 3 -98.5 -32.5t-104.5 -98.5q-55 -72 -85.5 -169t-30.5 -200z" />
<glyph unicode="A" horiz-adv-x="1478" d="M31 0v39q27 1 44 5t36.5 18t34 33.5t37 61t45 89.5t57.5 129l426 1005h41l510 -1163q54 -114 84.5 -144t99.5 -34v-39h-522v39q82 1 112.5 16.5t30.5 53.5q0 51 -39 137l-84 196h-536l-95 -239q-16 -43 -16 -80q0 -44 33 -64t106 -20v-39h-405zM442 526h473l-237 564z " />
<glyph unicode="B" horiz-adv-x="1366" d="M35 0v39q67 2 102 9t57.5 28t29 53.5t7.5 93.5v910q-1 62 -6.5 93t-28.5 52.5t-57.5 28t-103.5 10.5v39h573q264 0 400.5 -88t136.5 -260q0 -133 -82 -205q-37 -32 -78.5 -51t-120.5 -39q100 -25 152 -48.5t98 -64.5q100 -89 100 -231q0 -154 -114 -256 q-57 -52 -159.5 -82.5t-221.5 -30.5h-684zM440 160q0 -49 27 -66.5t102 -17.5q190 0 285 53q125 72 125 238q0 189 -172 258q-56 24 -137.5 33.5t-229.5 9.5v-508zM440 748l195 2q148 2 224.5 65t76.5 184q0 137 -96 211q-91 70 -248 70h-17l-90 -2q-26 -1 -34.5 -13 t-10.5 -46v-471z" />
<glyph unicode="C" horiz-adv-x="1366" d="M57 668q0 168 57 306t165 234q97 85 217.5 130.5t246.5 45.5q153 0 299 -51q50 -16 80 -16q31 0 54 17.5t32 49.5h43l19 -460h-47q-29 99 -57.5 152.5t-78.5 103.5q-126 123 -305 123q-223 0 -355 -165.5t-132 -445.5q0 -171 45.5 -304t130.5 -208q134 -119 332 -119 q127 0 235 49t222 158l36 -37q-92 -124 -238.5 -192t-320.5 -68q-306 0 -493 191.5t-187 505.5z" />
<glyph unicode="D" horiz-adv-x="1478" d="M33 0v39q41 3 67 6.5t47.5 12.5t33 20.5t19 32.5t10 46.5t3.5 65.5v910q-1 42 -2.5 66.5t-9.5 46.5t-18 32t-32.5 19t-48 12.5t-69.5 7.5v39h553q431 0 643 -215q174 -171 174 -457q0 -149 -54.5 -280t-154.5 -222q-95 -86 -248 -134t-332 -48h-581zM422 160 q0 -49 22 -66.5t84 -17.5q254 0 402 84q250 145 250 510q0 166 -62 295.5t-182 212.5q-143 102 -408 102q-64 0 -85 -16t-21 -64v-1040z" />
<glyph unicode="E" horiz-adv-x="1251" d="M25 0v39q110 6 142.5 40t35.5 144v910q-3 111 -34.5 144t-143.5 40v39h1087l6 -293h-51q-13 73 -28 110.5t-51 63t-87 32.5t-145 9h-277q-43 0 -54 -12t-13 -58v-454h315q69 2 105 8t62 28.5t37 57t21 100.5h47v-475h-47q-20 127 -58.5 160.5t-166.5 36.5h-315v-506 q0 -60 28 -72t187 -16h55q151 1 236 24t141 78.5t106 167.5h58l-93 -346h-1105z" />
<glyph unicode="F" horiz-adv-x="1138" d="M25 0v39q42 3 67.5 6.5t47 13t32.5 22t18.5 37t9.5 53t3 75.5v887q-3 111 -34.5 144t-143.5 40v39h1087l6 -293h-51q-13 73 -28 110.5t-51 63t-87 32.5t-145 9h-279q-43 -1 -53 -12.5t-12 -57.5v-454h297q126 3 167 38t58 156h47v-475h-47q-19 125 -59 160.5t-166 36.5 h-297v-447q2 -113 35.5 -146.5t150.5 -37.5v-39h-573z" />
<glyph unicode="G" horiz-adv-x="1478" d="M66 666q0 207 89.5 370.5t250 255.5t362.5 92q140 0 279 -47q62 -20 90 -20q32 0 57.5 18t34.5 49h45l16 -432h-47q-38 94 -68.5 144t-76.5 94q-119 113 -295 113q-104 0 -196.5 -40.5t-160.5 -115.5q-67 -75 -107 -204.5t-40 -274.5q0 -286 144.5 -450.5t394.5 -164.5 q112 0 192 35.5t80 85.5v332q-2 63 -6.5 93.5t-25.5 51.5t-52 27t-96 10v37h522v-37q-88 -6 -114 -35t-29 -123v-415q-62 -54 -221.5 -99t-292.5 -45q-169 0 -313.5 56.5t-245.5 162.5q-170 179 -170 476z" />
<glyph unicode="H" horiz-adv-x="1478" d="M39 0v39q43 3 69 6.5t48 13t32.5 22t18 37t9.5 53t3 75.5v887q-1 114 -31 144.5t-149 39.5v39h569v-39q-64 -6 -95.5 -13t-52.5 -28.5t-26 -52t-6 -90.5v-398h621v398q-1 114 -31.5 144.5t-149.5 39.5v39h570v-39q-51 -5 -80 -11t-51 -16.5t-31.5 -31.5t-13.5 -49t-5 -76 v-910q1 -110 33 -142.5t148 -41.5v-39h-570v39q43 3 69 6.5t48 13t33 22t18.5 37t9.5 53t3 75.5v399h-621v-422q1 -77 14.5 -112t49 -50.5t116.5 -21.5v-39h-569z" />
<glyph unicode="I" horiz-adv-x="681" d="M37 0v39q46 2 74.5 5t52.5 11t36.5 19.5t21 33t11 47.5t3.5 68v910q-1 41 -3.5 66.5t-11 47t-20.5 32.5t-36 19.5t-52.5 12t-75.5 6.5v39h608v-39q-68 -2 -103.5 -9t-59 -28t-30 -53.5t-8.5 -93.5v-910q3 -114 39 -147.5t162 -36.5v-39h-608z" />
<glyph unicode="J" horiz-adv-x="796" d="M33 119q0 41 29.5 71.5t70.5 30.5q78 0 107 -104q11 -39 22.5 -53.5t32.5 -14.5q78 0 78 135v949q-1 114 -33.5 144.5t-157.5 39.5v39h588v-39q-45 -3 -71.5 -6.5t-49.5 -12.5t-34 -19.5t-19 -32.5t-10.5 -46.5t-3.5 -66.5v-758q0 -192 -90.5 -298t-255.5 -106 q-89 0 -146 41.5t-57 106.5z" />
<glyph unicode="K" horiz-adv-x="1478" d="M55 0v39q64 4 96.5 11.5t54.5 31t27.5 59.5t6.5 105v887q-3 113 -35 145t-150 39v39h582v-39q-67 -5 -100 -11.5t-55 -28t-27 -52t-6 -92.5v-420l362 329q160 147 160 211q0 37 -24 48.5t-116 15.5v39h537v-39q-104 -7 -155.5 -33.5t-155.5 -126.5l-389 -385l477 -512 q76 -81 114.5 -119.5t75.5 -64t62.5 -31t68.5 -6.5v-39h-624v39q25 2 57 2q86 3 86 45q0 37 -74 133.5t-192 214.5l-217 215l-53 -43v-383q1 -60 7 -92t27.5 -53t54 -28t95.5 -11v-39h-578z" />
<glyph unicode="L" horiz-adv-x="1251" d="M25 0v39q110 6 142.5 40t35.5 144v910q-3 111 -34.5 144t-143.5 40v39h577v-39q-120 -6 -153.5 -38.5t-36.5 -145.5v-969q1 -55 29 -68t147 -16h137q136 4 214.5 28.5t132 81t102.5 166.5h51l-99 -356h-1101z" />
<glyph unicode="M" horiz-adv-x="1820" d="M25 0v39q54 3 85.5 11t55 22.5t34.5 46t16.5 72.5t6.5 110v832q-2 62 -8 93.5t-28.5 53t-56.5 28t-101 9.5v39h405l473 -1034l453 1034h407v-39q-112 -7 -143.5 -40t-34.5 -144v-910q3 -110 35.5 -144t142.5 -40v-39h-573v39q52 3 81.5 9t52.5 17.5t32.5 36t14 56.5 t5.5 88v928l-524 -1174h-29l-514 1126v-825q2 -110 18 -162t54.5 -74t120.5 -26v-39h-481z" />
<glyph unicode="N" horiz-adv-x="1478" d="M25 0v39q54 3 85.5 11t55 22.5t34.5 46t16.5 72.5t6.5 110v903q-62 72 -97 92.5t-101 20.5v39h350l788 -991v690q-2 58 -5 94.5t-12 67t-21.5 47t-35.5 29t-51 17t-71 7.5v39h481v-39q-85 -7 -123 -28.5t-53.5 -72t-18.5 -161.5v-1078h-34l-906 1127v-803q2 -110 18 -162 t54.5 -74t120.5 -26v-39h-481z" />
<glyph unicode="O" horiz-adv-x="1478" d="M70 678q0 310 188 508t481 198q301 0 498 -215q172 -184 172 -499q0 -310 -190 -504.5t-492 -194.5q-135 0 -263 56t-218 153q-83 87 -129.5 220t-46.5 278zM303 674q0 -170 47 -314t125 -215q117 -100 260 -100q164 0 273 109q73 73 100 149q68 176 68 369 q0 182 -45.5 321.5t-129.5 214.5q-115 103 -262 103q-172 0 -293 -133q-65 -72 -104 -210t-39 -294z" />
<glyph unicode="P" horiz-adv-x="1138" d="M33 0v39q42 4 67 8t46 14t31 21.5t17 36t8.5 52t2.5 75.5v887q-1 40 -3 64.5t-9 46t-17 32t-31.5 19.5t-46 13.5t-65.5 8.5v39h540q145 0 268.5 -40.5t184.5 -107.5q84 -90 84 -223q0 -102 -52.5 -189.5t-144.5 -136.5q-124 -69 -358 -69q-61 0 -141 6v-373 q1 -60 7.5 -93t29 -54t57 -28t98.5 -9v-39h-573zM414 678q70 -6 116 -6q357 0 357 301q0 158 -98.5 232.5t-305.5 74.5q-41 0 -55 -14.5t-14 -55.5v-532z" />
<glyph unicode="Q" horiz-adv-x="1478" d="M70 674q0 154 50 286t137.5 225t212 146t269.5 53q193 0 346 -89.5t238.5 -251t85.5 -365.5q0 -346 -229 -549q-70 -61 -136.5 -92t-171.5 -51q124 -161 256.5 -234t307.5 -78v-36h-13q-30 -3 -69 -3q-246 0 -428.5 63.5t-286.5 186.5l-96 113q-108 36 -169.5 73.5 t-121.5 102.5q-182 197 -182 500zM303 686q0 -181 46 -325t126 -216q115 -100 264 -100q176 0 295 131q62 71 102 213t40 293q0 173 -47 313t-130 213q-55 48 -122 75.5t-132 27.5q-178 0 -299 -133q-63 -71 -103 -208t-40 -284z" />
<glyph unicode="R" horiz-adv-x="1366" d="M35 0v39q42 3 66.5 7t46 13.5t31.5 22t17.5 36.5t9.5 52.5t3 75.5v887q-1 112 -30 142t-144 42v39h565q145 0 263 -37t177 -100q80 -89 80 -224q0 -141 -87.5 -222.5t-282.5 -119.5l421 -518q43 -52 81 -71.5t98 -24.5v-39h-330l-488 631l-114 -4v-404q1 -60 7 -91.5 t27 -52.5t54 -28.5t96 -11.5v-39h-567zM418 702q149 3 220.5 16.5t141.5 53.5q55 29 86 89.5t31 137.5q0 145 -91.5 213t-283.5 68q-61 0 -82.5 -15.5t-21.5 -58.5v-504z" />
<glyph unicode="S" horiz-adv-x="1138" d="M86 408h47q77 -188 176.5 -275.5t237.5 -87.5q112 0 182 64t70 165q0 78 -29 121q-75 115 -305 240q-172 91 -246 183.5t-74 215.5q0 161 109 256q108 94 244 94q101 0 219 -45q52 -24 90 -24q53 0 65 69h43l46 -436h-52q-24 90 -50.5 140t-74.5 100q-109 112 -249 112 q-95 0 -154 -51.5t-59 -136.5q0 -84 69.5 -157.5t231.5 -161.5q202 -110 292.5 -216.5t90.5 -232.5q0 -158 -120 -265.5t-298 -107.5q-124 0 -242 47q-64 23 -96 23q-23 0 -39 -19.5t-18 -48.5h-46z" />
<glyph unicode="T" horiz-adv-x="1251" d="M35 1008l12 348h1155l12 -348h-49q-18 89 -35.5 135.5t-55 77t-88.5 39t-146 10.5h-111v-1047q1 -40 3.5 -65.5t11 -47t21.5 -33t36 -20.5t52 -12.5t73 -5.5v-39h-598v39q46 3 74 6.5t51.5 13t34.5 21.5t19 37t10 53t3 76v1024h-110q-75 -1 -120.5 -8t-81.5 -21.5 t-57.5 -46t-36.5 -73.5t-30 -113h-49z" />
<glyph unicode="U" horiz-adv-x="1478" d="M29 1317v39h579v-39q-66 -6 -98.5 -13t-54.5 -28.5t-27 -52t-6 -90.5v-656q0 -179 51 -270q84 -146 301 -146q115 0 207 44t133 118q47 87 47 279v553q-2 110 -17.5 161.5t-54 73.5t-120.5 27v39h475v-39q-45 -5 -72 -10.5t-50.5 -18t-35 -28.5t-20 -46t-11.5 -66t-4 -93 v-535q0 -119 -15 -196.5t-52 -141.5q-121 -211 -457 -211q-261 0 -387.5 128.5t-126.5 394.5v639q-1 114 -31.5 144.5t-152.5 39.5z" />
<glyph unicode="V" horiz-adv-x="1478" d="M33 1317v39h545v-39q-54 -4 -60 -4q-50 -3 -72 -18t-22 -46q0 -23 16.5 -68.5t67.5 -158.5l309 -692l301 751q39 95 39 150q0 43 -32.5 62.5t-116.5 23.5v39h419v-39q-73 -4 -105 -36.5t-83 -154.5l-455 -1149h-30l-504 1125q-66 137 -104 174.5t-113 40.5z" />
<glyph unicode="W" horiz-adv-x="1933" d="M10 1317v39h502v-39q-78 -4 -105.5 -18t-27.5 -48q0 -36 22 -94l295 -770l219 578l-67 168q-53 123 -86 153t-121 31v39h547v-39q-83 -2 -120.5 -18.5t-37.5 -53.5q0 -30 31 -104q4 -12 24 -62l271 -698l256 694q33 94 33 154q0 41 -32 60.5t-110 27.5v39h406v-39 q-81 -15 -111 -40.5t-59 -105.5q-172 -464 -231.5 -633t-186.5 -561h-31l-327 867l-316 -867h-31l-395 1100q-57 145 -95 189t-116 51z" />
<glyph unicode="X" horiz-adv-x="1478" d="M20 0v39q30 2 45 4t38 12.5t36 21t43 41t56.5 61.5t78.5 93l322 396l-223 327q-65 92 -104 143t-74 90.5t-64 55.5t-57.5 23.5t-71.5 9.5v39h619v-39l-58 -2q-51 -2 -74.5 -16t-23.5 -44q0 -34 40 -104.5t134 -202.5l86 -121l231 283q82 99 82 141q0 35 -30 49t-113 17 v39h487v-39q-99 -6 -152.5 -39.5t-152.5 -153.5l-299 -372l393 -562q66 -89 106 -115.5t122 -35.5v-39h-608v39q50 4 55 4q102 3 102 59q0 49 -104 201l-195 287l-243 -303q-107 -132 -107 -176q0 -35 33.5 -50.5t122.5 -21.5v-39h-478z" />
<glyph unicode="Y" horiz-adv-x="1478" d="M45 1317v39h573v-39q-23 -2 -51 -2q-50 -3 -72 -17t-22 -43q0 -40 35 -90l303 -454l293 463q29 45 29 75q0 37 -31 51.5t-111 16.5v39h449v-39q-78 -6 -133.5 -52t-149.5 -182l-303 -462v-398q1 -63 7.5 -95.5t31 -53.5t62 -27t110.5 -8v-39h-627v39q51 2 80.5 5t55 12.5 t37.5 21t20.5 37t10.5 54t3 77.5v356l-268 393q-84 118 -125.5 173t-80 93t-62.5 46t-64 10z" />
<glyph unicode="Z" horiz-adv-x="1251" d="M18 0v31l895 1247h-452q-177 -4 -247.5 -60t-96.5 -212h-54l41 350h1078v-31l-885 -1247h526q166 6 236.5 62t116.5 220h47l-49 -360h-1156z" />
<glyph unicode="[" horiz-adv-x="681" d="M180 -319v1675h432v-51h-184q-51 -1 -70.5 -21t-21.5 -70v-1376q2 -56 25 -80.5t75 -25.5h176v-51h-432z" />
<glyph unicode="\" horiz-adv-x="569" d="M16 1384h103l469 -1413h-92z" />
<glyph unicode="]" horiz-adv-x="681" d="M70 -268h184q51 1 70.5 20.5t21.5 69.5v1376q-2 56 -25 81t-75 26h-176v51h432v-1675h-432v51z" />
<glyph unicode="^" horiz-adv-x="960" d="M49 608l371 748h123l370 -748h-139l-293 592l-293 -592h-139z" />
<glyph unicode="_" d="M0 -154h1024v-102h-1024v102z" />
<glyph unicode="`" horiz-adv-x="681" d="M70 1325q0 29 18.5 46.5t50.5 17.5q23 0 40.5 -10t45.5 -38l301 -303h-82l-315 199q-59 38 -59 88z" />
<glyph unicode="a" horiz-adv-x="909" d="M76 199q0 51 20 99t54 79q65 58 131.5 91t306.5 130v125q0 83 -40.5 126.5t-115.5 43.5q-61 0 -104 -29.5t-43 -70.5q0 -23 6 -50q4 -28 4 -32q0 -34 -27.5 -60t-64.5 -26q-36 0 -62 26t-26 62q0 97 99.5 163t244.5 66q185 0 254 -113q41 -65 41 -215v-399 q0 -68 13 -93.5t48 -25.5q43 0 90 39v-53q-54 -59 -93 -80.5t-91 -21.5q-63 0 -93.5 34t-37.5 115q-94 -80 -163 -114.5t-136 -34.5q-94 0 -154.5 61.5t-60.5 157.5zM256 256q0 -66 37.5 -112t91.5 -46q71 0 150 45q32 19 42.5 41t10.5 68v297q-180 -63 -255 -128t-77 -157 v-8z" />
<glyph unicode="b" d="M6 1276v33l60 16q144 41 237 74l10 -4v-627q31 76 111 125t174 49q154 0 257 -127t103 -317q0 -144 -63 -263t-173 -187t-243 -68q-124 0 -231 42t-107 89v1063q0 65 -18.5 84.5t-81.5 19.5q-23 0 -35 -2zM313 143q0 -40 59.5 -69t139.5 -29q126 0 196 94t70 264 q0 110 -30.5 207t-79.5 144q-65 59 -152 59q-79 0 -141 -47t-62 -107v-516z" />
<glyph unicode="c" horiz-adv-x="909" d="M51 434q0 122 41.5 223.5t118.5 169.5q131 115 289 115q129 0 222 -62.5t93 -148.5q0 -35 -28 -60.5t-68 -25.5q-34 0 -60 25t-38 69l-13 45q-15 57 -40.5 78t-80.5 21q-124 0 -201 -98.5t-77 -258.5q0 -177 88 -288t229 -111q88 0 152 42.5t137 149.5l29 -18 q-45 -90 -80 -140t-76 -85q-113 -96 -248 -96q-170 0 -279.5 128t-109.5 326z" />
<glyph unicode="d" d="M55 420q0 218 124.5 370t301.5 152q62 0 109.5 -19.5t105.5 -68.5v320q0 63 -18.5 83.5t-75.5 20.5q-29 0 -45 -2v33q195 52 301 90l10 -4v-1162q0 -71 17.5 -93.5t72.5 -22.5q21 0 48 2v-33l-301 -106l-9 6v131q-53 -72 -114.5 -104.5t-147.5 -32.5q-170 0 -274.5 121.5 t-104.5 318.5zM231 502q0 -189 77.5 -302.5t205.5 -113.5q96 0 148 61q34 39 34 62v471q0 82 -63 143.5t-146 61.5q-117 0 -186.5 -104.5t-69.5 -278.5z" />
<glyph unicode="e" horiz-adv-x="909" d="M63 438q0 126 40 230.5t112 167.5q118 106 277 106q79 0 147.5 -30.5t114.5 -86.5q39 -50 57.5 -104.5t30.5 -153.5h-631q3 -94 15 -152.5t40 -117.5q89 -176 264 -176q99 0 172 49t146 166l33 -14q-65 -166 -176.5 -254t-258.5 -88q-177 0 -280 123t-103 335zM215 633 h418q-20 133 -63.5 184t-137.5 51t-147 -57t-70 -178z" />
<glyph unicode="f" horiz-adv-x="681" d="M68 0v31q58 2 88 8.5t49.5 27.5t25 53t7.5 93v643h-168v66h168q1 123 16 191.5t55 137.5t116.5 108.5t172.5 39.5q92 0 152.5 -36t60.5 -91q0 -35 -24.5 -59.5t-61.5 -24.5q-26 0 -46.5 17t-45.5 57q-28 44 -51.5 61.5t-57.5 17.5q-116 0 -116 -182v-237h251v-66h-249 v-643q0 -50 4 -78t14 -50t33 -32t54 -15t85 -7v-31h-532z" />
<glyph unicode="g" d="M57 -248q0 57 45.5 114t155.5 136q-64 31 -86 53t-22 56q0 26 11.5 47t43.5 55q4 5 74 72l53 49q-103 51 -147 114t-44 160q0 141 99.5 237.5t242.5 96.5q79 0 164 -31l45 -16q61 -21 113 -21h158v-79h-170q38 -86 38 -172q0 -150 -98 -232q-99 -86 -221 -86 q-2 0 -14.5 1t-42 3.5t-60.5 5.5q-41 -12 -82 -55t-41 -74q0 -49 160 -55l264 -12q114 -4 181 -64t67 -155q0 -116 -113 -207q-80 -65 -192 -102t-227 -37q-147 0 -251 58t-104 140zM201 -180q0 -68 81.5 -109t217.5 -41q173 0 280 55t107 144q0 55 -57 77.5t-197 22.5 q-75 0 -177.5 8.5t-154.5 18.5q-62 -74 -81 -107.5t-19 -68.5zM311 686q0 -148 58 -239t153 -91q70 0 111 50.5t41 136.5q0 131 -62 245q-52 97 -149 97q-71 0 -111.5 -51.5t-40.5 -141.5v-6z" />
<glyph unicode="h" d="M18 0v31q87 10 108 38.5t24 139.5v965q0 66 -19.5 85t-85.5 19q-17 0 -25 -2v33l56 16q141 41 235 74l11 -6v-623q70 92 140 132t161 40q251 0 251 -326v-407q1 -40 2 -62.5t6.5 -43.5t12 -31t22 -19t33 -13t47.5 -9v-31h-434v31q61 5 88 19.5t38 48.5t13 110v405 q0 217 -153 217q-60 0 -111 -29t-116 -100v-493q3 -109 26.5 -140t112.5 -38v-31h-443z" />
<glyph unicode="i" horiz-adv-x="569" d="M47 0v31q56 2 84 8t47 26.5t24 51.5t7 92v475q0 67 -15.5 95t-52.5 28q-31 0 -69 -6l-17 -2v30l318 113l8 -6v-727q1 -49 4 -76t10.5 -48t26 -30.5t42.5 -15t68 -8.5v-31h-485zM174 1294q0 43 30.5 74t71.5 31q44 0 75.5 -30.5t31.5 -74.5t-30.5 -74t-76.5 -30 q-43 0 -72.5 30t-29.5 74z" />
<glyph unicode="j" horiz-adv-x="569" d="M-143 -334q0 34 24.5 57t59.5 23q47 0 98 -65q27 -33 45 -45.5t41 -12.5q21 0 41 11t29 26q17 30 22.5 80t5.5 168v776q0 66 -15 94.5t-50 28.5q-36 0 -82 -6l-10 -2v32q156 48 319 111l10 -6v-936q0 -122 -32 -220t-87 -147q-85 -79 -227 -79q-85 0 -138.5 31.5 t-53.5 80.5zM188 1294q0 43 31 74t72 31q44 0 75 -30.5t31 -74.5t-30 -74t-76 -30q-43 0 -73 30t-30 74z" />
<glyph unicode="k" d="M14 0v31q109 17 131 36.5t23 100.5v987q0 74 -18 99.5t-70 25.5q-12 0 -66 -4v33l62 16q186 52 256 74l8 -4v-860l281 249q47 44 47 72q0 20 -21.5 27.5t-81.5 9.5v29h418v-31h-13q-61 -1 -107 -17q-51 -18 -119 -69t-203 -172l-60 -55l314 -398q64 -78 117.5 -111 t121.5 -38v-31h-446v31h39q19 0 31 8.5t12 21.5q0 14 -23 43q-3 3 -10 13t-10 14l-287 383v-377q1 -57 24.5 -78t88.5 -26l41 -2v-31h-480z" />
<glyph unicode="l" horiz-adv-x="569" d="M39 1276v33q215 53 326 90l8 -4v-1223q1 -86 28.5 -111t124.5 -30v-31h-483v31q95 6 125.5 35t32.5 112v977q0 72 -18 98.5t-68 26.5q-18 0 -64 -4h-12z" />
<glyph unicode="m" horiz-adv-x="1593" d="M33 0v31q84 0 112 28t31 115v518q0 73 -16 102t-56 29q-29 0 -65 -8v35q155 43 287 92l14 -4v-154q129 99 188.5 128.5t128.5 29.5q163 0 217 -172q83 89 163 130.5t171 41.5q238 0 238 -364v-422q0 -60 19.5 -87t68.5 -34l53 -4v-31h-448v31q89 9 110.5 32.5t24.5 114.5 v432q0 128 -33 177t-121 49q-72 0 -124.5 -29.5t-98.5 -95.5v-516q3 -99 32 -131.5t115 -32.5v-31h-458v31q86 4 111 30.5t28 114.5v445q0 215 -135 215q-54 0 -113 -23.5t-98 -58.5q-31 -31 -31 -39v-578q1 -61 30.5 -82.5t108.5 -23.5v-31h-454z" />
<glyph unicode="n" d="M33 815v35q158 46 282 92l15 -4v-162q104 98 165 132t132 34q114 0 177.5 -81t63.5 -226v-469q2 -75 26 -101.5t99 -33.5v-31h-426v31q75 5 100.5 38.5t28.5 133.5v428q0 198 -149 198q-52 0 -96 -24t-115 -92v-576q0 -56 29.5 -79t105.5 -27v-31h-434v31q77 5 101.5 34 t25.5 119v508q0 75 -16.5 103t-59.5 28q-39 0 -55 -8z" />
<glyph unicode="o" d="M59 463q0 212 126 345.5t327 133.5q197 0 324 -130.5t127 -332.5q0 -213 -130.5 -356t-324.5 -143t-321.5 137t-127.5 346zM244 563q0 -228 90 -395q32 -61 85 -96t113 -35q116 0 181 98t65 273q0 211 -82 344t-211 133q-110 0 -175.5 -87.5t-65.5 -234.5z" />
<glyph unicode="p" d="M10 -410q91 9 117.5 35t26.5 107v958q0 72 -16 94.5t-68 22.5q-34 0 -52 -2v33q132 41 295 104l13 -4v-158q67 85 138 123.5t157 38.5q149 0 245.5 -123t96.5 -313q0 -146 -56.5 -267t-155.5 -190t-219 -69q-64 0 -107 18.5t-99 69.5v-322q1 -69 14.5 -99t49 -42 t116.5 -13v-36h-496v34zM326 180q0 -46 70.5 -90.5t142.5 -44.5q110 0 178.5 105t68.5 274q0 180 -68.5 287.5t-182.5 107.5q-71 0 -140 -44.5t-69 -90.5v-504z" />
<glyph unicode="q" d="M49 418q0 223 130 373.5t323 150.5q61 0 113.5 -16t121.5 -56l111 66l22 -2v-1223q3 -66 24.5 -87t104.5 -40v-28h-483v34q107 6 143.5 37.5t38.5 118.5v385q-139 -151 -321 -151q-145 0 -236.5 123t-91.5 315zM225 494q0 -103 30 -193.5t79 -136.5q63 -60 160 -60 q47 0 94.5 17t81.5 45q28 25 28 94v422q0 203 -190 203q-131 0 -207 -105t-76 -286z" />
<glyph unicode="r" horiz-adv-x="681" d="M10 0v31q97 17 120 39.5t26 101.5v512q0 67 -16 95t-54 28q-33 0 -72 -8v32q156 50 303 111l11 -4v-188q75 110 127.5 151t117.5 41q53 0 83 -28.5t30 -79.5q0 -43 -21.5 -68t-58.5 -25q-38 0 -82 41q-36 31 -53 31q-43 0 -93 -59t-50 -109v-461q3 -91 37 -120.5 t137 -32.5v-31h-492z" />
<glyph unicode="s" horiz-adv-x="796" d="M104 688q0 110 79 182t200 72q64 0 143 -27q32 -14 56 -14q15 0 32 23h23l8 -281h-31q-35 138 -86 195t-139 57q-71 0 -114.5 -38t-43.5 -101q0 -89 88 -140l222 -131q94 -55 133 -110.5t39 -132.5q0 -108 -84.5 -185t-204.5 -77q-58 0 -150 20q-63 16 -94 16 q-19 0 -28 -4.5t-19 -19.5h-27v319h33q35 -156 94.5 -221t165.5 -65q78 0 124 40t46 107q0 94 -106 154l-119 67q-130 73 -185 141t-55 154z" />
<glyph unicode="t" horiz-adv-x="569" d="M35 870q0 18 35 39q44 26 97 87.5t142 189.5q15 0 15 -27v-237h206v-66h-206v-586q0 -97 24.5 -140.5t81.5 -43.5q34 0 61.5 16t61.5 56l27 -23q-99 -155 -246 -155q-182 0 -182 260v616h-109q-8 5 -8 14z" />
<glyph unicode="u" d="M37 893v29h299v-668q0 -65 42.5 -110.5t102.5 -45.5q95 0 181 70q22 17 30 41t8 67v482q0 77 -28 101t-123 28v35h323v-703q2 -72 22 -93t95 -24h10v-28q-167 -47 -280 -92l-8 4v170l-88 -88q-41 -41 -97.5 -64.5t-113.5 -23.5q-113 0 -180.5 72.5t-67.5 193.5v516 q-1 73 -28 100.5t-99 30.5z" />
<glyph unicode="v" d="M39 891v31h401v-31q-54 -4 -74 -16.5t-20 -40.5q0 -30 19 -76l208 -525l203 531q12 30 12 61q0 57 -96 66v31h285v-31q-46 -5 -67.5 -30.5t-65.5 -129.5l-262 -657q-42 -103 -58 -103q-12 0 -18 13q-10 16 -19 41q-15 40 -16 43l-246 587q-39 88 -58 127t-41 67.5 t-38.5 34t-48.5 7.5z" />
<glyph unicode="w" horiz-adv-x="1478" d="M43 891v31h369v-31q-54 -6 -74.5 -21t-20.5 -47q0 -29 13 -61l202 -535l187 408q-3 8 -41 115q-31 83 -57.5 109t-83.5 32v31h415v-31q-71 -10 -94.5 -25t-23.5 -49q0 -21 4.5 -37t29.5 -84l172 -458l185 454q35 81 35 135q0 26 -19.5 40t-71.5 24v31h252v-31 q-30 -10 -43 -27.5t-41 -83.5l-282 -708q-25 -61 -36 -81t-22 -20q-10 0 -17.5 13.5t-31.5 74.5l-186 484l-230 -492q-36 -80 -51 -80q-17 0 -53 90l-276 701q-34 78 -54 102t-55 27z" />
<glyph unicode="x" d="M35 0v31q51 4 77 22.5t72 81.5l234 338l-193 295q-48 72 -80 97.5t-77 25.5h-19v31h424v-31q-46 -2 -67 -12t-21 -33q0 -31 53 -117q0 -1 54 -82l16 -24q53 80 61 90q76 94 76 133q0 22 -18 32t-64 13v31h324v-31q-104 -3 -166 -90l-170 -246l262 -401q48 -68 84.5 -95.5 t83.5 -27.5v-31h-412v31q51 3 66.5 12t15.5 37q0 19 -12 37l-186 286l-162 -251q-41 -61 -41 -84q0 -20 19 -28.5t63 -8.5v-31h-297z" />
<glyph unicode="y" d="M29 893v29h422v-31q-66 -3 -92.5 -15t-26.5 -40q0 -30 20 -78l236 -518l198 565q9 21 9 35q0 51 -99 51v31h277v-31q-37 -5 -58 -24t-41 -68l-315 -836q-85 -223 -163.5 -316t-182.5 -93q-66 0 -109 33.5t-43 84.5q0 38 26 64t63 26q48 0 106 -22q32 -14 53 -14t50 25.5 t53 64.5q27 48 54.5 122.5t27.5 98.5q0 46 -91 209q-6 12 -36 78l-234 503q-25 54 -104 66z" />
<glyph unicode="z" horiz-adv-x="909" d="M55 0v31l545 829h-283q-95 -3 -127.5 -37t-44.5 -143h-36l6 242h710v-31l-551 -830h283q53 2 85.5 5t61.5 13t44.5 23.5t29.5 40.5t22.5 58.5t18.5 83.5l37 -9l-29 -276h-772z" />
<glyph unicode="{" horiz-adv-x="983" d="M205 512q101 28 136.5 75.5t37.5 155.5v365q3 163 75.5 224t262.5 61v-23q-104 -25 -144.5 -80t-42.5 -172v-344q-2 -129 -40 -182t-152 -82q114 -28 152 -80.5t40 -181.5v-344q2 -117 42.5 -172t144.5 -80v-23q-191 0 -262.5 60.5t-75.5 226.5v363q-2 108 -37.5 156 t-136.5 77z" />
<glyph unicode="|" horiz-adv-x="409" d="M137 -317v1701h135v-1701h-135z" />
<glyph unicode="}" horiz-adv-x="983" d="M266 -348q103 25 144.5 80t42.5 172v344q2 129 40 182t152 82q-114 28 -152.5 80t-39.5 182v344q-1 117 -42.5 172t-144.5 80v23q191 0 262.5 -60.5t75.5 -226.5v-363q2 -108 37.5 -155.5t136.5 -75.5q-101 -29 -136.5 -77t-37.5 -156v-365q-3 -163 -75.5 -224 t-262.5 -61v23z" />
<glyph unicode="~" horiz-adv-x="1107" d="M82 481q70 98 125.5 136t126.5 38q68 0 120.5 -18.5t190.5 -91.5q56 -29 121 -29q47 0 79.5 22.5t72.5 82.5l110 -66q-70 -98 -125.5 -136t-126.5 -38q-68 0 -120 19t-191 92q-54 28 -121 28q-47 0 -79 -22t-72 -82z" />
<glyph unicode="&#xa1;" horiz-adv-x="681" d="M225 -283q0 26 4 76l93 785h26l19 -222q11 -129 34 -282q41 -238 41 -361q0 -75 -28.5 -117t-79.5 -42q-53 0 -81 42t-28 121zM225 854q0 44 32 73t79 29q46 0 78 -30t32 -74q0 -46 -32.5 -78.5t-79.5 -32.5q-46 0 -77.5 33t-31.5 80z" />
<glyph unicode="&#xa2;" d="M109 449q0 207 130 350t320 143q44 0 105 -10l90 254h71l-96 -277q74 -29 114 -73.5t40 -98.5q0 -41 -24.5 -66.5t-63.5 -25.5q-38 0 -64.5 23.5t-54.5 83.5l-207 -596q65 -25 121 -25q91 0 156 44.5t145 160.5l27 -17q-52 -107 -89.5 -160.5t-91.5 -99.5 q-90 -77 -211 -77q-51 0 -114 18l-101 -283h-69l104 308q-56 32 -85.5 56.5t-57.5 63.5q-94 127 -94 304zM266 532q0 -110 32.5 -186t107.5 -145l235 661q-50 19 -96 19q-126 0 -202.5 -96t-76.5 -253z" />
<glyph unicode="&#xa3;" d="M25 111q0 71 50.5 113t135.5 42q45 0 94 -10q6 24 6 43q0 68 -35 305l-4 33l-4 35h-221v92h219q-14 74 -14 141q0 221 107.5 350t291.5 129q115 0 191 -54t76 -136q0 -47 -29.5 -78t-73.5 -31q-46 0 -62.5 28t-17.5 110q0 106 -114 106q-92 0 -143.5 -75t-51.5 -210 q0 -83 23 -280h256v-92h-250l2 -56l2 -57q0 -51 -9 -108.5t-42 -223.5q99 -41 164 -56t141 -15q141 0 231 100q29 33 47 33q13 0 13 -8q0 -28 -28.5 -84t-60.5 -93q-102 -118 -256 -118q-66 0 -127.5 26.5t-166.5 98.5q-61 -73 -104 -100t-97 -27q-64 0 -101.5 34t-37.5 93z M78 117q0 -34 23.5 -55t60.5 -21q58 0 94 47q35 38 35 68q0 12 -35.5 24.5t-73.5 12.5q-104 0 -104 -76z" />
<glyph unicode="&#xa4;" d="M-45 221l201 197q-84 122 -84 258q0 141 84 258l-201 201l102 98l197 -197q68 43 127.5 61.5t132.5 18.5q140 0 256 -80l201 197l98 -98l-197 -201q44 -66 62 -123.5t18 -132.5q0 -74 -18 -132.5t-62 -127.5l197 -197l-98 -102l-201 200q-119 -83 -256 -83 q-139 0 -260 83l-197 -200zM211 676q0 -128 88.5 -218.5t214.5 -90.5q125 0 212 90.5t87 220.5q0 126 -87 216.5t-208 90.5q-129 0 -218 -89.5t-89 -219.5z" />
<glyph unicode="&#xa5;" d="M-84 1317v39h498v-39q-73 -2 -103 -15t-30 -45q0 -42 26 -92l242 -452l229 450q29 56 29 92q0 28 -29.5 45t-75.5 17h-28v39h399v-39q-78 -17 -131.5 -65.5t-110.5 -153.5l-188 -377h299v-82h-340l-14 -29v-155h354v-82h-354v-150q1 -109 34 -145.5t130 -38.5v-39h-500 v39q72 3 104 19.5t44.5 57t13.5 130.5v127h-357v82h357v155l-15 29h-342v82h295l-194 354q-59 105 -94 153t-67 67t-81 22z" />
<glyph unicode="&#xa6;" horiz-adv-x="409" d="M137 -313v675h135v-675h-135zM137 645v674h135v-674h-135z" />
<glyph unicode="&#xa7;" d="M143 586q0 104 67.5 173.5t168.5 69.5q31 0 51 -2q-123 101 -164 163t-41 145q0 112 78.5 180.5t206.5 68.5q113 0 187.5 -57t74.5 -143q0 -51 -27.5 -80t-76.5 -29q-43 0 -70 25t-27 63q0 52 54 90q16 13 16 23q0 28 -36.5 46.5t-90.5 18.5q-78 0 -126 -40t-48 -105 q0 -39 19.5 -78.5t50.5 -66.5l280 -232q182 -150 182 -317q0 -107 -66.5 -176.5t-170.5 -69.5h-37q116 -100 154.5 -160t38.5 -139q0 -117 -81 -188.5t-214 -71.5q-120 0 -201.5 59.5t-81.5 145.5q0 47 32 78.5t79 31.5q41 0 69.5 -24.5t28.5 -61.5q0 -43 -47 -84 q-23 -20 -23 -30q0 -28 44.5 -50t101.5 -22q82 0 130 43t48 115q0 60 -41.5 114t-140.5 121q-188 129 -269.5 234t-81.5 219zM252 647q0 -46 21 -86t73 -92q94 -93 157.5 -131.5t121.5 -38.5q57 0 99 40.5t42 94.5q0 82 -109 191q-72 71 -145.5 115t-120.5 44 q-61 0 -100 -38.5t-39 -98.5z" />
<glyph unicode="&#xa8;" horiz-adv-x="681" d="M37 1176q0 40 29 70t69 30q41 0 72 -30.5t31 -71.5q0 -42 -30.5 -72.5t-72.5 -30.5q-41 0 -69.5 30.5t-28.5 74.5zM444 1176q0 40 29.5 70t69.5 30q41 0 71.5 -30.5t30.5 -71.5q0 -42 -30.5 -72.5t-71.5 -30.5t-70 30.5t-29 74.5z" />
<glyph unicode="&#xa9;" horiz-adv-x="1556" d="M78 676q0 147 55.5 278.5t150.5 225.5t227 149t280 55q140 0 267 -56t219.5 -151t147 -226t54.5 -275q0 -146 -54.5 -276.5t-148 -224.5t-223 -149t-273.5 -55q-145 0 -275 55.5t-223.5 149.5t-148.5 224.5t-55 275.5zM190 676q0 -124 47.5 -238.5t126.5 -198t188 -133 t228 -49.5q157 0 292 84t214.5 227.5t79.5 309.5q0 124 -47 238.5t-125 198t-185 133.5t-221 50q-122 0 -232.5 -49t-190.5 -132.5t-127.5 -198.5t-47.5 -242zM319 643q0 186 137 310t343 124q81 0 186 -37q12 -6 31 -6q29 0 45 43h39l20 -262h-39q-71 219 -293 219 q-143 0 -226 -99.5t-83 -270.5q0 -183 83.5 -282t236.5 -99q96 0 167 36t134 117l37 -18q-77 -101 -164.5 -146t-208.5 -45q-189 0 -317 119.5t-128 296.5z" />
<glyph unicode="&#xaa;" horiz-adv-x="565" d="M8 946q0 69 45 105q40 35 83 55t186 74v61q0 41 -19.5 63.5t-54.5 22.5q-36 0 -64 -14t-28 -33q0 -9 4 -29q2 -6 2 -16q0 -20 -19 -35.5t-45 -15.5q-28 0 -46.5 17.5t-18.5 45.5q0 60 62 98.5t159 38.5q215 0 215 -196v-236q0 -45 5 -58t22 -13q30 0 57 24v-37 q-37 -36 -61.5 -48.5t-59.5 -12.5q-41 0 -62 20.5t-30 69.5q-97 -90 -186 -90q-63 0 -104.5 39t-41.5 100zM137 993q0 -37 23 -63.5t55 -26.5q36 0 86 23q23 23 23 45v157q-108 -38 -147.5 -66.5t-39.5 -68.5z" />
<glyph unicode="&#xab;" d="M86 455l133 120q12 8 33 29l6 4q18 15 49 43q27 25 57 53t48 46.5t20 21.5q26 32 52.5 56t35.5 24q8 0 14.5 -7t6.5 -14q0 -20 -32.5 -72t-78.5 -110q-98 -115 -154 -190q7 -11 13.5 -18.5t7.5 -8.5q242 -308 242 -346q0 -18 -19 -18q-12 0 -22 12q-153 150 -348 319z M479 455l133 120q12 8 33 29l6 4q17 15 49 43q27 25 57 53t48 46.5t20 21.5q26 32 52.5 56t35.5 24q7 0 14 -7t7 -14q0 -20 -32.5 -72t-78.5 -110q-89 -105 -153 -190q2 -3 20 -27q242 -308 242 -346q0 -18 -19 -18q-12 0 -22 12q-153 150 -348 319z" />
<glyph unicode="&#xac;" horiz-adv-x="1155" d="M63 653v131h1033v-553h-135v422h-898z" />
<glyph unicode="&#xad;" horiz-adv-x="681" d="M80 397v129h504v-129h-504z" />
<glyph unicode="&#xae;" horiz-adv-x="1556" d="M78 676q0 194 93.5 357t255 257t353.5 94q146 0 275.5 -55.5t222.5 -151t147 -228.5t54 -283q0 -141 -55 -269.5t-148.5 -222t-223 -148.5t-272.5 -55q-145 0 -275 55.5t-223.5 149.5t-148.5 224.5t-55 275.5zM190 676q0 -124 47.5 -238.5t126.5 -198t188 -133t228 -49.5 q116 0 224 49.5t187.5 132.5t127 195.5t47.5 233.5q0 172 -78 317t-213 229t-295 84q-119 0 -228 -50t-188 -133.5t-126.5 -198.5t-47.5 -240zM449 311v31q67 6 86 16q14 8 14 82v494q0 76 -14 84q-15 8 -86 16v31h362q107 0 171.5 -51t64.5 -137q0 -147 -162 -213l116 -162 q77 -108 156 -174v-17h-131q-22 -4 -59 39t-82 123q-30 54 -107 170h-98v-203q0 -74 14 -82q19 -10 86 -16v-31h-331zM680 682h88q68 0 104.5 47t36.5 135q0 162 -145 162h-84v-344z" />
<glyph unicode="&#xaf;" horiz-adv-x="681" d="M33 1116v101h614v-101h-614z" />
<glyph unicode="&#xb0;" horiz-adv-x="819" d="M117 1092q0 123 85 207.5t208 84.5q124 0 208 -84.5t84 -209.5q0 -123 -85.5 -207t-210.5 -84q-120 0 -204.5 85.5t-84.5 207.5zM197 1092q0 -91 62.5 -157.5t148.5 -66.5q89 0 152 66t63 158q0 91 -62.5 157t-150.5 66t-150.5 -65.5t-62.5 -157.5z" />
<glyph unicode="&#xb1;" horiz-adv-x="1155" d="M76 123v108h1005v-108h-1005zM76 700v109h448v451h109v-451h448v-109h-448v-327h-109v327h-448z" />
<glyph unicode="&#xb2;" horiz-adv-x="614" d="M2 1141q25 72 44.5 107.5t51.5 64.5q71 71 201 71q120 0 194 -60t74 -157q0 -75 -39 -144t-133 -163l-176 -174h248q43 2 63 12t41 43l35 -14l-76 -174h-518v47l201 219q77 85 121.5 160t44.5 121q0 64 -44 109.5t-106 45.5q-57 0 -99.5 -34.5t-76.5 -108.5z" />
<glyph unicode="&#xb3;" horiz-adv-x="614" d="M31 639q0 32 20 54t51 22q32 0 84 -39q33 -24 55 -32.5t50 -8.5q63 0 101 38t38 101q0 99 -84 146q-24 14 -56 22.5t-50 5.5l-47 -6l-3 59q108 35 152.5 73t44.5 95q0 46 -30.5 73.5t-84.5 27.5q-55 0 -93 -24.5t-85 -92.5l-51 37q54 104 119 149t160 45q94 0 157.5 -49 t63.5 -121q0 -43 -28.5 -81.5t-94.5 -85.5q176 -71 176 -232q0 -120 -112.5 -199t-282.5 -79q-82 0 -126 26.5t-44 75.5z" />
<glyph unicode="&#xb4;" horiz-adv-x="681" d="M156 1038l301 303q28 28 45.5 38t40.5 10q34 0 52.5 -17.5t18.5 -48.5q0 -48 -61 -86l-315 -199h-82z" />
<glyph unicode="&#xb5;" d="M72 -303q0 74 24 215q25 149 25 199v811h180v-627q0 -88 46 -138.5t126 -50.5q149 0 225 130v686h181v-734q0 -71 15 -102t50 -31q23 0 44.5 12t58.5 46v-17q-51 -66 -92.5 -91t-100.5 -25q-74 0 -110 44t-39 140q-61 -96 -128.5 -140t-152.5 -44q-78 0 -135.5 36.5 t-104.5 114.5q9 -86 39 -199q37 -143 37 -221q0 -157 -94 -157q-44 0 -69 38t-25 105z" />
<glyph unicode="&#xb6;" horiz-adv-x="927" d="M-18 977q0 200 101 289.5t327 89.5h538v-39q-64 -6 -95.5 -13t-52.5 -28.5t-26 -52t-6 -90.5v-1502h-135v1680h-119v-1680h-135v928q-95 3 -148.5 17.5t-105.5 50.5q-143 101 -143 350zM137 983q0 -193 55 -279t187 -100v707q-60 -4 -92.5 -14t-61.5 -31 q-88 -64 -88 -283z" />
<glyph unicode="&#xb7;" horiz-adv-x="512" d="M143 518q0 49 33.5 83t79.5 34t80.5 -35t34.5 -82q0 -45 -34.5 -77.5t-82.5 -32.5q-44 0 -77.5 33t-33.5 77z" />
<glyph unicode="&#xb8;" horiz-adv-x="681" d="M106 -408l29 64q76 -25 133 -25q52 0 82.5 24.5t30.5 65.5q0 40 -25 57t-84 17q-36 0 -57 -8l-14 10l84 203h71l-51 -133q30 6 53 6q84 0 130.5 -37t46.5 -104q0 -80 -69 -126t-187 -46q-91 0 -173 32z" />
<glyph unicode="&#xb9;" horiz-adv-x="614" d="M117 553v49q64 3 85 16.5t23 49.5v526q0 33 -3.5 45t-12.5 12q-17 0 -88 -26v47l241 112l29 -6v-702q2 -40 26 -55.5t91 -18.5v-49h-391z" />
<glyph unicode="&#xba;" horiz-adv-x="634" d="M12 1092q0 132 86.5 212t227.5 80q131 0 214 -76.5t83 -197.5q0 -129 -89.5 -216t-224.5 -87q-129 0 -213 80.5t-84 204.5zM162 1165q0 -133 51 -221q39 -70 115 -70q70 0 107.5 46.5t37.5 132.5q0 117 -46 190.5t-120 73.5q-66 0 -105.5 -41.5t-39.5 -110.5z" />
<glyph unicode="&#xbb;" d="M90 831q0 7 7 14t14 7q9 0 35.5 -24t52.5 -56q2 -3 20 -21.5t48 -46.5t57 -53q28 -22 49 -43q2 -1 6.5 -5l13.5 -12t19 -16l133 -120l-64 -56q-191 -165 -348 -319q-10 -12 -22 -12q-19 0 -19 18q0 38 242 346l12 14l8 13q-64 85 -153 190q-46 58 -78.5 110t-32.5 72z M483 831q0 7 6.5 14t14.5 7q9 0 35.5 -24t52.5 -56q2 -3 20 -21.5t48 -46.5t57 -53q28 -22 49 -43q2 -1 6.5 -5l13.5 -12t19 -16l133 -120l-64 -56q-191 -165 -348 -319q-10 -12 -22 -12q-19 0 -19 18q0 38 242 346l12 14l9 13q-56 75 -154 190q-46 58 -78.5 110t-32.5 72z " />
<glyph unicode="&#xbc;" horiz-adv-x="1536" d="M78 567v23q59 3 82.5 20.5t25.5 57.5v526q0 42 -6 57t-24 15q-10 0 -74 -21v19l229 106l15 -2v-692q2 -44 27 -63t89 -23v-23h-364zM270 -29l928 1413h94l-921 -1413h-101zM868 195v94l398 528h88v-520h104v-102h-104v-195h-135v195h-351zM956 297h258v348z" />
<glyph unicode="&#xbd;" horiz-adv-x="1536" d="M78 567v23q59 3 82.5 20.5t25.5 57.5v526q0 42 -6 57t-24 15q-10 0 -74 -21v19l229 106l15 -2v-692q2 -44 27 -63t89 -23v-23h-364zM207 -29l928 1413h94l-922 -1413h-100zM934 594q37 108 88 156q70 67 180 67q106 0 178 -62t72 -153q0 -135 -152 -287l-198 -196h280 q45 2 67 12t42 39l12 -4l-67 -154h-496v29l199 215q170 187 170 307q0 68 -45 110t-117 42q-120 0 -184 -137z" />
<glyph unicode="&#xbe;" horiz-adv-x="1536" d="M41 649q0 28 17.5 47t43.5 19q27 0 78 -37q34 -25 57 -34t52 -9q66 0 106.5 40.5t40.5 106.5q0 74 -55.5 129.5t-128.5 55.5q-8 0 -14 -2l-37 -4l-2 40q109 38 152.5 77t43.5 98q0 50 -33.5 79t-91.5 29q-57 0 -94.5 -24t-83.5 -89l-37 27q31 53 35 59q38 58 98 89.5 t131 31.5q89 0 150 -45.5t61 -111.5q0 -44 -27 -78t-106 -92q69 -28 101 -54q84 -68 84 -172q0 -116 -108.5 -192t-274.5 -76q-75 0 -116.5 24t-41.5 68zM299 -29l928 1413h94l-922 -1413h-100zM868 195v94l398 528h88v-520h104v-102h-104v-195h-135v195h-351zM956 297h258 v348z" />
<glyph unicode="&#xbf;" horiz-adv-x="909" d="M80 -129q0 119 92 258q29 43 123 158q56 71 86 141.5t47 173.5h35q-3 -143 -62 -291l-57 -131q-76 -175 -76 -319q0 -103 65 -174.5t159 -71.5q74 0 133 39t59 88q0 22 -35 63q-43 49 -43 89q0 38 23 60.5t61 22.5q98 0 98 -127t-95 -211.5t-236 -84.5q-85 0 -168 32 t-135 86q-74 74 -74 199zM334 852q0 45 30.5 73.5t79.5 28.5q47 0 79 -30t32 -74q0 -46 -33 -78.5t-80 -32.5q-46 0 -77 32t-31 81z" />
<glyph unicode="&#xc0;" horiz-adv-x="1478" d="M31 0v39q27 1 44 5t36.5 18t34 33.5t37 61t45 89.5t57.5 129l426 1005h41l510 -1163q54 -114 84.5 -144t99.5 -34v-39h-522v39q82 1 112.5 16.5t30.5 53.5q0 51 -39 137l-84 196h-536l-95 -239q-16 -43 -16 -80q0 -44 33 -64t106 -20v-39h-405zM438 1759q0 29 19 46.5 t51 17.5q23 0 40.5 -9.5t45.5 -37.5l301 -303h-82l-315 198q-60 38 -60 88zM442 526h473l-237 564z" />
<glyph unicode="&#xc1;" horiz-adv-x="1478" d="M31 0v39q27 1 44 5t36.5 18t34 33.5t37 61t45 89.5t57.5 129l426 1005h41l510 -1163q54 -114 84.5 -144t99.5 -34v-39h-522v39q82 1 112.5 16.5t30.5 53.5q0 51 -39 137l-84 196h-536l-95 -239q-16 -43 -16 -80q0 -44 33 -64t106 -20v-39h-405zM442 526h473l-237 564z M580 1473l301 303q28 28 45.5 37.5t40.5 9.5q34 0 52.5 -17.5t18.5 -48.5q0 -48 -61 -86l-315 -198h-82z" />
<glyph unicode="&#xc2;" horiz-adv-x="1478" d="M31 0v39q27 1 44 5t36.5 18t34 33.5t37 61t45 89.5t57.5 129l426 1005h41l510 -1163q54 -114 84.5 -144t99.5 -34v-39h-522v39q82 1 112.5 16.5t30.5 53.5q0 51 -39 137l-84 196h-536l-95 -239q-16 -43 -16 -80q0 -44 33 -64t106 -20v-39h-405zM412 1473l254 342h127 l256 -342h-70l-250 210l-248 -210h-69zM442 526h473l-237 564z" />
<glyph unicode="&#xc3;" horiz-adv-x="1478" d="M31 0v39q27 1 44 5t36.5 18t34 33.5t37 61t45 89.5t57.5 129l426 1005h41l510 -1163q54 -114 84.5 -144t99.5 -34v-39h-522v39q82 1 112.5 16.5t30.5 53.5q0 51 -39 137l-84 196h-536l-95 -239q-16 -43 -16 -80q0 -44 33 -64t106 -20v-39h-405zM401 1524q23 100 77 153.5 t130 53.5q74 0 144 -37l49 -25q67 -31 108 -31q35 0 59 22.5t50 80.5h59q-32 -117 -81.5 -167t-133.5 -50q-39 0 -71.5 9.5t-94.5 39.5l-47 22q-51 23 -84 23q-70 0 -104 -94h-60zM442 526h473l-237 564z" />
<glyph unicode="&#xc4;" horiz-adv-x="1478" d="M31 0v39q27 1 44 5t36.5 18t34 33.5t37 61t45 89.5t57.5 129l426 1005h41l510 -1163q54 -114 84.5 -144t99.5 -34v-39h-522v39q82 1 112.5 16.5t30.5 53.5q0 51 -39 137l-84 196h-536l-95 -239q-16 -43 -16 -80q0 -44 33 -64t106 -20v-39h-405zM422 1610q0 40 29 70 t69 30q41 0 72 -30.5t31 -71.5q0 -42 -30.5 -72.5t-72.5 -30.5q-41 0 -69.5 30.5t-28.5 74.5zM442 526h473l-237 564zM829 1610q0 40 29.5 70t69.5 30q41 0 71.5 -30.5t30.5 -71.5q0 -42 -30 -72.5t-72 -30.5q-41 0 -70 30.5t-29 74.5z" />
<glyph unicode="&#xc5;" horiz-adv-x="1478" d="M31 0v39q27 1 44 5t36.5 18t34 33.5t37 61t45 89.5t57.5 129l426 1005h41l510 -1163q54 -114 84.5 -144t99.5 -34v-39h-522v39q82 1 112.5 16.5t30.5 53.5q0 51 -39 137l-84 196h-536l-95 -239q-16 -43 -16 -80q0 -44 33 -64t106 -20v-39h-405zM442 526h473l-237 564z M516 1671q0 83 60 143t143 60q85 0 145 -60t60 -145t-60 -144t-145 -59q-86 0 -144.5 59.5t-58.5 145.5zM586 1671q0 -57 38.5 -96t92.5 -39q58 0 97.5 38.5t39.5 94.5q0 55 -39.5 95t-93.5 40q-56 0 -95.5 -39t-39.5 -94z" />
<glyph unicode="&#xc6;" horiz-adv-x="1820" d="M0 0v39q66 9 97.5 37.5t82.5 122.5l502 991q18 34 18 57q0 34 -42 49.5t-142 18.5v41h1155v-289h-47q-7 49 -15.5 80.5t-27 57.5t-42 39.5t-66 23t-93 12t-129.5 2.5h-178q-31 0 -42 -13t-13 -48v-471h227q161 3 211 39t60 159h43v-479h-43q-11 119 -51.5 160.5 t-149.5 44.5h-297v-488q0 -80 16 -90q14 -18 125 -18h156q73 1 119.5 8t86 22t71 47t60 74.5t66.5 114.5h49l-90 -344h-1044v39l35 4q96 13 120 42.5t27 135.5v311h-360l-58 -108q-131 -250 -131 -324q0 -48 140 -61h2v-39h-408zM489 612h326v654z" />
<glyph unicode="&#xc7;" horiz-adv-x="1366" d="M57 666q0 169 57 307.5t165 234.5q97 85 217.5 130.5t246.5 45.5q153 0 299 -51q50 -16 80 -16q31 0 54 17.5t32 49.5h43l19 -460h-47q-29 99 -57.5 152.5t-78.5 103.5q-126 123 -305 123q-223 0 -355 -165.5t-132 -445.5q0 -171 45.5 -304t130.5 -208q134 -119 332 -119 q127 0 235 49t222 158l36 -37q-92 -123 -239 -191.5t-320 -68.5q-31 0 -49 2l-41 -106q30 6 53 6q84 0 130.5 -37t46.5 -104q0 -80 -69 -126t-187 -46q-90 0 -172 32l28 64q76 -25 133 -25q52 0 82.5 24.5t30.5 65.5q0 40 -25 57t-84 17q-36 0 -57 -8l-14 10l75 183 q-257 37 -409 222.5t-152 463.5z" />
<glyph unicode="&#xc8;" horiz-adv-x="1251" d="M25 0v39q110 6 142.5 40t35.5 144v910q-3 111 -34.5 144t-143.5 40v39h1087l6 -293h-51q-13 73 -28 110.5t-51 63t-87 32.5t-145 9h-277q-43 0 -54 -12t-13 -58v-454h315q69 2 105 8t62 28.5t37 57t21 100.5h47v-475h-47q-20 127 -58.5 160.5t-166.5 36.5h-315v-506 q0 -60 28 -72t187 -16h55q151 1 236 24t141 78.5t106 167.5h58l-93 -346h-1105zM326 1759q0 29 18.5 46.5t50.5 17.5q23 0 39.5 -9.5t46.5 -37.5l301 -303h-82l-315 198q-59 35 -59 88z" />
<glyph unicode="&#xc9;" horiz-adv-x="1251" d="M25 0v39q110 6 142.5 40t35.5 144v910q-3 111 -34.5 144t-143.5 40v39h1087l6 -293h-51q-13 73 -28 110.5t-51 63t-87 32.5t-145 9h-277q-43 0 -54 -12t-13 -58v-454h315q69 2 105 8t62 28.5t37 57t21 100.5h47v-475h-47q-20 127 -58.5 160.5t-166.5 36.5h-315v-506 q0 -60 28 -72t187 -16h55q151 1 236 24t141 78.5t106 167.5h58l-93 -346h-1105zM477 1473l301 303q28 28 45.5 37.5t40.5 9.5q34 0 53 -17.5t19 -48.5q0 -47 -62 -86l-315 -198h-82z" />
<glyph unicode="&#xca;" horiz-adv-x="1251" d="M25 0v39q110 6 142.5 40t35.5 144v910q-3 111 -34.5 144t-143.5 40v39h1087l6 -293h-51q-13 73 -28 110.5t-51 63t-87 32.5t-145 9h-277q-43 0 -54 -12t-13 -58v-454h315q69 2 105 8t62 28.5t37 57t21 100.5h47v-475h-47q-20 127 -58.5 160.5t-166.5 36.5h-315v-506 q0 -60 28 -72t187 -16h55q151 1 236 24t141 78.5t106 167.5h58l-93 -346h-1105zM309 1473l254 342h127l256 -342h-69l-250 210l-248 -210h-70z" />
<glyph unicode="&#xcb;" horiz-adv-x="1251" d="M25 0v39q110 6 142.5 40t35.5 144v910q-3 111 -34.5 144t-143.5 40v39h1087l6 -293h-51q-13 73 -28 110.5t-51 63t-87 32.5t-145 9h-277q-43 0 -54 -12t-13 -58v-454h315q69 2 105 8t62 28.5t37 57t21 100.5h47v-475h-47q-20 127 -58.5 160.5t-166.5 36.5h-315v-506 q0 -60 28 -72t187 -16h55q151 1 236 24t141 78.5t106 167.5h58l-93 -346h-1105zM324 1610q0 40 29 70t69 30q41 0 71.5 -30.5t30.5 -71.5q0 -42 -30 -72.5t-72 -30.5q-41 0 -69.5 30.5t-28.5 74.5zM731 1610q0 40 29 70t69 30q41 0 72 -30.5t31 -71.5q0 -42 -30.5 -72.5 t-72.5 -30.5q-41 0 -69.5 30.5t-28.5 74.5z" />
<glyph unicode="&#xcc;" horiz-adv-x="681" d="M37 0v39q46 2 74.5 5t52.5 11t36.5 19.5t21 33t11 47.5t3.5 68v910q-1 41 -3.5 66.5t-11 47t-20.5 32.5t-36 19.5t-52.5 12t-75.5 6.5v39h608v-39q-68 -2 -103.5 -9t-59 -28t-30 -53.5t-8.5 -93.5v-910q3 -114 39 -147.5t162 -36.5v-39h-608zM41 1759q0 29 19 46.5 t51 17.5q23 0 39.5 -9.5t46.5 -37.5l301 -303h-82l-316 198q-59 35 -59 88z" />
<glyph unicode="&#xcd;" horiz-adv-x="681" d="M37 0v39q46 2 74.5 5t52.5 11t36.5 19.5t21 33t11 47.5t3.5 68v910q-1 41 -3.5 66.5t-11 47t-20.5 32.5t-36 19.5t-52.5 12t-75.5 6.5v39h608v-39q-68 -2 -103.5 -9t-59 -28t-30 -53.5t-8.5 -93.5v-910q3 -114 39 -147.5t162 -36.5v-39h-608zM190 1473l302 303 q28 28 45.5 37.5t40.5 9.5q34 0 52.5 -17.5t18.5 -48.5q0 -48 -61 -86l-316 -198h-82z" />
<glyph unicode="&#xce;" horiz-adv-x="681" d="M23 1473l253 342h127l256 -342h-69l-250 210l-248 -210h-69zM37 0v39q46 2 74.5 5t52.5 11t36.5 19.5t21 33t11 47.5t3.5 68v910q-1 41 -3.5 66.5t-11 47t-20.5 32.5t-36 19.5t-52.5 12t-75.5 6.5v39h608v-39q-68 -2 -103.5 -9t-59 -28t-30 -53.5t-8.5 -93.5v-910 q3 -114 39 -147.5t162 -36.5v-39h-608z" />
<glyph unicode="&#xcf;" horiz-adv-x="681" d="M37 0v39q46 2 74.5 5t52.5 11t36.5 19.5t21 33t11 47.5t3.5 68v910q-1 41 -3.5 66.5t-11 47t-20.5 32.5t-36 19.5t-52.5 12t-75.5 6.5v39h608v-39q-68 -2 -103.5 -9t-59 -28t-30 -53.5t-8.5 -93.5v-910q3 -114 39 -147.5t162 -36.5v-39h-608zM37 1610q0 40 29 70t69 30 q41 0 72 -30.5t31 -71.5q0 -42 -30.5 -72.5t-72.5 -30.5q-41 0 -69.5 30.5t-28.5 74.5zM444 1610q0 40 29.5 70t69.5 30q41 0 71.5 -30.5t30.5 -71.5q0 -42 -30.5 -72.5t-71.5 -30.5t-70 30.5t-29 74.5z" />
<glyph unicode="&#xd0;" horiz-adv-x="1478" d="M33 0v39q41 3 67 6.5t47.5 12.5t33 20.5t19 32.5t10 46.5t3.5 65.5v422h-170v90h170v398q-1 42 -2.5 66.5t-9.5 46.5t-18 32t-32.5 19t-48 12.5t-69.5 7.5v39h553q431 0 643 -215q174 -171 174 -457q0 -149 -54.5 -280t-154.5 -222q-95 -86 -248 -134t-332 -48h-581z M422 160q0 -49 22 -66.5t84 -17.5q254 0 402 84q250 145 250 510q0 166 -62 295.5t-182 212.5q-143 102 -412 102q-61 0 -81.5 -16t-20.5 -64v-465h299v-90h-299v-485z" />
<glyph unicode="&#xd1;" horiz-adv-x="1478" d="M25 0v39q54 3 85.5 11t55 22.5t34.5 46t16.5 72.5t6.5 110v903q-62 72 -97 92.5t-101 20.5v39h350l788 -991v690q-2 58 -5 94.5t-12 67t-21.5 47t-35.5 29t-51 17t-71 7.5v39h481v-39q-85 -7 -123 -28.5t-53.5 -72t-18.5 -161.5v-1078h-34l-906 1127v-803q2 -110 18 -162 t54.5 -74t120.5 -26v-39h-481zM401 1524q23 100 77 153.5t130 53.5q74 0 144 -37l49 -25q67 -31 108 -31q35 0 59 22.5t50 80.5h59q-32 -117 -81.5 -167t-133.5 -50q-39 0 -71.5 9.5t-94.5 39.5l-47 22q-51 23 -84 23q-70 0 -104 -94h-60z" />
<glyph unicode="&#xd2;" horiz-adv-x="1478" d="M70 678q0 310 188 508t481 198q301 0 498 -215q172 -184 172 -499q0 -310 -190 -504.5t-492 -194.5q-135 0 -263 56t-218 153q-83 87 -129.5 220t-46.5 278zM303 674q0 -170 47 -314t125 -215q117 -100 260 -100q164 0 273 109q73 73 100 149q68 176 68 369 q0 182 -45.5 321.5t-129.5 214.5q-115 103 -262 103q-172 0 -293 -133q-65 -72 -104 -210t-39 -294zM438 1759q0 29 19 46.5t51 17.5q23 0 40.5 -9.5t45.5 -37.5l301 -303h-82l-315 198q-60 38 -60 88z" />
<glyph unicode="&#xd3;" horiz-adv-x="1478" d="M70 678q0 310 188 508t481 198q301 0 498 -215q172 -184 172 -499q0 -310 -190 -504.5t-492 -194.5q-135 0 -263 56t-218 153q-83 87 -129.5 220t-46.5 278zM303 674q0 -170 47 -314t125 -215q117 -100 260 -100q164 0 273 109q73 73 100 149q68 176 68 369 q0 182 -45.5 321.5t-129.5 214.5q-115 103 -262 103q-172 0 -293 -133q-65 -72 -104 -210t-39 -294zM590 1473l301 303q28 28 45.5 37.5t40.5 9.5q34 0 53 -17.5t19 -48.5q0 -47 -62 -86l-315 -198h-82z" />
<glyph unicode="&#xd4;" horiz-adv-x="1478" d="M70 678q0 310 188 508t481 198q301 0 498 -215q172 -184 172 -499q0 -310 -190 -504.5t-492 -194.5q-135 0 -263 56t-218 153q-83 87 -129.5 220t-46.5 278zM303 674q0 -170 47 -314t125 -215q117 -100 260 -100q164 0 273 109q73 73 100 149q68 176 68 369 q0 182 -45.5 321.5t-129.5 214.5q-115 103 -262 103q-172 0 -293 -133q-65 -72 -104 -210t-39 -294zM422 1473l254 342h127l256 -342h-70l-250 210l-247 -210h-70z" />
<glyph unicode="&#xd5;" horiz-adv-x="1478" d="M70 678q0 310 188 508t481 198q301 0 498 -215q172 -184 172 -499q0 -310 -190 -504.5t-492 -194.5q-135 0 -263 56t-218 153q-83 87 -129.5 220t-46.5 278zM303 674q0 -170 47 -314t125 -215q117 -100 260 -100q164 0 273 109q73 73 100 149q68 176 68 369 q0 182 -45.5 321.5t-129.5 214.5q-115 103 -262 103q-172 0 -293 -133q-65 -72 -104 -210t-39 -294zM401 1524q23 100 77 153.5t130 53.5q74 0 144 -37l49 -25q67 -31 108 -31q35 0 59 22.5t50 80.5h59q-32 -117 -81.5 -167t-133.5 -50q-39 0 -71.5 9.5t-94.5 39.5l-47 22 q-51 23 -84 23q-70 0 -104 -94h-60z" />
<glyph unicode="&#xd6;" horiz-adv-x="1478" d="M70 678q0 310 188 508t481 198q301 0 498 -215q172 -184 172 -499q0 -310 -190 -504.5t-492 -194.5q-135 0 -263 56t-218 153q-83 87 -129.5 220t-46.5 278zM303 674q0 -170 47 -314t125 -215q117 -100 260 -100q164 0 273 109q73 73 100 149q68 176 68 369 q0 182 -45.5 321.5t-129.5 214.5q-115 103 -262 103q-172 0 -293 -133q-65 -72 -104 -210t-39 -294zM436 1610q0 40 29.5 70t69.5 30q41 0 71.5 -30.5t30.5 -71.5q0 -42 -30.5 -72.5t-71.5 -30.5t-70 30.5t-29 74.5zM844 1610q0 40 29 70t69 30q41 0 71.5 -30.5t30.5 -71.5 q0 -42 -30 -72.5t-72 -30.5q-41 0 -69.5 30.5t-28.5 74.5z" />
<glyph unicode="&#xd7;" horiz-adv-x="1155" d="M96 223l402 404l-402 401l80 80l402 -403l403 403l78 -80l-404 -401l404 -404l-78 -78l-403 404l-402 -404z" />
<glyph unicode="&#xd8;" horiz-adv-x="1478" d="M70 676q0 206 85 367.5t238 251t348 89.5q101 0 181 -22t178 -78l147 219h101l-181 -266q65 -60 97 -98.5t59 -91.5q86 -159 86 -367q0 -315 -187.5 -512t-486.5 -197q-103 0 -183 23t-175 80l-162 -238h-100l194 285q-64 58 -95.5 97t-59.5 93q-84 162 -84 365zM303 676 q0 -136 21 -231t73 -193l631 926q-68 71 -135.5 102t-153.5 31q-201 0 -318.5 -171t-117.5 -464zM449 180q66 -72 133.5 -103.5t156.5 -31.5q203 0 320 169t117 462q0 136 -22 233t-75 197z" />
<glyph unicode="&#xd9;" horiz-adv-x="1478" d="M29 1317v39h579v-39q-66 -6 -98.5 -13t-54.5 -28.5t-27 -52t-6 -90.5v-656q0 -179 51 -270q84 -146 301 -146q115 0 207 44t133 118q47 87 47 279v553q-2 110 -17.5 161.5t-54 73.5t-120.5 27v39h475v-39q-45 -5 -72 -10.5t-50.5 -18t-35 -28.5t-20 -46t-11.5 -66t-4 -93 v-535q0 -119 -15 -196.5t-52 -141.5q-121 -211 -457 -211q-261 0 -387.5 128.5t-126.5 394.5v639q-1 114 -31.5 144.5t-152.5 39.5zM475 1759q0 29 19 46.5t51 17.5q23 0 39.5 -9.5t46.5 -37.5l301 -303h-82l-315 198q-60 35 -60 88z" />
<glyph unicode="&#xda;" horiz-adv-x="1478" d="M29 1317v39h579v-39q-66 -6 -98.5 -13t-54.5 -28.5t-27 -52t-6 -90.5v-656q0 -179 51 -270q84 -146 301 -146q115 0 207 44t133 118q47 87 47 279v553q-2 110 -17.5 161.5t-54 73.5t-120.5 27v39h475v-39q-45 -5 -72 -10.5t-50.5 -18t-35 -28.5t-20 -46t-11.5 -66t-4 -93 v-535q0 -119 -15 -196.5t-52 -141.5q-121 -211 -457 -211q-261 0 -387.5 128.5t-126.5 394.5v639q-1 114 -31.5 144.5t-152.5 39.5zM641 1473l301 303q28 28 45.5 37.5t40.5 9.5q34 0 53 -17.5t19 -48.5q0 -47 -62 -86l-315 -198h-82z" />
<glyph unicode="&#xdb;" horiz-adv-x="1478" d="M29 1317v39h579v-39q-66 -6 -98.5 -13t-54.5 -28.5t-27 -52t-6 -90.5v-656q0 -179 51 -270q84 -146 301 -146q115 0 207 44t133 118q47 87 47 279v553q-2 110 -17.5 161.5t-54 73.5t-120.5 27v39h475v-39q-45 -5 -72 -10.5t-50.5 -18t-35 -28.5t-20 -46t-11.5 -66t-4 -93 v-535q0 -119 -15 -196.5t-52 -141.5q-121 -211 -457 -211q-261 0 -387.5 128.5t-126.5 394.5v639q-1 114 -31.5 144.5t-152.5 39.5zM461 1473l254 342h127l256 -342h-70l-250 210l-248 -210h-69z" />
<glyph unicode="&#xdc;" horiz-adv-x="1478" d="M29 1317v39h579v-39q-66 -6 -98.5 -13t-54.5 -28.5t-27 -52t-6 -90.5v-656q0 -179 51 -270q84 -146 301 -146q115 0 207 44t133 118q47 87 47 279v553q-2 110 -17.5 161.5t-54 73.5t-120.5 27v39h475v-39q-45 -5 -72 -10.5t-50.5 -18t-35 -28.5t-20 -46t-11.5 -66t-4 -93 v-535q0 -119 -15 -196.5t-52 -141.5q-121 -211 -457 -211q-261 0 -387.5 128.5t-126.5 394.5v639q-1 114 -31.5 144.5t-152.5 39.5zM473 1610q0 40 29 70t69 30q41 0 72 -30.5t31 -71.5q0 -42 -30.5 -72.5t-72.5 -30.5q-41 0 -69.5 30.5t-28.5 74.5zM881 1610q0 40 29 70 t69 30q41 0 71.5 -30.5t30.5 -71.5q0 -42 -30.5 -72.5t-71.5 -30.5t-69.5 30.5t-28.5 74.5z" />
<glyph unicode="&#xdd;" horiz-adv-x="1478" d="M45 1317v39h573v-39q-23 -2 -51 -2q-50 -3 -72 -17t-22 -43q0 -40 35 -90l303 -454l293 463q29 45 29 75q0 37 -31 51.5t-111 16.5v39h449v-39q-78 -6 -133.5 -52t-149.5 -182l-303 -462v-398q1 -63 7.5 -95.5t31 -53.5t62 -27t110.5 -8v-39h-627v39q51 2 80.5 5t55 12.5 t37.5 21t20.5 37t10.5 54t3 77.5v356l-268 393q-84 118 -125.5 173t-80 93t-62.5 46t-64 10zM709 1473l301 303q28 28 45.5 37.5t40.5 9.5q34 0 52.5 -17.5t18.5 -48.5q0 -48 -61 -86l-315 -198h-82z" />
<glyph unicode="&#xde;" horiz-adv-x="1138" d="M33 0v39q42 4 67 8t46 14t31 21.5t17 36t8.5 52t2.5 75.5v887q-1 40 -3 64.5t-9 46t-17 32t-31.5 19.5t-46 13.5t-65.5 8.5v39h567v-39q-67 -6 -101 -14.5t-55 -35t-26 -64.5t-4 -113h164q246 0 389 -100t143 -271q0 -101 -53 -188.5t-144 -137.5q-124 -69 -358 -69 q-61 0 -141 6v-107q1 -60 7.5 -93t29 -54t57 -28t98.5 -9v-39h-573zM414 412q68 -6 116 -6q357 0 357 301q0 158 -98 231.5t-310 73.5q-39 0 -52 -14t-13 -54v-532z" />
<glyph unicode="&#xdf;" d="M25 0v31q76 4 99 30t26 111v758q0 203 61 311q90 158 303 158q160 0 254 -84.5t94 -227.5q0 -110 -58 -175t-222 -140q96 -19 148 -40.5t101 -63.5q127 -108 127 -287q0 -169 -105.5 -284t-260.5 -115q-88 0 -143.5 41.5t-55.5 107.5q0 42 26 70t66 28q34 0 58.5 -23.5 t27.5 -58.5l4 -45q3 -33 17 -47t43 -14q131 0 131 266q0 415 -270 424q-66 3 -66 35q0 26 59 31q100 10 147.5 74.5t47.5 187.5q0 134 -49 209t-137 75q-81 0 -128.5 -59.5t-47.5 -159.5v-1124h-297z" />
<glyph unicode="&#xe0;" horiz-adv-x="909" d="M76 199q0 51 20 99t54 79q65 58 131.5 91t306.5 130v125q0 83 -40.5 126.5t-115.5 43.5q-61 0 -104 -29.5t-43 -70.5q0 -23 6 -50q4 -28 4 -32q0 -34 -27.5 -60t-64.5 -26q-36 0 -62 26t-26 62q0 97 99.5 163t244.5 66q185 0 254 -113q41 -65 41 -215v-399 q0 -68 13 -93.5t48 -25.5q43 0 90 39v-53q-54 -59 -93 -80.5t-91 -21.5q-63 0 -93.5 34t-37.5 115q-94 -80 -163 -114.5t-136 -34.5q-94 0 -154.5 61.5t-60.5 157.5zM217 1325q0 29 19 46.5t51 17.5q23 0 40.5 -10t45.5 -38l301 -303h-82l-316 199q-59 38 -59 88zM256 256 q0 -66 37.5 -112t91.5 -46q71 0 150 45q32 19 42.5 41t10.5 68v297q-180 -63 -255 -128t-77 -157v-8z" />
<glyph unicode="&#xe1;" horiz-adv-x="909" d="M76 199q0 51 20 99t54 79q65 58 131.5 91t306.5 130v125q0 83 -40.5 126.5t-115.5 43.5q-61 0 -104 -29.5t-43 -70.5q0 -23 6 -50q4 -28 4 -32q0 -34 -27.5 -60t-64.5 -26q-36 0 -62 26t-26 62q0 97 99.5 163t244.5 66q185 0 254 -113q41 -65 41 -215v-399 q0 -68 13 -93.5t48 -25.5q43 0 90 39v-53q-54 -59 -93 -80.5t-91 -21.5q-63 0 -93.5 34t-37.5 115q-94 -80 -163 -114.5t-136 -34.5q-94 0 -154.5 61.5t-60.5 157.5zM252 1038l301 303q28 28 45.5 38t40.5 10q34 0 53 -17.5t19 -48.5q0 -47 -62 -86l-315 -199h-82zM256 256 q0 -66 37.5 -112t91.5 -46q71 0 150 45q32 19 42.5 41t10.5 68v297q-180 -63 -255 -128t-77 -157v-8z" />
<glyph unicode="&#xe2;" horiz-adv-x="909" d="M76 199q0 51 20 99t54 79q65 58 131.5 91t306.5 130v125q0 83 -40.5 126.5t-115.5 43.5q-61 0 -104 -29.5t-43 -70.5q0 -23 6 -50q4 -28 4 -32q0 -34 -27.5 -60t-64.5 -26q-36 0 -62 26t-26 62q0 97 99.5 163t244.5 66q185 0 254 -113q41 -65 41 -215v-399 q0 -68 13 -93.5t48 -25.5q43 0 90 39v-53q-54 -59 -93 -80.5t-91 -21.5q-63 0 -93.5 34t-37.5 115q-94 -80 -163 -114.5t-136 -34.5q-94 0 -154.5 61.5t-60.5 157.5zM137 1038l254 342h127l256 -342h-69l-250 211l-248 -211h-70zM256 256q0 -66 37.5 -112t91.5 -46 q71 0 150 45q32 19 42.5 41t10.5 68v297q-180 -63 -255 -128t-77 -157v-8z" />
<glyph unicode="&#xe3;" horiz-adv-x="909" d="M76 199q0 51 20 99t54 79q65 58 131.5 91t306.5 130v125q0 83 -40.5 126.5t-115.5 43.5q-61 0 -104 -29.5t-43 -70.5q0 -23 6 -50q4 -28 4 -32q0 -34 -27.5 -60t-64.5 -26q-36 0 -62 26t-26 62q0 97 99.5 163t244.5 66q185 0 254 -113q41 -65 41 -215v-399 q0 -68 13 -93.5t48 -25.5q43 0 90 39v-53q-54 -59 -93 -80.5t-91 -21.5q-63 0 -93.5 34t-37.5 115q-94 -80 -163 -114.5t-136 -34.5q-94 0 -154.5 61.5t-60.5 157.5zM117 1090q23 100 76.5 153t130.5 53q72 0 143 -36l49 -25q64 -31 107 -31q35 0 58.5 22t51.5 81h60 q-32 -117 -82 -167t-136 -50q-39 0 -69.5 9t-93.5 40l-47 22q-51 23 -84 23q-71 0 -105 -94h-59zM256 256q0 -66 37.5 -112t91.5 -46q71 0 150 45q32 19 42.5 41t10.5 68v297q-180 -63 -255 -128t-77 -157v-8z" />
<glyph unicode="&#xe4;" horiz-adv-x="909" d="M76 199q0 51 20 99t54 79q65 58 131.5 91t306.5 130v125q0 83 -40.5 126.5t-115.5 43.5q-61 0 -104 -29.5t-43 -70.5q0 -23 6 -50q4 -28 4 -32q0 -34 -27.5 -60t-64.5 -26q-36 0 -62 26t-26 62q0 97 99.5 163t244.5 66q185 0 254 -113q41 -65 41 -215v-399 q0 -68 13 -93.5t48 -25.5q43 0 90 39v-53q-54 -59 -93 -80.5t-91 -21.5q-63 0 -93.5 34t-37.5 115q-94 -80 -163 -114.5t-136 -34.5q-94 0 -154.5 61.5t-60.5 157.5zM152 1176q0 40 29 70t69 30q41 0 71.5 -30.5t30.5 -71.5q0 -42 -30 -72.5t-72 -30.5q-41 0 -69.5 30.5 t-28.5 74.5zM256 256q0 -66 37.5 -112t91.5 -46q71 0 150 45q32 19 42.5 41t10.5 68v297q-180 -63 -255 -128t-77 -157v-8zM559 1176q0 40 29 70t69 30q41 0 72 -30.5t31 -71.5q0 -42 -30.5 -72.5t-72.5 -30.5q-41 0 -69.5 30.5t-28.5 74.5z" />
<glyph unicode="&#xe5;" horiz-adv-x="909" d="M76 199q0 51 20 99t54 79q65 58 131.5 91t306.5 130v125q0 83 -40.5 126.5t-115.5 43.5q-61 0 -104 -29.5t-43 -70.5q0 -23 6 -50q4 -28 4 -32q0 -34 -27.5 -60t-64.5 -26q-36 0 -62 26t-26 62q0 97 99.5 163t244.5 66q185 0 254 -113q41 -65 41 -215v-399 q0 -68 13 -93.5t48 -25.5q43 0 90 39v-53q-54 -59 -93 -80.5t-91 -21.5q-63 0 -93.5 34t-37.5 115q-94 -80 -163 -114.5t-136 -34.5q-94 0 -154.5 61.5t-60.5 157.5zM252 1276q0 83 60 143t143 60q85 0 144.5 -60t59.5 -145t-59.5 -144t-144.5 -59q-86 0 -144.5 59.5 t-58.5 145.5zM256 256q0 -66 37.5 -112t91.5 -46q71 0 150 45q32 19 42.5 41t10.5 68v297q-180 -63 -255 -128t-77 -157v-8zM322 1276q0 -57 38.5 -96t92.5 -39q58 0 97.5 38.5t39.5 94.5q0 55 -39.5 95t-93.5 40q-56 0 -95.5 -39t-39.5 -94z" />
<glyph unicode="&#xe6;" horiz-adv-x="1366" d="M78 205q0 92 70.5 161t234.5 136l176 73l4 130q0 86 -24 143q-22 45 -103 45q-133 0 -139 -102v-13l2 -22q2 -12 2 -35q0 -47 -22.5 -72.5t-65.5 -25.5q-41 0 -65.5 26t-24.5 72q0 94 94 157.5t232 63.5q77 0 129 -20t112 -72q68 54 119.5 73t124.5 19q155 0 232 -88.5 t96 -286.5h-537q0 -154 10.5 -221t44.5 -127q25 -46 78.5 -74t116.5 -28q88 0 155 44.5t140 153.5l24 -10q-43 -92 -76 -141.5t-75 -85.5q-107 -98 -252 -98q-89 0 -150 34.5t-114 114.5q-103 -87 -169 -118t-143 -31q-104 0 -170.5 62.5t-66.5 162.5zM256 256 q0 -74 40 -126t97 -52q56 0 131.5 37t75.5 65q0 4 -2 6q-34 109 -37 226l-2 106q-185 -67 -244 -118t-59 -144zM727 629h340q-3 135 -41 194.5t-121 59.5q-88 0 -129 -59.5t-49 -194.5z" />
<glyph unicode="&#xe7;" horiz-adv-x="909" d="M51 434q0 122 41.5 223.5t118.5 169.5q131 115 289 115q129 0 222 -62.5t93 -148.5q0 -35 -28 -60.5t-68 -25.5q-34 0 -60 25t-38 69l-13 45q-15 57 -40.5 78t-80.5 21q-124 0 -201 -98.5t-77 -258.5q0 -177 88 -288t229 -111q88 0 152 42.5t137 149.5l29 -18 q-77 -158 -170 -236.5t-211 -82.5l-43 -95q40 4 55 4q82 0 128 -30.5t46 -85.5q0 -66 -69 -105t-187 -39q-86 0 -172 29l29 51q79 -20 133 -20q52 0 82.5 20.5t30.5 55.5q0 33 -25 47t-84 14q-36 0 -57 -8l-15 10l78 154q-155 20 -248.5 143.5t-93.5 306.5z" />
<glyph unicode="&#xe8;" horiz-adv-x="909" d="M66 438q0 126 39.5 230.5t111.5 167.5q118 106 277 106q79 0 147.5 -30.5t114.5 -86.5q39 -50 57.5 -104.5t30.5 -153.5h-631q3 -94 15 -152.5t40 -117.5q89 -176 264 -176q99 0 172 49t146 166l33 -14q-65 -166 -176 -254t-258 -88q-177 0 -280 123t-103 335zM217 633 h418q-20 133 -63.5 184t-137.5 51t-147 -57t-70 -178zM254 1325q0 29 19 46.5t51 17.5q23 0 40.5 -10t45.5 -38l301 -303h-82l-316 199q-59 38 -59 88z" />
<glyph unicode="&#xe9;" horiz-adv-x="909" d="M63 438q0 126 40 230.5t112 167.5q118 106 277 106q79 0 147.5 -30.5t114.5 -86.5q39 -50 57.5 -104.5t30.5 -153.5h-631q3 -94 15 -152.5t40 -117.5q89 -176 264 -176q99 0 172 49t146 166l33 -14q-65 -166 -176.5 -254t-258.5 -88q-177 0 -280 123t-103 335zM215 633 h418q-20 133 -63.5 184t-137.5 51t-147 -57t-70 -178zM301 1038l301 303q28 28 45.5 38t40.5 10q34 0 53 -17.5t19 -48.5q0 -47 -62 -86l-315 -199h-82z" />
<glyph unicode="&#xea;" horiz-adv-x="909" d="M70 438q0 126 39.5 230.5t111.5 167.5q118 106 277 106q79 0 147.5 -30.5t114.5 -86.5q39 -50 57.5 -104.5t30.5 -153.5h-631q3 -94 15 -152.5t40 -117.5q89 -176 265 -176q98 0 171 49t146 166l33 -14q-65 -166 -176 -254t-258 -88q-177 0 -280 123t-103 335zM170 1038 l254 342h127l256 -342h-70l-250 211l-247 -211h-70zM221 633h418q-20 133 -63.5 184t-137.5 51t-147 -57t-70 -178z" />
<glyph unicode="&#xeb;" horiz-adv-x="909" d="M70 438q0 126 39.5 230.5t111.5 167.5q118 106 277 106q79 0 147.5 -30.5t114.5 -86.5q39 -50 57.5 -104.5t30.5 -153.5h-631q3 -94 15 -152.5t40 -117.5q89 -176 265 -176q98 0 171 49t146 166l33 -14q-65 -166 -176 -254t-258 -88q-177 0 -280 123t-103 335zM193 1176 q0 40 29 70t69 30q41 0 71.5 -30.5t30.5 -71.5q0 -42 -30.5 -72.5t-71.5 -30.5t-69.5 30.5t-28.5 74.5zM221 633h418q-20 133 -63.5 184t-137.5 51t-147 -57t-70 -178zM600 1176q0 40 29 70t69 30q41 0 72 -30.5t31 -71.5q0 -42 -30.5 -72.5t-72.5 -30.5q-41 0 -69.5 30.5 t-28.5 74.5z" />
<glyph unicode="&#xec;" horiz-adv-x="569" d="M-16 1325q0 29 18.5 46.5t50.5 17.5q23 0 40.5 -10t45.5 -38l301 -303h-82l-315 199q-59 38 -59 88zM33 0v31q56 2 84 8t47 26.5t24 51.5t7 92v475q0 67 -15.5 95t-52.5 28q-33 0 -70 -6l-16 -2v30l317 113l9 -6v-727q1 -49 4 -76t10.5 -48t26 -30.5t42.5 -15t68 -8.5 v-31h-485z" />
<glyph unicode="&#xed;" horiz-adv-x="569" d="M33 0v31q56 2 84 8t47 26.5t24 51.5t7 92v475q0 67 -15.5 95t-52.5 28q-33 0 -70 -6l-16 -2v30l317 113l9 -6v-727q1 -49 4 -76t10.5 -48t26 -30.5t42.5 -15t68 -8.5v-31h-485zM94 1038l301 303q28 28 45.5 38t40.5 10q34 0 53 -17.5t19 -48.5q0 -48 -61 -86l-316 -199 h-82z" />
<glyph unicode="&#xee;" horiz-adv-x="569" d="M-57 1038l254 342h127l256 -342h-70l-250 211l-248 -211h-69zM33 0v31q56 2 84 8t47 26.5t24 51.5t7 92v475q0 67 -15.5 95t-52.5 28q-33 0 -70 -6l-16 -2v30l317 113l9 -6v-727q1 -49 4 -76t10.5 -48t26 -30.5t42.5 -15t68 -8.5v-31h-485z" />
<glyph unicode="&#xef;" horiz-adv-x="569" d="M23 1176q0 40 29 70t69 30q41 0 71.5 -30.5t30.5 -71.5q0 -42 -30.5 -72.5t-71.5 -30.5t-69.5 30.5t-28.5 74.5zM33 0v31q56 2 84 8t47 26.5t24 51.5t7 92v475q0 67 -15.5 95t-52.5 28q-33 0 -70 -6l-16 -2v30l317 113l9 -6v-727q1 -49 4 -76t10.5 -48t26 -30.5t42.5 -15 t68 -8.5v-31h-485zM348 1176q0 40 29 70t69 30q41 0 72 -30.5t31 -71.5q0 -42 -30.5 -72.5t-72.5 -30.5q-41 0 -69.5 30.5t-28.5 74.5z" />
<glyph unicode="&#xf0;" d="M59 457q0 206 125.5 345.5t309.5 139.5q73 0 126.5 -25.5t131.5 -97.5q-23 114 -65.5 190.5t-133.5 168.5l-252 -134l-68 62l248 131q-72 51 -132 76t-140 39l86 47q101 -9 166.5 -29.5t144.5 -66.5l195 102l67 -62l-186 -98q77 -74 114.5 -122.5t71.5 -118.5 q97 -199 97 -420q0 -148 -49.5 -282.5t-133.5 -213.5q-111 -108 -276 -108q-192 0 -319.5 136.5t-127.5 340.5zM244 567q0 -230 90 -397q34 -63 87 -98t114 -35q117 0 181 98t64 277q0 209 -82 341t-213 132q-109 0 -175 -87.5t-66 -230.5z" />
<glyph unicode="&#xf1;" d="M33 815v35q158 46 282 92l15 -4v-162q104 98 165 132t132 34q114 0 177.5 -81t63.5 -226v-469q2 -75 26 -101.5t99 -33.5v-31h-426v31q75 5 100.5 38.5t28.5 133.5v428q0 198 -149 198q-52 0 -96 -24t-115 -92v-576q0 -56 29.5 -79t105.5 -27v-31h-434v31q77 5 101.5 34 t25.5 119v508q0 75 -16.5 103t-59.5 28q-39 0 -55 -8zM174 1090q23 100 76.5 153t130.5 53q72 0 143 -36l49 -25q64 -31 107 -31q35 0 59 22.5t52 80.5h59q-32 -118 -81.5 -167.5t-135.5 -49.5q-39 0 -70.5 9.5t-93.5 39.5l-47 22q-51 23 -84 23q-71 0 -105 -94h-59z" />
<glyph unicode="&#xf2;" d="M59 463q0 212 126 345.5t327 133.5q197 0 324 -130.5t127 -332.5q0 -213 -130.5 -356t-324.5 -143t-321.5 137t-127.5 346zM244 563q0 -228 90 -395q32 -61 85 -96t113 -35q116 0 181 98t65 273q0 211 -82 344t-211 133q-110 0 -175.5 -87.5t-65.5 -234.5zM262 1325 q0 29 19 46.5t51 17.5q24 0 40.5 -9.5t45.5 -38.5l301 -303h-82l-315 199q-60 38 -60 88z" />
<glyph unicode="&#xf3;" d="M59 463q0 212 126 345.5t327 133.5q197 0 324 -130.5t127 -332.5q0 -213 -130.5 -356t-324.5 -143t-321.5 137t-127.5 346zM244 563q0 -228 90 -395q32 -61 85 -96t113 -35q116 0 181 98t65 273q0 211 -82 344t-211 133q-110 0 -175.5 -87.5t-65.5 -234.5zM315 1038 l301 303q28 28 46.5 38t42.5 10q32 0 50.5 -17.5t18.5 -48.5q0 -48 -61 -86l-316 -199h-82z" />
<glyph unicode="&#xf4;" d="M59 463q0 212 126 345.5t327 133.5q197 0 324 -130.5t127 -332.5q0 -213 -130.5 -356t-324.5 -143t-321.5 137t-127.5 346zM195 1038l254 342h126l256 -342h-69l-250 211l-248 -211h-69zM244 563q0 -228 90 -395q32 -61 85 -96t113 -35q116 0 181 98t65 273 q0 211 -82 344t-211 133q-110 0 -175.5 -87.5t-65.5 -234.5z" />
<glyph unicode="&#xf5;" d="M59 463q0 212 126 345.5t327 133.5q197 0 324 -130.5t127 -332.5q0 -213 -130.5 -356t-324.5 -143t-321.5 137t-127.5 346zM174 1090q23 100 76.5 153t130.5 53q72 0 143 -36l49 -25q64 -31 107 -31q35 0 59 22.5t52 80.5h59q-32 -118 -81.5 -167.5t-135.5 -49.5 q-39 0 -70.5 9.5t-93.5 39.5l-47 22q-51 23 -84 23q-71 0 -105 -94h-59zM244 563q0 -228 90 -395q32 -61 85 -96t113 -35q116 0 181 98t65 273q0 211 -82 344t-211 133q-110 0 -175.5 -87.5t-65.5 -234.5z" />
<glyph unicode="&#xf6;" d="M59 463q0 212 126 345.5t327 133.5q197 0 324 -130.5t127 -332.5q0 -213 -130.5 -356t-324.5 -143t-321.5 137t-127.5 346zM209 1176q0 40 29 70t69 30q41 0 72 -30.5t31 -71.5q0 -42 -30.5 -72.5t-72.5 -30.5q-41 0 -69.5 30.5t-28.5 74.5zM244 563q0 -228 90 -395 q32 -61 85 -96t113 -35q116 0 181 98t65 273q0 211 -82 344t-211 133q-110 0 -175.5 -87.5t-65.5 -234.5zM616 1176q0 40 29.5 70t69.5 30q41 0 71.5 -30.5t30.5 -71.5q0 -42 -30.5 -72.5t-71.5 -30.5t-70 30.5t-29 74.5z" />
<glyph unicode="&#xf7;" horiz-adv-x="1155" d="M76 573v109h1005v-109h-1005zM479 201q0 41 29.5 71.5t69.5 30.5q41 0 71.5 -30.5t30.5 -73.5q0 -40 -30.5 -68.5t-71.5 -28.5q-40 0 -69.5 29.5t-29.5 69.5zM479 1051q0 41 29.5 71.5t69.5 30.5q41 0 71.5 -30.5t30.5 -73.5q0 -38 -30.5 -67.5t-71.5 -29.5 q-40 0 -69.5 29.5t-29.5 69.5z" />
<glyph unicode="&#xf8;" d="M59 465q0 209 126.5 343t324.5 134q89 0 188 -37l117 223h80l-133 -256q49 -35 74 -58.5t49 -59.5q78 -121 78 -275q0 -214 -131 -356.5t-326 -142.5q-97 0 -191 43l-133 -252h-76l150 286q-50 40 -76.5 69.5t-52.5 72.5q-68 123 -68 266zM244 565q0 -204 80 -377 l325 623q-41 40 -79 57t-85 17q-109 0 -175 -87.5t-66 -232.5zM367 123q39 -46 77.5 -66t90.5 -20q115 0 179 99.5t64 279.5q0 98 -19 174t-63 160z" />
<glyph unicode="&#xf9;" d="M18 893v29h299v-668q0 -64 43 -110t103 -46q94 0 180 70q22 17 30.5 41t8.5 67v482q0 76 -28.5 100t-123.5 29v35h324v-703q2 -72 22 -93t95 -24h10v-28q-170 -47 -281 -92l-8 4v170l-88 -88q-41 -41 -97.5 -64.5t-113.5 -23.5q-113 0 -180.5 72.5t-67.5 193.5v516 q-1 73 -28 100.5t-99 30.5zM213 1325q0 29 19 46.5t51 17.5q23 0 40.5 -10t45.5 -38l301 -303h-82l-316 199q-59 38 -59 88z" />
<glyph unicode="&#xfa;" d="M18 893v29h299v-668q0 -64 43 -110t103 -46q94 0 180 70q22 17 30.5 41t8.5 67v482q0 76 -28.5 100t-123.5 29v35h324v-703q2 -72 22 -93t95 -24h10v-28q-170 -47 -281 -92l-8 4v170l-88 -88q-41 -41 -97.5 -64.5t-113.5 -23.5q-113 0 -180.5 72.5t-67.5 193.5v516 q-1 73 -28 100.5t-99 30.5zM381 1038l301 303q28 28 45.5 38t40.5 10q34 0 53 -17.5t19 -48.5q0 -47 -62 -86l-315 -199h-82z" />
<glyph unicode="&#xfb;" d="M18 893v29h299v-668q0 -64 43 -110t103 -46q94 0 180 70q22 17 30.5 41t8.5 67v482q0 76 -28.5 100t-123.5 29v35h324v-703q2 -72 22 -93t95 -24h10v-28q-170 -47 -281 -92l-8 4v170l-88 -88q-41 -41 -97.5 -64.5t-113.5 -23.5q-113 0 -180.5 72.5t-67.5 193.5v516 q-1 73 -28 100.5t-99 30.5zM150 1038l253 342h127l256 -342h-69l-250 211l-248 -211h-69z" />
<glyph unicode="&#xfc;" d="M18 893v29h299v-668q0 -64 43 -110t103 -46q94 0 180 70q22 17 30.5 41t8.5 67v482q0 76 -28.5 100t-123.5 29v35h324v-703q2 -72 22 -93t95 -24h10v-28q-170 -47 -281 -92l-8 4v170l-88 -88q-41 -41 -97.5 -64.5t-113.5 -23.5q-113 0 -180.5 72.5t-67.5 193.5v516 q-1 73 -28 100.5t-99 30.5zM168 1176q0 40 29 70t69 30q41 0 72 -30.5t31 -71.5q0 -42 -30.5 -72.5t-72.5 -30.5q-41 0 -69.5 30.5t-28.5 74.5zM575 1176q0 40 29.5 70t69.5 30q41 0 71.5 -30.5t30.5 -71.5q0 -42 -30 -72.5t-72 -30.5q-41 0 -70 30.5t-29 74.5z" />
<glyph unicode="&#xfd;" d="M29 893v29h422v-31q-66 -3 -92.5 -15t-26.5 -40q0 -30 20 -78l236 -518l198 565q9 21 9 35q0 51 -99 51v31h277v-31q-37 -5 -58 -24t-41 -68l-315 -836q-85 -223 -163.5 -316t-182.5 -93q-66 0 -109 33.5t-43 84.5q0 38 26 64t63 26q48 0 106 -22q32 -14 53 -14t50 25.5 t53 64.5q27 48 54.5 122.5t27.5 98.5q0 46 -91 209q-6 12 -36 78l-234 503q-25 54 -104 66zM416 1038l301 303q28 28 45.5 38t40.5 10q34 0 52.5 -17.5t18.5 -48.5q0 -48 -61 -86l-315 -199h-82z" />
<glyph unicode="&#xfe;" d="M10 -408q91 8 117.5 33.5t26.5 106.5v1442q0 65 -19 84.5t-82 19.5q-23 0 -35 -2v33q200 55 297 90l11 -6v-611q69 83 139.5 121.5t155.5 38.5q149 0 245.5 -123t96.5 -313q0 -146 -56.5 -267t-155.5 -190t-219 -69q-64 0 -107 18.5t-99 69.5v-322q1 -69 14.5 -99t49 -42 t116.5 -13v-36h-496v36zM326 180q0 -46 70.5 -90.5t142.5 -44.5q110 0 178.5 105t68.5 274q0 180 -68.5 287.5t-182.5 107.5q-71 0 -140 -44.5t-69 -90.5v-504z" />
<glyph unicode="&#xff;" d="M29 893v29h422v-31q-66 -3 -92.5 -15t-26.5 -40q0 -30 20 -78l236 -518l198 565q9 21 9 35q0 51 -99 51v31h277v-31q-37 -5 -58 -24t-41 -68l-315 -836q-85 -223 -163.5 -316t-182.5 -93q-66 0 -109 33.5t-43 84.5q0 38 26 64t63 26q48 0 106 -22q32 -14 53 -14t50 25.5 t53 64.5q27 48 54.5 122.5t27.5 98.5q0 46 -91 209q-6 12 -36 78l-234 503q-25 54 -104 66zM240 1176q0 40 29 70t69 30q41 0 71.5 -30.5t30.5 -71.5q0 -42 -30 -72.5t-72 -30.5q-41 0 -69.5 30.5t-28.5 74.5zM647 1176q0 40 29 70t69 30q41 0 72 -30.5t31 -71.5 q0 -42 -30.5 -72.5t-72.5 -30.5q-41 0 -69.5 30.5t-28.5 74.5z" />
<glyph unicode="&#x152;" horiz-adv-x="1820" d="M39 659q0 177 54 323t151 232q174 154 434 154q35 0 133 -6q141 -6 215 -6h668v-289h-47q-6 48 -14.5 79.5t-26 57t-40 39.5t-61.5 23.5t-85.5 12.5t-116.5 3h-105q-94 -3 -113.5 -10t-19.5 -39v-483l213 2q86 2 132.5 9.5t78 30.5t42.5 58t17 100h43v-479h-43 q-10 118 -51.5 160t-148.5 45l-283 -2v-502q3 -60 23 -76t92 -18l254 4q97 3 163 59.5t144 202.5h49l-90 -344h-717q-100 0 -186 -6l-31 -2h-31q-98 -4 -121 -4q-113 0 -214 40.5t-177 116.5q-184 181 -184 514zM268 668q0 -295 99 -450t288 -155q109 0 157 48t48 157v811 q0 112 -48.5 163.5t-154.5 51.5q-186 0 -287.5 -163.5t-101.5 -462.5z" />
<glyph unicode="&#x153;" horiz-adv-x="1478" d="M61 446q0 117 41.5 224.5t112.5 173.5q104 98 260 98q95 0 165 -35t146 -121q63 86 122.5 121t144.5 35q78 0 146.5 -33.5t111.5 -93.5q35 -47 49.5 -100.5t19.5 -147.5h-520q6 -132 23 -204.5t57 -143.5q28 -46 78 -74t106 -28q74 0 134.5 41t132.5 139l22 -12 q-80 -166 -163 -235.5t-203 -69.5q-95 0 -156 45t-107 149q-58 -105 -127 -149.5t-174 -44.5q-186 0 -304 131t-118 335zM246 555q0 -522 246 -522q210 0 210 375q0 229 -60.5 352t-172.5 123q-86 0 -154 -68q-30 -32 -49.5 -106t-19.5 -154zM858 629h328v55q0 86 -46 142.5 t-116 56.5q-163 0 -166 -254z" />
<glyph unicode="&#x178;" horiz-adv-x="1478" d="M45 1317v39h573v-39q-23 -2 -51 -2q-50 -3 -72 -17t-22 -43q0 -40 35 -90l303 -454l293 463q29 45 29 75q0 37 -31 51.5t-111 16.5v39h449v-39q-78 -6 -133.5 -52t-149.5 -182l-303 -462v-398q1 -63 7.5 -95.5t31 -53.5t62 -27t110.5 -8v-39h-627v39q51 2 80.5 5t55 12.5 t37.5 21t20.5 37t10.5 54t3 77.5v356l-268 393q-84 118 -125.5 173t-80 93t-62.5 46t-64 10zM504 1610q0 40 29 70t69 30q41 0 72 -30.5t31 -71.5q0 -42 -30.5 -72.5t-72.5 -30.5q-41 0 -69.5 30.5t-28.5 74.5zM911 1610q0 40 29.5 70t69.5 30q41 0 71.5 -30.5t30.5 -71.5 q0 -42 -30 -72.5t-72 -30.5q-41 0 -70 30.5t-29 74.5z" />
<glyph unicode="&#x2c6;" horiz-adv-x="681" d="M23 1038l253 342h127l256 -342h-69l-250 211l-248 -211h-69z" />
<glyph unicode="&#x2dc;" horiz-adv-x="681" d="M2 1090q23 100 76.5 153t130.5 53q75 0 143 -36l49 -25q67 -31 109 -31q35 0 58.5 22t49.5 81h60q-32 -117 -81.5 -167t-133.5 -50q-39 0 -71.5 9.5t-94.5 39.5l-47 22q-51 23 -84 23q-71 0 -105 -94h-59z" />
<glyph unicode="&#x2000;" horiz-adv-x="937" />
<glyph unicode="&#x2001;" horiz-adv-x="1874" />
<glyph unicode="&#x2002;" horiz-adv-x="937" />
<glyph unicode="&#x2003;" horiz-adv-x="1874" />
<glyph unicode="&#x2004;" horiz-adv-x="624" />
<glyph unicode="&#x2005;" horiz-adv-x="468" />
<glyph unicode="&#x2006;" horiz-adv-x="312" />
<glyph unicode="&#x2007;" horiz-adv-x="312" />
<glyph unicode="&#x2008;" horiz-adv-x="234" />
<glyph unicode="&#x2009;" horiz-adv-x="374" />
<glyph unicode="&#x200a;" horiz-adv-x="104" />
<glyph unicode="&#x2010;" horiz-adv-x="681" d="M80 397v129h504v-129h-504z" />
<glyph unicode="&#x2011;" horiz-adv-x="681" d="M80 397v129h504v-129h-504z" />
<glyph unicode="&#x2012;" horiz-adv-x="681" d="M80 397v129h504v-129h-504z" />
<glyph unicode="&#x2013;" d="M0 412v100h1024v-100h-1024z" />
<glyph unicode="&#x2014;" horiz-adv-x="2048" d="M0 412v100h2048v-100h-2048z" />
<glyph unicode="&#x2018;" horiz-adv-x="681" d="M236 1069q0 92 63 178t166 137l18 -38q-168 -118 -168 -218q0 -12 8.5 -20t20.5 -8q4 0 14 4q24 4 41 4q57 0 89 -27.5t32 -76.5q0 -52 -33.5 -84.5t-87.5 -32.5q-70 0 -116.5 52t-46.5 130z" />
<glyph unicode="&#x2019;" horiz-adv-x="681" d="M162 1268q0 52 33.5 84t87.5 32q69 0 116 -52.5t47 -129.5q0 -92 -63 -178t-166 -137l-18 39q168 115 168 217q0 12 -8.5 20t-20.5 8q-4 0 -14 -4q-24 -4 -41 -4q-57 0 -89 28t-32 77z" />
<glyph unicode="&#x201a;" horiz-adv-x="681" d="M162 92q0 52 33.5 84.5t87.5 32.5q69 0 116 -52.5t47 -129.5q0 -92 -63 -178.5t-166 -137.5l-18 39q168 115 168 217q0 12 -8.5 20.5t-20.5 8.5q-4 0 -14 -4q-24 -4 -41 -4q-57 0 -89 27.5t-32 76.5z" />
<glyph unicode="&#x201c;" horiz-adv-x="909" d="M88 1069q0 92 62.5 178t166.5 137l19 -38q-168 -118 -168 -218q0 -12 8.5 -20t20.5 -8q4 0 14 4q24 4 41 4q57 0 89 -27.5t32 -76.5q0 -52 -33.5 -84.5t-87.5 -32.5q-69 0 -116.5 52t-47.5 130zM563 1069q0 92 63 178t167 137l18 -38q-168 -118 -168 -218q0 -12 8.5 -20 t20.5 -8q4 0 14 4q24 4 41 4q57 0 89 -27.5t32 -76.5q0 -52 -33.5 -84.5t-87.5 -32.5q-70 0 -117 52t-47 130z" />
<glyph unicode="&#x201d;" horiz-adv-x="909" d="M61 1268q0 52 33.5 84t87.5 32q69 0 116.5 -52.5t47.5 -129.5q0 -92 -63 -178t-166 -137l-19 39q168 115 168 217q0 12 -8 20t-20 8q-5 0 -15 -4q-24 -4 -41 -4q-57 0 -89 28t-32 77zM537 1268q0 52 33 84t87 32q69 0 116.5 -52.5t47.5 -129.5q0 -92 -63 -178t-166 -137 l-19 39q168 115 168 217q0 12 -8 20t-20 8q-5 0 -15 -4q-24 -4 -41 -4q-57 0 -88.5 27.5t-31.5 77.5z" />
<glyph unicode="&#x201e;" horiz-adv-x="909" d="M92 92q0 52 33.5 84.5t87.5 32.5q69 0 116.5 -52.5t47.5 -129.5q0 -92 -63 -178.5t-167 -137.5l-18 39q168 118 168 217q0 12 -8.5 20.5t-20.5 8.5q-4 0 -14 -4q-24 -4 -41 -4q-57 0 -89 27.5t-32 76.5zM567 92q0 52 33.5 84.5t87.5 32.5q69 0 116.5 -52.5t47.5 -129.5 q0 -92 -63 -178.5t-166 -137.5l-19 39q168 115 168 217q0 12 -8.5 20.5t-20.5 8.5q-4 0 -14 -4q-24 -4 -41 -4q-57 0 -89 27.5t-32 76.5z" />
<glyph unicode="&#x2022;" horiz-adv-x="716" d="M82 680q0 116 79 195t195 79q119 0 199 -80t80 -200q0 -111 -81.5 -192t-195.5 -81q-116 0 -196 81t-80 198z" />
<glyph unicode="&#x2026;" horiz-adv-x="2048" d="M227 88q0 49 33.5 83t79.5 34t80.5 -35t34.5 -82q0 -46 -35 -78.5t-82 -32.5q-44 0 -77.5 33.5t-33.5 77.5zM909 88q0 49 33.5 83t79.5 34t80.5 -35t34.5 -82q0 -46 -35 -78.5t-82 -32.5q-44 0 -77.5 33.5t-33.5 77.5zM1591 88q0 49 33.5 83t79.5 34t80.5 -35t34.5 -82 q0 -46 -35 -78.5t-82 -32.5q-44 0 -77.5 33.5t-33.5 77.5z" />
<glyph unicode="&#x202f;" horiz-adv-x="374" />
<glyph unicode="&#x2039;" horiz-adv-x="681" d="M129 455l133 120q12 8 33 29l6 4q17 15 49 43q27 25 57 53t48 46.5t20 21.5q26 32 52.5 56t35.5 24q7 0 14 -7t7 -14q0 -20 -32.5 -72t-78.5 -110q-98 -115 -154 -190q7 -11 13.5 -18.5t7.5 -8.5q242 -308 242 -346q0 -18 -19 -18q-12 0 -22 12q-153 150 -348 319z" />
<glyph unicode="&#x203a;" horiz-adv-x="681" d="M98 831q0 7 7 14t14 7q9 0 35.5 -24t52.5 -56q2 -3 20 -21.5t48 -46.5t57 -53q28 -22 49 -43q2 -1 6.5 -5l13.5 -12t19 -16l133 -120l-64 -56q-191 -165 -348 -319q-10 -12 -22 -12q-19 0 -19 18q0 38 242 346l12 14l8 13q-64 85 -153 190q-46 58 -78.5 110t-32.5 72z " />
<glyph unicode="&#x205f;" horiz-adv-x="468" />
<glyph unicode="&#x20ac;" d="M-41 508l55 84h90q-4 23 -4 76q0 37 2 53h-143l55 84h97q35 258 170 418.5t317 160.5q112 0 215 -71q27 -17 35 -17q19 0 30.5 20.5t20.5 69.5h37l33 -456h-35q-18 134 -60 217q-43 83 -115 133.5t-147 50.5q-88 0 -158 -66t-108 -186q-33 -98 -49 -274h451l-56 -84h-399 q-2 -45 -2 -68q0 -24 2 -61h317l-53 -84h-258q22 -216 117 -341.5t237 -125.5q91 0 178.5 55.5t137.5 143.5v-70q-65 -92 -161 -142.5t-208 -50.5q-184 0 -315.5 143t-171.5 388h-154z" />
<glyph unicode="&#x2122;" horiz-adv-x="2007" d="M377 1212l6 144h471l6 -144h-31l-4 17q-10 52 -32.5 67t-87.5 17h-39v-400q0 -38 13 -50t60 -15v-25h-241v25q47 3 60 15t13 50v400h-39q-69 -2 -90.5 -19.5t-33.5 -81.5h-31zM893 823v25q50 1 65 13.5t15 51.5v353q0 39 -15 51.5t-65 13.5v25h174l186 -391l183 391h170 v-25q-46 -3 -60 -15t-14 -50v-353q0 -38 13.5 -50t60.5 -15v-25h-242v25q47 3 60.5 15t13.5 50v338l-203 -428h-18l-197 410v-320q-2 -38 13.5 -51t66.5 -14v-25h-207z" />
<glyph unicode="&#x25fc;" horiz-adv-x="921" d="M0 0v922h922v-922h-922z" />
<glyph unicode="&#xfb04;" horiz-adv-x="1724" d="M78 0v31h51q74 5 99 38.5t24 125.5v653h-174v70h174q1 131 5.5 170.5t23.5 93.5q35 103 112.5 158t186.5 55q80 0 129 -35.5t49 -93.5q0 -34 -22 -57t-54 -23q-43 0 -64 35q-4 5 -30 67q-20 51 -70 51q-25 0 -46.5 -20t-29.5 -49q-14 -61 -14 -352h371l2 14l4 96 q8 166 105 266.5t251 100.5q54 0 92.5 -13t81.5 -47l13 4l153 52l19 6v-1202q0 -93 24.5 -126.5t97.5 -37.5h13v-31h-449v31h17q72 4 96 37.5t24 126.5v653h-368v-653q0 -92 24.5 -126t96.5 -38h49v-31h-483v31h14q73 4 98 37.5t25 126.5v653h-371v-653q0 -93 25 -126.5 t98 -37.5h47v-31h-520zM975 918h368v315q-22 -39 -71 -39q-26 0 -55 25q-13 13 -50 81q-27 46 -67 46q-32 0 -62.5 -28t-44.5 -69q-18 -49 -18 -211v-120z" />
</font>
</defs>
</svg>
