<?xml version="1.0" standalone="no"?>
<!DOCTYPE svg PUBLIC "-//W3C//DTD SVG 1.1//EN" "http://www.w3.org/Graphics/SVG/1.1/DTD/svg11.dtd" >
<svg>
<metadata>
Created by FontForge 20130207 at Wed Jun 11 17:06:33 2014
 By Jérémy Landes-Nones
Copyright (c) 2013 by Matthieu Cannavo. All rights reserved.
</metadata>
<defs>
<font id="VTF-Mixo" horiz-adv-x="1179" >
  <font-face 
    font-family="VTF-Mixo"
    font-weight="400"
    font-stretch="normal"
    units-per-em="2048"
    panose-1="2 0 5 6 0 0 0 2 0 4"
    ascent="1536"
    descent="-512"
    x-height="1434"
    cap-height="1434"
    bbox="-246 -700 2912 1835"
    underline-thickness="102"
    underline-position="-102"
    unicode-range="U+0020-E117"
  />
<missing-glyph horiz-adv-x="2953" 
d="M2265 1436h647v-691h-76v195q0 188 -117 297q-118 109 -286 109h-168v90zM2488 1040h74v-725h-74v62q0 125 -47 182t-190 64h-174v-297q4 -104 47 -166t97 -78q54 -18 130 -19h35v-63h-668v63q64 -1 102 7q105 20 136 112q18 55 18 144v551h103v-164h174q238 0 237 245
v82zM1473 1186h501v67h-1077v-67h494v-1002h82v1002zM836 1315h1200v-191h-502v-1001h-205v1001h-493v191zM1595 1065h502v309h-1323v-309h494v-1004h327v1004zM2159 1436v-432h-502v-1004h-451v1004h-493v432h1446zM418 942q0 -112 28 -245q28 -134 85 -284
q58 -150 124 -253l27 -41l401 741v-860h-458l-748 1436h686q-19 -19 -48 -65q-28 -46 -47 -96q-18 -49 -34 -135t-16 -198z" />
    <glyph glyph-name=".notdef" horiz-adv-x="2953" 
d="M2265 1436h647v-691h-76v195q0 188 -117 297q-118 109 -286 109h-168v90zM2488 1040h74v-725h-74v62q0 125 -47 182t-190 64h-174v-297q4 -104 47 -166t97 -78q54 -18 130 -19h35v-63h-668v63q64 -1 102 7q105 20 136 112q18 55 18 144v551h103v-164h174q238 0 237 245
v82zM1473 1186h501v67h-1077v-67h494v-1002h82v1002zM836 1315h1200v-191h-502v-1001h-205v1001h-493v191zM1595 1065h502v309h-1323v-309h494v-1004h327v1004zM2159 1436v-432h-502v-1004h-451v1004h-493v432h1446zM418 942q0 -112 28 -245q28 -134 85 -284
q58 -150 124 -253l27 -41l401 741v-860h-458l-748 1436h686q-19 -19 -48 -65q-28 -46 -47 -96q-18 -49 -34 -135t-16 -198z" />
    <glyph glyph-name=".null" unicode="&#xe000;" horiz-adv-x="0" 
 />
    <glyph glyph-name="nonmarkingreturn" horiz-adv-x="681" 
 />
    <glyph glyph-name="space" unicode=" " horiz-adv-x="819" 
 />
    <glyph glyph-name="exclam" unicode="!" horiz-adv-x="749" 
d="M123 218q0 103 72 176t174 77l-213 963h444l-221 -963q104 -4 176 -77t72 -176t-74 -177t-178 -74t-178 74t-74 177z" />
    <glyph glyph-name="ampersand" unicode="&#x26;" horiz-adv-x="1730" 
d="M1180 299q4 -29 7 -63t-11 -99q-47 68 -27 123q11 25 31 39zM1075 252q10 -59 49 -93t85 -30t79 47q-18 80 -66 111t-92 15t-55 -50zM670 1083q0 -39 10 -75q100 68 100 137q0 47 -39 47q-27 0 -49 -35t-22 -74zM1001 940q-61 -96 -172 -180q127 -145 308 -223
q51 63 62 157t-39 170t-159 76zM430 428q0 -82 79 -130t201 -48t220 61q-217 113 -363 289q-61 -29 -99 -76t-38 -96zM1087 1180q0 -4 -14 -105q131 4 223 -47t131 -134t38 -184t-44 -200q74 -70 131 -193t45 -204q-8 -33 -10 -39q203 -100 203 -285q-70 144 -170 197
q25 -25 41 -68q33 -94 0 -203q-15 173 -131 293q-29 -16 -125 -20q-205 0 -346 82q-150 -88 -384 -88t-404 120q-169 121 -169 324q0 270 314 426q-35 111 -35 223q0 176 98 296q97 120 267 120t256 -93t85 -218z" />
    <glyph glyph-name="quotesingle" unicode="'" horiz-adv-x="430" 
d="M72 1434h286v-267l-122 -278h-41l-123 278v267z" />
    <glyph glyph-name="parenleft" unicode="(" horiz-adv-x="761" 
d="M362 656q0 230 112 430t314 344q94 70 76 141q-14 53 -76 51q-43 0 -86 -33q-543 -387 -542 -977q0 -287 122 -518t388 -461q-565 403 -568 979q0 320 155 590t425 449q56 37 112 38t91 -29t52 -71t1 -91t-68 -89q-108 -82 -182 -152q-74 -69 -144 -165
q-140 -193 -138 -480q0 -211 96 -402t268 -339q-184 159 -296 357t-112 428z" />
    <glyph glyph-name="parenright" unicode=")" horiz-adv-x="757" 
d="M598 731q0 532 -377 862q246 -178 340 -394t94 -468q-1 -322 -155 -591t-424 -447q-96 -66 -179 -27t-79 123t98 164q213 145 325 333t111 486q0 535 -465 830q219 -96 363 -314t145 -551q-1 -266 -111 -476t-315 -347q-89 -58 -75 -122t64 -68t97 30q543 387 543 977z
" />
    <glyph glyph-name="asterisk" unicode="*" horiz-adv-x="608" 
d="M240 1392q0 18 18 38q18 18 45 18t45 -18t18 -40t-4 -28l-57 -217l211 -66q16 -6 30 -14t20 -34q6 -27 -9 -49q-14 -22 -49 -30t-55 27l-150 162l-147 -162q-6 -10 -23 -20q-17 -11 -43 -5t-39 29q-14 23 -8 49q5 26 19 33q14 8 30 14l209 66l-57 217q-4 12 -4 30z" />
    <glyph glyph-name="comma" unicode="," horiz-adv-x="608" 
d="M123 0v418h418l6 -367q2 -115 -30 -202t-79 -135q-117 -120 -313 -124v160q78 0 131 26q117 58 113 224h-246z" />
    <glyph glyph-name="hyphen" unicode="-" horiz-adv-x="677" 
d="M37 762q0 45 30 76t74 30h381q45 0 76 -30t31 -76q0 -45 -31 -75t-76 -30h-381q-45 0 -75 30t-29 75z" />
    <glyph glyph-name="period" unicode="." horiz-adv-x="776" 
d="M393 190l-141 -274l65 297l-286 -115l245 181l-296 100l307 -14l-168 253l233 -206l41 305l31 -305l233 206l-165 -253l305 14l-291 -100l239 -181l-280 115l67 -297z" />
    <glyph glyph-name="slash" unicode="/" horiz-adv-x="966" 
d="M426 0h-487l600 1470h489z" />
    <glyph glyph-name="zero" unicode="0" 
d="M254 714q0 -140 40 -278t119 -236t177 -98t177 98t119 235q40 139 40 279t-40 275t-119 227t-177 93q-98 0 -177 -92q-79 -91 -119 -227t-40 -276zM123 715q0 307 137 525t330 218t330 -218t137 -525t-137 -525t-330 -217q-193 -1 -330 217t-137 525z" />
    <glyph glyph-name="one" unicode="1" horiz-adv-x="579" 
d="M291 1434h125v-1434h-262v1237q6 2 15 4t33 16q89 52 89 177z" />
    <glyph glyph-name="two" unicode="2" horiz-adv-x="1015" 
d="M684 1020q0 152 -79 235q-79 84 -197 84t-196 -83q-77 -83 -77 -191t48 -179t81 -85q-22 0 -62 34q-40 35 -66 67q-60 76 -60 190q0 160 117 259t291 99t282 -103q109 -103 108 -278q0 -113 -54 -233t-140 -224t-169 -187t-169 -161t-111 -104h453q54 0 123 27
q18 7 38 40q19 33 24 41t23 60t21 59l-41 -387h-892q18 20 157 152t245 246t205 292q97 178 97 330z" />
    <glyph glyph-name="three" unicode="3" horiz-adv-x="1003" 
d="M94 309q0 -16 12 -28q29 -29 58 0q12 12 12 28q0 17 -12 29t-28 12t-30 -12q-12 -13 -12 -29zM166 1217q0 -17 12 -29t28 -12t30 12q12 12 12 28t-12 29q-12 12 -28 12t-30 -12q-12 -12 -12 -28zM760 1119q0 87 -32 147t-72 88q-87 63 -228 63q74 -8 144 -46
q141 -75 141 -257q0 -80 -31 -146q-46 -98 -147 -151q-31 -16 -50 -20q57 11 145 65q54 34 92 102t38 155zM571 61q-39 -20 -63 -26q126 25 220 110q40 37 71 104t30 148q0 164 -147 267q-59 41 -133 59q231 -82 231 -316q0 -233 -209 -346zM123 1214q0 104 104 172t249 68
q144 0 258 -93t114 -228q0 -82 -39 -152q-63 -114 -204 -177q-50 -24 -89 -34q161 -18 289 -120q47 -38 82 -104t35 -147q0 -163 -136 -289t-324 -126q-187 0 -304 94t-117 196q0 54 38 92t91 38t91 -38t38 -92t-38 -91q-38 -38 -91 -38q-20 0 -51 11q97 -102 241 -102
t235 102q91 104 91 254t-107 244q-108 93 -280 94v30q162 0 245 102t83 230q0 127 -78 203q-79 76 -189 76t-163 -76q31 10 63 10t66 -32t34 -84t-34 -85q-34 -32 -84 -32q-49 0 -84 36t-35 88z" />
    <glyph glyph-name="four" unicode="4" horiz-adv-x="1247" 
d="M664 551v141l-111 -141h111zM659 260h-720l1036 1215v-920h252v-295h-252v-260h-316v260z" />
    <glyph glyph-name="five" unicode="5" horiz-adv-x="784" 
d="M340 967q186 0 296 -134q110 -133 110 -353t-108 -358t-298 -138q-88 0 -163 22t-105 43l-31 23l20 290q32 -38 114 -74q83 -36 165 -36q143 0 232 55t90 170q0 221 -322 221q-80 0 -146 -17t-94 -36l-26 -18l41 807h569l-20 -283h-480l-10 -219q45 35 166 35z" />
    <glyph glyph-name="six" unicode="6" horiz-adv-x="1144" 
d="M350 428q0 -94 68 -159t163 -65t163 66t69 158q0 92 -69 158q-70 66 -164 66t-162 -66q-68 -64 -68 -158zM123 408q0 127 65 270l340 756h242l-258 -560q37 10 70 11q190 0 325 -133q135 -134 135 -324t-135 -324t-327 -135t-324 125q-133 126 -133 314z" />
    <glyph glyph-name="seven" unicode="7" horiz-adv-x="845" 
d="M489 1434q271 0 350 5t130 7q-16 -35 -110 -221t-239 -503q-145 -316 -195 -444t-77 -194t-39 -96q-60 12 -132 12t-132 -12q382 616 662 1274q-433 0 -687 -41q13 65 13 95t-6 99l-7 31q198 -12 469 -12z" />
    <glyph glyph-name="eight" unicode="8" horiz-adv-x="968" 
d="M618 1331l-325 -194l227 -299zM719 295l-260 338l-117 -539zM989 223l-784 -284l244 708l-429 559l725 281l-210 -670z" />
    <glyph glyph-name="nine" unicode="9" horiz-adv-x="1339" 
d="M897 993q1 92 -71 165t-185 73t-183 -71t-71 -166q0 -95 60 -167q59 -71 179 -71t196 72t75 165zM635 186q154 0 251 142t97 364v19q-147 -193 -379 -193q-115 0 -246 73t-191 221q-34 85 -34 187q0 152 78 262q144 203 424 203q233 0 398 -165q85 -85 134 -241t49 -358
q0 -200 -56 -346q-97 -250 -339 -348q-100 -41 -200 -41q-266 0 -422 189q-70 86 -97 188l222 111q23 -70 65 -134q92 -133 246 -133z" />
    <glyph glyph-name="colon" unicode=":" horiz-adv-x="636" 
d="M145 219v350h344v-350h-344zM123 1026q0 82 56 139t138 57q81 0 139 -56q58 -58 58 -140t-57 -138t-139 -56t-139 56q-56 56 -56 138z" />
    <glyph glyph-name="semicolon" unicode=";" horiz-adv-x="636" 
d="M145 569h344v-174l-344 -549v723zM123 1026q0 82 56 139t138 57q81 0 139 -56q58 -58 58 -140t-57 -138t-139 -56t-139 56q-56 56 -56 138z" />
    <glyph glyph-name="question" unicode="?" horiz-adv-x="765" 
d="M190 131q0 61 37 105t85 45q48 0 85 -44q37 -43 37 -105t-37 -105t-86 -43t-85 43t-36 104zM313 1473q160 0 270 -119q109 -118 109 -278t-75 -266t-199 -138l-37 -256h-133l-21 440q43 -10 78 -10q80 0 137 62q58 62 58 150t-54 144q-54 55 -133 55q-121 0 -172 -100
v258q84 58 172 58z" />
    <glyph glyph-name="at" unicode="@" horiz-adv-x="1091" 
d="M680 1262v-140l-248 -458h529l-269 598h-12zM1030 455h-678v209l320 598h-207q-166 0 -247 -81t-81 -253v-389q0 -199 84 -265t244 -65h459v-209h-459q-342 0 -342 539v389q0 318 89 434q36 47 100 78t153 30h209l356 -806v-209z" />
    <glyph glyph-name="A" unicode="A" horiz-adv-x="1368" 
d="M684 725l-170 -373h332zM684 1481l705 -1481h-1409z" />
    <glyph glyph-name="B" unicode="B" horiz-adv-x="1239" 
d="M705 1075q0 150 -113 289v-604q113 165 113 315zM729 398q0 169 -137 307v-672q137 196 137 365zM164 0v1434h829q31 -35 72 -103q68 -123 68 -271t-74 -269q-17 -29 -31 -47t-14 -19q143 -143 143 -354q0 -143 -72 -275q-39 -63 -71 -96h-850z" />
    <glyph glyph-name="C" unicode="C" horiz-adv-x="1470" 
d="M973 66q207 0 364 133q61 53 111 131q-59 -104 -135 -178q-195 -182 -459 -183q-311 0 -531 220q-221 219 -221 531t220 532t522 220q301 0 485 -176q80 -78 121 -174q-45 72 -111 127q-160 127 -366 127q-270 0 -430 -184t-160 -471t164 -471t426 -184z" />
    <glyph glyph-name="D" unicode="D" horiz-adv-x="1380" 
d="M164 0v1436h694v-201h217v-197h203v-608h-203v-217h-217v-213h-694z" />
    <glyph glyph-name="E" unicode="E" horiz-adv-x="1695" 
d="M643 1143q-16 -66 -64 -114t-114 -64q66 -19 114 -67t64 -116q37 143 174 183q-66 16 -112 63t-62 115zM643 649q-16 -65 -64 -113t-114 -65q66 -19 114 -67t64 -115q37 143 174 182q-66 16 -112 63t-62 115zM678 1211q0 -87 59 -148t145 -61t146 60q59 62 59 149
t-59 149t-145 61q-86 0 -146 -61q-59 -62 -59 -149zM606 1211q0 87 -59 149t-145 61q-86 1 -146 -61q-59 -62 -59 -149t59 -148t145 -61q85 0 145 60q60 62 60 149zM1364 1421q-86 1 -146 -61t-59 -149q-1 -87 59 -148t146 -61t145 60q59 62 59 149t-58 149q-60 62 -146 61z
M1364 434q-86 0 -146 -62t-59 -148q-1 -87 59 -148q60 -62 146 -62t145 62t59 148t-58 148q-60 62 -146 62zM678 224q0 -87 59 -148q59 -62 145 -62t146 62q59 62 59 148t-59 148t-145 62t-146 -61q-59 -62 -59 -149zM606 224q0 86 -59 148t-145 62t-146 -62
q-59 -62 -59 -148q0 -87 59 -148q59 -62 145 -62q85 0 145 62t60 148zM197 718q0 -86 59 -148t145 -62t146 61q59 61 59 149t-59 148q-59 62 -145 62t-146 -62q-59 -62 -59 -148zM678 718q0 -86 59 -148t145 -62t146 61q59 61 59 149t-59 148q-59 62 -145 62q-85 0 -145 -62
t-60 -148zM154 717q0 89 50 157t132 91q-82 23 -132 89t-50 164t71 174q72 74 169 74t162 -52t87 -138q20 86 85 138t155 52q91 0 155 -52t86 -138q20 86 85 138t162 52t170 -76t73 -180q0 -106 -73 -180t-170 -74t-162 52t-85 135q-16 -66 -64 -114t-114 -64
q82 -23 134 -91t52 -158t-52 -156q-52 -67 -134 -89q66 -19 114 -67t64 -115q20 86 85 138t162 52t170 -76t73 -181t-73 -179t-170 -74q-97 1 -162 53t-85 134q-24 -82 -90 -134t-154 -52t-152 52q-65 52 -85 134q-23 -82 -89 -134t-162 -52q-95 0 -167 73q-71 74 -71 172
t50 166t132 90q-82 23 -132 89t-50 157z" />
    <glyph glyph-name="F" unicode="F" horiz-adv-x="1030" 
d="M983 1180v229h-465q-154 0 -262 -109t-109 -255q0 -146 97 -259q18 20 28 29q-84 90 -84 225q0 134 98 232t232 98h416q10 0 10 -12v-129q0 -10 -10 -10h-416q-74 1 -126 -53t-52 -133t66 -134q4 2 49 14q-78 41 -78 125q0 58 42 100t99 42h465zM895 899h-350
q-57 0 -115 -16q39 -23 88 -23h324q12 0 12 -12v-131q0 -10 -10 -10h-316q-57 0 -88 -31q31 -10 78 -10h377v233zM289 799q-14 -8 -27 -27q16 -14 31 -24l26 26q-22 15 -30 25zM518 1243h400v103h-400q-127 0 -216 -90t-89 -215q0 -124 78 -207q8 8 33 24q-74 78 -74 184
t79 185q79 78 189 78h354q12 -1 12 -13t-12 -12h-354q-100 0 -172 -71t-72 -170t70 -169q23 14 35 19q-63 67 -63 151t58 144q60 60 144 59zM399 827q33 16 52 19q-16 6 -50 26q-27 -8 -41 -20q12 -17 39 -25zM371 700q18 -10 43 -16q29 23 45 27q-20 4 -53 18
q-19 -13 -35 -29zM238 528v-440h104v440q0 72 49 136q-25 8 -39 16q-51 -68 -51 -152v-393q0 -12 -12 -12t-13 12v393q1 92 54 162q-29 16 -33 21q-59 -82 -59 -183zM397 801q-6 -3 -19 -13t-18 -12q12 -10 39 -20q29 16 54 24q-27 7 -56 21zM340 840q-4 -2 -16 -10t-19 -13
q10 -10 35 -26l33 22q-23 13 -33 27zM340 760q-14 -8 -27 -29q18 -14 35 -20q8 12 31 28q-10 5 -39 21zM829 836h-303q-43 0 -98 -23q49 -16 90 -16h264q14 0 15 -13q0 -12 -15 -12h-256q-47 0 -96 -29q37 -12 88 -12h311v105zM401 25v503q0 76 68 119q-33 4 -51 10
q-51 -55 -51 -129v-452q0 -12 -15 -13h-127q-12 0 -12 13v452q0 109 63 199q-10 6 -28 25q-76 -98 -76 -224v-503h229zM993 1434q16 0 17 -17v-250q0 -14 -17 -14h-475q-47 0 -82 -34t-35 -80t35 -80t82 -33h387q12 0 13 -15v-256q0 -14 -13 -14h-360q-49 0 -82 -33t-33 -80
v-514q0 -14 -14 -14h-254q-14 0 -15 14v514q0 129 80 242q-104 110 -104 270t117 277t278 117h475z" />
    <glyph glyph-name="G" unicode="G" horiz-adv-x="1503" 
d="M774 676v47h778q0 -311 -209 -528t-516 -217t-516 216q-209 218 -209 529t209 528t529 217t522 -215l-270 -262q-104 115 -260 115t-257 -113q-100 -113 -100 -271q-1 -158 103 -270t250 -112t240 97q95 97 112 239h-406z" />
    <glyph glyph-name="H" unicode="H" horiz-adv-x="1507" 
d="M293 0v623h-66v-623h-63v1434h63v-623h66v623h63v-623h66v623h63v-623h66v623h63v-623h279v623h63v-623h66v623h63v-623h66v623h63v-623h66v623h63v-1434h-63v623h-66v-623h-63v623h-66v-623h-63v623h-66v-623h-63v623h-279v-623h-63v623h-66v-623h-63v623h-66v-623h-63z
" />
    <glyph glyph-name="I" unicode="I" horiz-adv-x="827" 
d="M827 59v-59h-827v59h385v1321h-385v54h827v-54h-385v-1321h385z" />
    <glyph glyph-name="J" unicode="J" horiz-adv-x="1169" 
d="M1026 1147v-658q0 -292 -230 -436q-122 -73 -251 -73q-254 0 -379 135t-125 334q0 96 62 171q61 74 157 74t154 -60t57 -146q0 -86 -59 -146q-60 -59 -136 -59t-128 38t-72 97q12 -114 91 -220q41 -54 109 -88t156 -34q143 0 228 108t85 275v688q-1 111 -67 181t-240 106
h854q-168 -34 -217 -100t-49 -187z" />
    <glyph glyph-name="K" unicode="K" horiz-adv-x="1130" 
d="M164 1352q0 70 50 100t101 0q51 -29 52 -100v-525l579 592q31 33 66 38q34 5 60 -12t42 -44t12 -61t-30 -60l-529 -526l547 -594q31 -33 36 -70q5 -36 -12 -62t-44 -41t-63 -7t-66 40l-598 662v-594q-1 -70 -51 -98t-101 1q-51 30 -51 99v1262z" />
    <glyph glyph-name="L" unicode="L" horiz-adv-x="1501" 
d="M369 1241v-1046h907v170h-752v876h-155zM164 0v1436h565v-877h752v-559h-1317z" />
    <glyph glyph-name="M" unicode="M" horiz-adv-x="1515" 
d="M61 0l244 1493l225 -1387l228 1387l225 -1387l227 1387l244 -1493h-1393z" />
    <glyph glyph-name="N" unicode="N" horiz-adv-x="1169" 
d="M702 0v987q0 82 -32 124q-33 42 -85 42t-85 -42t-33 -122v-989h-64v989q-1 101 51 163t133 62t130 -61t49 -164v-989h-64zM827 0v987q0 137 -68 213q-69 76 -173 76t-174 -74t-70 -213v-989h-66v989q0 156 88 252t222 96q133 0 220 -95t87 -253v-989h-66zM950 0v987
q0 182 -108 297q-109 115 -256 115t-257 -115t-110 -295v-989h-65v989q0 205 126 338t306 133t305 -133t125 -338v-989h-66z" />
    <glyph glyph-name="O" unicode="O" horiz-adv-x="1505" 
d="M754 1462q-98 -106 -160 -330t-62 -430t62 -422q62 -218 160 -325q98 105 158 323t60 422t-60 430q-62 228 -158 332zM752 -102l-742 802l744 805l741 -805z" />
    <glyph glyph-name="P" unicode="P" horiz-adv-x="991" 
d="M326 1300v-1300h-162v1434h311q240 0 371 -119t131 -303t-129 -298q-129 -112 -279 -112q-51 0 -97 14t-66 27l-23 14l10 9q53 -29 152 -29q135 0 231 102q96 101 96 245t-103 230t-273 86h-170z" />
    <glyph glyph-name="Q" unicode="Q" horiz-adv-x="1687" 
d="M843 1243q-219 1 -365 -155t-146 -378t146 -377t364 -155t366 155t148 377t-148 378t-365 155zM102 711q0 315 214 538t528 223t527 -222q214 -224 214 -539q0 -227 -116 -413t-310 -280l369 -280l-342 -195l-53 465q-135 -59 -289 -59q-313 0 -528 223
q-214 224 -214 539z" />
    <glyph glyph-name="R" unicode="R" horiz-adv-x="755" 
d="M164 0v1434h547v-547h-529l563 -887h-581z" />
    <glyph glyph-name="S" unicode="S" horiz-adv-x="1290" 
d="M123 641v356l983 492v-402l-408 -190l469 -57v-351l-983 -532v401l449 207z" />
    <glyph glyph-name="T" unicode="T" horiz-adv-x="1089" 
d="M768 1323q0 53 38 92t91 39t92 -39t39 -92t-39 -91t-92 -38t-91 38t-38 91zM61 1323q0 53 38 92t91 39q52 0 92 -39t40 -92t-39 -91t-93 -38t-91 38q-38 38 -38 91zM647 0v1434h64v-1434h-64zM514 0v1434h64v-1434h-64zM381 0v1434h63v-1434h-63z" />
    <glyph glyph-name="U" unicode="U" horiz-adv-x="1695" 
d="M1370 713v721h203v-721q0 -334 -206 -540t-519 -206t-519 205t-206 537v725h201v-721q0 -252 147 -404q147 -151 377 -151t377 150q145 151 145 405z" />
    <glyph glyph-name="V" unicode="V" horiz-adv-x="1484" 
d="M743 -66l-532 1231q-51 119 -113 178t-200 91h696l-94 -29q-158 -51 -97 -209l349 -858l346 858q61 158 -97 209l-94 29h680q-141 -31 -201 -88t-112 -181l-531 -1222v-9z" />
    <glyph glyph-name="W" unicode="W" horiz-adv-x="1255" 
d="M328 -59l-308 1495h1215l-313 -1495l-293 1429z" />
    <glyph glyph-name="X" unicode="X" 
d="M388 315q-126 -227 -166 -293t-103 -59q-63 6 -84 56q-20 50 18 110q68 82 231 264t242 283l25 31q-19 25 -63 81t-208 242t-220 254t-29 126q27 56 85 54t103 -61q41 -70 162 -298t211 -343q92 124 210 341q118 218 158 285q40 66 104 64t85 -53q20 -51 -23 -121
q-72 -90 -251 -286t-246 -285q55 -73 238 -267q182 -194 259 -297q46 -59 18 -113t-83 -54t-100 57q-53 82 -176 297q-122 215 -193 321q-78 -109 -204 -336z" />
    <glyph glyph-name="Y" unicode="Y" horiz-adv-x="1175" 
d="M924 1434h319l-794 -1434h-322l365 639l-510 795h469q-26 -53 -47 -150q-21 -98 -22 -183t32 -201t106 -216z" />
    <glyph glyph-name="Z" unicode="Z" horiz-adv-x="1056" 
d="M102 1434h985l-681 -1217h518l51 -63h-682l690 1218h-827zM31 0l688 1219h-461l-53 61h620l-684 -1217h885l51 -63h-1046z" />
    <glyph glyph-name="a" unicode="a" horiz-adv-x="1368" 
d="M684 725l-170 -373h332zM684 1481l705 -1481h-1409z" />
    <glyph glyph-name="b" unicode="b" horiz-adv-x="1239" 
d="M705 1075q0 150 -113 289v-604q113 165 113 315zM729 398q0 169 -137 307v-672q137 196 137 365zM164 0v1434h829q31 -35 72 -103q68 -123 68 -271t-74 -269q-17 -29 -31 -47t-14 -19q143 -143 143 -354q0 -143 -72 -275q-39 -63 -71 -96h-850z" />
    <glyph glyph-name="c" unicode="c" horiz-adv-x="1470" 
d="M973 66q207 0 364 133q61 53 111 131q-59 -104 -135 -178q-195 -182 -459 -183q-311 0 -531 220q-221 219 -221 531t220 532t522 220q301 0 485 -176q80 -78 121 -174q-45 72 -111 127q-160 127 -366 127q-270 0 -430 -184t-160 -471t164 -471t426 -184z" />
    <glyph glyph-name="d" unicode="d" horiz-adv-x="1380" 
d="M164 0v1436h694v-201h217v-197h203v-608h-203v-217h-217v-213h-694z" />
    <glyph glyph-name="e" unicode="e" horiz-adv-x="1695" 
d="M643 1143q-16 -66 -64 -114t-114 -64q66 -19 114 -67t64 -116q37 143 174 183q-66 16 -112 63t-62 115zM643 649q-16 -65 -64 -113t-114 -65q66 -19 114 -67t64 -115q37 143 174 182q-66 16 -112 63t-62 115zM678 1211q0 -87 59 -148t145 -61t146 60q59 62 59 149
t-59 149t-145 61q-86 0 -146 -61q-59 -62 -59 -149zM606 1211q0 87 -59 149t-145 61q-86 1 -146 -61q-59 -62 -59 -149t59 -148t145 -61q85 0 145 60q60 62 60 149zM1364 1421q-86 1 -146 -61t-59 -149q-1 -87 59 -148t146 -61t145 60q59 62 59 149t-58 149q-60 62 -146 61z
M1364 434q-86 0 -146 -62t-59 -148q-1 -87 59 -148q60 -62 146 -62t145 62t59 148t-58 148q-60 62 -146 62zM678 224q0 -87 59 -148q59 -62 145 -62t146 62q59 62 59 148t-59 148t-145 62t-146 -61q-59 -62 -59 -149zM606 224q0 86 -59 148t-145 62t-146 -62
q-59 -62 -59 -148q0 -87 59 -148q59 -62 145 -62q85 0 145 62t60 148zM197 718q0 -86 59 -148t145 -62t146 61q59 61 59 149t-59 148q-59 62 -145 62t-146 -62q-59 -62 -59 -148zM678 718q0 -86 59 -148t145 -62t146 61q59 61 59 149t-59 148q-59 62 -145 62q-85 0 -145 -62
t-60 -148zM154 717q0 89 50 157t132 91q-82 23 -132 89t-50 164t71 174q72 74 169 74t162 -52t87 -138q20 86 85 138t155 52q91 0 155 -52t86 -138q20 86 85 138t162 52t170 -76t73 -180q0 -106 -73 -180t-170 -74t-162 52t-85 135q-16 -66 -64 -114t-114 -64
q82 -23 134 -91t52 -158t-52 -156q-52 -67 -134 -89q66 -19 114 -67t64 -115q20 86 85 138t162 52t170 -76t73 -181t-73 -179t-170 -74q-97 1 -162 53t-85 134q-24 -82 -90 -134t-154 -52t-152 52q-65 52 -85 134q-23 -82 -89 -134t-162 -52q-95 0 -167 73q-71 74 -71 172
t50 166t132 90q-82 23 -132 89t-50 157z" />
    <glyph glyph-name="f" unicode="f" horiz-adv-x="1030" 
d="M983 1180v229h-465q-154 0 -262 -109t-109 -255q0 -146 97 -259q18 20 28 29q-84 90 -84 225q0 134 98 232t232 98h416q10 0 10 -12v-129q0 -10 -10 -10h-416q-74 1 -126 -53t-52 -133t66 -134q4 2 49 14q-78 41 -78 125q0 58 42 100t99 42h465zM895 899h-350
q-57 0 -115 -16q39 -23 88 -23h324q12 0 12 -12v-131q0 -10 -10 -10h-316q-57 0 -88 -31q31 -10 78 -10h377v233zM289 799q-14 -8 -27 -27q16 -14 31 -24l26 26q-22 15 -30 25zM518 1243h400v103h-400q-127 0 -216 -90t-89 -215q0 -124 78 -207q8 8 33 24q-74 78 -74 184
t79 185q79 78 189 78h354q12 -1 12 -13t-12 -12h-354q-100 0 -172 -71t-72 -170t70 -169q23 14 35 19q-63 67 -63 151t58 144q60 60 144 59zM399 827q33 16 52 19q-16 6 -50 26q-27 -8 -41 -20q12 -17 39 -25zM371 700q18 -10 43 -16q29 23 45 27q-20 4 -53 18
q-19 -13 -35 -29zM238 528v-440h104v440q0 72 49 136q-25 8 -39 16q-51 -68 -51 -152v-393q0 -12 -12 -12t-13 12v393q1 92 54 162q-29 16 -33 21q-59 -82 -59 -183zM397 801q-6 -3 -19 -13t-18 -12q12 -10 39 -20q29 16 54 24q-27 7 -56 21zM340 840q-4 -2 -16 -10t-19 -13
q10 -10 35 -26l33 22q-23 13 -33 27zM340 760q-14 -8 -27 -29q18 -14 35 -20q8 12 31 28q-10 5 -39 21zM829 836h-303q-43 0 -98 -23q49 -16 90 -16h264q14 0 15 -13q0 -12 -15 -12h-256q-47 0 -96 -29q37 -12 88 -12h311v105zM401 25v503q0 76 68 119q-33 4 -51 10
q-51 -55 -51 -129v-452q0 -12 -15 -13h-127q-12 0 -12 13v452q0 109 63 199q-10 6 -28 25q-76 -98 -76 -224v-503h229zM993 1434q16 0 17 -17v-250q0 -14 -17 -14h-475q-47 0 -82 -34t-35 -80t35 -80t82 -33h387q12 0 13 -15v-256q0 -14 -13 -14h-360q-49 0 -82 -33t-33 -80
v-514q0 -14 -14 -14h-254q-14 0 -15 14v514q0 129 80 242q-104 110 -104 270t117 277t278 117h475z" />
    <glyph glyph-name="g" unicode="g" horiz-adv-x="1503" 
d="M774 676v47h778q0 -311 -209 -528t-516 -217t-516 216q-209 218 -209 529t209 528t529 217t522 -215l-270 -262q-104 115 -260 115t-257 -113q-100 -113 -100 -271q-1 -158 103 -270t250 -112t240 97q95 97 112 239h-406z" />
    <glyph glyph-name="h" unicode="h" horiz-adv-x="1507" 
d="M293 0v623h-66v-623h-63v1434h63v-623h66v623h63v-623h66v623h63v-623h66v623h63v-623h279v623h63v-623h66v623h63v-623h66v623h63v-623h66v623h63v-1434h-63v623h-66v-623h-63v623h-66v-623h-63v623h-66v-623h-63v623h-279v-623h-63v623h-66v-623h-63v623h-66v-623h-63z
" />
    <glyph glyph-name="i" unicode="i" horiz-adv-x="827" 
d="M827 59v-59h-827v59h385v1321h-385v54h827v-54h-385v-1321h385z" />
    <glyph glyph-name="j" unicode="j" horiz-adv-x="1169" 
d="M1026 1147v-658q0 -292 -230 -436q-122 -73 -251 -73q-254 0 -379 135t-125 334q0 96 62 171q61 74 157 74t154 -60t57 -146q0 -86 -59 -146q-60 -59 -136 -59t-128 38t-72 97q12 -114 91 -220q41 -54 109 -88t156 -34q143 0 228 108t85 275v688q-1 111 -67 181t-240 106
h854q-168 -34 -217 -100t-49 -187z" />
    <glyph glyph-name="k" unicode="k" horiz-adv-x="1130" 
d="M164 1352q0 70 50 100t101 0q51 -29 52 -100v-525l579 592q31 33 66 38q34 5 60 -12t42 -44t12 -61t-30 -60l-529 -526l547 -594q31 -33 36 -70q5 -36 -12 -62t-44 -41t-63 -7t-66 40l-598 662v-594q-1 -70 -51 -98t-101 1q-51 30 -51 99v1262z" />
    <glyph glyph-name="l" unicode="l" horiz-adv-x="1501" 
d="M369 1241v-1046h907v170h-752v876h-155zM164 0v1436h565v-877h752v-559h-1317z" />
    <glyph glyph-name="m" unicode="m" horiz-adv-x="1515" 
d="M61 0l244 1493l225 -1387l228 1387l225 -1387l227 1387l244 -1493h-1393z" />
    <glyph glyph-name="n" unicode="n" horiz-adv-x="1169" 
d="M702 0v987q0 82 -32 124q-33 42 -85 42t-85 -42t-33 -122v-989h-64v989q-1 101 51 163t133 62t130 -61t49 -164v-989h-64zM827 0v987q0 137 -68 213q-69 76 -173 76t-174 -74t-70 -213v-989h-66v989q0 156 88 252t222 96q133 0 220 -95t87 -253v-989h-66zM950 0v987
q0 182 -108 297q-109 115 -256 115t-257 -115t-110 -295v-989h-65v989q0 205 126 338t306 133t305 -133t125 -338v-989h-66z" />
    <glyph glyph-name="o" unicode="o" horiz-adv-x="1505" 
d="M754 1462q-98 -106 -160 -330t-62 -430t62 -422q62 -218 160 -325q98 105 158 323t60 422t-60 430q-62 228 -158 332zM752 -102l-742 802l744 805l741 -805z" />
    <glyph glyph-name="p" unicode="p" horiz-adv-x="991" 
d="M326 1300v-1300h-162v1434h311q240 0 371 -119t131 -303t-129 -298q-129 -112 -279 -112q-51 0 -97 14t-66 27l-23 14l10 9q53 -29 152 -29q135 0 231 102q96 101 96 245t-103 230t-273 86h-170z" />
    <glyph glyph-name="q" unicode="q" horiz-adv-x="1687" 
d="M843 1243q-219 1 -365 -155t-146 -378t146 -377t364 -155t366 155t148 377t-148 378t-365 155zM102 711q0 315 214 538t528 223t527 -222q214 -224 214 -539q0 -227 -116 -413t-310 -280l369 -280l-342 -195l-53 465q-135 -59 -289 -59q-313 0 -528 223
q-214 224 -214 539z" />
    <glyph glyph-name="r" unicode="r" horiz-adv-x="755" 
d="M164 0v1434h547v-547h-529l563 -887h-581z" />
    <glyph glyph-name="s" unicode="s" horiz-adv-x="1290" 
d="M123 641v356l983 492v-402l-408 -190l469 -57v-351l-983 -532v401l449 207z" />
    <glyph glyph-name="t" unicode="t" horiz-adv-x="1089" 
d="M768 1323q0 53 38 92t91 39t92 -39t39 -92t-39 -91t-92 -38t-91 38t-38 91zM61 1323q0 53 38 92t91 39q52 0 92 -39t40 -92t-39 -91t-93 -38t-91 38q-38 38 -38 91zM647 0v1434h64v-1434h-64zM514 0v1434h64v-1434h-64zM381 0v1434h63v-1434h-63z" />
    <glyph glyph-name="u" unicode="u" horiz-adv-x="1695" 
d="M1370 713v721h203v-721q0 -334 -206 -540t-519 -206t-519 205t-206 537v725h201v-721q0 -252 147 -404q147 -151 377 -151t377 150q145 151 145 405z" />
    <glyph glyph-name="v" unicode="v" horiz-adv-x="1484" 
d="M743 -66l-532 1231q-51 119 -113 178t-200 91h696l-94 -29q-158 -51 -97 -209l349 -858l346 858q61 158 -97 209l-94 29h680q-141 -31 -201 -88t-112 -181l-531 -1222v-9z" />
    <glyph glyph-name="w" unicode="w" horiz-adv-x="1255" 
d="M328 -59l-308 1495h1215l-313 -1495l-293 1429z" />
    <glyph glyph-name="x" unicode="x" 
d="M388 315q-126 -227 -166 -293t-103 -59q-63 6 -84 56q-20 50 18 110q68 82 231 264t242 283l25 31q-19 25 -63 81t-208 242t-220 254t-29 126q27 56 85 54t103 -61q41 -70 162 -298t211 -343q92 124 210 341q118 218 158 285q40 66 104 64t85 -53q20 -51 -23 -121
q-72 -90 -251 -286t-246 -285q55 -73 238 -267q182 -194 259 -297q46 -59 18 -113t-83 -54t-100 57q-53 82 -176 297q-122 215 -193 321q-78 -109 -204 -336z" />
    <glyph glyph-name="y" unicode="y" horiz-adv-x="1175" 
d="M924 1434h319l-794 -1434h-322l365 639l-510 795h469q-26 -53 -47 -150q-21 -98 -22 -183t32 -201t106 -216z" />
    <glyph glyph-name="z" unicode="z" horiz-adv-x="1056" 
d="M102 1434h985l-681 -1217h518l51 -63h-682l690 1218h-827zM31 0l688 1219h-461l-53 61h620l-684 -1217h885l51 -63h-1046z" />
    <glyph glyph-name="bar" unicode="|" horiz-adv-x="446" 
d="M164 -238q29 295 119 689q-33 -351 -119 -689zM164 0q29 293 119 686q-33 -348 -119 -686zM164 236q29 293 119 688q-33 -350 -119 -688zM164 471q29 295 119 688q-33 -350 -119 -688zM164 709q29 293 119 688q-33 -350 -119 -688zM164 944q29 295 119 688
q-33 -350 -119 -688z" />
    <glyph glyph-name="AE" unicode="&#xc6;" horiz-adv-x="1558" 
d="M799 113v1208h-8l-691 -1208h699zM913 113h625v-113h-1579v92l764 1342h762v-113h-572v-543h494v-112h-494v-553z" />
    <glyph glyph-name="OE" unicode="&#x152;" horiz-adv-x="2029" 
d="M855 1315q-155 0 -263 -160t-107 -421q-1 -261 105 -436t265 -175t260 170t101 441t-102 426q-104 155 -259 155zM1989 0h-838q33 121 37 231q-63 -121 -182 -193t-271 -71q-197 0 -343 110q-146 109 -218 281t-72 379q0 319 165 527t468 206q152 0 271 -70t182 -194
q-8 143 -29 207l-8 21h811v-334q-104 139 -288 215q-75 31 -154 39q-18 -424 -19 -572q70 8 146 43t114 66l41 31v-375q-12 13 -34 33t-100 58t-167 46q1 -188 19 -602q114 14 232 76t177 114l60 54v-326z" />
    <glyph glyph-name="endash" unicode="&#x2013;" horiz-adv-x="1597" 
d="M231 705v47h1139v-47h-1139zM182 803v-150h1237v150h-1237zM141 612v232h1319v-232h-1319z" />
    <glyph glyph-name="emdash" unicode="&#x2014;" horiz-adv-x="2580" 
d="M2376 729q0 29 20 49t49 20t49 -20t20 -49t-20 -49t-49 -20t-49 20t-20 49zM2183 729q1 29 21 49t49 20t49 -20t20 -49t-20 -49t-49 -20t-49 20t-21 49zM1991 729q0 29 20 49t49 20t49 -20q21 -20 21 -49t-20 -49t-50 -20q-29 0 -49 20t-20 49zM1798 729q0 29 20 49
t50 20q29 0 49 -20t20 -49t-20 -49t-49 -20q-30 0 -50 20t-20 49zM1606 729q0 29 20 49t49 20t49 -20t20 -49t-20 -49t-49 -20t-49 20t-20 49zM1413 729q1 29 21 49t49 20t49 -20t20 -49t-20 -49t-49 -20t-49 20t-21 49zM1221 729q0 29 20 49t49 20t49 -20q21 -20 21 -49
t-20 -49t-50 -20q-29 0 -49 20t-20 49zM1028 729q0 29 20 49t50 20q29 0 49 -20t20 -49t-20 -49t-49 -20q-30 0 -50 20t-20 49zM836 729q0 29 20 49t49 20t49 -20t20 -49t-20 -49t-49 -20t-49 20t-20 49zM643 729q1 29 21 49t49 20t49 -20t20 -49t-20 -49t-49 -20t-49 20
t-21 49zM451 729q0 29 20 49t49 20t49 -20q21 -20 21 -49t-20 -49t-50 -20q-29 0 -49 20t-20 49zM258 729q0 29 20 49t50 20q29 0 49 -20t20 -49t-20 -49t-49 -20q-30 0 -50 20t-20 49zM66 729q0 29 20 49t49 20t49 -20t20 -49t-20 -49t-49 -20t-49 20t-20 49z" />
    <glyph glyph-name="quoteleft" unicode="&#x2018;" horiz-adv-x="780" 
d="M242 1079q0 -66 16 -96q14 41 72 80t127 39q115 0 189 -67t73 -179q0 -112 -81 -198t-210 -85q-129 -1 -227 101t-99 274q0 215 130 366q131 150 313 150l12 -41q-159 -23 -237 -121t-78 -223z" />
    <glyph glyph-name="quoteright" unicode="&#x2019;" horiz-adv-x="780" 
d="M539 958q0 66 -17 97q-14 -41 -72 -80t-126 -39q-111 0 -187 72t-76 184t79 192t210 80q132 0 230 -102t98 -272q0 -215 -130 -366t-312 -151l-13 41q158 23 237 121t79 223z" />
    <glyph glyph-name="bullet" unicode="&#x2022;" horiz-adv-x="792" 
d="M61 797q75 -1 135 33t93 75t69 132t37 141q0 -62 64 -204q33 -73 105 -125l167 -52l-168 -53q-73 -52 -105 -122q-61 -132 -63 -198q-8 36 -14 69t-29 88q-53 128 -134 172q-80 44 -157 44z" />
    <glyph glyph-name="CR" unicode="&#xe001;" horiz-adv-x="1638" 
 />
    <glyph glyph-name="A.ss2" unicode="&#xe002;" horiz-adv-x="1277" 
d="M940 186l59 -131l70 135l-53 119zM279 59l59 125l-76 127l-53 -121zM264 29l-78 143l-204 -143h282zM1286 29l-196 143l-76 -143h272zM965 342l-177 94h-301l-174 -94h652zM637 774l-139 -309h280zM651 1090l2 -285l160 -352l180 -99zM623 1090l-338 -736l178 99l160 352
v285zM291 315l67 -112h557l72 112h-696zM623 1380l-621 -1306l176 127l445 952v227zM651 1153l449 -952l176 -131l-625 1308v-225zM637 1475l702 -1475h-350l-76 174h-551l-73 -174h-350z" />
    <glyph glyph-name="A.ss3" unicode="&#xe003;" horiz-adv-x="1257" 
d="M748 453q40 0 66 -27t26 -65q0 -39 -27 -65t-65 -26h-412l-123 -262q-25 -55 -79 -55t-82 39t-5 90l88 188h-63q-39 0 -66 26q-26 26 -26 64t27 65q28 28 65 28h149l219 462q18 37 54 51t72 -1q36 -17 47 -55t-7 -72l-184 -385h326zM1151 -33q-53 0 -80 53l-620 1311
q-16 33 -4 69q13 36 49 50q34 16 70 4t50 -45l621 -1311q23 -47 -5 -89t-81 -42z" />
    <glyph glyph-name="A.ss4" unicode="&#xe004;" horiz-adv-x="1286" 
d="M961 203l75 -164l60 137l-64 135zM270 326h754l-375 802v-235l213 -477h-416zM643 821l-168 -370h334zM-2 43l178 139l459 979v230zM643 1481l705 -1481h-334l-80 178h-582l-80 -178h-333z" />
    <glyph glyph-name="A.ss5" unicode="&#xe005;" horiz-adv-x="1269" 
d="M532 1335l-155 -622q233 -25 373 -115zM918 1434q16 0 25 -8t3 -21q-6 -12 -28 -19q-70 -23 -37 -153l317 -1094q25 -76 109 -94q14 -2 20 -13q6 -12 0 -22t-20 -10h-512q-16 0 -23 9q-6 9 0 21t23 15q59 18 59 100q0 186 -147 337t-342 175l-121 -489q-20 -74 31 -99
q37 -19 63 -23q26 -5 32 -16q6 -10 -1 -20q-8 -10 -23 -10h-377q-18 0 -25 10t0 22q6 12 38 16q32 5 63 28t41 42t20 52l322 1067q32 118 -68 149q-20 4 -27 16t1 22q8 9 26 10h558z" />
    <glyph glyph-name="B.ss1" unicode="&#xe006;" horiz-adv-x="1175" 
d="M614 692q120 0 176 64t56 147q0 190 -232 191h-258v-402h258zM356 150h228q84 0 142 58t58 141t-58 140t-142 58h-228v-397zM1135 993q0 -96 -41 -177q-62 -122 -204 -196q-44 -24 -73 -32q119 -74 119 -228t-103 -258q-103 -102 -249 -102h-402q25 53 25 193v901h-150
l-135 151h723q166 0 258 -92q63 -61 80 -152q2 90 -61 170q-90 111 -267 111h-766l-135 152h901q184 0 332 -120t148 -321z" />
    <glyph glyph-name="B.ss2" unicode="&#xe007;" horiz-adv-x="1488" 
d="M1075 1023q0 71 -45 116t-127 45h-475v-336h469q82 0 130 52t48 123zM1190 431q0 77 -51 128t-140 51h-571v-360h571q86 0 139 52q52 52 52 129zM1020 0h-856v1434h733q193 0 315 -118t121 -292q1 -66 -29 -136t-71 -106q92 -45 153 -143t62 -207q0 -178 -127 -305
t-301 -127z" />
    <glyph glyph-name="B.ss3" unicode="&#xe008;" horiz-adv-x="1112" 
d="M745 1182q0 92 -71 152q-72 60 -219 61q-27 -306 -27 -617q121 55 219 159t98 245zM428 719q0 -416 33 -645q103 18 235 103q74 48 122 139q48 90 48 200t-74 194q-75 83 -212 83q-39 -21 -152 -68v-6zM203 764q0 458 -60 670h566q141 0 220 -48t79 -143q0 -94 -104 -213
t-240 -192l90 10q176 20 277 -48t101 -188q0 -121 -52 -221t-127 -165t-205 -132t-289 -94h-316q60 306 60 764z" />
    <glyph glyph-name="B.ss4" unicode="&#xe009;" horiz-adv-x="1204" 
d="M332 180h352q106 0 182 76t76 182t-74 176t-184 70h-133q-23 0 -38 15t-15 37t15 36q15 16 38 16h47q86 14 144 88t58 164t-70 160q-71 70 -169 70t-168 -70t-69 -168v-842q0 -10 8 -10zM684 143h-381q-16 0 -16 17v872q0 115 81 196q80 81 194 81t196 -81
q82 -80 82 -188t-72 -194t-168 -96h-49q-14 0 -14 -14t14 -13h133q127 0 212 -82t85 -203t-88 -208t-209 -87zM258 1032v-905q0 -12 12 -12h414q133 0 228 97q96 97 96 220t-78 210t-187 101q-16 3 -18 15t10 20q63 43 98 112q34 69 33 142q0 125 -89 214t-217 89t-215 -86
t-87 -217zM684 78h-414q-20 0 -34 14t-15 35v905q1 142 101 242t241 100t241 -100t101 -242q0 -74 -31 -144t-83 -116q111 -27 183 -123t73 -211q0 -150 -109 -255t-254 -105zM190 1032v-905q0 -33 24 -57t56 -23h414q160 0 276 118t115 273q0 106 -56 198t-149 136
q-27 12 -8 37q70 93 70 235t-108 250t-264 109t-262 -105q-108 -106 -108 -266zM401 258h283q74 0 127 53t53 126t-51 121t-129 48h-133q-53 0 -91 39t-38 92t38 91t91 38h31q59 0 101 52t42 116t-48 111t-115 47q-68 0 -114 -47t-47 -113v-774zM352 225v807q0 86 62 148
t148 63q86 0 148 -62q62 -61 62 -145t-58 -152t-136 -67h-27q-33 1 -57 -23t-23 -57q0 -33 24 -57t56 -23h133q94 -1 163 -65t69 -156t-70 -160q-68 -68 -162 -67h-317q-15 0 -15 16zM684 0h-414q-53 0 -90 37t-37 90v905q0 174 123 297t297 123t297 -123t123 -297
q0 -125 -63 -229q94 -59 148 -157t54 -208q0 -180 -131 -309t-307 -129z" />
    <glyph glyph-name="B.ss5" unicode="&#xe00a;" horiz-adv-x="1359" 
d="M434 1321v-838q53 142 201 267q57 49 113 101q124 117 122 277q0 128 -98 190t-190 61t-120 -12t-28 -46zM434 123q0 -59 164 -60q268 0 390 117q122 118 122 260t-94 231t-256 93q-74 -51 -120 -92t-99 -111q-107 -141 -107 -387v-51zM270 113v1208q0 38 -22 46
q-22 9 -39 11t-27 4t-28 4t-31 5v43h432q217 0 354 -79t137 -247t-206 -293q168 0 313 -95q145 -94 145 -280t-172 -313t-381 -127h-622v43q79 13 113 27t34 43z" />
    <glyph glyph-name="C.ss1" unicode="&#xe00b;" horiz-adv-x="1267" 
d="M915 418q-149 0 -237 88t-88 213q0 45 12 88q-16 -9 -84 -31t-103 -34q-34 -12 -53 -17q0 246 152 383t360 137q164 0 302 -90v201q-29 20 -74 37q-123 41 -256 41q-305 0 -508 -208t-203 -507q0 -49 2 -72l225 78q0 -209 150 -355t381 -147q158 0 283 82v225
q-112 -112 -261 -112zM852 1466q224 0 354 -88v-536q-33 37 -80 69q-104 72 -227 72t-198 -73q-75 -72 -75 -188t79 -193q78 -77 208 -76q171 0 293 153v-543q-35 -25 -120 -59t-212 -33q-336 0 -554 217q-218 218 -218 530t214 530t536 218z" />
    <glyph glyph-name="C.ss2" unicode="&#xe00c;" horiz-adv-x="1271" 
d="M684 1122q-198 0 -334 -105t-137 -297q1 -192 139 -296t334 -105q196 0 338 111q63 49 100 113h66q0 -150 -66 -284q-37 -77 -90 -137t-141 -99t-197 -39q-266 0 -420 212t-153 529q0 317 153 525q154 208 420 208q374 0 468 -381q26 -104 26 -225h-66q-37 78 -98 135
q-144 135 -342 135z" />
    <glyph glyph-name="C.ss3" unicode="&#xe00d;" horiz-adv-x="1669" 
d="M920 -31q-358 0 -588 206q-229 206 -230 542q0 219 115 393t300 265t407 91t402 -86q179 -86 282 -211l-170 -151q-66 84 -210 154t-308 71q-244 0 -410 -137t-166 -384t168 -389t408 -143q293 1 512 220l159 -158q-104 -119 -277 -201t-394 -82z" />
    <glyph glyph-name="C.ss4" unicode="&#xe00e;" horiz-adv-x="1261" 
d="M102 674q0 328 224 562t567 234q160 0 311 -71l-141 -449h-25q-30 213 -160 314q-69 53 -167 53q-133 0 -231 -125t-97 -343q0 -219 138 -361q139 -142 309 -142t284 94q47 39 80 95l27 -11l-138 -387q-33 -43 -88 -80q-119 -78 -284 -77q-270 0 -440 203
q-169 204 -169 491z" />
    <glyph glyph-name="C.ss5" unicode="&#xe00f;" horiz-adv-x="1269" 
d="M860 342v217q0 49 43 49h230q45 0 45 -49v-217q0 -45 -45 -45h-230q-43 0 -43 -41v-219q0 -37 -37 -37h-344q-39 0 -39 37v219q0 25 -10 33t-37 8h-231q-39 0 -39 45v748q0 47 45 47h225q29 0 38 9t9 36v204q0 47 43 48h330q47 0 47 -48v-204q0 -45 43 -45h230
q18 1 31 -13t14 -34v-234q0 -43 -45 -43h-230q-16 0 -30 13q-13 13 -13 30v234q0 47 -47 47h-330q-43 0 -43 -47v-748q0 -27 8 -36t31 -9h340q25 0 33 9t8 36z" />
    <glyph glyph-name="Corwin" unicode="&#xe010;" horiz-adv-x="1376" 
d="M475 336q61 0 62 -29q0 -25 -50 -45q23 -8 32 -31t-9 -30q-32 -8 -40 -18q-9 -11 -7 -25q-45 -23 -95 -71t-96 -79t-104 -31q-25 0 -25 25v903q0 248 161 409t387 161t384 -161t158 -411v-905q0 -20 -13 -20q-26 -1 -100 103q-75 104 -198 187q-168 111 65 160
q16 2 60 10q-27 43 -57 163q-29 121 -59 180t-30 110l19 156l-13 12q0 -31 -12 -78t-21 -47q-14 0 -14 74t2 84l-12 8v-10q0 -37 -7 -80t-17 -43t-16 43q-7 43 -7 80l2 28l-12 4v-4q1 -37 -7 -80t-17 -43t-16 40t-8 77l3 23l-11 2q0 -33 -8 -82t-16 -49t-16 48q-7 48 -7 85
h-10q2 -4 2 -32t-8 -67t-16 -39t-17 43q-8 43 -8 78v13l-10 -2q2 -10 2 -37q-1 -27 -9 -70t-16 -43t-16 39t-9 72v26l-10 -4q2 -10 2 -38t-8 -70t-17 -43q-9 0 -20 100l-2 35l-12 -6q10 -49 3 -103q-7 -53 -16 -53t-19 37q-9 37 -11 61v35l-14 -8q12 -95 12 -157
q-1 -62 -19 -113t-18 -56l8 -28q0 -14 -34 -75q-34 -60 -42 -69q-6 -9 -6 -21q0 -11 23 -12q18 0 18 -22l-6 -23q14 -6 13 -14t-5 -12t2 -17q25 0 25 -24l-8 -49q0 -35 61 -35z" />
    <glyph glyph-name="D.ss1" unicode="&#xe011;" horiz-adv-x="1329" 
d="M496 47q250 0 410 207t159 506q1 298 -153 462t-435 164q-80 0 -118 -18t-37 -80v-1200q46 -41 174 -41zM20 1407v27h478q280 0 495 -162q105 -80 169 -214t64 -302t-64 -314q-119 -269 -388 -389q-121 -53 -239 -53h-515v27q145 0 146 82v1200q0 57 -32 77t-114 21z" />
    <glyph glyph-name="D.ss2" unicode="&#xe012;" horiz-adv-x="1093" 
d="M403 1325h-30v-1216h30q242 1 343 157q102 156 102 464t-100 452q-101 143 -345 143zM-41 1378q0 23 15 39t38 17h391q567 0 568 -701q0 -733 -568 -733h-391q-23 0 -38 15t-15 38t15 39t38 17h242v1216h-242q-23 0 -38 15t-15 38z" />
    <glyph glyph-name="D.ss3" unicode="&#xe013;" horiz-adv-x="1611" 
d="M406 1081q0 -41 57 -102q20 -29 49 -49q16 -16 27 -25q-1 -2 -19 -16q-18 -15 -26 -23t-18 -17t-13 -13q-55 -63 -60 -95v-442q77 -14 265 -85t286 -71q168 0 280 126t112 339t-124 411q-223 347 -675 347q-127 0 -254 -47t-216 -140t-89 -205t66 -190t162 -78
q95 0 151 56q-8 18 -28 44q-19 26 -22 28q-55 66 -75 71l45 39q86 86 88 133v152l31 24v-172zM250 125q-117 0 -201 -68q-39 -33 -59 -67l-23 18q12 14 103 129q78 104 121 139q45 35 95 35t91 -8l-2 420v12q-57 -53 -159 -53t-180 80t-77 211q0 193 225 345t533 150
q346 0 569 -208t223 -490q-1 -172 -111 -360t-268 -310t-285 -123q-126 0 -310 76q-86 35 -134 49v-202l-14 -4l-10 -5v218q-66 16 -127 16z" />
    <glyph glyph-name="D.ss4" unicode="&#xe014;" horiz-adv-x="1218" 
d="M383 0h-219v1434h489q229 0 325 -102t97 -302v-612q0 -202 -106 -310t-316 -108h-258l193 215h96q84 0 128 47t44 123v674q0 76 -47 119t-125 43h-301v-1221z" />
    <glyph glyph-name="D.ss5" unicode="&#xe015;" horiz-adv-x="1368" 
d="M562 92q-77 0 -109 8q-12 346 -13 666l13 571q29 13 111 13t138 -10q54 -10 116 -47q196 -114 196 -556q0 -441 -202 -577q-62 -42 -118 -54q-56 -14 -132 -14zM692 41q136 0 238 53t156 129q54 77 86 183t40 187t9 171q-1 309 -135 469t-392 160q-421 0 -499 12l-27 2
q39 -39 76 -217q78 -371 0 -918q-10 -76 -36 -136t-44 -83l-21 -24q135 12 549 12zM579 133q205 0 303 164q87 151 87 425t-60 396q-29 59 -63 99q-83 92 -271 92q-53 0 -81 -13q-12 -244 -13 -530l13 -625q32 -8 85 -8zM694 1434q268 0 420 -164t152 -506q0 -223 -65 -406
q-38 -106 -98 -182q-61 -76 -167 -126t-244 -50l-631 -12q12 12 33 36q20 24 60 98t49 150q78 547 0 918q-16 80 -45 144t-52 89l-20 25q137 -14 608 -14z" />
    <glyph glyph-name="E.ss1" unicode="&#xe016;" horiz-adv-x="1484" 
d="M164 0v338h1157v-338h-1157zM164 547v338h1157v-338h-1157zM164 1096v338h1157v-338h-1157z" />
    <glyph glyph-name="E.ss2" unicode="&#xe017;" horiz-adv-x="1175" 
d="M164 1128v306h868v-306h-616q40 -14 66 -49t26 -80q0 -88 -88 -127h612v-305h-622q42 -14 70 -49t28 -82t-28 -83t-70 -48h622v-305h-868v305h166q-43 12 -70 48t-27 83q0 98 97 131h-166v305h155q-86 37 -86 128t91 128h-160z" />
    <glyph glyph-name="E.ss3" unicode="&#xe018;" horiz-adv-x="1243" 
d="M1040 504h101v-504h-1127v104h238v1225h-242v105h1131v-461h-103v356h-671v-547h303v234h98v-557h-98v219h-303v-574h673v400z" />
    <glyph glyph-name="E.ss4" unicode="&#xe019;" horiz-adv-x="1005" 
d="M256 -90l-57 182l-136 51l136 52l28 88l-26 86l-140 53l138 51l28 90l-26 88l-138 51l136 52l28 88l-28 90l-138 51l138 51l28 88l-28 90l-136 52l136 51l57 182l55 -182l78 -31l78 31l57 182l56 -182l77 -31l78 31l58 182l55 -182l137 -51l-137 -52l-55 -182l-58 182
l-78 29l-77 -29l-56 -182l-57 182l-78 29l-78 -29l-26 -90l26 -88l138 -51l-138 -51l-26 -88l28 -92l76 -29l78 31l57 182l58 -184l133 -50l-135 -51l-56 -180l-55 180l-80 29l-78 -29l-26 -88l28 -92l136 -49l-138 -51l-26 -88l26 -90l78 -29l78 31l57 182l56 -182l77 -31
l78 31l58 182l55 -182l137 -52l-137 -51l-55 -182l-58 182l-78 29l-77 -29l-56 -182l-57 182l-78 29l-78 -29z" />
    <glyph glyph-name="E.ss5" unicode="&#xe01a;" horiz-adv-x="1269" 
d="M514 600v-270h524v-242h-784v1262h760v-244h-500v-264h360v-242h-360zM225 1378v-1319h842v299h-524v213h360v299h-360v207h499v301h-817zM317 1290v-1147h660v129h-524v385h360v121h-360v383h503v129h-639zM164 0v1434h942v-416h-500v-96h357v-408h-357v-98h520v-416
h-962z" />
    <glyph glyph-name="F.ss1" unicode="&#xe01b;" horiz-adv-x="794" 
d="M766 565h-326v-565h-114v676h440v-111zM879 1180h-439v-361h326v-110h-440v581h553v-110zM879 1323h-588v-1323h-115v1434h703v-111z" />
    <glyph glyph-name="F.ss2" unicode="&#xe01c;" horiz-adv-x="1259" 
d="M758 0h-758v233h248v967h-248v234h1321v-619h-240v385h-589v-369h188v197h223v-614h-223v192h-188v-373h266v-233z" />
    <glyph glyph-name="F.ss3" unicode="&#xe01d;" horiz-adv-x="1028" 
d="M727 31v-31h-707v31q51 10 98 31q48 20 57 31t26 35t22 91v998q-4 66 -22 89q-17 23 -25 33q-8 9 -35 21t-35 16t-44 14t-42 13v31h1131v-519h-31q-41 177 -161 283t-271 107q-86 0 -128 -32t-42 -114v-547q18 113 102 200t218 87q92 0 154 -62q62 -63 62 -155t-62 -154
t-162 -61q-100 0 -160 72l18 22q25 -27 61 -13t35 58q0 72 -100 74q-57 0 -102 -35t-64 -86v-344q6 -84 43 -115q17 -14 23 -20t34 -16t32 -13q5 -2 40 -11t37 -9z" />
    <glyph glyph-name="F.ss4" unicode="&#xe01e;" horiz-adv-x="997" 
d="M0 0v33h88q123 0 123 217v964q0 143 -55 172q-27 14 -68 15h-88v33h1059v-482h-31v66q0 176 -101 279t-292 104h-293v-684h37q182 1 262 69t80 228v45h31v-715h-31v45q0 160 -78 222t-264 63h-37v-424q0 -217 123 -217h88v-33h-553z" />
    <glyph glyph-name="F.ss5" unicode="&#xe01f;" horiz-adv-x="1105" 
d="M164 20q0 33 33 33q94 0 108 134t14 545t-14 544q-10 90 -149 106q-33 6 -33 34t33 28q18 0 115 -5t324 -5q228 0 305 9t95 29t19 58q1 37 32 37q32 0 35 -29q2 -8 5 -58q13 -210 94 -384q10 -23 5 -38q-5 -16 -24 -16t-45 47q-101 187 -221 240q-61 27 -137 27t-105 -25
t-35 -78t-7 -103t1 -118t2 -116q0 -104 156 -105q47 0 71 51q7 16 18 52t36 36q35 0 27 -39q-14 -72 -14 -130t20 -149t20 -95q6 -55 -13 -57q-33 -4 -46 44q-2 4 -9 24q-6 20 -10 30q-4 8 -12 28t-15 30t-19 27q-12 18 -48 39t-86 21q-63 0 -69 -84q-14 -233 14 -459
q14 -127 108 -127q33 0 33 -30q0 -11 -9 -21t-24 -10l-264 8q-90 3 -241 -4l-41 -4q-33 0 -33 28z" />
    <glyph glyph-name="G.ss1" unicode="&#xe020;" horiz-adv-x="1347" 
d="M874 856h193v-852q-104 -33 -219 -33q-313 0 -530 220q-216 221 -216 531t209 526t508 216t512 -200t221 -482h-192q-10 210 -166 356t-377 146t-371 -162t-150 -400t160 -402q159 -166 392 -166l26 2v700z" />
    <glyph glyph-name="G.ss2" unicode="&#xe021;" horiz-adv-x="1449" 
d="M1466 614q4 0 4 -5t-4 -5l-2 -2l-69 -18q-33 -10 -42 -35t-10 -80v-363q-53 -39 -126 -67q-160 -68 -353 -68q-336 0 -549 218t-213 540q0 321 212 523t550 202q170 0 293 -57q59 -27 96 -58v-489q0 -2 -6 -2t-6 2v4l-24 127q-19 86 -121 134t-232 48q-200 -1 -324 -111
t-124 -321t118 -338t330 -127q66 0 106 18q62 29 62 74v111q0 100 -53 113l-80 20q-6 0 -6 6t2 6h4l105 -4q59 -2 184 -2l276 6h2z" />
    <glyph glyph-name="G.ss3" unicode="&#xe022;" horiz-adv-x="1464" 
d="M854 352q-152 0 -262 110t-109 260q0 150 108 255q108 106 263 106h129l172 254h-301q-287 0 -470 -174t-183 -438t177 -446t476 -183h475v572l-270 39v-355h-205zM854 987q-126 -1 -198 -77t-72 -189t80 -193t190 -79h109v366l460 -61v-754h-569q-315 0 -533 205
t-219 514q0 309 218 512t534 203h487l-319 -447h-168z" />
    <glyph glyph-name="G.ss4" unicode="&#xe023;" horiz-adv-x="1492" 
d="M555 1061l-16 -561l561 -205l-70 301l-299 47l313 350zM844 -47l-701 246l13 839l409 418v-2l2 2l834 -106l-336 -346l328 -48l80 -358z" />
    <glyph glyph-name="G.ss5" unicode="&#xe024;" horiz-adv-x="1587" 
d="M102 711q0 307 215 525t523 218q160 0 301 -51t229 -133l-12 -400h-6l-17 387q-88 79 -218 131t-277 52q-293 0 -493 -213t-200 -515t202 -514q201 -212 487 -212t469 183q182 183 168 490l-693 31v2h736v-14q16 -299 -169 -505t-501 -206q-205 1 -378 105t-269 275
q-97 171 -97 364z" />
    <glyph glyph-name="H.ss1" unicode="&#xe025;" horiz-adv-x="1605" 
d="M1442 1434v-1434h-96v1434h96zM260 1434v-1434h-96v1434h96zM1130 1434v-611h-661v611h96v-521h471v521h94zM469 0v610h661v-610h-94v520h-471v-520h-96z" />
    <glyph glyph-name="H.ss2" unicode="&#xe026;" horiz-adv-x="1359" 
d="M764 2v530h-168v-530h-432v1436h432v-527h168v527h432v-1436h-432z" />
    <glyph glyph-name="H.ss3" unicode="&#xe027;" horiz-adv-x="1433" 
d="M356 682h721v92h-721v-92zM969 1434h403v-13l-55 -14q-33 -10 -43 -36t-10 -89v-1159q2 -84 53 -96l55 -15v-12h-403v12l55 15q51 12 53 96v504h-721v-504q2 -84 54 -96l55 -15v-12h-404v12l56 15q51 12 53 96v1186q-2 45 -12 67t-41 31l-56 14v13h404v-13l-55 -14
q-31 -10 -41 -32t-13 -66v-478h721v451q0 63 -10 89t-43 36l-55 14v13z" />
    <glyph glyph-name="H.ss4" unicode="&#xe028;" horiz-adv-x="1263" 
d="M1063 760q0 -262 17 -452t34 -249l19 -59h-230q37 213 37 774q-245 -12 -393 -86q-148 -75 -201 -131l-20 -22q0 -245 30 -461l11 -74h-244q25 62 47 281t22 463t-17 413q-17 168 -36 223l-16 54h237q-41 -205 -41 -674l5 -152q34 41 102 98q67 56 135 98t170 81t207 51
q0 288 -33 438l-10 60h240q-70 -172 -70 -486l117 -172q-80 8 -119 0v-16z" />
    <glyph glyph-name="H.ss5" unicode="&#xe029;" horiz-adv-x="1710" 
d="M238 1362v-1290h579v440h76v-440h580v1290h-580v-440h-76v440h-579zM164 0v1434h1382v-1434h-1382z" />
    <glyph glyph-name="I.ss1" unicode="&#xe02a;" horiz-adv-x="829" 
d="M563 152q0 -90 47 -103l240 -49h-864l235 49q45 12 45 103v1130q0 90 -47 102l-239 50h864l-236 -50q-45 -12 -45 -102v-1130z" />
    <glyph glyph-name="I.ss2" unicode="&#xe02b;" horiz-adv-x="512" 
d="M301 1337v-1241h45v1241h-45zM236 1337v-1241h40v1241h-40zM166 1337v-1241h45v1241h-45zM-10 0v96h151v1241h-151v97h532v-97h-151v-1241h151v-96h-532z" />
    <glyph glyph-name="I.ss3" unicode="&#xe02c;" horiz-adv-x="540" 
d="M186 731q0 415 -84 703h336q-25 -70 -43 -177q-41 -219 -41 -527t41 -535q18 -113 43 -195h-336q84 316 84 731z" />
    <glyph glyph-name="I.ss4" unicode="&#xe02d;" horiz-adv-x="1052" 
d="M797 158q-25 0 -41 16t-17 40q1 24 17 41t41 17t41 -17t16 -41t-16 -40t-41 -16zM201 212q0 24 16 40t41 16t41 -16t16 -40t-16 -40t-41 -16t-41 16t-16 40zM739 1223q1 25 17 41t41 16t41 -16t16 -41t-16 -41t-41 -16t-41 16t-17 41zM201 1225q0 25 16 41t41 16t41 -16
t16 -41t-16 -41t-41 -16t-41 16t-16 41zM918 212q0 24 16 40t41 16t41 -16t16 -40t-16 -40t-41 -16t-41 16t-16 40zM78 156q-26 0 -42 16t-16 40t16 40t42 16q25 0 41 -16t16 -40t-16 -40t-41 -16zM918 1225q0 25 16 41t41 16t41 -16t16 -41t-16 -41t-41 -16t-41 16t-16 41z
M20 1225q0 25 16 41t42 16q25 0 41 -16t16 -41t-16 -41t-41 -16q-26 0 -42 16t-16 41zM918 46q0 24 16 40t41 16t41 -16t16 -40t-16 -40t-41 -16t-41 16t-16 40zM795 -10q-25 0 -41 16t-17 40q1 24 17 40t41 16t41 -16t16 -40t-16 -40t-41 -16zM557 46q0 24 16 40t41 16
t41 -16q17 -16 17 -40t-16 -40t-42 -16q-25 0 -41 16t-16 40zM918 1391q0 25 16 41t41 16t41 -16t16 -41t-16 -41t-41 -16t-41 16t-16 41zM737 1391q1 25 17 41t41 16t41 -16t16 -41t-16 -41t-41 -16t-41 16t-17 41zM557 1391q0 25 16 41t41 16t41 -16q17 -16 17 -41
t-16 -41t-42 -16q-25 0 -41 16t-16 41zM559 214q0 24 16 41t41 17t41 -17q17 -17 17 -41t-16 -40t-42 -16q-25 0 -41 16t-16 40zM559 382q0 24 16 41t41 17t41 -17q17 -17 17 -41t-16 -40t-42 -16q-25 0 -41 16t-16 40zM559 550q0 24 16 41t41 17t41 -17q17 -17 17 -41
t-16 -40t-42 -16q-25 0 -41 16t-16 40zM559 719q0 25 16 41t41 16t41 -16q17 -16 17 -41t-16 -41t-42 -16q-25 0 -41 16t-16 41zM559 887q0 25 16 41t41 16t41 -16q17 -16 17 -41t-16 -41t-42 -16q-25 0 -41 16t-16 41zM559 1055q0 25 16 41t41 16t41 -16q17 -16 17 -41
t-16 -41t-42 -16q-25 0 -41 16t-16 41zM559 1223q0 25 16 41t41 16t41 -16q17 -16 17 -41t-16 -41t-42 -16q-25 0 -41 16t-16 41zM377 46q0 24 16 40t41 16t41 -16q17 -16 17 -40t-16 -40t-42 -16q-25 0 -41 16t-16 40zM199 46q0 24 16 40t41 16t41 -16t16 -40t-16 -40
t-41 -16t-41 16t-16 40zM78 -10q-26 0 -42 16t-16 40t16 40t42 16q25 0 41 -16t16 -40t-16 -40t-41 -16zM379 214q0 24 16 41t41 17t41 -17q17 -17 17 -41t-16 -40t-42 -16q-25 0 -41 16t-16 40zM379 382q0 24 16 41t41 17t41 -17q17 -17 17 -41t-16 -40t-42 -16
q-25 0 -41 16t-16 40zM379 550q0 24 16 41t41 17t41 -17q17 -17 17 -41t-16 -40t-42 -16q-25 0 -41 16t-16 40zM379 719q0 25 16 41t41 16t41 -16q17 -16 17 -41t-16 -41t-42 -16q-25 0 -41 16t-16 41zM379 887q0 25 16 41t41 16t41 -16q17 -16 17 -41t-16 -41t-42 -16
q-25 0 -41 16t-16 41zM379 1055q0 25 16 41t41 16t41 -16q17 -16 17 -41t-16 -41t-42 -16q-25 0 -41 16t-16 41zM379 1223q0 25 16 41t41 16t41 -16q17 -16 17 -41t-16 -41t-42 -16q-25 0 -41 16t-16 41zM377 1391q0 25 16 41t41 16t41 -16q17 -16 17 -41t-16 -41t-42 -16
q-25 0 -41 16t-16 41zM199 1391q0 25 16 41t41 16t41 -16t16 -41t-16 -41t-41 -16t-41 16t-16 41zM20 1391q0 25 16 41t42 16q25 0 41 -16t16 -41t-16 -41t-41 -16q-26 0 -42 16t-16 41z" />
    <glyph glyph-name="I.ss5" unicode="&#xe02e;" horiz-adv-x="1396" 
d="M1130 -27l-204 238l204 238l205 -238zM266 -27l-205 238l205 238l205 -238zM1130 985l-204 238l204 237l205 -237zM266 985l-205 238l205 237l205 -237zM698 -27l-204 238l204 238l205 -238zM698 479l-204 238l204 237l205 -237zM698 985l-204 238l204 237l205 -237z" />
    <glyph glyph-name="J.ss1" unicode="&#xe02f;" horiz-adv-x="886" 
d="M764 309q0 -143 -112 -239t-253 -97t-249 99t-109 247v261h176v-263q0 -59 51 -117q52 -58 138 -58t134 56q48 58 48 119v1117h176v-1125z" />
    <glyph glyph-name="J.ss2" unicode="&#xe030;" horiz-adv-x="686" 
d="M-102 424h286q0 -174 123 -326v1336h277v-1434h-516q-47 39 -86 102q-84 140 -84 322z" />
    <glyph glyph-name="J.ss3" unicode="&#xe031;" horiz-adv-x="919" 
d="M123 1047v387h653v-1082q0 -196 -91 -284t-241 -88t-235 85q-86 85 -86 287v201h172v-201q0 -199 156 -198q77 0 113 47t36 151l2 905l-309 -2v-208h-170z" />
    <glyph glyph-name="J.ss4" unicode="&#xe032;" horiz-adv-x="952" 
d="M584 1204h-502l209 232h518l-2 -1043l-377 -428q-113 59 -188 129q-180 168 -121 344l225 211q-62 -181 48 -315q33 -44 108 -90q76 -45 82 -49v1009z" />
    <glyph glyph-name="J.ss5" unicode="&#xe033;" horiz-adv-x="1261" 
d="M1098 1434v-1360q0 -34 -20 -54t-52 -20h-846q-78 0 -78 74v356l318 328v-412q0 -37 37 -37h295q29 0 28 37v778h-452l-287 310h1057z" />
    <glyph glyph-name="K.ss1" unicode="&#xe034;" horiz-adv-x="1265" 
d="M530 535v-535h-368v1434h368v-523h2q262 92 281 523h410q-48 -66 -104 -351q-19 -96 -83 -193t-170 -142q98 -37 164 -107t100 -154t61 -169q72 -235 146 -318h-436q-45 227 -84 313q-86 195 -262 222h-25z" />
    <glyph glyph-name="K.ss2" unicode="&#xe035;" horiz-adv-x="1560" 
d="M918 0q0 287 -162 414v-414h-592v1436h592v-408q162 127 162 408h622q-16 -145 -57 -273q-100 -301 -305 -444q213 -96 311 -418q43 -149 51 -301h-622z" />
    <glyph glyph-name="K.ss3" unicode="&#xe036;" horiz-adv-x="1271" 
d="M41 1434h520v-496l154 297q88 166 -45 166v33h600l-461 -707l524 -727h-663v33q58 -1 92 25q33 26 32 56t-30 76l-203 287v-477h-520v33q80 -1 117 27t37 100v1114q0 70 -38 98t-116 29v33z" />
    <glyph glyph-name="K.ss4" unicode="&#xe037;" horiz-adv-x="1024" 
d="M180 0v1434h783l-711 -695h651v-739h-723z" />
    <glyph glyph-name="K.ss5" unicode="&#xe038;" horiz-adv-x="1208" 
d="M393 37h150v-37h-502v37h149v1360h-149v37h502v-37h-150v-570l596 566l-110 106l24 27l367 -350l-25 -25l-117 109l-534 -506l539 -549l112 108l25 -24l-363 -346l-24 24l104 101l-594 614v-645z" />
    <glyph glyph-name="L.ss1" unicode="&#xe039;" horiz-adv-x="1056" 
d="M449 553q0 -262 12 -373l4 -37q180 13 323 53t195 70l53 33q-20 -81 -20 -173t12 -140q-144 16 -416 16t-419 -14l-43 -6q36 248 36 666t-18 695l-6 95q96 -12 172 -13l184 13q-69 -424 -69 -885z" />
    <glyph glyph-name="L.ss2" unicode="&#xe03a;" horiz-adv-x="1200" 
d="M164 0v1434h454v-975h644v-459h-1098z" />
    <glyph glyph-name="L.ss3" unicode="&#xe03b;" horiz-adv-x="997" 
d="M602 1376q-46 0 -68 -17q-49 -37 -59 -292q-4 -127 -4 -454t26 -417t158 -90q233 0 324 170q16 31 47 17q16 -8 10 -23q-49 -109 -61 -162q-13 -54 -21 -76t-19 -29t-34 -7l-426 6l-395 -6q-18 0 -18 31q1 31 18 30q42 -1 64 19q44 40 55 283q4 117 4 309q0 501 -18 595
t-51 107q-15 6 -39 6t-23 31q0 31 22 31l232 -8l276 8q20 0 20 -31t-20 -31z" />
    <glyph glyph-name="L.ss4" unicode="&#xe03c;" horiz-adv-x="1097" 
d="M836 498v-437h139v437h-139zM311 1374v-1313h156v1313h-156zM528 1372v-1311h246v498h262v-559h-954v61h168v1311h-168v62h620v-62h-174z" />
    <glyph glyph-name="L.ss5" unicode="&#xe03d;" horiz-adv-x="1255" 
d="M205 0v1434h407v-1360l543 399v-473h-950z" />
    <glyph glyph-name="M.ss1" unicode="&#xe03e;" horiz-adv-x="1421" 
d="M516 0h-352v1475l563 -136l530 138v-1477h-342v1032l-188 -53l-211 57v-1036z" />
    <glyph glyph-name="M.ss2" unicode="&#xe03f;" horiz-adv-x="1337" 
d="M1174 1434v-1434h-211v694l14 256q-27 -156 -51 -235l-144 -484h-227l-143 484l-47 198q10 -106 10 -219v-694h-211v1434h260l201 -695q24 -84 41 -223l4 -43q10 156 43 266l200 695h261z" />
    <glyph glyph-name="M.ss3" unicode="&#xe040;" horiz-adv-x="1546" 
d="M123 0q0 452 75 853t126 564l24 76q131 -160 238 -381q150 -311 186 -776q37 467 189 776q47 98 106 194t96 140l35 47q8 -29 24 -79t77 -305q62 -255 93 -569q32 -313 31 -540h-454q21 29 70 136q92 200 132 452q25 152 25 309q-33 -139 -86 -266t-98 -203
q-44 -76 -104 -148t-80 -90l-54 -49h-2q-25 21 -39 33t-77 85q-62 73 -109 149t-105 208t-92 281q0 -395 147 -741q34 -80 56 -119l25 -37h-455z" />
    <glyph glyph-name="M.ss4" unicode="&#xe041;" horiz-adv-x="1540" 
d="M1068 1442q-116 0 -197 -78t-87 -193q20 53 62 95q94 94 219 94t225 -94q45 -45 68 -97q-4 115 -89 194t-201 79zM1068 412q-116 0 -197 -78t-87 -195q23 53 62 92q86 92 219 92t225 -92q45 -45 68 -96q-4 115 -89 196t-201 81zM465 412q-117 0 -197 -78t-86 -195
q23 53 62 92q86 92 219 92t225 -92q45 -45 68 -96q-4 115 -89 196t-202 81zM466 1442q-116 0 -197 -78t-87 -193q20 53 62 95q94 94 219 94t225 -94q45 -45 68 -97q-4 115 -89 194t-201 79zM1068 1329q-116 0 -197 -77t-87 -191q23 53 62 92q88 92 218 92t226 -92
q45 -45 68 -96q-4 115 -89 193t-201 79zM1068 1219q-116 0 -197 -78t-87 -193q23 53 62 90q88 94 218 94t226 -92q39 -35 68 -94q-4 113 -89 193t-201 80zM1068 1104q-116 0 -197 -77t-87 -191q23 53 62 92q92 92 219 92t225 -92q39 -35 68 -94q-4 114 -89 192t-201 78z
M1068 989q-116 0 -197 -78t-87 -192q18 49 62 94q92 92 219 92t225 -92q43 -43 68 -96q-4 113 -89 193t-201 79zM1067 788q129 0 223 -90q43 -43 68 -96q-4 113 -89 193q-85 79 -201 79t-197 -76t-87 -192q85 182 283 182zM1068 760q-116 0 -197 -78t-87 -193q25 55 62 91
q90 94 218 94t226 -94q41 -39 68 -95q-4 115 -89 195t-201 80zM1068 643q-116 0 -197 -77t-87 -191q23 53 62 88q88 94 219 94t225 -94q41 -39 68 -94q-4 115 -89 195t-201 79zM1064 440q130 0 226 -92q45 -45 68 -96q-4 114 -89 194t-201 80t-197 -78t-87 -192q19 47 62 92
q88 92 218 92zM466 526q-116 0 -197 -78t-87 -192q18 47 62 92q88 92 218 92t226 -92q45 -45 68 -96q-4 114 -89 194t-201 80zM466 643q-116 0 -197 -77t-87 -191q23 53 62 88q88 94 219 94t225 -94q41 -39 68 -94q-4 115 -89 195t-201 79zM466 760q-116 0 -197 -78
t-87 -193q25 55 62 91q90 94 218 94t226 -94q41 -39 68 -95q-4 115 -89 195t-201 80zM463 788q131 0 225 -90q43 -43 68 -96q-4 116 -89 194t-201 78t-197 -76t-87 -192q85 182 281 182zM466 989q-116 0 -197 -78t-87 -192q18 49 62 94q92 92 219 92t225 -92q43 -43 68 -96
q-4 115 -89 193t-201 79zM466 1104q-116 0 -197 -77t-87 -191q23 53 62 92q92 92 219 92t225 -92q39 -35 68 -94q-4 114 -89 192t-201 78zM466 1219q-116 0 -197 -78t-87 -193q23 53 62 90q88 94 218 94t226 -92q39 -35 68 -94q-4 115 -89 194t-201 79zM466 1329
q-116 0 -197 -77t-87 -191q23 53 62 92q88 92 218 92t226 -92q45 -45 68 -96q-4 115 -89 193t-201 79zM1386 1157v-1155h-28q0 121 -86 209t-205 88t-201 -87t-82 -210h-28q0 125 -86 211t-206 86t-201 -87t-81 -210h-28v1155q0 131 91 222t218 91t225 -92q51 -49 82 -131
q23 78 76 131q92 92 219 92t224 -92t97 -221z" />
    <glyph glyph-name="M.ss5" unicode="&#xe042;" horiz-adv-x="1460" 
d="M1249 1452q-47 -63 6 -528t152 -953q-74 25 -223 0q0 270 -70 938l-24 209q-114 -194 -220 -482t-137 -421h-6q-35 143 -140 427t-216 476q-88 -860 -95 -1147q-123 17 -194 4l-29 -4q106 453 157 933q50 480 1 548q51 -23 113 -29t98 -2l37 6q47 -205 113 -391t110 -270
l43 -82h10q18 31 48 90t101 254t117 399q133 -24 248 25z" />
    <glyph glyph-name="Merlin" unicode="&#xe043;" horiz-adv-x="1376" 
d="M420 369q0 -35 75 -35t99 -15l-176 -79q6 -12 16 -31l-6 -33l29 -6l14 -14q-45 -23 -97 -70t-100 -79t-106 -32q-25 0 -25 25v907q0 254 165 411t383 157t380 -156t162 -412v-911q0 -23 -8 -23t-25 23q-70 104 -111 145t-93 82t-78 68t-37 65q-39 129 157 189
q-41 37 -54 71t-8 86q5 51 3 85t-27 85l35 68l-37 -20q-11 8 0 30l2 8q-3 -7 -18 -15q-14 -9 -24 -4t-1 40q-2 -7 -13 -19q-10 -12 -22 -7t-2 46q-2 -8 -15 -22t-22 -6t5 47q-29 -43 -38 -34t-1 54q-5 -14 -19 -30t-21 -6t1 63l-13 -26q-15 -25 -18 -26q-2 -1 -8 4t-6 40
t2 39q-31 -63 -37 -66q-10 16 -10 105q-16 -94 -31 -91q-14 18 -25 132l-2 -21q-11 -111 -28 -94q-12 16 -30 96q-17 80 -19 111v-195q2 -23 -15 -31q8 -8 17 -34v-41q-74 2 -106 -64t18 -104q-18 39 10 63q16 8 18 -6q0 -20 -16 -63t-17 -50l9 -53q0 -4 -19 -22t-33 -41
q-23 -38 -34 -49t-11 -19q0 -18 22 -18t21 -31l-6 -23q12 -6 13 -20l-5 -25q25 0 25 -24z" />
    <glyph glyph-name="N.ss1" unicode="&#xe044;" horiz-adv-x="1300" 
d="M516 0h-414v907l547 609l549 -609v-907h-414v715l-135 155l-133 -155v-715z" />
    <glyph glyph-name="N.ss2" unicode="&#xe045;" horiz-adv-x="1146" 
d="M997 117l-2 233l-778 981v-248zM-41 1378v56h258l778 -981v925h-202v56h469v-56h-205l2 -1439l-842 1048v-932h211v-55h-469v55h197v1323h-197z" />
    <glyph glyph-name="N.ss3" unicode="&#xe046;" horiz-adv-x="1376" 
d="M164 0v1487l641 -625v576h407v-1487l-643 614v-565h-405z" />
    <glyph glyph-name="N.ss4" unicode="&#xe047;" horiz-adv-x="1611" 
d="M266 92h496l-313 254v485l897 -702v1212h-496l313 -254v-493l-897 706v-1208zM164 0v1505l903 -717v259l-483 387h864v-1510l-903 703v-240l483 -387h-864z" />
    <glyph glyph-name="N.ss5" unicode="&#xe048;" horiz-adv-x="1437" 
d="M164 0v1473q33 1 120 -47t215 -152t257 -244t253 -350q124 -211 195 -444q-4 206 -57 402t-123 332t-146 246t-123 161q-48 52 -59 57h578v-1473q-10 4 -78 50t-194 158t-258 256q-132 143 -274 371t-239 478q5 -209 57 -416t123 -353t145 -265q74 -120 124 -178
q49 -58 59 -62h-575z" />
    <glyph glyph-name="O.ss1" unicode="&#xe049;" horiz-adv-x="1728" 
d="M864 1163q-84 0 -133 66q-6 -80 -81 -125t-152 -8q33 -74 -6 -150q-45 -72 -130 -82q70 -49 70 -133t-67 -135q81 -8 125 -82t8 -152q78 37 151 -8q72 -41 82 -123q51 68 135 68t133 -70q10 82 81 127t151 9q-37 78 8 149q41 72 125 82q-68 51 -68 135t70 133
q-88 10 -127 82q-45 70 -8 150q-80 -37 -150 8q-72 39 -82 127q-51 -68 -135 -68zM864 1493q66 0 114 -44t52 -110q35 55 96 69t119 -22q59 -31 77 -91t-11 -119q59 32 119 12t92 -78q36 -58 22 -120t-69 -97q67 -4 109 -50t42 -113t-42 -113t-107 -52q53 -35 67 -97
t-20 -120t-92 -76q-59 -18 -119 11q29 -59 9 -119t-76 -93q-58 -34 -120 -21t-98 69q-4 -66 -51 -108t-113 -42t-112 42t-52 108q-35 -53 -96 -67t-119 18q-55 33 -74 93t5 118q-58 -27 -118 -8t-93 75t-19 120q14 62 66 97q-63 6 -106 52q-42 46 -44 112q2 66 45 113
t107 51q-53 37 -68 98q-14 61 19 117t93 76t118 -6q-26 59 -8 118t75 95q55 31 117 17t100 -65q6 63 52 107t112 43z" />
    <glyph glyph-name="O.ss2" unicode="&#xe04a;" horiz-adv-x="1695" 
d="M1268 963q-88 9 -162 -9t-119 -52q-95 -72 -121 -130l-12 -27q37 207 217 277q158 60 322 -14t198 -232q18 -86 -6 -180q14 131 -78 239t-239 128zM1325 797q-78 41 -154 51t-156 -12t-134 -72l-21 -21q109 186 311 183q166 -2 296 -133t94 -308q-16 -70 -62 -137
q59 114 9 250t-183 199zM690 1178q-37 -150 -6 -249t86 -149l57 -49q-221 80 -241 295t142 355q163 140 378 42q-125 37 -248 -35t-168 -210zM1159 350q-4 82 -34 151q-31 69 -65 107q-81 88 -183 115q235 0 327 -197t-11 -385t-339 -168q129 7 221 117t84 260zM543 1096
q4 -104 43 -182t95 -118q87 -60 142 -73q-235 0 -327 196t12 383t342 168q-131 -8 -222 -118t-85 -256zM426 487q88 -11 163 7t119 51q94 71 121 131l13 24q-37 -207 -217 -274q-158 -60 -322 14t-201 232q-18 86 7 182q-14 -131 78 -240t239 -127zM678 270q86 55 143 142
t46 229q-3 37 -9 57q113 -195 -2 -370q-86 -135 -250 -176q-190 -49 -323 75q-51 49 -84 119q74 -110 213 -134t266 58zM432 969q35 -83 87 -139q51 -56 103 -78q106 -44 175 -39l28 2q-221 -81 -375 71t-121 365q34 213 263 276q-119 -53 -167 -186t7 -272zM1018 1178
q-74 -46 -119 -106t-60 -107t-16 -112t13 -108q-111 197 2 373q88 137 252 178q188 49 319 -73q51 -47 84 -117q-76 104 -212 128t-263 -56zM1159 1087q-84 -18 -147 -59t-94 -88q-60 -90 -70 -166l-2 -29q-39 219 123 347q133 106 313 84t262 -177q33 -63 41 -143
q-33 126 -158 196t-268 35zM844 240q53 70 76 144t11 158q-12 85 -48 138l-17 25q170 -141 129 -343q-33 -160 -183 -266t-318 -37q-66 29 -125 86q103 -78 245 -51t230 146zM532 358q86 18 150 60t94 90q59 90 72 164l2 28q39 -217 -123 -344q-135 -106 -316 -85t-261 178
q-33 63 -41 145q31 -127 155 -198t268 -38zM373 813q59 -65 128 -99t152 -38t150 20l26 13q-172 -143 -364 -64q-145 61 -217 207q-86 178 8 332q39 66 109 114q-94 -88 -93 -232t101 -253zM373 647q141 -63 243 -50t162 60l58 48q-109 -186 -308 -185q-168 2 -298 132
t-95 304q16 74 64 144q-59 -115 -8 -250t182 -203zM897 696l-25 17q221 -80 243 -296q22 -215 -140 -357t-379 -44q127 -35 250 38t169 227t-7 261q-53 106 -111 154zM1268 475q-35 80 -87 136q-53 56 -105 79q-109 48 -175 43l-29 -2q223 80 378 -74q155 -155 122 -367
t-264 -276q119 54 167 188t-7 273zM1325 637q-59 63 -128 98t-153 39t-149 -24l-27 -11q170 145 363 68q145 -59 217 -207q88 -176 -4 -330q-39 -68 -111 -118q94 90 93 233t-101 252zM858 1200q-159 -197 -61 -405q14 -33 30 -56q-166 143 -122 344q35 162 174 258
q162 111 329 37q63 -27 119 -82q-99 78 -241 52t-228 -148z" />
    <glyph glyph-name="O.ss3" unicode="&#xe04b;" horiz-adv-x="1677" 
d="M1055 1411l-4 4q3 -2 4 -4zM1505 399q47 58 29 106t-47 39q-29 -10 -95 -68q-144 -129 -228 -70q-46 31 -73 88q-28 57 -56 115t-77 92t-118 16q68 25 118 -1t83 -77q32 -51 61 -102q69 -122 166 -91q42 18 108 70t90 59q66 20 84 -36q20 -66 -45 -140zM1284 1294
q-49 74 -115 68q-43 -4 -41 -39v-6q2 -25 48 -101t56 -134q11 -60 -26 -101t-99 -58q-61 -17 -125 -33t-106 -60q-42 -42 -36 -113q-12 72 22 117q35 46 91 68q57 22 113 41q135 45 120 147q-12 46 -52 118t-44 99q-8 68 49 75q66 12 127 -61q10 -13 18 -27zM127 522
q0 10 2 21q-4 -80 43 -111t70 6q12 20 23 108t42 140q31 53 86 60q55 6 113 -20t118 -52q141 -64 216 43q-68 -112 -202 -70q-56 19 -112 39q-132 49 -186 -41q-23 -39 -39 -121t-29 -102q-35 -58 -90 -24t-55 124zM1126 217q84 0 109 -8q59 -25 37 -84t-109 -78
q-21 -4 -41 -4q86 6 117 68q25 47 -14 61q-25 10 -113 6t-142 16t-76 60q-22 41 -11 88q10 47 22 103l21 105q22 115 -86 167q70 -25 94 -78t14 -113t-21 -117q-27 -141 70 -178q45 -14 129 -14zM643 6q61 -35 109 -9t26 60q-12 21 -82 75q-136 106 -114 196q10 46 49 76
t84 65t85 67q90 72 40 181q36 -63 20 -119t-62 -92q-46 -37 -91 -80t-67 -81t9 -97q25 -39 86 -94t74 -78q33 -59 -27 -91t-139 21zM1146 319q54 0 132 27t100 27q61 -2 66 -58q5 -79 -101 -129q70 34 73 90t-34 58q-26 2 -108 -31t-133 -35q-132 4 -146 154q-6 63 -11 128
t-39 113t-105 54q72 -2 110 -43q38 -42 51 -100q11 -58 21 -116t40 -98t84 -41zM463 1260q23 -10 109 -6t135 -15q125 -45 86 -192q-17 -61 -33 -123q-40 -150 80 -207q-68 25 -92 77t-14 110l20 116q25 140 -68 176q-43 16 -127 18t-106 11q-61 23 -39 82t104 75q16 4 33 4
q-80 -6 -109 -65q-18 -47 21 -61zM109 793q-27 -69 7 -113t66 -16q18 14 60 93q41 79 77 111q55 45 111 33t99 -58q108 -119 195 -153q48 -18 116 27q-54 -45 -112 -39t-101 44q-116 103 -186 127q-42 15 -95 -26q-35 -31 -79 -101t-62 -85q-53 -45 -94 11t-2 145zM152 918
q14 -41 44 -30t96 70t122 81q57 22 104 -9t74 -89q26 -59 54 -117t76 -92t118 -15q-56 -20 -102 -5t-78 58t-102 159q-55 87 -146 56q-43 -16 -108 -67t-89 -60q-61 -25 -84 41t49 139q-53 -61 -28 -120zM535 1116q-52 0 -131 -26t-103 -27q-61 0 -65 55q-4 61 67 111
q14 10 33 18q-72 -37 -73 -92t36 -57q25 0 107 34q175 73 238 -11q34 -45 40 -109t11 -128t39 -113q34 -48 106 -54q-72 0 -111 41t-51 100q-12 60 -22 118t-39 99q-30 41 -82 41zM899 -18q66 -12 104 28t7 68q-18 16 -102 41t-126 57q-47 41 -52 88t21 89t56 90
q31 49 57 91t22 91q-3 49 -46 92q55 -47 59 -105t-27 -106q-32 -50 -58 -106t-34 -100t41 -89q35 -29 113 -59t96 -46q53 -44 6 -94t-137 -30zM805 1442q-82 27 -131 -25q-35 -35 -2 -61q18 -18 101 -43t125 -63t48 -84t-18 -87t-56 -89t-58 -90t-22 -91t48 -92
q-55 47 -61 104q-5 57 26 107q75 120 93 204q18 82 -153 148q-78 31 -96 45q-51 43 -1 98q49 55 157 19zM1550 879q10 88 -45 129q-43 29 -61 -7q-14 -23 -26 -111q-27 -188 -128 -203q-55 -7 -113 20q-57 27 -117 55t-120 20q-60 -6 -100 -65q37 63 93 77q55 14 113 -4
q58 -20 113 -40q136 -51 184 38q23 43 37 125t27 105q35 57 88 22q61 -37 59 -131q-2 -14 -4 -30zM899 1374q10 -23 81 -75t93 -97q31 -53 21 -99t-47 -77q-37 -30 -82 -64t-85 -65t-54 -78t14 -102q-31 53 -25 101t38 81q64 66 143 133q114 98 -53 246q-62 55 -75 76
q-34 57 26 90t136 -17q-60 31 -106 7t-25 -60zM1561 627q39 78 -2 135q-31 39 -62 12q-18 -14 -58 -92q-79 -153 -175 -147q-47 3 -83 33t-78 69t-79 72q-84 75 -184 8q55 47 112 42q56 -5 100 -43q117 -102 191 -129q73 -27 166 127q43 71 61 87q54 43 96 -11t5 -143z
M129 543q0 2 1 5q-1 -2 -1 -5zM1452 1127q2 -7 4 -15zM1452 1127q-22 65 -74 82t-63 -19v-6q-6 -25 11 -111q37 -190 -53 -233q-50 -25 -115 -20q-66 5 -130 11q-64 7 -117 -19t-71 -95q14 69 62 101t108 34t118 1q140 -2 158 101q10 49 -1 132t-9 102q12 61 74 52t94 -87z
M231 302q-3 9 -6 20zM231 302q23 -63 78 -81q49 -12 60 27q7 26 -13 112q-43 190 50 234q50 26 114 20t128 -11t119 20q54 25 73 94q-12 -72 -60 -104q-48 -31 -109 -33q-59 -2 -119 -1q-145 2 -163 -100q-8 -45 6 -129t11 -106q-12 -62 -72 -54t-94 84zM409 124
q-5 6 -10 13zM409 124q44 -56 97 -52t51 41v6q-2 27 -50 101q-103 158 -33 235q38 41 100 58t124 33t106 58q42 41 36 113q12 -70 -22 -116q-34 -45 -89 -67t-111 -41t-92 -55t-26 -89q10 -52 49 -126t43 -96q10 -63 -52 -75t-118 54z" />
    <glyph glyph-name="O.ss4" unicode="&#xe04c;" horiz-adv-x="1714" 
d="M1432 717l-144 438l-434 170l-428 -170l-143 -438l143 -432l428 -152l434 152zM1612 717q0 -311 -222 -531t-534 -221q-312 1 -532 221q-218 220 -218 532t218 532t530 220q310 0 534 -221t224 -532z" />
    <glyph glyph-name="O.ss5" unicode="&#xe04d;" horiz-adv-x="1656" 
d="M168 720q0 -140 189 -238t469 -99q280 0 471 98q191 99 191 239t-190 238q-192 98 -472 98t-469 -98t-189 -238zM102 719q0 311 209 529t516 218t517 -218t210 -529t-209 -529q-209 -217 -517 -217q-308 -1 -517 217t-209 529z" />
    <glyph glyph-name="P.ss1" unicode="&#xe04e;" horiz-adv-x="976" 
d="M205 575h356q263 0 377 194q59 100 59 243t-106 263t-330 120h-356v-820zM561 537h-356v-537h-41v1434h397q221 0 349 -126t128 -314t-129 -323q-129 -134 -348 -134z" />
    <glyph glyph-name="P.ss2" unicode="&#xe04f;" horiz-adv-x="1089" 
d="M575 23q49 -25 112 -25t81 27l8 -15q-30 -30 -84 -30t-168 32q-115 32 -214 31q-99 0 -211 -32t-162 -31t-80 30l8 15q27 -27 78 -27q229 0 229 702v208q0 147 -8 201t-20 127t-47 125q-34 52 -64 67q-80 39 -168 -11l-8 15q19 8 43 19t71 11t162 -32t202 -31
q87 0 222 32t229 31q193 0 298 -114t106 -269q0 -197 -143 -340t-312 -143q-121 0 -213 68q-39 31 -63 69l16 8q12 -20 41 -45q59 -43 129 -43q100 0 183 109t83 281t-74 278q-75 106 -163 106t-144 -50q-99 -89 -120 -353q-10 -111 -11 -262v-62q0 -362 47 -499
q48 -137 129 -178z" />
    <glyph glyph-name="P.ss3" unicode="&#xe050;" horiz-adv-x="880" 
d="M324 1096v-242h208q138 0 168 11t58 30t28 68q0 77 -31 101t-94 28t-129 4h-208zM0 1096v338h532q174 0 241 -86t67 -291v-209q0 -174 -85 -253t-223 -79h-208v-178h233v-338h-516v338h223v758h-264z" />
    <glyph glyph-name="P.ss4" unicode="&#xe051;" horiz-adv-x="1253" 
d="M557 496q129 0 233 78q166 124 164 388q0 108 -41 198q-41 91 -99 133q-123 89 -216 91l-41 5v-893zM821 1434q209 0 362 -148t153 -355q0 -209 -173 -357q-172 -148 -413 -148l-193 8v-434h-393v1434h657z" />
    <glyph glyph-name="P.ss5" unicode="&#xe052;" horiz-adv-x="1257" 
d="M805 637q150 0 256 105t106 257t-106 257q-106 106 -256 106t-256 -106q-107 -106 -107 -257q0 -150 106 -256t257 -106zM796 1473q228 -1 355 -143t127 -334t-139 -330t-347 -140q-208 0 -356 176v-585h293q25 1 42 -17t17 -42t-17 -41t-42 -17h-684q-25 0 -41 17
t-16 41t16 41t41 18h277v1200h-347q-23 0 -40 17t-17 41t17 41t40 18h404q25 0 41 -18t16 -40v-88q132 185 360 185z" />
    <glyph glyph-name="Q.ss1" unicode="&#xe053;" horiz-adv-x="1243" 
d="M172 719q0 -383 437 -383t438 383t-437 383t-438 -383zM1071 -311v-389q-186 0 -325 192q-138 193 -158 477q-195 11 -330 229t-135 525t142 527t343 220t344 -220q144 -220 144 -524t-132 -520t-323 -237q41 -280 430 -280z" />
    <glyph glyph-name="Q.ss2" unicode="&#xe054;" horiz-adv-x="1687" 
d="M332 711q0 -103 8 -189t40 -189t85 -173t150 -118t229 -48q512 0 512 717t-512 716q-512 1 -512 -716zM102 710q0 316 213 529t529 213t528 -213q213 -213 213 -528q0 -268 -159 -469t-410 -254l-60 -25q-218 -85 -403 -125q289 -75 468 -113q180 -38 313 -38
q132 0 198 50t102 130h17q-9 -15 -27 -63q-60 -154 -143 -216q-85 -61 -224 -61t-477 87t-430 87q-90 0 -141 -39q-25 -18 -33 -37l-20 13q43 73 66 115q48 87 90 102q24 8 57 8l94 -8q67 1 175 29t183 59l76 28l-53 -2q-315 0 -529 213q-213 212 -213 528z" />
    <glyph glyph-name="Q.ss3" unicode="&#xe055;" horiz-adv-x="1720" 
d="M958 340v-162q190 37 317 190q126 152 126 368t-157 369t-384 153t-384 -154q-157 -152 -157 -368t123 -368t316 -188v160q0 82 -119 82v31h438v-31q-119 0 -119 -82zM639 -315v30q111 0 119 74v184q-281 37 -468 249q-188 212 -188 511t222 518t536 219t536 -219
t222 -519t-190 -512t-470 -249v-182q8 -74 119 -74v-30h-438z" />
    <glyph glyph-name="Q.ss4" unicode="&#xe056;" horiz-adv-x="966" 
d="M606 1130q0 52 -36 88t-87 36t-87 -36t-36 -88v-829q0 -51 36 -87t86 -36t86 35t38 86v831zM143 301v829q-1 140 99 240t241 100t241 -99t99 -241v-831q0 -133 -90 -228t-221 -108q-20 -29 -20 -59q0 -102 122 -103h140v-270h-138q-118 0 -168 73t-50 173t53 186
q-131 13 -219 109t-89 229z" />
    <glyph glyph-name="Q.ss5" unicode="&#xe057;" horiz-adv-x="1499" 
d="M512 961v-603l252 -145l235 145v603l-243 122zM1481 -170l-375 -178l-963 502v1011l613 328l612 -328v-970l-276 -172z" />
    <glyph glyph-name="R.ss1" unicode="&#xe058;" horiz-adv-x="1116" 
d="M342 764h66q100 0 176 78t76 186t-70 172q-70 66 -176 66h-72v-502zM164 0v1434h250q190 0 310 -112t120 -282t-119 -276h330v-764h-178v596h-535v-596h-178z" />
    <glyph glyph-name="R.ss2" unicode="&#xe059;" horiz-adv-x="1193" 
d="M383 780h276q109 0 171 64t62 164q0 102 -60 160q-62 58 -173 59h-276v-447zM616 573h-233v-573h-219v1434h514q200 0 316 -119t116 -305q0 -113 -54 -207t-151 -141q160 -84 160 -333t88 -317v-12h-229q-27 16 -52 94q-24 78 -24 211t-60 201t-172 67z" />
    <glyph glyph-name="R.ss3" unicode="&#xe05a;" horiz-adv-x="1030" 
d="M168 1438q30 -6 259 -6q230 0 354 -82t124 -222q-1 -68 -29 -130q-46 -100 -149 -178q-61 -46 -106 -66q188 -80 264 -172t81 -234t-12 -366q-20 12 -65 16l-70 -4q50 277 7 456q-15 66 -86 122q-127 99 -347 173q111 31 191 82q82 45 137 118t55 169t-92 162t-258 65
l-104 -6q-14 0 -23 -2q-6 -81 -6 -477t3 -544q3 -150 7 -219t4 -97q-68 6 -93 6t-50 -6q0 47 8 211q6 387 6 508t-4 405t-6 318z" />
    <glyph glyph-name="R.ss4" unicode="&#xe05b;" horiz-adv-x="1097" 
d="M459 1149v-377l225 377h-225zM459 0h-295v1434h1001l-430 -729l424 -705h-338l-362 600v-600z" />
    <glyph glyph-name="R.ss5" unicode="&#xe05c;" horiz-adv-x="901" 
d="M639 1219v-404q0 -59 -59 -59h-244v522h246q57 0 57 -59zM754 797v442q0 74 -41 114t-115 40h-496v-115h113v-1122h-113v-115h332v115h-98v485h63l306 -485h-91v-115h308v115h-88l-312 485h74q158 0 158 156zM377 797h203q18 0 18 18v404q0 18 -16 18h-205v-440z
M795 1239v-442q-1 -97 -59 -147t-138 -50l256 -403h109v-197h-390v197h60l-254 403h-2v-403h98v-197h-414v197h113v1040h-113v197h537q84 0 140 -54t57 -141z" />
    <glyph glyph-name="S.ss1" unicode="&#xe05d;" horiz-adv-x="1292" 
d="M209 -84q-93 0 -161 68t-68 151q0 84 39 146q40 61 106 88q15 8 35 15q323 110 846 302l-836 447q-47 27 -61 65t3 71q17 32 56 40l612 153q10 4 13 0l-11 -8l-567 -211l1049 -479q70 -34 68 -100t-68 -107l-942 -610q-55 -31 -113 -31z" />
    <glyph glyph-name="S.ss2" unicode="&#xe05e;" horiz-adv-x="1316" 
d="M1296 391q0 -170 -178 -289q-178 -118 -456 -118t-480 77q-88 33 -147 80l14 322h29v-68q0 -131 171 -205t388 -74t347 72t130 176t-113 170t-273 108t-322 89q-160 47 -273 137t-113 224q0 158 165 262t439 104t439 -74q86 -37 125 -71l-14 -291h-25q0 313 -545 313
q-164 0 -282 -57t-119 -166q0 -80 81 -139q80 -59 202 -94t264 -79t263 -89q123 -45 203 -127t80 -193z" />
    <glyph glyph-name="S.ss3" unicode="&#xe05f;" horiz-adv-x="1458" 
d="M1317 1313l-211 -221q-31 35 -82 61q-102 59 -276 78q-252 20 -396 -17q-45 -172 49 -309q78 -109 174 -164l146 168l205 -172l172 207q42 -31 104 -82t119 -127q70 -102 49 -225q-10 -57 -33 -102l-207 -211v2l-212 -224q-173 -19 -398 1t-348 90q-59 31 -90 67l213 219
q25 -31 80 -59q119 -66 276 -78q283 -25 490 12q51 170 -47 318q-44 61 -98 106t-83 60l-153 -179l-203 168l-170 -192q-152 121 -216 214q-65 93 -44 218q10 57 33 102l159 162h-2l246 256q131 25 328 9q196 -16 336 -89q61 -34 90 -67z" />
    <glyph glyph-name="S.ss4" unicode="&#xe060;" horiz-adv-x="1095" 
d="M469 1411q-72 0 -113 -43q-41 -42 -41 -110q-1 -68 55 -130t140 -104q204 -104 360 -214q84 -58 140 -152t55 -207q0 -189 -140 -331q-139 -142 -351 -142t-352 110q-140 111 -140 291q0 141 105 239t243 98t221 -60q82 -62 82 -154q0 -119 -123 -195q-53 -33 -123 -49
l-6 18q41 0 97 66q55 66 55 153t-53 139t-159 52q-107 0 -171 -82t-64 -230t112 -253t268 -105t276 98q121 98 121 259q0 131 -78 231t-189 164q-110 64 -220 124t-188 142t-77 184q0 102 70 164q70 63 170 64q45 0 129 -13t130 -13t83 24l8 -10q-39 -35 -59 -88t-23 -158
h-14q-8 61 -37 110q-68 113 -199 113z" />
    <glyph glyph-name="S.ss5" unicode="&#xe061;" horiz-adv-x="1167" 
d="M647 1100q-135 0 -135 -72q0 -41 63 -85t153 -92q90 -47 181 -105q89 -58 153 -143t64 -185q0 -205 -164 -328t-382 -123q-129 0 -252 34t-181 69l-57 32v439q27 -23 72 -56t175 -88t247 -55t116 70q0 37 -65 82q-66 45 -160 96t-188 113q-94 61 -160 157t-66 209
q-1 162 139 283t369 121q123 0 234 -26t160 -52l49 -27v-407q-59 47 -172 93t-193 46z" />
    <glyph glyph-name="T.ss1" unicode="&#xe062;" horiz-adv-x="919" 
d="M-82 1059v375h1083v-375h-524l174 -1059h-342l154 1059h-545z" />
    <glyph glyph-name="T.ss2" unicode="&#xe063;" horiz-adv-x="944" 
d="M649 1090v-988l-174 -168l-172 168v988h-221l-164 344h1108l-164 -344h-213z" />
    <glyph glyph-name="T.ss3" unicode="&#xe064;" horiz-adv-x="956" 
d="M403 0q27 1274 27 1343q-215 0 -450 -40v131h997v-131q-255 40 -451 40q0 -261 10 -721t17 -622h-150z" />
    <glyph glyph-name="T.ss4" unicode="&#xe065;" horiz-adv-x="1185" 
d="M594 1434q322 0 476 8t177 8l-59 -55q-131 -164 -64 -412q31 -107 99 -209q-115 35 -195 109q-197 176 -184 495q-45 8 -119 15q-27 -492 47 -1010q31 -221 76 -383h-510q45 162 76 383q70 494 47 1010q-74 -6 -119 -15q8 -324 -184 -495q-80 -74 -195 -109
q66 104 96 209q66 238 -63 412l-57 55q22 0 177 -8q156 -8 478 -8z" />
    <glyph glyph-name="T.ss5" unicode="&#xe066;" horiz-adv-x="1187" 
d="M45 678h-45v756h1188v-756h-45q0 291 -152 470t-379 189l193 -1337h-422l192 1337q-229 -10 -379 -189t-151 -470z" />
    <glyph glyph-name="U.ss1" unicode="&#xe067;" horiz-adv-x="1001" 
d="M246 1352h127v-1143h256v1143h127v-1196l-74 -74h-363l-73 74v1196zM797 1393h-209v-1143h-174v1143h-209v-1258l94 -94h403l95 94v1258zM164 1434h291v-1143h92v1143h291v-1319l-115 -115h-444l-115 115v1319z" />
    <glyph glyph-name="U.ss2" unicode="&#xe068;" horiz-adv-x="1171" 
d="M623 168h-74q-38 0 -82 22h238q-39 -22 -82 -22zM801 1227h22v-860l-22 -76v936zM348 1227h25v-936q-21 39 -25 76v860zM307 1270v-858q0 -115 82 -197t197 -82q114 0 196 82t82 197v858h-100v-1037h-356v1037h-101zM283 412v882h147v-1038h311v1038h148v-882
q0 -125 -89 -213t-218 -88t-214 92t-85 209zM238 1339v-927q0 -144 102 -246t246 -102t245 100q102 102 103 248v927h-234v-1042h-229v1042h-233zM213 412v952h281v-1045h184v1045h280v-952q0 -154 -110 -262t-259 -109q-150 1 -263 105t-113 266zM168 1409v-997
q0 -172 122 -295t296 -123t296 123t122 295v997h-365v-1049h-107v1049h-364zM143 412v1022h412v-1051h61v1051h412v-1022q0 -180 -132 -310t-315 -131q-183 0 -311 133q-127 134 -127 308z" />
    <glyph glyph-name="U.ss3" unicode="&#xe069;" 
d="M154 1434h282v-1086l64 -80h180l63 80v1086h283v-1188l-205 -246h-463l-204 246v1188z" />
    <glyph glyph-name="U.ss4" unicode="&#xe06a;" horiz-adv-x="1400" 
d="M516 416q0 -128 75 -226t207 -98t209 90t76 228v856q0 86 -100 106q-35 10 -35 36t27 26h317q27 0 27 -26t-35 -36q-2 0 -8 -2t-10 -3q-82 -20 -82 -101v-840q0 -197 -128 -325t-339 -128t-345 124t-134 349v826q-6 44 -23 58q-15 16 -23 20t-17 9t-15 6t-14 4t-9 3
q-35 10 -35 36t27 26h496q27 0 26 -27q0 -25 -35 -35q-12 -5 -20 -6q-37 -7 -65 -45q-10 -17 -15 -49v-856z" />
    <glyph glyph-name="U.ss5" unicode="&#xe06b;" horiz-adv-x="1306" 
d="M903 0h-500q-104 0 -177 58t-72 180v950l219 348v-1315h561v1315l219 -348v-950q0 -238 -250 -238z" />
    <glyph glyph-name="V.ss1" unicode="&#xe06c;" horiz-adv-x="1058" 
d="M1100 1505l-551 -1589l-590 1591l590 -1085z" />
    <glyph glyph-name="V.ss2" unicode="&#xe06d;" horiz-adv-x="1140" 
d="M702 88l424 1081q43 113 -10 199l-430 -1225zM625 82l18 49l-18 55l-17 -49zM547 76l14 39l-20 55l-11 -39zM469 70l10 30l-430 1194zM522 227l-332 957l320 -991zM565 360l-256 766l244 -804zM606 242l-22 65l-15 -45l21 -65zM901 1348l-289 -945l23 -77l272 778
q51 146 -6 244zM670 203l348 934q49 129 -10 221l-357 -1090zM676 1434h567l-534 -1434h-23l-24 74l-27 -74h-35l-18 55l-19 -55h-47l-14 39l-13 -39h-59l-532 1434h426l274 -975l201 612q71 229 -50 327q-28 22 -51 27z" />
    <glyph glyph-name="V.ss3" unicode="&#xe06e;" horiz-adv-x="1021" 
d="M20 1026v408h261v-408q-1 -242 69 -427t144 -277l22 -23q0 2 4 6l15 14q71 83 141 273t69 434v408h256v-408q0 -498 -243 -840q-111 -153 -242 -243q-139 84 -248 229q-248 326 -248 854z" />
    <glyph glyph-name="V.ss4" unicode="&#xe06f;" horiz-adv-x="964" 
d="M315 0l-307 1434h348q84 -506 100 -669t21 -562h8q16 421 25 558q15 217 98 673h348l-307 -1434h-334z" />
    <glyph glyph-name="V.ss5" unicode="&#xe070;" horiz-adv-x="1032" 
d="M539 84l397 1341q-26 -8 -54 -40t-40 -70l-303 -1051v-180zM512 94l-428 1331q-37 -74 -21 -139q301 -988 337 -1104t112 -182v94zM1001 1270l-350 -1137q-33 -109 -133 -176l-4 -2q-104 74 -133 178l-350 1137q-25 110 28 176l21 27q12 -5 32 -13t59 -47q40 -39 56 -94
l289 -995l289 995q16 55 53 94t66 49l28 11q39 -39 46 -70t12 -65t-9 -68z" />
    <glyph glyph-name="W.ss1" unicode="&#xe071;" horiz-adv-x="1404" 
d="M899 1434h55l-135 -457l191 -666l321 1123h53l-436 -1522l-227 793l-225 -793l-476 1522h185l338 -1145l151 510l-182 635h178l105 -367z" />
    <glyph glyph-name="W.ss2" unicode="&#xe072;" horiz-adv-x="1236" 
d="M164 0v1434h106v-1342h297v1342h103v-1342h297v1342h106v-1434h-909z" />
    <glyph glyph-name="W.ss3" unicode="&#xe073;" horiz-adv-x="1298" 
d="M1360 1434l-328 -1147l82 -287h-414l82 287l-133 506l-133 -506l82 -287h-414l82 287l-327 1147h387l-70 -240l135 -512l133 508l-69 244h389l-70 -244l133 -508l133 508l-69 244h389z" />
    <glyph glyph-name="W.ss4" unicode="&#xe074;" horiz-adv-x="1636" 
d="M864 1434l-311 -752l-309 752h73l236 -572l238 572h73zM1397 1434l-312 -752l-155 373l160 379h73l-153 -381l75 -191l238 572h74zM1548 1434l-461 -1121l-268 648l-266 -644l-461 1117h78l383 -928l383 928h78l-156 -379l229 -553l383 932h78zM1698 1434l-615 -1491
l-266 647l-264 -647l-614 1491h77l537 -1303l264 643l266 -643l537 1303h78z" />
    <glyph glyph-name="W.ss5" unicode="&#xe075;" horiz-adv-x="1349" 
d="M285 33l-324 1394q-8 35 32 45t48 -26l311 -1340q8 -35 19 -22q4 6 8 22l223 1074q14 68 76 70t80 -70l221 -1074q12 -59 27 0l303 1334q6 27 28 33q23 5 40 -11t12 -43l-318 -1386q-16 -70 -82 -69t-80 69l-219 1073q-10 47 -20 0l-224 -1073q-8 -43 -45 -59t-73 2
t-43 57z" />
    <glyph glyph-name="X.ss1" unicode="&#xe076;" horiz-adv-x="927" 
d="M43 1434h844l-422 -701zM907 0h-887l445 733z" />
    <glyph glyph-name="X.ss2" unicode="&#xe077;" horiz-adv-x="1169" 
d="M774 82h354l-733 1270h-354zM1036 1434h107l-371 -562l500 -872h-555l-277 483l-313 -483h-107l373 567l-495 867h555l272 -478z" />
    <glyph glyph-name="X.ss3" unicode="&#xe078;" horiz-adv-x="1021" 
d="M510 272q18 18 47 60q-37 43 -47 57q-34 -52 -45 -57q20 -31 45 -60zM557 1100q-29 41 -47 59q-25 -29 -45 -59q25 -29 45 -60q29 42 47 60zM625 977q-20 45 -35 72q-27 -37 -45 -66q20 -39 37 -90q25 51 43 84zM477 983q-18 29 -45 66q-23 -37 -37 -72q18 -27 45 -84
q17 51 37 90zM590 383q23 43 37 76q-23 35 -45 82q-16 -45 -37 -92q18 -29 45 -66zM432 383q18 25 43 66q-20 47 -37 92q-27 -57 -45 -82q27 -53 39 -76zM344 712q0 -93 25 -184q45 88 45 189v16q-2 96 -43 174q-27 -102 -27 -195zM678 710q0 99 -29 197q-37 -76 -41 -174
v-16q0 -102 43 -189q27 83 27 182zM547 717q0 96 -37 192q-35 -94 -35 -192t35 -193q37 97 37 193zM1001 188v-57q-236 0 -403 158q-10 -14 -47 -58q182 -176 450 -176v-55q-287 0 -491 193q-203 -193 -490 -193v55q268 0 451 176q-37 43 -47 58q-168 -158 -404 -158v57
q213 0 369 150q-20 35 -37 68q-127 -137 -332 -138v56q193 0 308 141q-45 111 -45 247t47 261q-113 139 -310 139v55q205 0 334 -139q25 51 35 66q-154 154 -369 153v58q229 0 402 -160l49 55q-186 180 -451 180v56q285 0 490 -195q207 195 491 195v-56q-264 0 -450 -180
q33 -37 47 -55q172 160 403 160v-58q-217 0 -370 -153q8 -12 19 -32t18 -34q129 139 333 139v-55q-203 0 -309 -139q47 -125 47 -258t-45 -250q109 -141 307 -141v-56q-205 0 -331 138q-13 -17 -39 -68q156 -150 370 -150z" />
    <glyph glyph-name="X.ss4" unicode="&#xe079;" horiz-adv-x="1314" 
d="M1376 1436l-485 -656q-51 -66 0 -133l485 -647h-354l-299 395q-31 41 -67 40t-66 -40l-297 -395h-354l495 647q51 68 0 133l-495 656h354l301 -400q30 -35 66 -34t61 34l301 400h354z" />
    <glyph glyph-name="X.ss5" unicode="&#xe07a;" horiz-adv-x="1036" 
d="M276 0h-235q64 286 155 454q92 168 152 242l25 25q-27 21 -80 99q-184 268 -252 614h235q49 -330 246 -588q186 264 238 588h235q-55 -279 -148 -448t-159 -241l-24 -24q22 -18 80 -97q57 -80 97 -156t85 -202q45 -127 69 -266h-235q-49 319 -242 588
q-193 -269 -242 -588z" />
    <glyph glyph-name="Y.ss1" unicode="&#xe07b;" horiz-adv-x="796" 
d="M289 0v602q-62 44 -187 238q-68 104 -115 264q-48 160 -48 330h221q0 -205 74 -374t163 -259q92 92 166 259t74 374h221q0 -168 -47 -326t-114 -262q-125 -194 -187 -242v-604h-221z" />
    <glyph glyph-name="Y.ss2" unicode="&#xe07c;" horiz-adv-x="798" 
d="M-41 1434h881q0 -328 -84 -534t-178 -288t-148 -104l-22 -8l104 -500h-225l104 500q-25 6 -77 40t-93 74t-91 115q-171 260 -171 705z" />
    <glyph glyph-name="Y.ss3" unicode="&#xe07d;" horiz-adv-x="1206" 
d="M338 0l197 643l-637 791h473l225 -686l219 686h494l-658 -791l195 -643h-508z" />
    <glyph glyph-name="Y.ss4" unicode="&#xe07e;" horiz-adv-x="1052" 
d="M608 1272v162h424v-162h-135l-285 -799v-311h179v-162h-535v162h178v313l-284 797h-130v162h424v-162h-100l178 -557l178 557h-92z" />
    <glyph glyph-name="Y.ss5" unicode="&#xe07f;" horiz-adv-x="980" 
d="M539 512q0 -234 26 -455l10 -69q-41 10 -86 12l-83 -12q37 246 36 522q0 121 -56 254t-135 235q-79 101 -164 191t-141 137t-69 53q33 12 64 35t43 39l14 16q215 -238 330 -402t161 -327q47 162 163 328t331 401q45 -63 121 -90q-14 -6 -70 -51t-140 -132
q-85 -87 -164 -188t-135 -237t-56 -260z" />
    <glyph glyph-name="Z.ss1" unicode="&#xe080;" horiz-adv-x="1136" 
d="M86 1016v418h1071l-758 -1018h713v-416h-1132l761 1016h-655z" />
    <glyph glyph-name="Z.ss2" unicode="&#xe081;" horiz-adv-x="1064" 
d="M129 1434h889l-961 -1420q170 0 325 56t256 133q211 163 290 289l35 55v-547h-943l963 1419q-248 0 -431 -104t-271 -209t-138 -188l-14 -31v547z" />
    <glyph glyph-name="Z.ss3" unicode="&#xe082;" horiz-adv-x="1114" 
d="M889 252l196 -252h-1126l819 1300l-491 -118l-197 252h1065l-821 -1301z" />
    <glyph glyph-name="Z.ss4" unicode="&#xe083;" horiz-adv-x="1138" 
d="M897 1358h-106l-553 -965v-317h108l551 948v334zM897 76v571l-338 -571h338zM238 1358v-592l337 592h-337zM975 1434v-420l-543 -938h45l498 860v-936h-811v418l541 940h-41l-500 -860v936h811z" />
    <glyph glyph-name="Z.ss5" unicode="&#xe084;" horiz-adv-x="1103" 
d="M41 0l958 1403l-825 -31l-51 -600l-17 662h957l-959 -1403l867 30l51 601l16 -662h-997z" />
    <glyph glyph-name="ampersand.ss1" unicode="&#xe085;" horiz-adv-x="1435" 
d="M236 1024q-31 0 -31 35q0 20 16 20l29 -12l24 4q12 0 12 -13q0 -14 -14 -24q-16 -10 -36 -10zM352 547q0 41 30 63t45 23q15 0 15 -4q0 -3 -26 -19t-25 -39q0 -23 17 -22l30 8q18 0 18 -31t-24 -30q-8 0 -14 10t-12 10l-27 -10q-27 0 -27 41zM803 1311q-1 20 -133 20
t-240 -76t-106 -225q0 -74 45 -131t98 -84t98 -46t45 -28q0 -14 -26 -22q-26 -7 -81 -21q-54 -14 -95 -36q-104 -51 -105 -183q0 -53 43 -53q12 0 36 13t36 14q12 0 21 -24t18 -23q16 0 16 60t47 113q47 54 139 66q119 10 119 103q0 47 -45 75q-12 8 -12 0q0 -9 17 -31
q18 -22 18 -52t-17 -29q-8 0 -8 16t-21 30q-22 13 -58 15t-85 18q-227 76 -227 240q0 55 20 55q8 -1 22 -27t34 -35t26 -21t14 -36t27 -46q59 -80 138 -80q16 0 16 5t-4 5q-147 43 -148 162q1 72 49 118q87 83 351 15q133 -48 190 11q31 32 31 85t-49 96l-14 7q-7 3 -7 -6
t23 -43t23 -61t-23 -57t-30 -23t8 22t15 38q1 23 -37 48q-38 24 -71 30t-39 -2q0 -4 39 -18t74 -43q8 -7 3 -17t-20 0q-129 76 -291 76q-233 0 -315 -149q-4 -14 -18 -9q-10 6 3 32t56 67q96 80 252 80l79 -2q11 0 23 -1q12 -2 13 5zM1176 219q0 -29 -20 -53t-36 -25
q-14 1 -14 9t12 23t12 30q0 10 -15 10t-48 -19t-71 -44q-38 -24 -114 -44t-167 -20q-225 0 -361 102q-61 49 -88 105q-6 16 5 22t20 -10q29 -55 80 -98q125 -96 332 -96t329 86t121 235q0 45 -7 84t-7 53q0 66 73 66h138q20 0 20 12t-18 12h-185q-25 0 -28 -24
q-4 -25 -33 -25q-28 0 -56 18t-28 38q0 37 68 36h266q41 0 41 12t-33 11h-303q-78 0 -78 -80q0 -25 10 -65t11 -86q0 -90 -72 -166t-205 -80h-8q-27 0 -29 -10t23 -13h10q68 0 125 22q57 23 86 47q28 24 54 46t38 20q25 0 25 -55q1 -82 -99 -129t-239 -47t-217 37t-78 80
q0 23 15 38t35 15t84 -34q63 -34 84 -24q5 3 0 10t-41 17t-74 48q-37 38 -73 38q-58 0 -77 -70q-7 -24 -17 -24q-14 0 -39 84q-26 84 -65 84q-24 0 -46 -26t-30 -25q-18 1 -18 63t45 132t104 112q59 41 147 41t89 18q0 11 -119 77q-45 26 -82 82t-37 128l4 62q0 18 -14 18
l-33 -14q-27 0 -27 32q1 104 135 192t324 87q102 0 184 -16q82 -17 106 -27t24 -1t-19 15q-103 45 -319 45q-216 1 -352 -111t-136 -255q0 -49 18 -93t35 -64q15 -20 57 -60q42 -41 42 -70t-58 -82q-143 -129 -143 -278q0 -35 6 -73t41 -104q35 -67 92 -115t173 -85t272 -37
q155 0 269 40t167 90t83 122t34 108t4 85q0 50 21 74q22 24 71 24q94 0 94 102q-5 43 -12 43q-8 0 -8 -8l6 -41q0 -17 -8 -41q-2 -10 -8 -7t-5 7l4 27q0 23 -18 22q-7 0 -23 -15t-47 -16h-125q-47 0 -47 -24q-1 -10 13 -20t29 -22q15 -11 29 -47t13 -94q0 -57 -17 -109
t-36 -52q-4 0 -4 4l4 20q0 27 -33 27q-18 0 -28 -11q-11 -10 -11 -24t11 -14l14 2q25 0 25 -29zM692 1452q195 0 319 -53t124 -164q0 -59 -39 -99q-40 -40 -102 -40t-117 20q-117 33 -199 33t-123 -39t-41 -98q0 -121 174 -144q119 -18 119 -120q0 -113 -143 -132
q-80 -10 -121 -57t-41 -113t50 -117q50 -53 170 -53t186 68t67 150q0 41 -10 83t-11 68q0 106 107 107h303q123 0 123 -111q0 -69 -36 -99t-78 -30t-57 -16q-16 -16 -16 -62t-4 -83q-4 -39 -36 -115t-86 -130q-56 -54 -176 -96q-120 -43 -284 -43t-285 40q-122 40 -182 92
t-95 122t-42 111q-21 122 16 202q36 80 58 104t71 72q48 48 48 62t-39 53t-56 59t-37 69q-19 48 -19 104q0 155 143 275t397 120z" />
    <glyph glyph-name="ampersand.ss2" unicode="&#xe086;" horiz-adv-x="1193" 
d="M717 1268q0 84 59 143q60 59 144 59t143 -59t59 -143t-59 -144t-143 -59q-84 0 -144 59q-59 60 -59 144zM109 393q0 176 124 302q125 126 302 126h32l-516 615h539v-615h584l-527 -854h-112q-176 0 -302 125q-124 125 -124 301z" />
    <glyph glyph-name="ampersand.ss3" unicode="&#xe087;" horiz-adv-x="1323" 
d="M236 567q0 -170 110 -305t291 -135q131 0 207 96q4 317 4 527h-295l299 426q-285 135 -514 135l-51 -8q-21 -39 -21 -124t58 -151q105 -121 276 -121l-123 -155q-70 0 -126 -18t-77 -38l-22 -18q-16 -33 -16 -111zM506 -33q-197 1 -300 141t-104 310q0 101 66 200
q66 100 119 148l22 18q-15 4 -53 27q-122 75 -124 211q-1 135 116 291q63 86 113 122q101 73 368 -5q137 -41 219 -82l82 -41q-79 -58 -289 -344l-43 -56h613l-131 -157h-174l6 -564l-174 -239l6 231q-31 -43 -67 -82q-35 -39 -113 -84t-158 -45z" />
    <glyph glyph-name="ampersand.ss4" unicode="&#xe088;" horiz-adv-x="1327" 
d="M733 1110q0 74 -46 137t-138 63t-139 -60q-48 -62 -48 -134t36 -133t110 -135q111 68 168 128t57 134zM258 359q0 -92 86 -158t223 -66q193 0 318 150l-396 362q-113 -70 -172 -133t-59 -155zM195 1114q0 144 101 250t252 106t250 -108t99 -241q0 -132 -70 -220
t-194 -168l340 -305q88 199 84 416h166q2 -100 -25 -248t-96 -285l256 -227l-115 -125l-233 213q-176 -205 -467 -205q-203 0 -333 116t-130 284q0 131 76 221t211 174q-172 176 -172 352z" />
    <glyph glyph-name="ampersand.ss5" unicode="&#xe089;" horiz-adv-x="1361" 
d="M1434 804q0 -54 4 -79l6 -27q-141 18 -342 21q-7 -321 8 -561l4 -95q-18 -5 -90 -27t-166 -45t-240 -24q-262 0 -429 132t-166 362q0 193 127 305t319 143q-127 197 -222 326t-128 158l-33 30l12 45q389 -14 924 0q-8 -47 -8 -98t4 -80l4 -26q-172 31 -584 30
q113 -248 310 -485l-35 -39q-47 14 -111 14q-156 0 -257 -76t-101 -236q0 -158 106 -256t293 -97q71 0 139 19t99 38l30 21q18 242 -30 723q115 -16 256 -18t223 5l84 6q-10 -55 -10 -109z" />
    <glyph glyph-name="at.ss1" unicode="&#xe08a;" horiz-adv-x="1286" 
d="M164 0v1470h979v-1112q0 -162 -115 -276q-114 -114 -276 -115q-162 0 -277 115q-115 114 -115 276t115 277t277 115t276 -115q66 -66 94 -148v963h-938v-1450h-20z" />
    <glyph glyph-name="at.ss2" unicode="&#xe08b;" horiz-adv-x="1806" 
d="M845 567q56 -1 102 17t65 37l20 18v2q-133 109 -252 109q-45 0 -64 -23t-20 -49q0 -57 46 -84t103 -27zM844 958q-100 0 -199 -32l96 133q159 50 317 13q65 -15 95 -32l31 -14q-16 -137 -17 -219q0 -287 183 -287q110 0 178 91t67 186q0 182 -229 314q-228 132 -510 132
t-449 -113t-167 -325t187 -389q91 -86 244 -138t313 -52t281 33t161 55t65 40l-39 -84q-220 -165 -550 -166q-331 -2 -560 176t-229 432t251 454q252 200 584 200t554 -152t222 -324t-162 -312q-162 -139 -317 -140q-94 0 -143 55t-68 111q-12 -18 -35 -46t-97 -74t-152 -46
q-80 0 -140 48q-59 48 -59 118q0 102 120 154t285 53l80 -6q2 51 13 106q-105 47 -205 47z" />
    <glyph glyph-name="at.ss3" unicode="&#xe08c;" horiz-adv-x="1003" 
d="M571 -33q-184 0 -331 223q-148 222 -148 518t148 529t344 233q160 0 249 -150t89 -321q0 -258 -123 -426t-267 -167q-88 0 -156 89t-69 219q0 130 87 252t184 121q75 0 125 -98q29 -54 63 -139q14 -49 -36 -93t-75 -29q-8 5 -10 11q-86 244 -145 244q-28 0 -50 -53
t-22 -136q0 -84 49 -176t144 -92t149 106t55 229q0 264 -149 429q-76 84 -162 84q-218 0 -284 -386q-15 -93 -15 -187q0 -307 134 -517t323 -210q110 -1 196 112q18 27 43 11q9 -7 3 -23t-48 -60t-128 -96q-85 -52 -167 -51z" />
    <glyph glyph-name="at.ss4" unicode="&#xe08d;" horiz-adv-x="1136" 
d="M549 743q0 -49 35 -83t84 -33t84 33q34 32 34 82t-34 84q-35 34 -84 34t-84 -34t-35 -83zM842 37h172v-37h-172q-143 0 -289 55q-125 51 -229 155q-219 219 -221 521q-1 301 214 524q102 102 236 160q145 55 289 55h127v-1013h-41v157q-27 -76 -101 -124t-161 -48
q-123 0 -210 88t-87 212t87 211t210 87q66 0 118 -22t92 -66q39 -43 52 -82v564h-86q-295 0 -497 -206t-202 -493t202 -493t497 -205z" />
    <glyph glyph-name="at.ss5" unicode="&#xe08e;" horiz-adv-x="1718" 
d="M877 455q-139 0 -236 58q-96 58 -96 171q0 112 140 182t372 70q104 0 166 53q61 53 61 150t-62 189q-34 50 -110 82t-186 32t-229 -43q-118 -43 -222 -124t-170 -220q-65 -139 -65 -315t61 -319t163 -235q210 -190 492 -190q224 0 456 155q54 36 83 60l29 25q6 10 71 9
t62 -16q-202 -168 -471 -233q-118 -29 -256 -29t-288 51q-150 50 -270 146q-122 96 -196 247t-74 331t76 324t199 230q249 174 555 174q362 0 465 -218q25 -52 24 -101q0 -100 -82 -170t-241 -70q-94 0 -182 -19q-88 -18 -160 -78q-74 -60 -74 -142t53 -135t145 -53t164 37
q74 38 117 91q90 111 117 199l10 37l4 6q14 6 76 6t57 -16q-188 -389 -548 -389z" />
    <glyph glyph-name="bullet.ss1" unicode="&#xe08f;" horiz-adv-x="792" 
d="M524 510l156 176v223l-156 181h-254l-157 -181v-223l157 -176h254zM752 657l-195 -219h-319l-197 219v281l197 223h319l195 -223v-281z" />
    <glyph glyph-name="bullet.ss2" unicode="&#xe090;" horiz-adv-x="792" 
d="M-68 809q0 127 136 223t330 96q192 0 327 -96t135 -223t-135 -222t-328 -95t-329 95t-136 222z" />
    <glyph glyph-name="bullet.ss3" unicode="&#xe091;" horiz-adv-x="792" 
d="M96 981l301 205l299 -205v-346l-299 -199l-301 199v346zM614 936l-217 147l-219 -149v-252l219 -150l217 150v254z" />
    <glyph glyph-name="bullet.ss4" unicode="&#xe092;" horiz-adv-x="792" 
d="M342 928l53 274l54 -274l223 153l-150 -227l264 -53l-264 -53l150 -230l-223 156l-54 -275l-53 275l-223 -156l147 230l-262 53l262 53l-147 227z" />
    <glyph glyph-name="bullet.ss5" unicode="&#xe093;" horiz-adv-x="792" 
d="M694 796q0 116 -93 208t-202 92q84 -154 84 -310t-84 -286q117 2 206 91t89 205zM98 797q0 -115 88 -205t205 -92q-82 143 -82 304t84 292q-109 0 -202 -92t-93 -207zM398 1104q177 0 288 -87t111 -219t-111 -220t-291 -88t-290 90t-109 217q0 127 112 217t290 90z" />
    <glyph glyph-name="colon.ss1" unicode="&#xe094;" horiz-adv-x="559" 
d="M123 410q0 62 64 142q65 81 65 156q0 74 -65 154t-65 144t47 110q46 46 111 45q64 0 110 -46t46 -110q0 -63 -70 -143t-71 -154q0 -74 71 -156q126 -144 24 -248q-46 -46 -112 -46t-110 45q-45 45 -45 107z" />
    <glyph glyph-name="colon.ss2" unicode="&#xe095;" horiz-adv-x="739" 
d="M252 373q0 -49 34 -83t83 -34t84 34t34 83q0 49 -34 84q-35 35 -84 35t-83 -35t-34 -84zM164 813v422h411v-422h-411zM164 158v422h411v-422h-411zM252 1026q0 -49 34 -83t83 -34t84 34t34 83q0 49 -34 84q-35 35 -84 35t-83 -35t-34 -84z" />
    <glyph glyph-name="colon.ss3" unicode="&#xe096;" horiz-adv-x="825" 
d="M514 827q0 -41 -28 -71t-71 -29q-42 0 -72 30t-30 70v72h-69q-43 0 -72 30q-29 29 -29 71t29 72t72 30h69v67q0 41 30 72t72 31q43 0 71 -31t28 -72v-69h66q42 0 72 -29t30 -71t-30 -72t-72 -29h-66v-72zM536 190q-42 0 -71 29l-51 51l-49 -49q-31 -31 -72 -30t-71 31
t-31 71t30 72l49 49l-47 47q-31 29 -31 71t30 73q30 30 72 29t71 -30l49 -49l45 45q31 31 73 32t71 -29q30 -30 30 -72t-31 -72l-47 -47l51 -50q29 -28 30 -70t-29 -72q-29 -30 -71 -30z" />
    <glyph glyph-name="colon.ss4" unicode="&#xe097;" horiz-adv-x="724" 
d="M297 892q0 28 19 47t46 19q26 0 46 -19t20 -47t-19 -46t-47 -18t-46 18q-19 18 -19 46zM297 494q0 27 19 46t46 19q26 0 46 -19t20 -46q0 -26 -19 -46t-47 -20t-46 20q-19 20 -19 46zM211 494q0 -62 43 -108q42 -46 108 -46t109 45t43 109t-44 108q-44 45 -108 45
t-107 -45q-44 -45 -44 -108zM211 892q0 -62 43 -108t108 -47h7q61 2 103 47q42 46 42 108t-45 108t-107 46t-106 -46q-45 -46 -45 -108zM123 880q0 114 70 184q69 71 169 71t170 -71q70 -70 70 -184t-100 -188q100 -70 100 -184t-70 -185t-170 -71t-170 71t-69 171
q0 129 100 198q-100 74 -100 188z" />
    <glyph glyph-name="colon.ss5" unicode="&#xe098;" horiz-adv-x="647" 
d="M492 1120q42 -38 28 -116t-91 -155t-157 -91t-114 28q-43 37 -30 117q12 81 76 145q120 121 218 105q43 -6 70 -33zM492 623q42 -37 28 -116t-91 -157t-156 -91t-115 30q-43 37 -30 115t89 157q78 78 159 91t116 -29z" />
    <glyph glyph-name="comma.ss1" unicode="&#xe099;" horiz-adv-x="571" 
d="M469 198q0 -96 -42 -190t-100 -156t-153 -129t-190 -96l-4 37q67 30 166 122q56 52 94 132q37 80 36 170q0 190 -221 260v33l305 94q35 -31 72 -107t37 -170z" />
    <glyph glyph-name="comma.ss2" unicode="&#xe09a;" horiz-adv-x="665" 
d="M92 213q0 102 73 174t173 72t173 -72t73 -169t-60 -167l-354 -459l-49 37l266 344q-23 -6 -49 -6q-100 0 -173 72t-73 174z" />
    <glyph glyph-name="comma.ss3" unicode="&#xe09b;" horiz-adv-x="577" 
d="M94 283h285q45 -57 45 -170q0 -204 -97 -312t-173 -143l-31 -14l-82 45q28 6 73 35q46 28 76 60t56 88q49 110 6 225q-27 72 -95 132q-26 23 -44 33l-19 10v11z" />
    <glyph glyph-name="comma.ss4" unicode="&#xe09c;" horiz-adv-x="862" 
d="M329 -27q-83 1 -150 55t-67 136t74 142q72 60 216 61q144 -1 250 -93q108 -92 108 -238t-125 -248t-322 -103q-73 0 -141 16t-98 33l-33 14l14 19q102 -29 178 -29q168 -2 264 67q95 70 95 177q0 72 -31 106l-10 12q-25 -57 -82 -92t-140 -35z" />
    <glyph glyph-name="comma.ss5" unicode="&#xe09d;" horiz-adv-x="593" 
d="M305 295q82 -1 130 -61t48 -144q0 -213 -228 -415q-44 -38 -87 -66l-123 164l254 149v15q-39 6 -73 19t-68 56t-33 111q0 68 49 120t131 52z" />
    <glyph glyph-name="eight.ss1" unicode="&#xe09e;" horiz-adv-x="1302" 
d="M649 1241q-87 0 -153 -47t-66 -128t65 -136q65 -56 155 -56t155 56t65 136q0 81 -66 128q-67 47 -155 47zM651 639q-109 1 -183 -53t-73 -141q0 -87 74 -142q75 -55 183 -55t183 55t75 142t-75 141q-75 53 -184 53zM82 399q0 135 90 229t252 136q-131 43 -210 132
t-79 198q1 154 149 266t366 110q218 0 368 -112t149 -264q0 -109 -80 -198t-213 -134q164 -39 255 -133t92 -230q0 -182 -158 -305t-414 -123q-255 0 -411 123t-156 305z" />
    <glyph glyph-name="eight.ss2" unicode="&#xe09f;" horiz-adv-x="1347" 
d="M391 1046q0 -88 87 -150t204 -62t203 61t86 151t-85 143q-85 54 -205 54t-205 -54t-85 -143zM1020 410q0 96 -102 160t-236 65q-134 -1 -236 -65q-104 -64 -104 -159t99 -155t241 -61q142 0 240 60q98 59 98 155zM258 693q41 28 70 40l26 12q-23 12 -68 44q-44 33 -72 65
t-51 83q-24 52 -24 110q0 177 158 297t385 120t384 -121t157 -296q0 -108 -75 -188q-75 -81 -118 -101l-22 -13q171 -68 242 -211q30 -58 30 -124q0 -180 -174 -306t-424 -127q-250 1 -425 127t-175 300q0 173 176 289z" />
    <glyph glyph-name="eight.ss3" unicode="&#xe0a0;" horiz-adv-x="1040" 
d="M690 1144q0 70 -48 118q-48 47 -120 47t-122 -48t-50 -119q0 -70 47 -138t121 -103q72 35 122 104t50 139zM274 369q0 -113 71 -178t175 -65t175 66q71 64 71 177t-62 189t-184 159q-122 -83 -184 -159t-62 -189zM526 -37q-180 0 -302 118t-122 278t76 261t207 193
q-197 139 -197 324q0 141 96 234t234 93q140 0 236 -93t96 -234q0 -182 -199 -326q135 -93 211 -193t76 -262t-116 -277q-116 -116 -296 -116z" />
    <glyph glyph-name="eight.ss4" unicode="&#xe0a1;" horiz-adv-x="1187" 
d="M518 1098q-102 0 -151 -49v-23q0 -118 73 -169q34 -23 94 -23t205 90q-68 174 -221 174zM838 434q0 43 -20 81q-20 37 -59 61q-38 24 -89 24t-91 -18q-41 -18 -93 -54t-72 -49q123 -143 264 -143q49 0 88 12t53 25l17 10q2 8 2 51zM885 981q80 0 120 -53q39 -54 39 -136
q-1 -146 -73 -282q-27 -49 -90 -154q-58 -130 -154 -244q-55 -65 -129 -105t-154 -40t-146 44t-89 87l-27 43l187 320q-31 -10 -60 -10q-88 1 -127 65t-39 142t46 182t94 161l45 58q22 58 68 137q46 78 92 132t117 98t145 44q108 0 162 -94t36 -166l-188 -274q80 45 125 45z
" />
    <glyph glyph-name="eight.ss5" unicode="&#xe0a2;" horiz-adv-x="1284" 
d="M492 1097q0 -292 150 -292t149 292q1 292 -149 292t-150 -292zM451 393q-1 -336 191 -336t192 336q0 152 -41 236t-151 84t-150 -84t-41 -236zM102 397q0 131 67 231t218 140q-211 94 -211 334q0 160 121 260t344 100t344 -100t121 -260q0 -240 -211 -332
q287 -78 287 -373q0 -188 -131 -306t-409 -118t-409 118t-131 306z" />
    <glyph glyph-name="emdash.ss1" unicode="&#xe0a3;" horiz-adv-x="2580" 
d="M2202 850h-1823l311 -119l-332 -121h1864l-332 121zM90 555l449 176l-449 174h2400l-448 -174l448 -176h-2400z" />
    <glyph glyph-name="emdash.ss2" unicode="&#xe0a4;" horiz-adv-x="2580" 
d="M1290 608q-49 0 -84 33t-37 80l-270 -88l-823 94v2l823 94l270 -90q2 49 37 82t84 33t84 -33t35 -82l272 90l824 -94v-2l-824 -94l-272 88q-2 -47 -36 -80t-83 -33z" />
    <glyph glyph-name="emdash.ss3" unicode="&#xe0a5;" horiz-adv-x="2580" 
d="M2287 881q69 0 115 -47t47 -114q0 -67 -47 -114q-48 -47 -116 -47t-202 30q-398 89 -787 89t-797 -89q-133 -30 -204 -30t-118 47t-47 114t47 114t119 47t205 -31q386 -90 785 -90t797 90q134 30 203 31z" />
    <glyph glyph-name="emdash.ss4" unicode="&#xe0a6;" horiz-adv-x="2580" 
d="M203 838q-49 0 -49 34t53 35l2185 -20q14 0 18 -5q4 -4 -1 -10t-17 -6q-2140 -28 -2189 -28zM2427 960q0 -34 -53 -34l-2198 26q-14 0 -19 5t0 11t19 7l2198 20q53 -1 53 -35zM203 485q-49 0 -49 35t53 35l2185 -20q14 1 18 -5t-1 -11t-17 -5q-2140 -29 -2189 -29z
M2427 608q0 -35 -53 -35l-2198 27q-14 0 -19 5t0 11t19 7l2198 20q53 0 53 -35zM203 662q-49 0 -49 34t53 35l2185 -20q14 0 18 -5q4 -4 -1 -10t-17 -6q-2140 -28 -2189 -28zM2427 784q0 -34 -53 -34l-2198 26q-14 0 -19 5t0 11t19 7l2198 20q53 -1 53 -35z" />
    <glyph glyph-name="emdash.ss5" unicode="&#xe0a7;" horiz-adv-x="2580" 
d="M2421 645q1 -14 -51 -47t-60 -29q-248 186 -346 265q-8 4 42 44t67 35q131 -98 237 -180v146q0 14 62 55q16 12 32 18t17 -2v-305zM1774 913l346 -264q6 -4 -18 -24t-29 -25q-57 -37 -64 -31q-31 25 -348 265q-9 4 13 26t53 41q31 18 47 12zM1470 913l347 -264
q8 -6 -43 -46t-66 -34q-248 186 -346 265q-6 2 34 35q58 48 74 44zM1171 913l347 -264q8 -6 -37 -40t-54 -36q-10 -10 -20 -4q-66 53 -193 149t-153 116q-8 6 44 44t66 35zM870 913l347 -264q8 -6 -35 -38q-67 -49 -73 -44q-7 6 -349 267q-8 6 44 44t66 35zM569 913
l349 -264q8 -6 -35 -38q-67 -50 -78 -42q-66 53 -193 149t-153 116q-5 2 19 24q70 64 91 55zM270 604q0 -6 -30 -34t-54 -38q-26 -11 -26 0v306q0 14 50 48t60 27l344 -264q6 -4 -14 -21t-47 -36l-25 -19q-18 -6 -22 -4q-31 22 -236 181v-146z" />
    <glyph glyph-name="endash.ss1" unicode="&#xe0a8;" horiz-adv-x="1597" 
d="M182 596l-166 135l166 133h1233l166 -133l-166 -135h-1233z" />
    <glyph glyph-name="endash.ss2" unicode="&#xe0a9;" horiz-adv-x="1597" 
d="M801 606l-742 -90l840 285l-35 -90l676 67l-778 -270z" />
    <glyph glyph-name="endash.ss3" unicode="&#xe0aa;" horiz-adv-x="1597" 
d="M1407 817q39 -1 66 -27t27 -65t-28 -66q-26 -27 -65 -26h-524q-57 0 -84 51q-25 -51 -82 -51h-524q-39 1 -66 27t-27 65t27 66t66 26h524q57 0 82 -51q27 51 84 51h524z" />
    <glyph glyph-name="endash.ss4" unicode="&#xe0ab;" horiz-adv-x="1597" 
d="M794 784q204 0 381 22t252 44l76 22v-305q-98 34 -301 61q-396 54 -787 5q-175 -23 -249 -43l-74 -23v305q85 -31 291 -60q207 -28 411 -28z" />
    <glyph glyph-name="endash.ss5" unicode="&#xe0ac;" horiz-adv-x="1597" 
d="M1169 694l66 31l-66 33l-53 -33zM1090 655l69 33l-57 29l-64 -35zM938 655l70 33l-60 29l-59 -35zM786 655l72 33l-59 29l-62 -35zM637 655l68 33l-60 29l-59 -35zM483 655l72 33l-59 29l-62 -35zM358 725l56 -31l65 31l-65 33zM483 797l-49 -27l62 -37l59 29zM629 725
l-64 33l-55 -33l55 -31zM637 797l-51 -27l59 -37l60 29zM780 725l-63 33l-55 -33l55 -31zM786 797l-49 -27l62 -37l59 29zM932 725l-64 33l-55 -33l55 -31zM938 797l-49 -27l59 -37l60 29zM1083 725l-63 33l-55 -33l55 -31zM1090 797l-52 -27l64 -37l57 29zM1464 612
l-213 105l-59 -35l123 -70l-133 66l-66 -39l47 -27l-51 27l-45 -27l-12 25l28 14l-53 27l-65 -39l47 -27l-51 27l-46 -27l-12 25l29 14l-53 27l-66 -39l47 -27l-51 27l-43 -27l-14 25l28 14l-53 27l-65 -39l47 -27l-52 27l-45 -27l-12 25l29 14l-51 27l-68 -39l47 -27
l-51 27l-43 -27l-14 25l30 14l-55 27l-115 -66l-12 25l104 51l-57 29l-184 -105l-15 25l181 88l-181 90l15 23l184 -105l57 29l-104 53l12 23l115 -64l55 27l-30 14l14 23l43 -25l51 25l-47 -27l68 -37l51 27l-29 14l12 23l45 -25l52 25l-47 -27l65 -37l53 27l-28 14l14 23
l43 -25l51 25l-47 -27l66 -37l53 27l-29 14l12 23l46 -25l51 25l-47 -27l65 -37l53 27l-28 14l12 23l45 -25l51 25l-47 -27l66 -37l133 64l-123 -68l59 -37l213 105l-196 -113z" />
    <glyph glyph-name="exclam.ss1" unicode="&#xe0ad;" horiz-adv-x="753" 
d="M266 467l-143 967h508l-144 -967h-221zM147 0v322h457v-322h-457z" />
    <glyph glyph-name="exclam.ss2" unicode="&#xe0ae;" horiz-adv-x="628" 
d="M317 430h2q5 -16 17 -43t61 -89t111 -99q-66 -41 -113 -99t-63 -96l-15 -37q-6 14 -17 40t-60 87t-113 105q57 39 104 97t68 97zM332 522h-33q-16 238 -46 467t-52 340l-21 111q178 -25 254 -6l27 6q-96 -396 -129 -918z" />
    <glyph glyph-name="exclam.ss3" unicode="&#xe0af;" horiz-adv-x="573" 
d="M465 147q0 -76 -51 -128t-127 -52t-127 51t-51 121t21 109t49 88q27 49 51 98t27 75t-9 97q-119 535 -132 590q-14 55 -14 80q0 82 54 138t130 56q77 0 131 -56t54 -138q0 -12 -4 -37q-125 -539 -139 -621t-14 -110q1 -45 64 -152q63 -106 75 -141t12 -68z" />
    <glyph glyph-name="exclam.ss4" unicode="&#xe0b0;" horiz-adv-x="722" 
d="M322 164q0 -16 11 -28t27 -11q16 0 28 11q11 12 11 28t-11 27q-12 11 -28 11t-27 -10q-11 -12 -11 -28zM299 164q0 27 17 44t44 17t44 -17q18 -17 18 -44t-18 -44q-18 -18 -44 -18q-27 0 -44 18t-17 44zM254 164q0 -45 31 -76t75 -31t76 31q31 31 31 76t-31 76
q-31 30 -76 30q-46 0 -76 -30t-30 -76zM231 164q0 53 38 91t91 38q54 0 92 -38t38 -91t-38 -91t-92 -38t-91 38q-38 38 -38 91zM188 164q0 -72 50 -122t122 -50t123 50t52 122t-51 123t-124 51t-122 -51t-50 -123zM164 165q0 83 57 140t139 57t140 -58t59 -140
q0 -82 -57 -139q-56 -57 -140 -57t-141 56q-57 58 -57 141zM344 553h35v725h-35v-725zM401 530h-79v770h79v-770zM279 485h165v861h-165v-861zM467 463h-211v905h211v-905zM211 420h301v991h-301v-991zM535 397h-349v1037h349v-1037z" />
    <glyph glyph-name="exclam.ss5" unicode="&#xe0b1;" horiz-adv-x="749" 
d="M467 72l268 47l-278 -119h-219l-195 180l166 -47l-178 305l221 -237l-35 168l94 -185l17 375l34 -354l115 436l-284 285l178 508h231l-252 -467l225 -299l-174 -506l244 356l-205 -391l183 102z" />
    <glyph glyph-name="five.ss1" unicode="&#xe0b2;" horiz-adv-x="1206" 
d="M446 1434q6 0 109 -2t212 18t163 46q120 59 186 132l8 -6q-51 -131 -92 -207q-42 -75 -106 -141t-154 -92t-223 -27l-219 4l-133 -246q16 9 46 25t134 43t221 27q272 0 410 -134t137 -315q0 -223 -179 -399t-477 -176q-205 0 -327 118t-121 291q0 109 59 206t176 97
q74 0 125 -52t51 -126t-50 -126q-52 -52 -126 -52q-38 0 -76 18t-53 41q-27 -39 -26 -100q0 -111 80 -185q81 -74 201 -75q120 0 212 81q92 80 134 192t43 227q-1 186 -101 295t-262 108q-78 0 -150 -35t-104 -67l-33 -35h-32l309 629h28z" />
    <glyph glyph-name="five.ss2" unicode="&#xe0b3;" horiz-adv-x="1058" 
d="M479 934q201 0 349 -136t148 -347t-148 -347t-355 -137q-139 0 -251 70t-181 180l10 6q51 -67 134 -113t163 -47q147 0 253 113q105 113 105 274q0 162 -104 274q-106 112 -240 112t-227 -74l-4 -6h-27l9 676h807v-238h-777l-6 -397q141 137 342 137z" />
    <glyph glyph-name="five.ss3" unicode="&#xe0b4;" horiz-adv-x="1224" 
d="M1108 1438v-224h-700l-21 -294q115 31 197 30q260 0 434 -140t174 -342t-173 -346t-419 -145q-115 0 -217 32q-101 32 -165 78q-138 100 -177 171l-21 31l213 121q15 -30 50 -71q35 -40 73 -68q38 -29 104 -51q67 -22 140 -21q135 0 236 80q100 81 100 189t-108 182
t-227 73q-119 0 -199 -26t-111 -50l-31 -26l-110 55l40 762h918z" />
    <glyph glyph-name="five.ss4" unicode="&#xe0b5;" horiz-adv-x="1208" 
d="M580 821q154 0 264 -85t108 -180q0 -95 -49 -181q102 131 103 215q0 117 -102 202t-255 85q-94 0 -204 -31t-171 -64l-63 -30l-4 6q72 219 92 342l-51 16q-12 -148 -70 -330q-20 -66 -33 -94l-12 -30q27 18 71 45t163 71t213 43zM287 348q-56 0 -107 -39l-6 6
q18 33 62 72q78 74 144 74q66 -1 163 -59q96 -58 157 -117l62 -60q33 27 62 79q28 52 28 97q0 137 -103 219t-266 80q-93 0 -203 -34t-174 -68l-61 -35l-4 6q139 330 100 514q-12 57 -26 78l-17 21l117 127q46 -39 151 -73t209 -34q287 0 441 68l2 -4l-121 -142
q-154 -51 -410 -51q-53 0 -110 8l-66 -213q84 51 206 91q122 41 216 40q157 0 265 -85t108 -189q0 -201 -434 -623l-168 -155q-87 75 -202 143q-114 70 -156 70t-68 -16t-37 -33l-12 -15l-9 6q4 6 10 18q80 154 209 154q50 0 142 -53t151 -106l62 -56q33 29 63 58
q-242 231 -370 231zM276 1374l109 117q50 -36 151 -65q194 -57 407 -9t271 96l5 -4l-136 -159q-178 -84 -433 -84t-374 108z" />
    <glyph glyph-name="five.ss5" unicode="&#xe0b6;" horiz-adv-x="1058" 
d="M508 922q225 0 378 -119q152 -119 152 -337t-152 -355t-350 -137q-196 0 -328 92q-132 94 -181 235l4 2q51 -90 146 -153t212 -64q170 0 275 125q104 125 104 296t-100 267t-214 96t-197 -66t-124 -171l-4 -4l111 766l786 71v-2q-345 -78 -499 -232t-218 -351
q86 41 199 41z" />
    <glyph glyph-name="four.ss1" unicode="&#xe0b7;" horiz-adv-x="946" 
d="M629 397v731l-447 -731h447zM780 1434v-1037h201v-143h-201v-254h-151v254h-631v102l664 1078h118z" />
    <glyph glyph-name="four.ss2" unicode="&#xe0b8;" horiz-adv-x="1138" 
d="M823 1262v-41q-117 -9 -210 -53t-149 -98t-106 -136t-74 -148q-95 -246 -118 -297q117 -20 450 -20l-20 293q92 18 142 72t81 167l15 -4q-29 -231 -29 -524h14q173 0 216 38q44 38 44 126h19q0 -98 -17 -178l-4 -33q20 -106 21 -207h-19q0 126 -113 152q-60 12 -161 12
q7 -222 18 -254q11 -33 27 -63q26 -50 100 -52v-22q-156 0 -223 16l-25 4q-78 -20 -253 -20v20q122 0 150 154q14 83 17 217q-367 0 -587 -14l-66 -7l-4 19q122 32 197 216q33 81 66 177q79 223 217 394q75 94 206 176t303 131l4 -17q-63 -35 -96 -94t-33 -102z" />
    <glyph glyph-name="four.ss3" unicode="&#xe0b9;" horiz-adv-x="1312" 
d="M721 549v506l-445 -506h445zM-41 326v159l825 949h164v-885h350v-223h-350v-326h-227v326h-762z" />
    <glyph glyph-name="four.ss4" unicode="&#xe0ba;" horiz-adv-x="1150" 
d="M635 -43q-43 0 -43 130t16 323q-120 -48 -160 -48t-116 52t-89 57q-13 7 -55 23q-107 42 -119 78q-7 17 -8 42q1 96 89 404t116 364q28 54 52 71q26 17 86 17t133 -38q74 -38 63 -86q-2 -6 -117 -342t-116 -404q0 -25 20 -25q70 0 246 97q33 276 61 383q37 127 215 127
q111 0 90 -101q0 -14 -51 -282q33 -6 60 -15q123 -39 122 -71q0 -25 -49 -54q-4 -2 -56 -32t-122 -70q-80 -430 -93 -469q-12 -39 -76 -85t-99 -46z" />
    <glyph glyph-name="four.ss5" unicode="&#xe0bb;" horiz-adv-x="813" 
d="M399 532v621l-194 -621h194zM588 532h286l-122 -178h-164v-252l-189 -204v456h-440l354 1129l164 -82l-43 -133l154 166v-902z" />
    <glyph glyph-name="hyphen.ss1" unicode="&#xe0bc;" horiz-adv-x="667" 
d="M92 371v313l483 328v-314z" />
    <glyph glyph-name="hyphen.ss2" unicode="&#xe0bd;" horiz-adv-x="688" 
d="M84 676q47 35 47 80q-1 44 -21 66t-24 28q-20 18 6 18h504q18 0 19 -4t-11 -16q-45 -34 -45 -81q0 -48 49 -95q4 -12 -12 -15h-504q-12 0 -16 1q-4 2 -1 8t9 10z" />
    <glyph glyph-name="hyphen.ss3" unicode="&#xe0be;" horiz-adv-x="694" 
d="M485 920q66 0 112 -46t46 -112t-47 -112t-111 -46q-92 0 -139 82q-45 -82 -137 -82q-66 0 -112 46t-46 112t46 112t125 46t124 -82q47 82 139 82z" />
    <glyph glyph-name="hyphen.ss4" unicode="&#xe0bf;" horiz-adv-x="761" 
d="M700 845q0 -17 -233 -22q233 -4 233 -21t-233 -22q233 -4 233 -21t-233 -22q233 -6 233 -22t-233 -21q233 -6 233 -22t-233 -23q233 -4 233 -20q0 -23 -319 -23t-320 23q0 16 234 20q-233 6 -234 23q0 16 234 22q-233 4 -234 21q0 16 234 22q-233 4 -234 21q0 18 234 22
q-233 4 -234 23q0 16 234 20q-233 4 -234 23q0 16 234 20q-233 6 -234 23q-1 23 319 23t320 -23q0 -16 -233 -23q233 -4 233 -21z" />
    <glyph glyph-name="hyphen.ss5" unicode="&#xe0c0;" horiz-adv-x="716" 
d="M567 883q45 0 51 63v21h17v-408h-17q0 84 -51 84h-420q-23 0 -35 -20t-14 -41l-2 -23h-14v408h14q-2 -84 51 -84h420z" />
    <glyph glyph-name="nine.ss1" unicode="&#xe0c1;" horiz-adv-x="880" 
d="M184 1145v-211q0 -118 77 -184t175 -66t182 78v-475q-2 -89 -62 -139t-127 -50t-127 50t-60 141v92h-58v-92q0 -94 65 -172t181 -78t180 77q63 77 66 171v860q0 94 -62 171t-181 77q-121 0 -185 -78t-64 -172zM430 1335q68 0 128 -50t60 -140v-221q0 -86 -61 -133
t-128 -47t-127 50t-60 140v215q2 88 61 137t127 49zM430 1278q-55 0 -90 -38t-37 -91v-215q0 -53 36 -93t90 -40t91 37t37 86v221q0 53 -36 93t-91 40zM123 934v211q0 127 90 217t220 90t217 -89t87 -216v-860q-2 -127 -91 -216t-216 -89t-217 90t-90 217v149h180v-149
q0 -53 36 -93t90 -40t90 39t38 92v377q-45 -37 -127 -37q-127 0 -217 90t-90 217z" />
    <glyph glyph-name="nine.ss2" unicode="&#xe0c2;" horiz-adv-x="1255" 
d="M600 1436q-121 0 -169 -98t-48 -340q0 -241 55 -340t173 -99t199 81t87 167q-3 341 -63 485t-234 144zM591 518q-167 0 -304 105q-70 53 -114 151t-44 225q0 227 134 347t327 118q236 0 378 -169t142 -537q0 -215 -47 -371t-131 -241q-158 -160 -405 -160
q-246 0 -341 202l27 19q45 -101 130 -145t175 -44q379 0 379 674v8q-47 -84 -134 -133t-172 -49z" />
    <glyph glyph-name="nine.ss3" unicode="&#xe0c3;" horiz-adv-x="966" 
d="M307 1212v-370h268v370h-268zM803 0h-742v221h514v400h-493v813h721v-1434z" />
    <glyph glyph-name="nine.ss4" unicode="&#xe0c4;" horiz-adv-x="1390" 
d="M338 958q0 -122 95 -204t227 -82t231 83q98 83 98 203t-98 203q-99 82 -231 82t-227 -81t-95 -204zM88 958q0 214 167 360t404 146q272 0 455 -201q182 -203 182 -533t-186 -542t-457 -211q-111 0 -210 32t-161 78q-135 100 -180 171l-20 31l213 119q14 -29 51 -69
q131 -143 302 -141q171 1 289 127t138 341q-69 -96 -187 -156t-235 -59q-229 0 -397 147t-168 360z" />
    <glyph glyph-name="nine.ss5" unicode="&#xe0c5;" horiz-adv-x="1249" 
d="M571 1231q-176 0 -295 -72q-118 -72 -118 -164t110 -166q110 -73 291 -73q180 0 303 72t123 165q0 92 -119 165t-295 73zM557 186q203 0 334 193t131 518v18q-31 -110 -128 -235q-54 -70 -142 -116t-176 -46t-160 26q-183 65 -256 230q-45 98 -45 225q0 223 136 344
t314 121q211 0 360 -165q77 -85 121 -241t44 -358q0 -200 -48 -346q-83 -250 -291 -348q-87 -41 -185 -41t-184 47q-87 47 -137 115q-107 146 -134 250l-13 47l15 6q95 -158 276 -217q80 -27 168 -27z" />
    <glyph glyph-name="one.ss1" unicode="&#xe0c6;" horiz-adv-x="790" 
d="M117 41h549q23 0 22 12v94q0 12 -22 13h-160q-61 0 -62 63v1145q0 25 -14 25h-104q-14 0 -31 -13l-141 -104q-6 -6 -14 -11t-13 -9q-4 -4 -9 -8q-5 -3 -7 -5q-3 -2 -5 -4q-4 -4 -4 -10v-78q6 -16 15 -16h166q27 1 45 -17t18 -49v-846q0 -25 -17 -44t-46 -19h-158
q-23 0 -23 -13v-94q0 -12 15 -12zM707 0h-623q-23 0 -23 23v155q0 23 23 23h199q23 0 22 22v846q0 25 -22 25h-197q-25 0 -25 26v111q0 23 19 37l209 153q18 12 37 13h135q25 0 24 -25v-1186q0 -23 21 -22h201q23 0 22 -23v-155q1 -23 -22 -23z" />
    <glyph glyph-name="one.ss2" unicode="&#xe0c7;" horiz-adv-x="702" 
d="M426 193h338v-31h-758v31h389v978l-477 -573v43l477 578v28l-477 -571v41l477 579v29l-477 -573v43l477 577v29l-477 -572v41l465 564h43v-1241zM6 109v28h758v-28h-758zM6 53v31h758v-31h-758zM6 0v29h758v-29h-758z" />
    <glyph glyph-name="one.ss3" unicode="&#xe0c8;" horiz-adv-x="827" 
d="M565 1524v-1364l221 -160h-653l225 160v930l-338 -95z" />
    <glyph glyph-name="one.ss4" unicode="&#xe0c9;" horiz-adv-x="845" 
d="M467 1434v-1368h358v-66h-788v66h358v1247l-395 -422l-47 45l461 498h53z" />
    <glyph glyph-name="one.ss5" unicode="&#xe0ca;" horiz-adv-x="970" 
d="M635 1434v-1211h266v-223h-758v223h265v817q-50 -66 -140 -118t-153 -74l-64 -21l-71 203q293 80 471 381l14 23h170z" />
    <glyph glyph-name="parenleft.ss1" unicode="&#xe0cb;" horiz-adv-x="706" 
d="M570 720q0 -270 15 -437t61 -233t179 -109v-39l-176 63q-510 141 -545 672l-2 86l2 82q23 285 168 439t377 224l176 64v-39q-133 -43 -176 -108t-61 -229q-18 -166 -18 -436z" />
    <glyph glyph-name="parenleft.ss2" unicode="&#xe0cc;" horiz-adv-x="550" 
d="M135 1165l490 502l108 -108l-434 -447v-840l434 -446l-108 -109l-490 502v946z" />
    <glyph glyph-name="parenleft.ss3" unicode="&#xe0cd;" horiz-adv-x="622" 
d="M92 729q0 -227 144 -371t428 -145v-340q-150 0 -268 74q-118 75 -190 197q-146 249 -145 583q0 334 146 579q71 120 189 190t268 71v-332q-143 -2 -256 -48q-204 -83 -281 -281q-35 -87 -35 -177z" />
    <glyph glyph-name="parenleft.ss4" unicode="&#xe0ce;" horiz-adv-x="675" 
d="M61 726q0 152 26 278t67 221q87 199 183 311t163 168l26 18l226 -159q-23 -10 -60 -32t-130 -104t-166 -180t-131 -267q-58 -170 -58 -334q0 -301 107 -500t227 -288q132 -103 186 -124l31 -15q-126 36 -275 142q-67 47 -147 132t-137 185t-97 248t-41 300z" />
    <glyph glyph-name="parenleft.ss5" unicode="&#xe0cf;" horiz-adv-x="757" 
d="M143 736q-1 -196 51 -356t133 -270q171 -232 365 -333t271 -101v-61q-170 10 -401 170q-126 88 -231 210t-177 313q-72 190 -72 416t74 420t180 314t233 206q228 156 394 171v-61q-166 -14 -379 -169q-117 -85 -213 -201t-162 -294t-66 -374z" />
    <glyph glyph-name="parenright.ss1" unicode="&#xe0d0;" horiz-adv-x="706" 
d="M77 50q46 66 61 233q16 167 16 437t-18 436t-62 230q-43 64 -176 107v39l176 -64q231 -70 377 -224q145 -155 167 -439l3 -82q0 -80 -3 -86q-35 -530 -544 -672l-176 -63v39q133 43 179 109z" />
    <glyph glyph-name="parenright.ss2" unicode="&#xe0d1;" horiz-adv-x="528" 
d="M-92 1667l489 -502v-946l-489 -502l-109 109l434 446v840l-434 447z" />
    <glyph glyph-name="parenright.ss3" unicode="&#xe0d2;" horiz-adv-x="622" 
d="M530 729q0 188 -136 338q-68 74 -180 120t-255 48v332q149 0 267 -71q218 -132 298 -458q37 -147 37 -310q0 -334 -145 -585q-72 -123 -190 -197t-267 -73v340q283 1 427 145t144 371z" />
    <glyph glyph-name="parenright.ss4" unicode="&#xe0d3;" horiz-adv-x="675" 
d="M614 696q0 -166 -48 -332t-116 -282q-139 -234 -253 -340l-47 -43l-226 160q68 35 175 134q108 99 181 199t131 265q58 163 58 323q0 298 -108 496q-108 197 -230 292q-123 95 -182 120l-31 14q112 -32 275 -144q67 -46 147 -130t137 -182q57 -96 97 -240t40 -310z" />
    <glyph glyph-name="parenright.ss5" unicode="&#xe0d4;" horiz-adv-x="757" 
d="M-205 1774v61q170 -10 401 -170q126 -88 231 -210t177 -313q72 -190 72 -416t-74 -420t-180 -314t-234 -206q-229 -157 -393 -171v61q166 14 379 169q117 85 213 201t162 294q65 178 65 374t-51 356t-132 270q-171 232 -365 333t-271 101z" />
    <glyph glyph-name="period.ss1" unicode="&#xe0d5;" horiz-adv-x="632" 
d="M113 0v422h411v-422h-411z" />
    <glyph glyph-name="period.ss2" unicode="&#xe0d6;" horiz-adv-x="776" 
d="M160 336q0 170 69 269q70 99 164 99t165 -98q71 -100 71 -270t-71 -269t-165 -99q-93 0 -163 98q-70 100 -70 270z" />
    <glyph glyph-name="period.ss3" unicode="&#xe0d7;" horiz-adv-x="776" 
d="M380 -35q-52 0 -89 36t-37 89v90h-88q-51 0 -88 37t-37 89t36 89t89 37h88v86q0 53 37 90t89 37t88 -37t36 -90v-88h84q53 0 90 -36t37 -88t-37 -89t-90 -37h-84v-90q0 -53 -36 -89t-88 -36z" />
    <glyph glyph-name="period.ss4" unicode="&#xe0d8;" horiz-adv-x="843" 
d="M340 270q0 33 25 58q25 24 57 24t58 -24q24 -24 24 -58t-25 -58t-57 -24t-58 24q-24 24 -24 58zM422 463q-78 1 -134 -57t-57 -137q1 -79 55 -135t136 -56t136 56t54 135t-56 137t-134 57zM123 270q0 127 87 215t212 88t212 -88t87 -215t-87 -215t-212 -88t-212 88
t-87 215z" />
    <glyph glyph-name="period.ss5" unicode="&#xe0d9;" horiz-adv-x="729" 
d="M465 0h-203l-108 111v211l108 106h203l110 -109v-208z" />
    <glyph glyph-name="question.ss1" unicode="&#xe0da;" horiz-adv-x="1124" 
d="M326 175q0 91 68 142q144 107 286 1q68 -52 68 -142t-69 -141t-143 -51t-143 50q-67 50 -67 141zM545 512h-10q-49 66 -49 152q-1 140 94 259q96 120 96 223q0 102 -65 158t-129 56t-110 -33t-46 -84t32 -85t75 -34q42 0 66 20t29 38l9 18q18 -39 18 -92q0 -100 -73 -173
t-176 -73t-174 73t-71 171q-1 154 147 260t366 106t362 -94q143 -94 143 -233q0 -100 -55 -180t-134 -131q-79 -50 -157 -96q-188 -110 -188 -226z" />
    <glyph glyph-name="question.ss2" unicode="&#xe0db;" horiz-adv-x="843" 
d="M270 188q0 49 27 77t74 28q92 0 138 -80t46 -163t-76 -83q-77 -1 -143 63t-66 158zM201 1430q47 0 92 -20t67 -38l21 -20q-16 37 -16 65q0 76 90 76t129 -30q40 -31 74 -109t100 -299t65 -344q0 -33 -19 -53t-55 -21t-116 23t-100 24q-27 0 -40 -58l-9 -39q-5 -26 -9 -38
q-37 -145 -82 -146q-35 -1 -61 99t-27 180q0 80 33 126t82 46q89 0 149 -39l23 -12q-33 137 -84 270t-86 197l-35 65q-8 -203 -65 -360q-20 -55 -80 -107t-136 -65q-24 -4 -36 8q-12 13 -10 25t17 65q64 226 64 379l-4 84q1 66 64 66z" />
    <glyph glyph-name="question.ss3" unicode="&#xe0dc;" horiz-adv-x="1009" 
d="M512 446l-55 228l-58 -228h113zM350 143q0 -45 32 -77t76 -33q44 0 76 33q32 34 32 78t-32 77t-76 33t-76 -33t-32 -78zM733 1087q0 -169 -100 -278q-39 -43 -74 -55q61 0 137 61q140 111 140 273t-146 266q-54 36 -96 45l-68 16q49 -16 109 -69q98 -90 98 -259zM459 319
q74 0 124 -51t50 -125t-50 -125t-124 -51t-125 51t-51 124t51 125t125 52zM125 1112q0 -53 29 -123h-91q-10 39 -10 105q0 166 117 270t301 104t306 -108t122 -259q0 -152 -103 -274q-104 -121 -278 -133h-2l80 -311h-277l103 399q18 -8 39 -8q94 0 151 100q58 100 58 222
t-76 207q-76 83 -202 83t-196 -80t-71 -194z" />
    <glyph glyph-name="question.ss4" unicode="&#xe0dd;" horiz-adv-x="966" 
d="M462 270q60 0 102 -44t42 -107t-42 -107t-102 -45q-60 0 -104 44q-43 43 -43 107t43 108q44 44 104 44zM414 1470q200 0 346 -118q145 -119 145 -283q-1 -165 -115 -279t-290 -143l-6 -270h-52l-2 264q-12 -2 -39 -2q-168 0 -168 94q0 37 39 64q38 27 96 27t95 -28
t37 -67v-22q119 0 118 194v295q0 217 -217 217q-119 0 -239 -78q49 -12 79 -48q29 -36 29 -90t-40 -94t-97 -40t-95 39q-38 40 -38 106t72 131q142 131 342 131z" />
    <glyph glyph-name="question.ss5" unicode="&#xe0de;" horiz-adv-x="741" 
d="M252 188l207 261v-142l-8 -98q-133 -150 -213 -266l-9 4q25 45 25 184zM264 604q0 37 -17 70t-34 47l-16 14l194 248q9 -13 27 -29t78 -45t122 -28q10 29 11 69q0 113 -80 199q-81 86 -175 86t-162 -34t-93 -66l-27 -33l-8 2q68 100 168 229q47 61 118 99t144 38
q123 0 196 -78t72 -186l-8 -84l-227 -368q-33 -29 -90 -37q2 -39 2 -137l-211 -265q16 147 16 289z" />
    <glyph glyph-name="quoteleft.ss1" unicode="&#xe0df;" horiz-adv-x="647" 
d="M545 1087v-456h-453v409l324 414h67l-188 -367h250z" />
    <glyph glyph-name="quoteleft.ss2" unicode="&#xe0e0;" horiz-adv-x="608" 
d="M526 1470v-155h-8q-164 0 -263 -73t-99 -236h362v-424q-170 0 -288 120t-118 302t118 316t288 150h8z" />
    <glyph glyph-name="quoteleft.ss3" unicode="&#xe0e1;" horiz-adv-x="702" 
d="M600 1061v-469h-457v942h19l69 -473h369z" />
    <glyph glyph-name="quoteleft.ss4" unicode="&#xe0e2;" horiz-adv-x="673" 
d="M530 635h-53v33q0 157 -82 314q-35 67 -82 114t-126 80t-177 32v267h520v-840z" />
    <glyph glyph-name="quoteleft.ss5" unicode="&#xe0e3;" horiz-adv-x="684" 
d="M356 1026h-254l449 430zM551 1026v-379h-367l172 379h195z" />
    <glyph glyph-name="quoteright.ss1" unicode="&#xe0e4;" horiz-adv-x="647" 
d="M102 977v457h453v-410l-324 -414h-67l188 367h-250z" />
    <glyph glyph-name="quoteright.ss2" unicode="&#xe0e5;" horiz-adv-x="608" 
d="M82 602v156h8q164 0 263 72t100 237h-363v424q170 0 288 -121t118 -302q0 -182 -118 -316t-288 -150h-8z" />
    <glyph glyph-name="quoteright.ss3" unicode="&#xe0e6;" horiz-adv-x="702" 
d="M102 965v469h457v-942h-18l-70 473h-369z" />
    <glyph glyph-name="quoteright.ss4" unicode="&#xe0e7;" horiz-adv-x="673" 
d="M143 696v840h54v-33q0 -161 82 -314q35 -67 81 -114t126 -80q79 -33 178 -32v-267h-521z" />
    <glyph glyph-name="quoteright.ss5" unicode="&#xe0e8;" horiz-adv-x="684" 
d="M329 1057h253l-449 -430zM133 1057v377h367l-171 -377h-196z" />
    <glyph glyph-name="semicolon.ss1" unicode="&#xe0e9;" horiz-adv-x="645" 
d="M291 700q0 60 -73 143t-73 153q-1 70 51 122q52 51 122 51t122 -52q52 -53 52 -117t-39 -110t-79 -93t-40 -101q0 -96 81 -161q30 -25 50 -67t10 -95l-158 -602q-139 515 -152 585t5 113t46 67t52 64t23 100z" />
    <glyph glyph-name="semicolon.ss2" unicode="&#xe0ea;" horiz-adv-x="727" 
d="M164 953q0 85 60 145t144 59q84 0 145 -59q60 -58 60 -144t-60 -146t-144 -60t-145 60q-60 60 -60 145zM168 397q0 81 58 139t140 58t138 -57q57 -57 57 -137t-47 -132l-283 -368l-38 30l213 275q-25 -4 -41 -4q-80 0 -139 57q-58 57 -58 139z" />
    <glyph glyph-name="semicolon.ss3" unicode="&#xe0eb;" horiz-adv-x="800" 
d="M186 954q0 74 66 122t152 48t151 -48q66 -48 66 -122t-66 -122t-152 -48q-85 0 -151 48t-66 122zM180 484q0 64 58 114q58 49 172 49q116 0 202 -74q86 -73 86 -191t-100 -200t-258 -82q-105 0 -193 39l-24 13l12 14q80 -23 141 -23q135 -3 211 53t76 142q0 59 -33 96
q-20 -45 -65 -74q-45 -28 -112 -28t-120 44t-53 108z" />
    <glyph glyph-name="semicolon.ss4" unicode="&#xe0ec;" horiz-adv-x="704" 
d="M297 912q0 28 19 47t46 19q26 0 46 -18q20 -20 20 -48t-19 -46t-47 -18t-46 18q-19 18 -19 46zM297 514q0 27 19 46q19 20 46 20q26 0 46 -20t20 -46q0 -27 -19 -46t-47 -19t-46 19q-19 19 -19 46zM211 514q0 -63 43 -108q42 -46 108 -46t109 46t43 108t-44 108t-108 46
t-107 -46q-44 -46 -44 -108zM514 912q0 62 -45 108t-107 47q-62 -1 -106 -47q-45 -46 -45 -108t41 -107t104 -47h13q61 2 103 47t42 107zM123 900q0 114 70 184q69 71 169 71t170 -71q70 -70 70 -184t-100 -187q100 -70 100 -199q0 -88 -55 -160l-207 -266h-125l147 184
q-100 0 -170 71t-69 171q0 129 100 199q-100 73 -100 187z" />
    <glyph glyph-name="semicolon.ss5" unicode="&#xe0ed;" horiz-adv-x="512" 
d="M115 956q0 62 43 106t104 44q60 0 104 -44t44 -106t-43 -105q-43 -44 -105 -44t-104 44q-43 44 -43 105zM410 504q0 -119 -86 -228t-168 -161q-14 -6 -18 -4q-3 2 -15 20q-14 18 0 33q43 34 91 98t48 115q-53 6 -96 40t-43 98q0 65 39 107q38 42 104 42t105 -48t39 -112z
" />
    <glyph glyph-name="seven.ss1" unicode="&#xe0ee;" horiz-adv-x="811" 
d="M180 1262q-70 0 -104 -31t-49 -127h-27l41 330h811l-584 -1434h-125l602 1262h-565z" />
    <glyph glyph-name="seven.ss2" unicode="&#xe0ef;" horiz-adv-x="1269" 
d="M41 936l-8 104h532l-45 -104h-479zM25 1133l-11 104h633l-45 -104h-577zM633 0l614 1434h105l-615 -1434h-104zM426 0l614 1434h105l-615 -1434h-104zM219 0l615 1434h104l-614 -1434h-105zM8 1329l-8 105h729l-45 -105h-676z" />
    <glyph glyph-name="seven.ss3" unicode="&#xe0f0;" horiz-adv-x="829" 
d="M0 1202v232h850l-389 -1434h-240l332 1202h-553z" />
    <glyph glyph-name="seven.ss4" unicode="&#xe0f1;" horiz-adv-x="1370" 
d="M225 1028v139h838l-397 -905h-148l334 766h-627zM20 1376v-557h541l-334 -762h578l561 1319h-1346zM-41 762v672h1493l-612 -1434h-699l334 762h-516z" />
    <glyph glyph-name="seven.ss5" unicode="&#xe0f2;" horiz-adv-x="856" 
d="M94 1341v-208h606l80 208h-686zM0 1434h918l-566 -1434h-96l410 1040l-666 -2v396z" />
    <glyph glyph-name="six.ss1" unicode="&#xe0f3;" horiz-adv-x="1263" 
d="M176 456q0 -154 99 -272q99 -119 257 -118q121 0 201 103t79 256t-101 256q-99 103 -229 105t-218 -87t-88 -243zM102 471q0 154 42 290t109 233q141 204 314 312t252 134l41 14v-74q-236 -80 -422 -257t-241 -406q83 92 205 155t268 64q236 0 384 -135t148 -339
t-154 -354t-399 -149q-243 -1 -395 145t-152 367z" />
    <glyph glyph-name="six.ss2" unicode="&#xe0f4;" horiz-adv-x="1386" 
d="M1061 503q0 124 -95 206q-96 82 -228 82t-230 -83t-98 -205t99 -213t229 -91t227 90q96 90 96 214zM1311 503q0 -214 -168 -370t-404 -156q-270 0 -453 211q-184 212 -184 542t186 532t457 202q103 0 199 -28t184 -88q88 -61 142 -127l18 -29l-180 -137q-8 17 -50 57
q-134 131 -308 131t-290 -117t-136 -329q68 96 188 155t240 60q227 0 393 -148t166 -361z" />
    <glyph glyph-name="six.ss3" unicode="&#xe0f5;" horiz-adv-x="1269" 
d="M797 1382q-183 0 -323 -103t-208 -263t-67 -348q0 -262 139 -440t391 -177q159 0 273 110q114 109 114 269t-79 244t-207 84t-205 -94q-20 -25 -13 -25q80 68 166 68q86 1 154 -63q66 -64 66 -178t-77 -208t-221 -94q-190 0 -301 157t-110 371q0 283 152 469
q153 186 378 187q43 0 119 -12t78 -7q-23 23 -97 38q-75 15 -122 15zM797 1452q153 0 237 -57t84 -111q0 -35 -31 -35q-9 1 -83 13t-144 12q-188 0 -330 -159t-143 -429q0 -198 88 -314t225 -116q94 0 151 60q56 60 56 138t-49 122q-49 42 -106 42q-93 0 -169 -82
q-26 -28 -42 -28q-35 0 -35 39q0 96 90 195q90 100 247 100t261 -115t104 -292t-137 -321t-379 -144t-416 180q-174 182 -174 483q0 363 200 591t495 228z" />
    <glyph glyph-name="six.ss4" unicode="&#xe0f6;" horiz-adv-x="1165" 
d="M702 666q-84 0 -160 -38t-114 -74q-37 -36 -88 -99l-49 -62q63 -162 185 -254t234 -92t198 85q85 85 85 212q0 126 -79 224t-212 98zM650 1370q-112 0 -192 -54q-81 -54 -130 -144q-101 -187 -101 -392q0 -204 47 -342l160 254q16 16 47 41t122 66t181 41q148 0 242 -109
t94 -233q0 -86 -35 -180t-95 -172q-60 -79 -156 -130t-207 -51q-237 0 -387 180t-156 459q-4 190 58 364q134 377 469 487q177 59 384 20l-151 -168q-82 63 -194 63z" />
    <glyph glyph-name="six.ss5" unicode="&#xe0f7;" horiz-adv-x="1019" 
d="M336 453q0 -139 55 -258t146 -164q96 35 151 155t55 269q1 317 -202 417q-93 -48 -149 -164t-56 -255zM540 901q132 0 197 -29q101 -44 151 -160t50 -252t-53 -258t-148 -169q-59 -29 -104 -33h-199q-311 44 -311 624q0 621 235 786q27 18 48 24h294q76 -25 131 -116
t78 -210h-194q-14 98 -59 184q-44 86 -105 115q-101 -67 -163 -227t-58 -338q78 59 210 59z" />
    <glyph glyph-name="A.ss1" unicode="&#xe0f8;" horiz-adv-x="1271" 
d="M342 637l526 -467l-403 791q-84 -154 -123 -324zM422 0h-473l252 561q-88 47 -236 101v311l299 -268l352 782l717 -1487h-428q-61 80 -151 166q-195 186 -435 330q-18 -193 41 -363q23 -72 62 -133z" />
    <glyph glyph-name="three.ss1" unicode="&#xe0f9;" horiz-adv-x="989" 
d="M829 1157q0 -39 -12 -78t-91 -100q-24 -17 -87 -63t-102 -76q155 -51 263 -170t107 -219q0 -179 -183 -323t-491 -144q-91 0 -157 34q-122 62 -127 195l293 219l12 -14q-4 -37 -4 -74q0 -112 71 -188t153 -76t136 51q55 51 56 139q0 143 -140 256t-286 129l-15 21
q43 23 66 35t79 51q177 123 177 253q0 89 -82 162t-186 72q-53 0 -103 -16t-70 -33l-22 -14l-18 16l423 260q164 -25 252 -122t88 -183z" />
    <glyph glyph-name="three.ss2" unicode="&#xe0fa;" horiz-adv-x="1310" 
d="M135 1161v273h1012l39 -84l-385 -465q233 -19 351 -143t118 -283t-165 -315q-81 -77 -218 -125t-281 -48q-265 0 -438 102q-137 80 -205 156l-24 31l213 221q10 -26 56 -73q46 -46 94 -76t134 -56q86 -24 205 -24t217 64t98 153q0 88 -87 141t-228 54q-77 0 -147 -18
t-101 -40l-33 -18l-61 67l403 506h-567z" />
    <glyph glyph-name="three.ss3" unicode="&#xe0fb;" horiz-adv-x="948" 
d="M692 1044q0 106 -72 180q-72 72 -174 72t-175 -64t-72 -177q0 -49 17 -93t34 -65l16 -20l-10 -9q-37 25 -72 96q-35 72 -34 144q0 158 97 253t253 95t256 -92t100 -217q0 -260 -315 -404q346 -130 346 -376q0 -158 -121 -271q-121 -112 -285 -112q-163 0 -271 101
t-108 257t107 266l10 -8q-61 -84 -61 -194t82 -183q82 -71 200 -71t198 86q79 86 79 200q-1 114 -67 188q-66 76 -156 109v15q90 28 144 108t54 186z" />
    <glyph glyph-name="three.ss4" unicode="&#xe0fc;" horiz-adv-x="1251" 
d="M76 1214v224h1032v-160l-360 -363q186 -25 305 -155t118 -293q0 -201 -173 -345t-418 -145q-116 0 -218 32t-165 78q-136 99 -177 171l-20 31l213 121q68 -136 226 -189q67 -23 141 -22q135 0 235 80q100 79 100 189t-100 190t-235 79q-80 0 -164 -39l-88 99l428 417
h-680z" />
    <glyph glyph-name="three.ss5" unicode="&#xe0fd;" horiz-adv-x="993" 
d="M27 1260v174h802v-93l-333 -430q178 -37 297 -168t118 -292q0 -190 -156 -332q-157 -141 -387 -141t-388 163l143 115q99 -104 247 -104t248 89t101 210q-1 121 -101 209t-239 90q-60 -1 -115 -19l-41 84l340 445h-536z" />
    <glyph glyph-name="two.ss1" unicode="&#xe0fe;" horiz-adv-x="1236" 
d="M1122 1020q0 -78 -35 -156t-83 -136t-144 -137q-97 -79 -218 -151q-122 -73 -202 -127t-98 -90h774v-223h-1071l-2 154q0 120 112 218t252 183q140 86 187 117q193 128 245 214q34 56 33 118q0 92 -80 160t-196 69q-155 0 -273 -118q-28 -28 -40 -46l-13 -18l-184 149
q8 10 22 28t62 62q49 45 105 80q55 35 147 63t190 27q230 0 370 -133t140 -307z" />
    <glyph glyph-name="two.ss2" unicode="&#xe0ff;" horiz-adv-x="1130" 
d="M201 967q0 59 42 102t99 43t99 -43t42 -102t-42 -103t-99 -43h-18q-72 7 -126 71t-54 196t114 248q115 114 304 114q188 0 320 -105t132 -276q0 -111 -62 -208t-161 -173t-203 -146q-276 -184 -363 -331q45 14 113 14q68 1 219 -25q152 -26 207 -26q211 0 299 221l27 -6
q-30 -80 -74 -168q-86 -172 -154 -212t-123 -41t-186 27t-229 28q-98 1 -162 -15q-63 -16 -84 -31l-19 -14l-18 8q51 135 147 256t194 208t191 176q209 202 209 436q0 123 -88 218t-220 95t-215 -98t-83 -205q0 -72 27 -125q-2 10 -2 35z" />
    <glyph glyph-name="two.ss3" unicode="&#xe100;" horiz-adv-x="1294" 
d="M1233 342q0 -166 -112 -270t-253 -105q-86 0 -168 36t-135 79q-142 115 -256 115t-187 -66t-93 -106l-13 -21l-57 45q70 90 300 290t290 261q250 254 250 505q0 140 -47 215t-123 75t-131 -71q-56 -71 -56 -166t29 -167t57 -102l29 -29q-51 -59 -168 -59t-205 80t-88 215
q0 166 152 270t388 104t390 -91t154 -261q0 -246 -459 -526q-159 -96 -266 -182l-37 -29q42 6 98 6t189 -37t229 -37t152 48t56 109t-24 89l-6 10q121 -61 121 -227z" />
    <glyph glyph-name="two.ss4" unicode="&#xe101;" horiz-adv-x="1001" 
d="M462 762q-134 0 -237 101q-102 101 -102 245t102 248q101 102 247 102t254 -103t108 -247q0 -193 -164 -383l-295 -344h524v-381h-919l636 739q68 84 74 99q-94 -76 -228 -76z" />
    <glyph glyph-name="two.ss5" unicode="&#xe102;" horiz-adv-x="1077" 
d="M334 1077q0 -111 99 -164q77 -36 77 -106q0 -49 -33 -82t-86 -33q-111 0 -210 110t-99 282t124 294q124 123 322 123t329 -135q130 -135 130 -316t-101 -330t-216 -267l-166 -172q-12 -15 -8 -25t16 -10h391q61 0 97 -38t36 -85t-36 -85t-97 -38h-670q-51 0 -90 37
t-39 85t28 94t63 82t109 112q75 76 120 125t115 124t93 109q23 35 47 71q58 87 58 183t-63 165q-64 69 -150 69t-138 -54q-52 -53 -52 -125z" />
    <glyph glyph-name="zero.ss1" unicode="&#xe103;" 
d="M516 139q0 -139 72 -139t71 139v1157q0 115 -69 115q-74 0 -74 -115v-1157zM102 715q0 303 146 523t342 220q195 0 341 -220t146 -523t-146 -522t-341 -219q-196 0 -342 218q-146 220 -146 523z" />
    <glyph glyph-name="zero.ss2" unicode="&#xe104;" horiz-adv-x="1175" 
d="M164 272v887l248 273h354l246 -273v-887l-246 -272h-354zM590 719l358 -332v551zM590 719l-119 -658h260zM590 719l-350 -434l176 -199zM590 719l-162 639l-178 -197zM590 719l78 651h-201zM590 719l235 -557l95 102zM590 719l301 477l-92 104zM590 719l-363 313v-700z
" />
    <glyph glyph-name="zero.ss3" unicode="&#xe105;" 
d="M469 719q0 161 30 313t60 225l31 72q14 -29 34 -80t55 -211q34 -160 34 -320t-31 -312t-61 -224l-31 -71q-14 29 -34 79t-53 209q-34 160 -34 320zM193 715q0 -340 115 -528q116 -187 282 -187t282 187t115 527q0 340 -116 527q-115 186 -281 186t-282 -186t-115 -526z
M123 715q0 307 137 525t330 218t330 -218t137 -525t-137 -525t-330 -217q-193 -1 -330 217t-137 525z" />
    <glyph glyph-name="zero.ss4" unicode="&#xe106;" 
d="M590 1063q-152 -1 -244 -101t-92 -248t93 -258q93 -108 243 -108t243 109t93 257t-92 248t-244 101zM164 715q0 115 44 237t106 216q132 197 231 290l45 41q59 -51 140 -148q81 -96 137 -184q57 -88 103 -213q46 -126 46 -240t-44 -237t-106 -216q-128 -190 -231 -288
l-45 -41q-65 57 -143 150q-79 94 -135 181t-102 212t-46 240z" />
    <glyph glyph-name="zero.ss5" unicode="&#xe107;" horiz-adv-x="1368" 
d="M455 1139q-55 -62 -68 -242q-4 -67 -4 -234q0 -293 72 -372q72 -80 218 -79q147 1 210 72t73 248q4 68 4 231t-20 252t-51 124q-69 78 -216 78t-218 -78zM1034 715q0 -222 -26 -323t-65 -146t-107 -74t-164 -29q-185 0 -272 103q-66 79 -85 278q-6 76 -6 244
q0 307 89 414q89 108 275 107q187 -1 274 -108q87 -106 87 -466zM217 715q0 -127 7 -213t34 -180t74 -150t133 -92q86 -37 207 -37t206 36t133 92q49 55 75 149t33 181t7 214t-7 214t-34 181t-74 150q-48 55 -133 92t-206 37t-207 -37t-133 -92q-47 -56 -74 -150t-34 -181
t-7 -214zM286 1316q56 62 153 102t233 40q256 0 386 -142q56 -62 89 -164t43 -202t10 -235t-10 -235q-24 -241 -132 -365q-56 -63 -154 -103t-232 -39q-262 0 -386 142q-143 161 -143 601t143 600z" />
    <glyph glyph-name="asterisk.ss1" unicode="&#xe108;" horiz-adv-x="655" 
d="M250 1321l78 201l78 -201l208 -10l-161 -131l51 -211l-176 114l-178 -114l51 211l-160 131z" />
    <glyph glyph-name="asterisk.ss2" unicode="&#xe109;" horiz-adv-x="546" 
d="M272 975l-170 131v262l170 129l172 -129v-262z" />
    <glyph glyph-name="asterisk.ss3" unicode="&#xe10a;" horiz-adv-x="585" 
d="M524 1059l-82 -82l-147 156l-152 -156l-82 82l154 160l-154 159l82 82l148 -160l151 160l82 -82l-153 -159z" />
    <glyph glyph-name="asterisk.ss4" unicode="&#xe10b;" horiz-adv-x="532" 
d="M267 1475q79 0 89 -99q6 -55 60 -94t55 -83q0 -44 -54 -82q-53 -38 -59 -86q-12 -107 -92 -105q-78 0 -92 106q-6 47 -59 86t-53 83t53 82t59 93q14 99 93 99z" />
    <glyph glyph-name="asterisk.ss5" unicode="&#xe10c;" horiz-adv-x="532" 
d="M266 1348q50 0 106 22t87 47l33 23q-86 -133 -86 -232q0 -45 22 -103t43 -93l21 -37q-113 92 -226 92q-49 0 -105 -24t-87 -46l-33 -22q84 106 84 233q0 56 -22 114t-42 87l-20 31q112 -92 225 -92z" />
    <glyph glyph-name="bar.ss1" unicode="&#xe10d;" horiz-adv-x="501" 
d="M322 1591q16 -479 16 -851t-12 -767l-4 -131q-8 199 -15 459l-10 -459q-8 293 -12 600l-11 -600q-10 483 -12 811l-10 -811q-10 541 -10 811h-2l-13 -811q-6 330 -10 600l-12 -600q-6 231 -10 459l-13 -459q-18 479 -18 852t12 766l6 131q8 -199 13 -458l10 458
q8 -293 12 -600l10 600q12 -483 13 -811h2l10 811q8 -539 10 -811l12 811q6 -330 11 -600l12 600q6 -231 10 -458z" />
    <glyph glyph-name="bar.ss2" unicode="&#xe10e;" horiz-adv-x="563" 
d="M373 172v1102h-33v-1102h33zM190 1274v-1102h33v1102h-33zM272 172v1102h-30v-1102h30zM291 1274v-1102h33v1102h-33zM481 1511l-90 -237v-1102l90 -240h-399l92 240v1102l-92 237h399z" />
    <glyph glyph-name="bar.ss3" unicode="&#xe10f;" horiz-adv-x="524" 
d="M336 1294h-23q-14 0 -24 -10t-10 -24v-56q0 -35 34 -35h23q14 0 24 -10t11 -24v-148q-1 -14 -11 -24t-24 -11h-23q-14 0 -24 -10t-10 -24v-56q0 -35 34 -35h23q14 0 24 -10t11 -24v-148q-1 -14 -11 -24t-24 -11h-23q-14 0 -24 -10t-10 -25v-57q0 -14 10 -24t24 -11h23
q14 0 24 -10t11 -24v-148q-1 -15 -11 -25t-24 -10h-23q-35 0 -34 -35v-55q0 -14 10 -24t24 -11h23q14 0 24 -10t11 -25v-147q-1 -15 -11 -25t-24 -10h-148q-14 0 -24 10t-10 25v147q0 14 10 24t24 11h21q14 1 24 11t11 24v55q0 35 -35 35h-21q-14 0 -24 10t-10 25v148
q0 35 34 34h21q14 1 24 11t11 24v57q0 15 -10 25t-25 10h-21q-35 0 -34 35v148q0 14 10 24t24 10h21q35 0 35 35v56q0 14 -10 24t-25 10h-21q-35 0 -34 35v148q0 14 10 24t24 10h21q35 0 35 35v56q0 14 -10 24t-25 10h-21q-14 0 -24 10t-10 25v148q0 14 10 24t24 10h148
q14 0 24 -10t11 -24v-148q-1 -15 -11 -25t-24 -10z" />
    <glyph glyph-name="bar.ss4" unicode="&#xe110;" horiz-adv-x="385" 
d="M198 119q13 1 8 579q-6 578 -20 578t-8 -578t20 -579zM193 1546q29 0 29 -840t-30 -839q-28 -1 -28 839t29 840z" />
    <glyph glyph-name="bar.ss5" unicode="&#xe111;" horiz-adv-x="489" 
d="M225 948l123 19l-80 -492l140 21l-250 -627l104 602l-121 -16l80 487l-139 -18l227 618z" />
    <glyph glyph-name="slash.ss1" unicode="&#xe112;" horiz-adv-x="630" 
d="M74 -27q-31 -12 -63 -2t-45 42t-1 63l547 1341q12 31 46 44t65 1t42 -42t-1 -62l-547 -1340q-12 -33 -43 -45z" />
    <glyph glyph-name="slash.ss2" unicode="&#xe113;" horiz-adv-x="626" 
d="M688 1628l-534 -1601q-18 -59 -80 -60q-35 0 -60 22q-43 38 -12 103z" />
    <glyph glyph-name="slash.ss3" unicode="&#xe114;" horiz-adv-x="825" 
d="M602 1470h191q43 0 62 -28t3 -66l-496 -1280q-14 -40 -56 -68t-85 -28h-190q-41 0 -60 29q-18 29 -4 67l496 1280q16 38 57 66t82 28zM793 1413h-191q-63 0 -84 -59l-498 -1280q-6 -16 11 -17h190q25 1 51 19t35 41l498 1280q6 16 -12 16z" />
    <glyph glyph-name="slash.ss4" unicode="&#xe115;" horiz-adv-x="712" 
d="M120 244q58 0 99 -42t41 -101q0 -58 -41 -98t-99 -40t-100 41q-41 41 -40 98q0 57 40 100q42 42 100 42zM379 410q0 -58 -42 -100t-99 -42t-98 41q-40 41 -40 99t40 101q40 42 98 42t99 -42q42 -42 42 -99zM498 717q0 -57 -42 -99t-100 -43q-58 0 -99 42q-42 41 -42 99
t42 100t99 42q58 0 100 -42t42 -99zM614 1024q0 -57 -40 -99t-97 -42t-100 42t-43 99t42 98t100 41t98 -41t40 -98zM733 1331q0 -57 -40 -99t-98 -42t-99 42t-41 100t40 98t99 40t99 -41t40 -98z" />
    <glyph glyph-name="slash.ss5" unicode="&#xe116;" horiz-adv-x="630" 
d="M88 -16q-23 16 -64 16t-65 -16q133 252 298 684t259 733l27 84q47 -29 121 -2l8 2q-186 -354 -461 -1135q-68 -190 -96 -278z" />
    <glyph glyph-name="VTF" unicode="&#xe117;" horiz-adv-x="2953" 
d="M2265 1436h647v-691h-76v195q0 188 -117 297q-118 109 -286 109h-168v90zM2488 1040h74v-725h-74v62q0 125 -47 182t-190 64h-174v-297q4 -104 47 -166t97 -78q54 -18 130 -19h35v-63h-668v63q64 -1 102 7q105 20 136 112q18 55 18 144v551h103v-164h174q238 0 237 245
v82zM1473 1186h501v67h-1077v-67h494v-1002h82v1002zM836 1315h1200v-191h-502v-1001h-205v1001h-493v191zM1595 1065h502v309h-1323v-309h494v-1004h327v1004zM2159 1436v-432h-502v-1004h-451v1004h-493v432h1446zM418 942q0 -112 28 -245q28 -134 85 -284
q58 -150 124 -253l27 -41l401 741v-860h-458l-748 1436h686q-19 -19 -48 -65q-28 -46 -47 -96q-18 -49 -34 -135t-16 -198z" />
  </font>
</defs>
</svg>
